<svg width="15" height="16" viewBox="0 0 15 16" fill="none" xmlns="http://www.w3.org/2000/svg">
<path d="M14.0058 6.64875H8.40346V0.949821C8.40346 0.697913 8.30509 0.456322 8.12998 0.278196C7.95487 0.10007 7.71738 0 7.46974 0C7.2221 0 6.98461 0.10007 6.8095 0.278196C6.6344 0.456322 6.53602 0.697913 6.53602 0.949821V6.64875H0.933718C0.68608 6.64875 0.448586 6.74882 0.27348 6.92694C0.0983737 7.10507 0 7.34666 0 7.59857C0 7.85047 0.0983737 8.09206 0.27348 8.27019C0.448586 8.44832 0.68608 8.54839 0.933718 8.54839H6.53602V14.2473C6.53602 14.4992 6.6344 14.7408 6.8095 14.9189C6.98461 15.0971 7.2221 15.1971 7.46974 15.1971C7.71738 15.1971 7.95487 15.0971 8.12998 14.9189C8.30509 14.7408 8.40346 14.4992 8.40346 14.2473V8.54839H14.0058C14.2534 8.54839 14.4909 8.44832 14.666 8.27019C14.8411 8.09206 14.9395 7.85047 14.9395 7.59857C14.9395 7.34666 14.8411 7.10507 14.666 6.92694C14.4909 6.74882 14.2534 6.64875 14.0058 6.64875Z" fill="#0C0C0C"/>
</svg>
