<svg width="171" height="229" viewBox="0 0 171 229" fill="none" xmlns="http://www.w3.org/2000/svg">
<path d="M26.5447 207.677C26.5447 207.677 25.9509 181.167 50.7529 168.148C50.7529 168.148 51.0969 193.195 26.5447 207.677Z" fill="#0C0C0C"/>
<path d="M28.4037 205.168C28.3555 205.168 28.3081 205.157 28.2661 205.135C28.2241 205.114 28.1891 205.082 28.1645 205.044C28.1398 205.007 28.1264 204.964 28.1255 204.92C28.1247 204.876 28.1364 204.832 28.1595 204.794L48.2442 171.37C48.2795 171.311 48.3391 171.267 48.4099 171.248C48.4807 171.229 48.5568 171.236 48.6216 171.269C48.6864 171.301 48.7344 171.355 48.7553 171.42C48.7761 171.484 48.7679 171.553 48.7326 171.612L28.6479 205.037C28.624 205.077 28.5886 205.11 28.5457 205.133C28.5027 205.156 28.4537 205.168 28.4037 205.168Z" fill="#7A41E3"/>
<path d="M24.0583 203.297C24.0583 203.297 17.9536 177.374 39.5977 160.302C39.5977 160.302 45.1475 184.834 24.0583 203.297Z" fill="#7A41E3"/>
<path d="M25.2846 200.515H25.2014C25.1315 200.494 25.0735 200.449 25.0402 200.389C25.0069 200.329 25.001 200.26 25.0238 200.196L37.7883 163.904C37.7992 163.871 37.8172 163.84 37.8412 163.813C37.8653 163.786 37.8949 163.764 37.9284 163.747C37.9619 163.731 37.9986 163.721 38.0365 163.717C38.0743 163.714 38.1126 163.717 38.149 163.727C38.1854 163.737 38.2194 163.753 38.2489 163.775C38.2783 163.797 38.3028 163.824 38.3208 163.855C38.3389 163.885 38.3501 163.919 38.354 163.953C38.3578 163.988 38.3542 164.022 38.3432 164.056L25.5787 200.348C25.5578 200.402 25.5172 200.448 25.4638 200.478C25.4103 200.509 25.3471 200.521 25.2846 200.515Z" fill="#0C0C0C"/>
<path d="M24.5134 209.063C24.5134 209.063 21.9716 187.121 0 178.714C0 178.734 2.5862 199.447 24.5134 209.063Z" fill="#0C0C0C"/>
<path d="M22.6652 207.212C22.6208 207.212 22.5769 207.202 22.5373 207.184C22.4977 207.165 22.4635 207.138 22.4377 207.105L2.02559 181.425C2.00409 181.398 1.98862 181.368 1.98005 181.335C1.97148 181.303 1.96999 181.27 1.97566 181.237C1.98133 181.204 1.99405 181.172 2.01309 181.144C2.03213 181.115 2.05713 181.091 2.08664 181.071C2.11616 181.052 2.14962 181.037 2.18512 181.03C2.22062 181.022 2.25746 181.02 2.29353 181.026C2.32961 181.031 2.36421 181.042 2.39537 181.06C2.42653 181.077 2.45363 181.1 2.47513 181.127L22.8872 206.812C22.9166 206.85 22.9341 206.894 22.9379 206.94C22.9417 206.986 22.9316 207.032 22.9088 207.073C22.8859 207.114 22.8511 207.149 22.8082 207.173C22.7653 207.198 22.7158 207.211 22.6652 207.212Z" fill="#7A41E3"/>
<path d="M23.2369 204.49C23.2369 204.49 42.9165 177.379 26.5668 149.078C26.5723 149.078 8.2081 174.824 23.2369 204.49Z" fill="#0C0C0C"/>
<path d="M23.298 200.773C23.2615 200.771 23.2258 200.762 23.193 200.748C23.1601 200.733 23.1307 200.713 23.1065 200.688C23.0823 200.663 23.0637 200.634 23.0518 200.602C23.0399 200.571 23.0349 200.538 23.0371 200.504L26.2449 153.853C26.2471 153.82 26.2565 153.788 26.2724 153.758C26.2884 153.728 26.3107 153.701 26.338 153.679C26.3653 153.657 26.3971 153.64 26.4316 153.629C26.4661 153.618 26.5026 153.614 26.5391 153.616C26.5755 153.618 26.6112 153.626 26.644 153.641C26.6768 153.655 26.7062 153.675 26.7304 153.7C26.7546 153.725 26.7732 153.754 26.7852 153.786C26.7971 153.817 26.8021 153.85 26.7999 153.884L23.5755 200.515C23.5762 200.548 23.5696 200.582 23.556 200.613C23.5424 200.644 23.522 200.673 23.4962 200.697C23.4703 200.721 23.4395 200.74 23.4055 200.753C23.3714 200.766 23.3349 200.773 23.298 200.773Z" fill="#7A41E3"/>
<path d="M22.3934 203.549C22.3934 203.549 28.4982 177.627 6.854 160.555C6.854 160.555 1.3042 185.087 22.3934 203.549Z" fill="#7A41E3"/>
<path d="M21.1447 200.768C21.0853 200.768 21.0275 200.751 20.9795 200.719C20.9316 200.687 20.8961 200.642 20.8783 200.59L8.11378 164.298C8.10285 164.265 8.0992 164.23 8.10305 164.196C8.10689 164.161 8.11815 164.128 8.13619 164.097C8.15423 164.067 8.17869 164.04 8.20817 164.018C8.23765 163.996 8.27159 163.98 8.30803 163.97C8.34447 163.96 8.3827 163.956 8.42055 163.96C8.4584 163.963 8.49512 163.974 8.52862 163.99C8.56212 164.006 8.59174 164.029 8.61578 164.056C8.63983 164.082 8.65783 164.113 8.66876 164.147L21.4333 200.439C21.456 200.502 21.4501 200.572 21.4168 200.632C21.3835 200.691 21.3256 200.737 21.2557 200.757L21.1447 200.768Z" fill="#0C0C0C"/>
<path d="M42.2116 201.739L38.7429 228.461H7.94164L4.47302 201.739C16.9446 199.614 29.74 199.614 42.2116 201.739Z" fill="#4E86F7"/>
<path d="M32.8715 214.637C27.2773 215.183 26.073 215.987 24.6855 221.632C23.9752 224.515 21.1503 226.857 18.5364 228.461H24.5801C26.8415 226.668 28.2962 224.177 28.6647 221.465C29.4528 216.24 33.4764 216.66 37.8219 217.126C38.6134 217.215 39.4123 217.237 40.2083 217.191L40.8243 212.447C39.2482 213.802 36.6231 214.268 32.8715 214.637Z" fill="#F5C044"/>
<path d="M20.0567 215.396C19.8736 209.705 20.4729 207.429 28.7532 207.262C34.1199 207.151 36.312 203.539 37.2 201.01C35.6424 200.818 34.0847 200.649 32.5271 200.504C31.9166 202.558 29.8909 205.168 23.4865 204.961C13.0362 204.622 19.2797 213.433 14.0962 216.255C11.0217 217.93 8.10802 216.68 6.25439 215.391L6.80937 219.771C12.337 223.124 20.2288 220.621 20.0567 215.396Z" fill="#F5C044"/>
<path d="M11.4546 208.648C9.30128 209.154 8.16912 213.241 11.5489 213.241C14.9288 213.241 15.062 207.808 11.4546 208.648Z" fill="#F5C044"/>
<path d="M139.083 61.4361L136.047 67.6981H130.547L127.917 62.2606L133.3 61.689L139.083 61.4361Z" fill="#0C0C0C"/>
<path d="M147.541 34.102C147.586 35.8589 147.239 37.6057 146.519 39.2362C145.8 40.8667 144.724 42.3467 143.357 43.586C141.831 45.0089 140.868 46.8544 140.621 48.8313L139.549 56.5803H127.012L125.941 48.8262C125.681 46.8276 124.706 44.9628 123.166 43.5202C121.522 42.0129 120.309 40.1612 119.632 38.1272C118.955 36.0931 118.836 33.9389 119.285 31.8531C119.733 29.7674 120.736 27.8137 122.206 26.1633C123.675 24.5129 125.567 23.2161 127.714 22.3865C129.861 21.5568 132.198 21.2197 134.522 21.4046C136.845 21.5895 139.083 22.2908 141.04 23.447C142.997 24.6033 144.613 26.1792 145.746 28.0368C146.879 29.8943 147.496 31.9769 147.541 34.102Z" fill="#4E86F7"/>
<path d="M133.284 43.0042C132.916 43.0042 132.556 42.9049 132.251 42.7187C131.945 42.5325 131.707 42.2678 131.566 41.9582C131.425 41.6486 131.388 41.3079 131.46 40.9792C131.532 40.6505 131.709 40.3486 131.969 40.1116C132.229 39.8746 132.56 39.7132 132.921 39.6479C133.282 39.5825 133.655 39.616 133.995 39.7443C134.335 39.8725 134.625 40.0897 134.829 40.3684C135.034 40.647 135.143 40.9746 135.143 41.3098C135.143 41.5323 135.095 41.7526 135.001 41.9582C134.908 42.1638 134.771 42.3506 134.598 42.5079C134.426 42.6653 134.221 42.7901 133.995 42.8753C133.77 42.9604 133.528 43.0042 133.284 43.0042ZM133.284 40.0554C133.01 40.0554 132.743 40.1292 132.516 40.2676C132.289 40.406 132.112 40.6027 132.007 40.8328C131.902 41.063 131.875 41.3162 131.928 41.5605C131.982 41.8049 132.113 42.0293 132.306 42.2054C132.5 42.3816 132.746 42.5015 133.014 42.5501C133.282 42.5987 133.56 42.5738 133.812 42.4784C134.065 42.3831 134.281 42.2217 134.433 42.0146C134.584 41.8074 134.666 41.5639 134.666 41.3148C134.667 41.1486 134.632 40.9837 134.564 40.8297C134.495 40.6758 134.393 40.5357 134.265 40.4177C134.136 40.2997 133.983 40.206 133.815 40.1421C133.647 40.0781 133.466 40.0452 133.284 40.0452V40.0554Z" fill="#E2E2E2"/>
<path d="M133.284 56.3376C133.22 56.3376 133.16 56.3146 133.115 56.2738C133.07 56.2331 133.045 56.1777 133.045 56.12V42.7868C133.045 42.7291 133.07 42.6738 133.115 42.633C133.16 42.5922 133.22 42.5693 133.284 42.5693C133.347 42.5693 133.408 42.5922 133.452 42.633C133.497 42.6738 133.522 42.7291 133.522 42.7868V56.1251C133.521 56.1819 133.495 56.2359 133.45 56.2756C133.406 56.3153 133.346 56.3376 133.284 56.3376Z" fill="#E2E2E2"/>
<path d="M133.284 38.8313C133.22 38.8313 133.16 38.8084 133.115 38.7676C133.07 38.7268 133.045 38.6715 133.045 38.6138V36.4186C133.045 36.3609 133.07 36.3056 133.115 36.2648C133.16 36.224 133.22 36.2011 133.284 36.2011C133.347 36.2011 133.408 36.224 133.452 36.2648C133.497 36.3056 133.522 36.3609 133.522 36.4186V38.6088C133.523 38.6377 133.517 38.6666 133.506 38.6935C133.494 38.7205 133.477 38.7451 133.454 38.7658C133.432 38.7866 133.406 38.803 133.376 38.8143C133.347 38.8255 133.315 38.8313 133.284 38.8313Z" fill="#E2E2E2"/>
<path d="M135.376 39.6204C135.329 39.6196 135.284 39.6064 135.246 39.5825C135.207 39.5585 135.177 39.5248 135.16 39.4856C135.142 39.4463 135.137 39.4032 135.146 39.3616C135.155 39.3199 135.177 39.2815 135.209 39.2511L136.908 37.7033C136.93 37.6831 136.956 37.667 136.985 37.656C137.014 37.6451 137.045 37.6394 137.077 37.6394C137.108 37.6394 137.139 37.6451 137.168 37.656C137.197 37.667 137.224 37.6831 137.246 37.7033C137.268 37.7236 137.286 37.7476 137.298 37.7741C137.31 37.8006 137.316 37.829 137.316 37.8576C137.316 37.8863 137.31 37.9146 137.298 37.9411C137.286 37.9676 137.268 37.9916 137.246 38.0119L135.542 39.5394C135.522 39.5625 135.497 39.5816 135.468 39.5955C135.44 39.6095 135.408 39.6179 135.376 39.6204Z" fill="#E2E2E2"/>
<path d="M138.65 41.5263H136.247C136.184 41.5263 136.123 41.5035 136.078 41.4628C136.034 41.4221 136.009 41.3669 136.009 41.3093C136.009 41.2517 136.034 41.1965 136.078 41.1558C136.123 41.1151 136.184 41.0923 136.247 41.0923H138.65C138.714 41.0923 138.774 41.1151 138.819 41.1558C138.864 41.1965 138.889 41.2517 138.889 41.3093C138.889 41.3669 138.864 41.4221 138.819 41.4628C138.774 41.5035 138.714 41.5263 138.65 41.5263Z" fill="#E2E2E2"/>
<path d="M137.08 44.982C137.017 44.9809 136.957 44.9573 136.913 44.9162L135.215 43.3684C135.17 43.3275 135.145 43.272 135.145 43.2141C135.145 43.1563 135.17 43.1008 135.215 43.0599C135.26 43.019 135.321 42.996 135.384 42.996C135.448 42.996 135.509 43.019 135.554 43.0599L137.252 44.6077C137.287 44.6381 137.31 44.6774 137.32 44.7204C137.33 44.7634 137.325 44.8081 137.307 44.8486C137.288 44.8891 137.256 44.9235 137.216 44.9473C137.175 44.9711 137.128 44.9832 137.08 44.982Z" fill="#E2E2E2"/>
<path d="M129.488 44.982C129.441 44.9812 129.396 44.968 129.357 44.9441C129.319 44.9201 129.289 44.8864 129.271 44.8472C129.254 44.8079 129.249 44.7648 129.258 44.7232C129.266 44.6815 129.289 44.6431 129.321 44.6127L131.019 43.0649C131.041 43.0447 131.068 43.0286 131.097 43.0176C131.126 43.0067 131.157 43.001 131.189 43.001C131.22 43.001 131.251 43.0067 131.28 43.0176C131.309 43.0286 131.336 43.0447 131.358 43.0649C131.38 43.0852 131.398 43.1092 131.41 43.1357C131.422 43.1622 131.428 43.1906 131.428 43.2192C131.428 43.2479 131.422 43.2762 131.41 43.3027C131.398 43.3292 131.38 43.3532 131.358 43.3735L129.66 44.9213C129.637 44.9413 129.61 44.957 129.58 44.9674C129.551 44.9778 129.519 44.9828 129.488 44.982Z" fill="#E2E2E2"/>
<path d="M130.326 41.5263H127.923C127.859 41.5263 127.799 41.5035 127.754 41.4628C127.709 41.4221 127.684 41.3669 127.684 41.3093C127.684 41.2517 127.709 41.1965 127.754 41.1558C127.799 41.1151 127.859 41.0923 127.923 41.0923H130.326C130.389 41.0923 130.45 41.1151 130.494 41.1558C130.539 41.1965 130.564 41.2517 130.564 41.3093C130.564 41.3669 130.539 41.4221 130.494 41.4628C130.45 41.5035 130.389 41.5263 130.326 41.5263Z" fill="#E2E2E2"/>
<path d="M131.191 39.6204C131.128 39.6193 131.069 39.5957 131.025 39.5547L129.321 38.022C129.299 38.0018 129.281 37.9777 129.269 37.9513C129.257 37.9248 129.251 37.8964 129.251 37.8678C129.251 37.8391 129.257 37.8108 129.269 37.7843C129.281 37.7578 129.299 37.7338 129.321 37.7135C129.343 37.6932 129.37 37.6772 129.399 37.6662C129.428 37.6552 129.459 37.6496 129.49 37.6496C129.522 37.6496 129.553 37.6552 129.582 37.6662C129.611 37.6772 129.637 37.6932 129.66 37.7135L131.358 39.2613C131.387 39.292 131.406 39.3295 131.413 39.3695C131.42 39.4096 131.414 39.4506 131.397 39.488C131.379 39.5253 131.351 39.5575 131.315 39.5809C131.278 39.6043 131.236 39.618 131.191 39.6204Z" fill="#E2E2E2"/>
<path d="M140.254 59.4482C140.08 59.6123 139.856 59.7251 139.61 59.772C139.878 59.7825 140.131 59.8876 140.316 60.0651C140.5 60.2426 140.601 60.4785 140.598 60.7229C140.595 61.0017 140.476 61.2691 140.265 61.4715C140.05 61.6759 139.759 61.8003 139.449 61.8205L127.173 62.6146C127.028 62.6281 126.882 62.6136 126.743 62.5722C126.604 62.5308 126.477 62.4633 126.369 62.3742C126.26 62.2851 126.174 62.1762 126.114 62.0547C126.055 61.9332 126.025 61.8017 126.025 61.6688C126.026 61.3886 126.148 61.1201 126.363 60.9202C126.538 60.7526 126.764 60.6378 127.012 60.5914C126.745 60.5796 126.493 60.4741 126.309 60.2969C126.125 60.1197 126.023 59.8845 126.025 59.6405C126.03 59.3829 126.133 59.135 126.316 58.9386C126.499 58.7423 126.751 58.6096 127.029 58.5631C126.759 58.5552 126.502 58.4513 126.315 58.2737C126.127 58.0961 126.023 57.8587 126.025 57.6121C126.027 57.3336 126.149 57.067 126.363 56.8686C126.574 56.661 126.864 56.5344 127.173 56.5145L139.438 55.7255C139.584 55.712 139.731 55.7266 139.87 55.7683C140.009 55.81 140.137 55.8779 140.245 55.9676C140.354 56.0573 140.44 56.1667 140.499 56.2888C140.558 56.4109 140.588 56.543 140.587 56.6764C140.585 56.954 140.466 57.2202 140.254 57.4199C140.083 57.5882 139.857 57.7032 139.61 57.7487C139.881 57.7553 140.138 57.8588 140.326 58.0367C140.514 58.2146 140.618 58.4527 140.615 58.6996C140.607 58.9826 140.477 59.2513 140.254 59.4482Z" fill="#7A41E3"/>
<path d="M127.462 58.7604C127.388 58.7604 127.318 58.7337 127.266 58.6863C127.214 58.6388 127.185 58.5745 127.185 58.5074C127.185 58.4404 127.214 58.376 127.266 58.3286C127.318 58.2812 127.388 58.2545 127.462 58.2545L139.056 57.4958C139.129 57.4916 139.201 57.5135 139.257 57.5569C139.313 57.6003 139.348 57.6619 139.355 57.7285C139.358 57.7617 139.354 57.7952 139.343 57.8269C139.332 57.8587 139.314 57.8881 139.29 57.9135C139.266 57.9389 139.237 57.9597 139.205 57.9748C139.172 57.99 139.136 57.9991 139.1 58.0016L127.484 58.7604H127.462Z" fill="#0C0C0C"/>
<path d="M127.462 60.7836C127.388 60.7836 127.318 60.757 127.266 60.7096C127.214 60.6621 127.185 60.5978 127.185 60.5307C127.185 60.4637 127.214 60.3993 127.266 60.3519C127.318 60.3045 127.388 60.2778 127.462 60.2778L138.911 59.4989C138.985 59.4942 139.057 59.5163 139.113 59.5604C139.169 59.6045 139.203 59.667 139.208 59.7341C139.213 59.8012 139.189 59.8673 139.141 59.9181C139.092 59.9688 139.024 60 138.95 60.0047L127.484 60.7836H127.462Z" fill="#0C0C0C"/>
<path d="M143.029 30.5123C144.042 29.618 143.538 27.6473 141.904 26.1107C140.27 24.574 138.125 24.0532 137.112 24.9475C136.1 25.8417 136.604 27.8124 138.237 29.3491C139.871 30.8858 142.017 31.4065 143.029 30.5123Z" fill="#F5C044"/>
<path d="M135.354 0L134.316 17.4556H132.229L131.191 0H135.354Z" fill="#F5C044"/>
<path d="M108.077 8.73541L120.88 21.7449L119.409 23.0904L105.135 11.4213L108.077 8.73541Z" fill="#F5C044"/>
<path d="M95.567 32.4935L114.714 33.4393V35.3412L95.567 36.2871V32.4935Z" fill="#F5C044"/>
<path d="M105.146 57.3542L119.426 45.68L120.897 47.0255L108.093 60.035L105.146 57.3542Z" fill="#F5C044"/>
<path d="M158.491 60.0199L145.682 47.0103L147.158 45.6649L161.432 57.3391L158.491 60.0199Z" fill="#F5C044"/>
<path d="M171 36.2668L151.853 35.3209V33.4191L171 32.4732V36.2668Z" fill="#F5C044"/>
<path d="M161.421 11.406L147.141 23.0751L145.671 21.7297L158.474 8.72015L161.421 11.406Z" fill="#F5C044"/>
<path d="M106.683 196.974L106.478 201.855L106.195 208.608H101.2L100.69 203.696L99.9515 196.595L106.683 196.974Z" fill="#9E5350"/>
<path d="M106.683 196.974L106.478 201.855L100.69 203.696L99.9515 196.595L106.683 196.974Z" fill="#0C0C0C"/>
<path d="M96.8769 227.282L121.368 227.348C121.368 227.348 122.389 218.476 114.409 217.338C114.169 217.303 113.933 217.247 113.704 217.171C109.386 215.719 107.377 206.969 107.377 206.969C107.377 206.969 102.244 205.831 99.1912 207.414C99.1912 207.414 97.1211 216.569 96.7881 224.419C96.7382 225.466 96.8436 226.306 96.8769 227.282Z" fill="#0C0C0C"/>
<path d="M110.669 219.073C110.634 219.079 110.598 219.079 110.563 219.073C109.009 218.364 107.695 217.283 106.761 215.947C104.542 213.003 103.038 207.561 102.977 207.348C102.959 207.281 102.971 207.21 103.011 207.152C103.05 207.093 103.114 207.051 103.187 207.035C103.261 207.018 103.339 207.03 103.403 207.066C103.468 207.102 103.514 207.16 103.531 207.227C103.531 207.282 105.069 212.791 107.239 215.679C108.111 216.914 109.322 217.92 110.752 218.597C110.804 218.622 110.847 218.66 110.873 218.708C110.9 218.756 110.909 218.81 110.9 218.863C110.891 218.916 110.864 218.964 110.822 219.002C110.78 219.04 110.727 219.065 110.669 219.073Z" fill="#7A41E3"/>
<path d="M96.6273 227.51H121.529C121.529 227.51 122.5 218.345 114.52 217.206C114.28 217.171 114.044 217.115 113.815 217.04C111.495 217.813 108.426 219.73 107.283 224.455H96.6495C96.6051 225.507 96.594 226.534 96.6273 227.51Z" fill="#7A41E3"/>
<path d="M100.873 219.361C101.802 219.361 102.554 218.03 102.554 216.387C102.554 214.744 101.802 213.413 100.873 213.413C99.9442 213.413 99.1913 214.744 99.1913 216.387C99.1913 218.03 99.9442 219.361 100.873 219.361Z" fill="#7A41E3"/>
<path d="M98.7251 194.91C98.7251 194.91 92.2541 150.651 90.2173 138.846C90.2173 138.846 87.4424 101.754 97.987 101.077C108.532 100.399 112.788 111.026 113.526 118.274C114.265 125.523 109.642 185.714 107.605 195.158L98.7251 194.91Z" fill="#4E86F7"/>
<path d="M112.211 117.399C112.175 117.407 112.137 117.407 112.1 117.399C107.749 115.376 106.611 110.136 106.55 109.913C106.546 109.86 106.563 109.807 106.598 109.764C106.634 109.721 106.686 109.692 106.744 109.682C106.801 109.672 106.861 109.682 106.912 109.709C106.962 109.737 106.999 109.781 107.017 109.832C107.017 109.883 108.16 115.062 112.305 117.015C112.341 117.04 112.369 117.074 112.384 117.113C112.399 117.152 112.402 117.194 112.392 117.234C112.382 117.275 112.36 117.312 112.328 117.341C112.296 117.37 112.255 117.39 112.211 117.399Z" fill="#9E5350"/>
<path d="M110.298 157.768C110.307 154.137 108.217 151.189 105.63 151.183C103.043 151.178 100.939 154.118 100.93 157.749C100.921 161.381 103.011 164.329 105.598 164.334C108.184 164.34 110.289 161.4 110.298 157.768Z" fill="#F5C044"/>
<path d="M101.317 194.536C101.257 194.536 101.2 194.516 101.156 194.479C101.111 194.443 101.084 194.393 101.078 194.339C98.7473 168.466 94.1854 132.366 94.141 132.002C94.1339 131.972 94.1337 131.942 94.1403 131.912C94.147 131.882 94.1605 131.854 94.1798 131.829C94.1991 131.805 94.2239 131.784 94.2526 131.768C94.2813 131.753 94.3132 131.743 94.3463 131.74C94.3793 131.736 94.4129 131.739 94.4447 131.748C94.4765 131.757 94.5059 131.772 94.531 131.792C94.5561 131.812 94.5764 131.836 94.5904 131.864C94.6045 131.891 94.6121 131.921 94.6127 131.952C94.6571 132.311 99.2191 168.421 101.55 194.298C101.555 194.355 101.534 194.411 101.494 194.455C101.454 194.498 101.396 194.526 101.334 194.531L101.317 194.536Z" fill="#9E5350"/>
<path d="M95.9502 194.404C95.9502 194.404 104.092 192.042 110.285 194.657L109.358 201.319L96.4108 201.405L95.9502 194.404Z" fill="#F5C044"/>
<path d="M94.868 125.806C94.8118 125.807 94.7569 125.791 94.7128 125.759C94.6688 125.727 94.6384 125.682 94.6272 125.632C94.6159 125.582 94.6244 125.53 94.6512 125.485C94.678 125.44 94.7213 125.405 94.7736 125.386C96.4941 124.734 98.4143 123.828 98.5197 123.499C98.6696 123.024 99.0081 114.577 99.2024 109.013C99.2015 108.984 99.2073 108.955 99.2194 108.928C99.2316 108.902 99.2497 108.877 99.2727 108.857C99.2957 108.837 99.3231 108.822 99.353 108.812C99.383 108.802 99.4148 108.798 99.4466 108.8C99.4779 108.801 99.5088 108.807 99.5375 108.819C99.5662 108.831 99.592 108.847 99.6137 108.868C99.6353 108.888 99.6523 108.913 99.6636 108.939C99.6749 108.966 99.6804 108.994 99.6796 109.023C99.6297 110.449 99.1857 122.978 98.9748 123.621C98.7639 124.263 95.8392 125.447 94.9512 125.781C94.9255 125.794 94.8972 125.802 94.868 125.806Z" fill="#9E5350"/>
<path d="M78.4242 108.143C78.4242 108.143 75.6493 110.864 75.5827 111.431C75.5161 111.997 63.3732 179.149 61.7083 197.692H69.8498C69.8498 197.692 95.5619 130.925 96.1169 128.057C96.6719 125.189 97.2269 108.497 97.0437 103.778C96.8606 99.0585 83.8352 99.6908 78.4242 108.143Z" fill="#4E86F7"/>
<path d="M96.1389 128.274H96.0945C96.0635 128.269 96.0338 128.259 96.0072 128.244C95.9807 128.228 95.9577 128.208 95.9396 128.185C95.9216 128.161 95.9088 128.135 95.902 128.107C95.8953 128.079 95.8947 128.05 95.9003 128.021C96.322 125.851 96.7716 115.209 96.8493 108.021C96.8468 107.992 96.8512 107.963 96.8623 107.936C96.8735 107.908 96.891 107.883 96.9136 107.863C96.9363 107.842 96.9636 107.826 96.9937 107.816C97.0238 107.806 97.056 107.802 97.0879 107.804C97.1503 107.805 97.2095 107.829 97.2531 107.869C97.2967 107.91 97.321 107.965 97.321 108.021C97.2544 114.466 96.8215 125.725 96.3664 128.092C96.3575 128.142 96.3299 128.187 96.2884 128.22C96.2469 128.254 96.1941 128.273 96.1389 128.274Z" fill="#9E5350"/>
<path d="M75.9267 118.664C75.8635 118.664 75.8028 118.641 75.758 118.6C75.7132 118.559 75.6881 118.504 75.6881 118.446C75.6881 118.389 75.7132 118.333 75.758 118.293C75.8028 118.252 75.8635 118.229 75.9267 118.229C76.1432 118.229 81.2989 117.839 82.3645 111.709C82.3685 111.68 82.3789 111.653 82.3949 111.628C82.4109 111.603 82.4323 111.582 82.4577 111.565C82.4831 111.548 82.5121 111.536 82.5428 111.529C82.5735 111.523 82.6054 111.522 82.6364 111.527C82.699 111.536 82.7552 111.567 82.7926 111.613C82.8301 111.66 82.8458 111.718 82.8362 111.775C81.7263 118.259 76.0155 118.654 75.9545 118.659L75.9267 118.664Z" fill="#9E5350"/>
<path d="M69.6831 193.271H69.6054C69.5461 193.253 69.4971 193.214 69.469 193.163C69.441 193.112 69.4362 193.053 69.4556 192.998L92.6259 130.783C92.6341 130.754 92.6488 130.727 92.6691 130.703C92.6894 130.679 92.7149 130.66 92.744 130.645C92.773 130.631 92.805 130.623 92.8379 130.62C92.8708 130.618 92.9039 130.621 92.9351 130.631C92.9663 130.641 92.9949 130.657 93.0192 130.677C93.0434 130.698 93.0627 130.722 93.0759 130.75C93.0891 130.778 93.0959 130.807 93.0958 130.837C93.0957 130.868 93.0888 130.897 93.0754 130.925L69.9051 193.14C69.8865 193.179 69.8555 193.213 69.8159 193.236C69.7764 193.26 69.7302 193.272 69.6831 193.271Z" fill="#9E5350"/>
<path d="M78.1497 158.467C78.8019 154.885 77.2617 151.668 74.7097 151.282C72.1577 150.896 69.5602 153.487 68.908 157.07C68.2559 160.652 69.796 163.87 72.348 164.255C74.9001 164.641 77.4976 162.05 78.1497 158.467Z" fill="#F5C044"/>
<path d="M68.9896 196.595L67.258 203.58L66.0093 208.608H61.0145L61.8359 200.904L62.2577 196.974L68.9896 196.595Z" fill="#9E5350"/>
<path d="M62.2577 196.974L68.9896 196.595L67.2581 203.58L61.8359 200.904L62.2577 196.974Z" fill="#0C0C0C"/>
<path d="M70.2713 227.196L46.0243 227.323C46.0243 227.323 44.77 218.597 52.7562 217.459C53.0288 217.405 53.2961 217.331 53.5554 217.237C57.8731 215.785 59.8322 206.964 59.8322 206.964C59.8322 206.964 64.9657 205.826 68.0181 207.409C68.0181 207.409 70.0438 216.513 70.3768 224.384C70.4212 225.436 70.3046 226.22 70.2713 227.196Z" fill="#0C0C0C"/>
<path d="M56.5359 219.073C56.4623 219.086 56.3861 219.071 56.3242 219.033C56.2623 218.994 56.2196 218.935 56.2056 218.868C56.1917 218.801 56.2075 218.732 56.2496 218.675C56.2918 218.619 56.3568 218.58 56.4304 218.567C57.8781 217.888 59.1034 216.872 59.9823 215.623C62.1467 212.755 63.6729 207.227 63.6895 207.171C63.7072 207.104 63.7534 207.046 63.8179 207.01C63.8824 206.974 63.96 206.963 64.0336 206.979C64.1072 206.995 64.1708 207.037 64.2103 207.096C64.2499 207.155 64.2622 207.225 64.2445 207.292C64.1835 207.525 62.6795 212.968 60.4596 215.891C59.5264 217.228 58.2124 218.308 56.658 219.017C56.623 219.045 56.581 219.064 56.5359 219.073Z" fill="#7A41E3"/>
<path d="M70.5823 227.51H45.6804C45.6804 227.51 44.7092 218.345 52.6898 217.206C52.9299 217.171 53.1659 217.115 53.3946 217.04C55.7144 217.813 58.7834 219.73 59.9267 224.455H70.5601C70.6045 225.507 70.6156 226.534 70.5823 227.51Z" fill="#7A41E3"/>
<path d="M66.3366 219.361C67.2653 219.361 68.0182 218.03 68.0182 216.387C68.0182 214.744 67.2653 213.413 66.3366 213.413C65.4079 213.413 64.655 214.744 64.655 216.387C64.655 218.03 65.4079 219.361 66.3366 219.361Z" fill="#7A41E3"/>
<path d="M59.5104 193.727L58.5836 200.98L70.8875 201.739L72.8299 194.996C72.8299 194.996 65.8927 192.209 59.5104 193.727Z" fill="#F5C044"/>
<path d="M111.723 64.7695C111.723 64.7695 123.194 77.172 128.072 90.3535C128.49 91.4872 128.423 92.7229 127.884 93.8133C126.219 97.1567 123.111 104.117 121.224 105.128C119.337 106.14 112.067 104.031 112.205 100.996C112.344 97.9609 114.786 90.5002 114.786 90.5002C114.786 90.5002 108.265 83.6717 103.409 77.4755C98.553 71.2793 103.814 59.6456 111.723 64.7695Z" fill="#7A41E3"/>
<path d="M123.239 91.1324C123.19 91.1335 123.142 91.123 123.1 91.1021C118.632 88.8057 115.658 90.6468 115.624 90.6671C115.594 90.6881 115.56 90.7034 115.524 90.712C115.487 90.7206 115.449 90.7224 115.412 90.7172C115.375 90.712 115.339 90.6999 115.307 90.6818C115.275 90.6636 115.248 90.6397 115.226 90.6115C115.205 90.5834 115.19 90.5515 115.182 90.5179C115.175 90.4842 115.175 90.4496 115.183 90.416C115.19 90.3823 115.205 90.3505 115.227 90.3224C115.248 90.2942 115.276 90.2704 115.308 90.2523C115.441 90.1663 118.604 88.229 123.372 90.662C123.423 90.6899 123.464 90.7324 123.487 90.783C123.51 90.8337 123.514 90.8898 123.499 90.9428C123.484 90.9959 123.451 91.043 123.404 91.0772C123.357 91.1114 123.299 91.1308 123.239 91.1324Z" fill="#0C0C0C"/>
<path d="M112.938 101.122L111.634 104.536C112.127 105.757 113.122 106.755 114.409 107.318C115.669 107.921 117.108 108.142 118.516 107.951L121.024 103.904C121.024 103.904 118.255 99.4379 112.938 101.122Z" fill="#0C0C0C"/>
<path d="M117.328 107.106C115.885 109.691 112.333 115.159 111.223 116.625C109.819 115.641 108.703 114.355 107.977 112.882C109.863 109.741 112.205 104.739 112.205 104.739C115.985 103.818 117.328 107.106 117.328 107.106Z" fill="#9E5350"/>
<path d="M92.5761 57.1823L87.548 57.0507L88.5469 47.7944L88.5858 47.4099L92.5039 47.9461L92.5317 51.1985L92.5761 57.1823Z" fill="#9E5350"/>
<path d="M92.5316 51.1732C89.9898 50.46 88.9576 48.9679 88.5469 47.7691L88.5857 47.3847L92.5039 47.9208L92.5316 51.1732Z" fill="#0C0C0C"/>
<path d="M76.8981 102.705C77.109 102.705 76.9702 108.902 77.1756 108.902C77.3809 108.902 81.8263 110.485 86.5436 110.293C91.2609 110.1 105.968 109.726 109.991 107.197L110.202 100.874C99.6522 104.051 88.5526 104.435 76.8981 102.705Z" fill="#0C0C0C"/>
<path d="M93.6747 103.722C93.6747 103.722 93.8134 109.989 93.8079 110.242C93.8023 110.495 101.899 110.02 102.216 109.903C102.532 109.787 102.332 103.201 102.332 103.201C102.332 103.201 99.2356 103.555 93.6747 103.722Z" fill="#F5C044"/>
<path d="M81.1323 102.893C81.1323 102.893 81.0269 110.166 81.1323 110.323C81.2378 110.48 83.1469 110.642 83.1469 110.642C83.1469 110.642 83.1136 102.958 83.0081 102.928C82.9027 102.898 81.3044 102.67 81.1323 102.893Z" fill="#F5C044"/>
<path d="M86.8208 103.242C86.8208 103.242 86.7153 110.515 86.8208 110.672C86.9262 110.829 88.6966 110.672 88.6966 110.672C88.6966 110.672 88.8021 103.307 88.6966 103.277C88.5912 103.247 86.9928 103.019 86.8208 103.242Z" fill="#F5C044"/>
<path d="M107.505 101.37C107.505 101.37 107.583 108.628 107.505 108.8C107.427 108.972 106.09 109.023 106.09 109.023C106.09 109.023 106.012 101.668 106.09 101.623C106.167 101.577 107.372 101.173 107.505 101.37Z" fill="#F5C044"/>
<path d="M83.5242 53.8287C85.8421 52.9664 88.3473 52.6036 90.8444 52.7685C93.3414 52.9335 95.763 53.6217 97.9203 54.7796L97.5041 58.8919L84.4288 59.6809L83.5242 53.8287Z" fill="#0C0C0C"/>
<path d="M112.416 100.237L110.407 101.562C110.407 101.562 96.4606 106.054 76.831 103.651L72.5966 100.111C72.6676 96.2398 72.4618 92.3689 71.9805 88.5225C71.7692 86.8616 71.4186 85.218 70.9316 83.6059C70.9316 83.5705 70.9316 83.5301 70.8928 83.4846C70.1491 81.0718 69.7828 77.349 69.5608 73.7122C69.4054 70.8038 69.3666 67.9561 69.3666 65.8772C69.3666 63.9399 69.4054 62.6804 69.4054 62.6804C69.6163 62.6804 80.3663 57.1822 90.428 57.0507C100.49 56.9192 111.723 64.7695 111.723 64.7695C111.723 64.7695 114.22 84.5569 112.416 100.237Z" fill="#7A41E3"/>
<path d="M113.071 87.3995C112.998 87.3995 112.927 87.3729 112.875 87.3254C112.823 87.278 112.794 87.2137 112.794 87.1466C112.794 77.9813 111.972 69.519 111.623 66.3121C111.619 66.2789 111.622 66.2453 111.633 66.2133C111.643 66.1813 111.661 66.1514 111.684 66.1256C111.707 66.0997 111.736 66.0783 111.768 66.0626C111.801 66.0468 111.836 66.0371 111.873 66.034C111.946 66.0283 112.019 66.0488 112.076 66.0913C112.133 66.1338 112.169 66.1949 112.178 66.2616C112.527 69.4785 113.343 77.956 113.354 87.1466C113.354 87.2137 113.325 87.278 113.273 87.3254C113.221 87.3729 113.15 87.3995 113.077 87.3995H113.071Z" fill="#0C0C0C"/>
<path d="M74.7221 75.3662C74.4391 79.008 73.7287 85.1385 71.9805 88.5173C71.7692 86.8565 71.4186 85.2128 70.9316 83.6008C70.9316 83.5654 70.9316 83.525 70.8928 83.4794C70.1491 81.0667 69.7828 77.3439 69.5608 73.7071C69.4054 70.7987 69.3666 67.951 69.3666 65.8721C70.7202 66.8083 71.8974 67.9392 72.8518 69.2206C74.2333 71.0116 74.8939 73.1825 74.7221 75.3662Z" fill="#0C0C0C"/>
<path d="M100.068 102.64C100.031 102.638 99.9957 102.631 99.9626 102.617C99.9294 102.603 99.8997 102.583 99.8749 102.559C99.8502 102.534 99.831 102.505 99.8184 102.474C99.8058 102.443 99.8001 102.41 99.8016 102.377C101.034 77.8093 91.3215 58.4923 91.2271 58.3001C91.2118 58.2698 91.2032 58.2372 91.2018 58.2039C91.2003 58.1706 91.2061 58.1374 91.2187 58.1062C91.2313 58.075 91.2506 58.0463 91.2753 58.0219C91.3001 57.9974 91.33 57.9776 91.3631 57.9637C91.3963 57.9498 91.4321 57.9419 91.4686 57.9406C91.5051 57.9392 91.5415 57.9445 91.5758 57.956C91.6101 57.9675 91.6415 57.9851 91.6683 58.0076C91.6952 58.0302 91.7169 58.0574 91.7322 58.0876C91.8321 58.2798 101.6 77.7132 100.362 102.402C100.36 102.435 100.351 102.468 100.335 102.498C100.319 102.528 100.297 102.554 100.269 102.576C100.242 102.599 100.21 102.616 100.175 102.626C100.141 102.637 100.104 102.642 100.068 102.64Z" fill="#0C0C0C"/>
<path d="M102.149 102.64C102.113 102.638 102.077 102.63 102.044 102.617C102.011 102.603 101.981 102.583 101.956 102.558C101.932 102.534 101.912 102.505 101.9 102.474C101.887 102.443 101.881 102.41 101.883 102.377C103.115 77.8193 93.6082 58.7401 93.5139 58.5529C93.4986 58.5227 93.49 58.49 93.4885 58.4567C93.4871 58.4235 93.4928 58.3903 93.5054 58.3591C93.5181 58.3278 93.5373 58.2992 93.5621 58.2747C93.5869 58.2502 93.6167 58.2305 93.6499 58.2165C93.683 58.2026 93.7189 58.1947 93.7554 58.1934C93.7918 58.1921 93.8283 58.1973 93.8625 58.2088C93.8968 58.2203 93.9283 58.2379 93.9551 58.2605C93.9819 58.2831 94.0036 58.3102 94.0189 58.3405C94.1133 58.5327 103.676 77.7131 102.438 102.402C102.434 102.468 102.401 102.53 102.347 102.575C102.293 102.619 102.222 102.642 102.149 102.64Z" fill="#0C0C0C"/>
<path d="M76.8979 99.5188C76.8615 99.5181 76.8255 99.5109 76.7922 99.4976C76.7588 99.4843 76.7286 99.4651 76.7033 99.4412C76.6781 99.4172 76.6582 99.3889 76.645 99.358C76.6317 99.3271 76.6253 99.294 76.626 99.2608C76.7647 93.616 74.5226 80.3839 74.5004 80.2524C74.4894 80.1853 74.508 80.117 74.5523 80.0624C74.5965 80.0079 74.6627 79.9716 74.7363 79.9615C74.8099 79.9514 74.8848 79.9684 74.9447 80.0088C75.0045 80.0491 75.0444 80.1094 75.0554 80.1765C75.0554 80.308 77.3253 93.5856 77.1865 99.2709C77.1858 99.3046 77.1777 99.3378 77.1628 99.3686C77.1478 99.3993 77.1263 99.4271 77.0994 99.4502C77.0725 99.4732 77.0408 99.4912 77.0062 99.503C76.9717 99.5148 76.9348 99.5201 76.8979 99.5188Z" fill="#0C0C0C"/>
<path d="M69.4057 62.6804L53.4501 77.4148L46.9291 95.1789C46.9291 95.1789 59.7657 93.6008 71.6978 81.9671C73.8481 78.8458 74.9568 75.2222 74.8889 71.5372C74.893 69.7549 74.39 68.002 73.429 66.4497C72.468 64.8974 71.0818 63.5987 69.4057 62.6804Z" fill="#7A41E3"/>
<path d="M71.6923 82.2199C71.6412 82.2201 71.5911 82.2075 71.5473 82.1835C71.5036 82.1594 71.468 82.1248 71.4445 82.0835C71.421 82.0422 71.4104 81.9957 71.414 81.9493C71.4176 81.9029 71.4351 81.8582 71.4648 81.8203C73.5717 78.7379 74.6621 75.1684 74.6059 71.5371C74.606 70.0359 74.2395 68.5536 73.533 67.1975C72.8265 65.8415 71.7977 64.6457 70.5213 63.697C70.4728 63.6526 70.444 63.5934 70.4406 63.5308C70.4373 63.4683 70.4595 63.4068 70.503 63.3583C70.5466 63.3098 70.6083 63.2778 70.6763 63.2684C70.7442 63.259 70.8136 63.273 70.8709 63.3075C72.211 64.3033 73.2912 65.5584 74.0332 66.9818C74.7752 68.4052 75.1604 69.9612 75.1609 71.5371C75.2115 75.2745 74.0805 78.9463 71.9032 82.1137C71.8791 82.1447 71.8476 82.1703 71.8111 82.1887C71.7745 82.2071 71.7339 82.2178 71.6923 82.2199Z" fill="#0C0C0C"/>
<path d="M50.2589 62.9333C50.2589 62.9333 46.7903 65.8417 45.3363 68.1836C43.8822 70.5255 41.2461 85.1284 42.0064 88.9877C42.7667 92.8471 46.929 95.1789 46.929 95.1789C46.929 95.1789 54.6987 92.5234 56.0862 86.0135C57.4736 79.5037 57.962 71.5978 57.7511 69.701C57.5402 67.8042 55.9475 64.9616 55.9475 64.9616L50.2589 62.9333Z" fill="#7A41E3"/>
<path d="M51.2079 93.1556C51.1506 93.1553 51.0947 93.1389 51.0481 93.1085C51.0015 93.0781 50.9663 93.0353 50.9475 92.9859C50.9286 92.9366 50.927 92.8831 50.9428 92.8329C50.9586 92.7827 50.9911 92.7382 51.0359 92.7055C53.6609 90.8137 55.2648 88.5527 55.8142 85.9883C56.5084 82.5756 56.9975 79.131 57.2794 75.6697C57.2814 75.6362 57.2909 75.6034 57.3073 75.5734C57.3236 75.5433 57.3465 75.5166 57.3745 75.4948C57.4026 75.4731 57.4351 75.4567 57.4703 75.4468C57.5054 75.4369 57.5424 75.4335 57.5791 75.437C57.6155 75.4396 57.6511 75.4487 57.6837 75.4638C57.7163 75.4789 57.7453 75.4998 57.769 75.5252C57.7928 75.5506 57.8108 75.58 57.822 75.6117C57.8332 75.6435 57.8374 75.6769 57.8343 75.7101C57.5514 79.1867 57.0605 82.6465 56.3636 86.0743C55.8087 88.7601 54.1437 91.1324 51.3688 93.095C51.3237 93.1304 51.2673 93.1517 51.2079 93.1556Z" fill="#0C0C0C"/>
<path d="M50.7692 60.1918L49.1042 64.3647C50.0678 65.2265 51.2225 65.8903 52.4908 66.3117C53.7592 66.7331 55.1117 66.9022 56.4577 66.8078L58.0283 62.6753C58.0283 62.6753 55.9027 59.0992 50.7692 60.1918Z" fill="#0C0C0C"/>
<path d="M61.5305 51.2692L58.7223 57.2732L56.7798 62.7107C53.2058 62.8675 51.7129 60.7532 51.7129 60.7532L54.2103 57.0507L54.1437 51.0467C54.1437 51.0467 55.5311 47.5363 55.8419 47.4402C56.7653 47.3704 57.6934 47.3704 58.6168 47.4402L59.5769 40.2172C59.5907 40.1124 59.627 40.0111 59.6839 39.9192C59.7408 39.8273 59.8171 39.7465 59.9085 39.6816C59.9998 39.6167 60.1043 39.569 60.216 39.5411C60.3277 39.5132 60.4444 39.5058 60.5592 39.5192C60.7693 39.5424 60.9631 39.634 61.1049 39.7771C61.2467 39.9203 61.3268 40.1053 61.3307 40.2981L61.5305 51.2692Z" fill="#9E5350"/>
<path d="M58.6502 52.8625C58.5671 52.8686 58.4836 52.8686 58.4005 52.8625C57.3405 52.7057 57.2406 51.1832 57.2295 51.0113C57.2295 50.9442 57.2587 50.8799 57.3108 50.8324C57.3628 50.785 57.4334 50.7584 57.507 50.7584C57.5806 50.7584 57.6512 50.785 57.7032 50.8324C57.7552 50.8799 57.7845 50.9442 57.7845 51.0113C57.7845 51.3451 57.9621 52.3061 58.4893 52.3871C58.8751 52.3997 59.2549 52.298 59.5721 52.0975C59.8892 51.8969 60.1265 51.6081 60.2486 51.2743C60.3348 50.1976 60.2337 49.1153 59.9489 48.0674C59.8545 47.8449 59.0831 47.6982 58.5836 47.6881C58.5472 47.6868 58.5114 47.6789 58.4783 47.665C58.4451 47.6511 58.4153 47.6313 58.3906 47.6069C58.3659 47.5825 58.3467 47.5538 58.3341 47.5226C58.3215 47.4914 58.3158 47.4583 58.3173 47.425C58.3263 47.3601 58.3602 47.3001 58.413 47.2557C58.4658 47.2113 58.5341 47.1853 58.6058 47.1823C58.8722 47.1823 60.2153 47.2581 60.4761 47.8904C60.7943 49.0313 60.903 50.2123 60.798 51.3856C60.6493 51.8027 60.3635 52.1681 59.9793 52.4323C59.5951 52.6965 59.1312 52.8467 58.6502 52.8625Z" fill="#0C0C0C"/>
<path d="M57.7956 55.599H57.7512C57.7151 55.5935 57.6805 55.5815 57.6495 55.5638C57.6184 55.546 57.5915 55.5228 57.5704 55.4956C57.5492 55.4683 57.5342 55.4375 57.5262 55.4049C57.5182 55.3723 57.5173 55.3385 57.5237 55.3057C57.7591 54.1865 57.6808 53.0313 57.2962 51.9471C57.2689 51.8847 57.27 51.815 57.2992 51.7533C57.3283 51.6917 57.3831 51.6431 57.4516 51.6183C57.52 51.5935 57.5965 51.5944 57.6641 51.621C57.7318 51.6476 57.7851 51.6975 57.8123 51.7599C58.2378 52.9305 58.3257 54.1811 58.0676 55.3916C58.0559 55.4497 58.0224 55.5022 57.9727 55.5401C57.923 55.578 57.8604 55.5988 57.7956 55.599Z" fill="#0C0C0C"/>
<path d="M57.4737 52.1089C57.1226 52.1108 56.7807 52.0058 56.5025 51.8105C56.4466 51.7669 56.412 51.7048 56.4062 51.6379C56.4005 51.5711 56.4242 51.5049 56.472 51.4539C56.5198 51.4029 56.5879 51.3713 56.6613 51.3661C56.7347 51.3609 56.8073 51.3825 56.8633 51.4261C56.9731 51.4994 57.098 51.5519 57.2305 51.5805C57.363 51.6092 57.5004 51.6134 57.6347 51.593C57.7083 51.5829 57.7833 51.5999 57.8431 51.6402C57.9029 51.6806 57.9428 51.7409 57.9538 51.808C57.9648 51.875 57.9462 51.9434 57.902 51.9979C57.8577 52.0524 57.7915 52.0887 57.7179 52.0988C57.6369 52.1076 57.5553 52.111 57.4737 52.1089Z" fill="#0C0C0C"/>
<path d="M59.0445 51.4715C58.9719 51.4715 58.9021 51.4456 58.8502 51.3992C58.7984 51.3529 58.7685 51.2899 58.767 51.2237C58.7972 50.6894 58.7046 50.1554 58.4951 49.6557C57.6948 49.6309 56.8938 49.6767 56.1031 49.7922C56.0667 49.7965 56.0297 49.7943 55.9942 49.7856C55.9587 49.7768 55.9255 49.7618 55.8964 49.7414C55.8375 49.7001 55.7991 49.6393 55.7896 49.5722C55.78 49.5051 55.8001 49.4373 55.8453 49.3837C55.8906 49.3301 55.9574 49.2951 56.031 49.2864C56.5527 49.2257 58.2842 49.0386 58.7171 49.1903C59.15 49.342 59.3054 50.379 59.322 51.2136C59.3227 51.2468 59.3163 51.2798 59.303 51.3107C59.2898 51.3417 59.2699 51.3699 59.2447 51.3939C59.2194 51.4178 59.1892 51.437 59.1558 51.4504C59.1225 51.4637 59.0865 51.4709 59.0501 51.4715H59.0445Z" fill="#0C0C0C"/>
<path d="M59.8321 50.2778C59.7604 50.2779 59.6915 50.2526 59.6397 50.2074C59.588 50.1621 59.5575 50.1003 59.5546 50.035C59.5269 49.4129 59.3493 48.6491 59.144 48.553C58.3763 48.4271 57.592 48.4101 56.8186 48.5024C56.7822 48.5054 56.7454 48.5018 56.7105 48.4919C56.6756 48.4819 56.6432 48.4658 56.6151 48.4444C56.5583 48.4013 56.5228 48.3393 56.5161 48.2723C56.5095 48.2052 56.5324 48.1385 56.5798 48.0868C56.6271 48.0351 56.6951 48.0026 56.7687 47.9966C57.1127 47.9713 58.872 47.8449 59.4048 48.1028C59.9376 48.3608 60.0874 49.6203 60.1041 50.0097C60.1056 50.043 60.0998 50.0761 60.0873 50.1073C60.0747 50.1385 60.0555 50.1672 60.0307 50.1916C60.006 50.216 59.9762 50.2358 59.9431 50.2497C59.9099 50.2636 59.8741 50.2715 59.8377 50.2728L59.8321 50.2778Z" fill="#0C0C0C"/>
<path d="M59.2439 51.0771C59.2883 51.3666 59.4096 51.6419 59.5972 51.8791C59.7848 52.1162 60.0332 52.308 60.3206 52.4377C59.3252 53.0898 58.6138 54.0408 58.3116 55.1236C57.7566 56.9901 58.245 57.3391 58.245 57.3391L60.9755 56.4842C61.2643 56.3943 61.5302 56.252 61.7572 56.066C61.9842 55.88 62.1676 55.6541 62.2963 55.4018C63.0233 53.9653 64.4829 51.0619 64.5606 50.637C64.6661 50.0705 63.9002 49.7215 63.0344 49.9744C62.1687 50.2273 59.3105 50.7938 59.2439 51.0771Z" fill="#9E5350"/>
<path d="M61.2141 52.7766C61.0644 52.7854 60.9142 52.7854 60.7645 52.7766C60.2942 52.758 59.8486 52.5794 59.5157 52.276C59.1828 51.9726 58.9868 51.5664 58.9664 51.1378C58.9568 51.0735 58.9747 51.0083 59.0163 50.9557C59.0774 50.8798 59.4714 50.4954 61.2363 50.1767C61.3099 50.164 61.386 50.1784 61.4479 50.2168C61.5098 50.2552 61.5525 50.3145 61.5665 50.3816C61.5805 50.4486 61.5646 50.518 61.5225 50.5745C61.4803 50.6309 61.4153 50.6698 61.3417 50.6825C60.7086 50.7622 60.096 50.9438 59.5325 51.2187C59.5611 51.506 59.7047 51.7736 59.9361 51.9705C60.1675 52.1674 60.4703 52.2797 60.7867 52.2859C61.3785 52.3391 61.9758 52.2788 62.5405 52.1089C62.6104 52.0874 62.6868 52.0922 62.7529 52.1221C62.819 52.1519 62.8693 52.2045 62.8929 52.2682C62.9164 52.332 62.9112 52.4016 62.8785 52.4618C62.8457 52.5221 62.788 52.568 62.7181 52.5894C62.2308 52.7243 61.7231 52.7875 61.2141 52.7766Z" fill="#0C0C0C"/>
<path d="M84.8507 44.3851C84.8507 44.3851 87.3925 47.4604 88.7356 48.3456C90.0786 49.2308 94.4741 50.1615 95.7672 49.4027C97.0603 48.644 96.2777 39.3725 96.2777 39.3725C96.2777 39.3725 92.8535 34.8606 87.8143 36.8434C82.7751 38.8262 84.8507 44.3851 84.8507 44.3851Z" fill="#9E5350"/>
<path d="M99.4688 40.3841C94.5628 41.5627 88.4581 38.9476 88.4581 38.9476C88.4043 40.1494 88.1227 41.3336 87.6256 42.4478L88.619 44.4711L86.055 46.029C86.055 46.029 77.4084 43.7984 77.3585 42.7867C77.3085 41.7751 79.0234 34.7747 79.9058 34.4813C81.2933 34.223 82.6991 34.054 84.1126 33.9755C84.8524 31.9659 85.8001 30.0249 86.943 28.1788C88.9575 28.9983 87.9808 31.5122 87.9197 31.669L94.7626 24.5572C100.174 25.3969 99.1081 29.9492 99.1081 29.9492C100.52 28.9601 102.23 28.3867 104.009 28.3053C106.034 31.6133 104.369 39.2005 99.4688 40.3841Z" fill="#0C0C0C"/>
<path d="M87.3147 45.6547C87.0517 45.0226 86.5696 44.486 85.9416 44.1263C85.3136 43.7666 84.574 43.6035 83.835 43.6618C83.3506 43.7049 82.8906 43.8763 82.5119 44.155C82.1332 44.4336 81.8523 44.8073 81.7039 45.2298C80.4552 48.0977 86.3269 49.4432 87.903 47.0001L87.3147 45.6547Z" fill="#9E5350"/>
<path d="M87.0259 46.9041C86.9814 46.9043 86.9375 46.8947 86.8979 46.8763C86.8583 46.8578 86.8242 46.8309 86.7984 46.7978C85.3332 44.8909 82.9746 45.8317 82.8747 45.8722C82.8086 45.895 82.7355 45.8939 82.6703 45.8693C82.605 45.8446 82.5525 45.7982 82.5235 45.7395C82.4945 45.6808 82.4911 45.6143 82.5141 45.5534C82.5371 45.4925 82.5847 45.4419 82.6471 45.4119C82.6749 45.4119 85.533 44.2587 87.2535 46.5095C87.2816 46.5474 87.2979 46.5915 87.3006 46.6372C87.3034 46.6829 87.2925 46.7284 87.2692 46.7688C87.2459 46.8093 87.2109 46.8433 87.1681 46.8671C87.1252 46.8909 87.0761 46.9037 87.0259 46.9041Z" fill="#0C0C0C"/>
<path d="M84.5953 47.425C84.5289 47.4244 84.4649 47.4021 84.415 47.3622C84.3652 47.3223 84.3326 47.2675 84.3233 47.2075C84.2303 46.5734 84.2871 45.9284 84.4898 45.3158C84.5184 45.2581 84.5697 45.2123 84.6335 45.1874C84.6973 45.1625 84.7691 45.1603 84.8346 45.1813C84.9001 45.2023 84.9546 45.2448 84.9874 45.3007C85.0201 45.3565 85.0287 45.4214 85.0115 45.4827C84.8384 46.0173 84.7892 46.5789 84.8672 47.1317C84.8727 47.1646 84.8711 47.1981 84.8623 47.2304C84.8536 47.2627 84.8379 47.2931 84.8163 47.3199C84.7946 47.3467 84.7674 47.3693 84.7361 47.3865C84.7049 47.4037 84.6702 47.415 84.6341 47.42H84.5953V47.425Z" fill="#0C0C0C"/>
<path d="M89.3905 42.4124C89.3905 42.4124 89.6846 40.895 90.95 41.1024C90.95 41.1024 90.8723 40.4246 91.1553 40.3436C91.4384 40.2627 91.7492 41.4413 91.7492 41.4413C90.8996 41.618 90.0976 41.9482 89.3905 42.4124Z" fill="#0C0C0C"/>
<path d="M95.5175 41.2339C95.5175 41.2339 95.0957 39.9036 94.4464 40.5056C94.4464 40.5056 94.3687 39.8379 94.2022 39.8581C93.8248 39.9087 94.0746 41.0771 94.0746 41.0771C94.5606 40.9701 95.0727 41.0258 95.5175 41.2339Z" fill="#0C0C0C"/>
<path d="M94.9124 46.7169C94.629 47.068 94.2969 47.3842 93.9245 47.6577C93.3085 48.0927 92.5371 48.3204 92.0487 47.3694C91.8723 47.0128 91.7546 46.6344 91.6991 46.2465C91.6991 46.2465 92.6592 46.8484 94.9124 46.7169Z" fill="#0C0C0C"/>
<path d="M93.9298 47.6325C93.3138 48.0675 92.5423 48.2951 92.054 47.3441C92.3702 47.2596 92.7033 47.2416 93.0283 47.2915C93.3532 47.3415 93.6615 47.458 93.9298 47.6325Z" fill="#E2E2E2"/>
<path d="M91.4891 44.2559C91.8367 44.2028 92.0602 43.8425 91.9882 43.4513C91.9162 43.0601 91.5761 42.786 91.2284 42.8392C90.8808 42.8923 90.6574 43.2525 90.7293 43.6437C90.8013 44.0349 91.1415 44.309 91.4891 44.2559Z" fill="#0C0C0C"/>
<path d="M91.4809 43.4281C91.5716 43.4143 91.6328 43.3362 91.6176 43.2537C91.6024 43.1712 91.5166 43.1156 91.4259 43.1294C91.3352 43.1433 91.274 43.2214 91.2892 43.3039C91.3044 43.3864 91.3902 43.442 91.4809 43.4281Z" fill="#E2E2E2"/>
<path d="M95.1825 43.6963C95.5301 43.6432 95.7535 43.283 95.6816 42.8918C95.6096 42.5006 95.2694 42.2265 94.9218 42.2796C94.5742 42.3328 94.3507 42.693 94.4227 43.0842C94.4947 43.4754 94.8348 43.7495 95.1825 43.6963Z" fill="#0C0C0C"/>
<path d="M95.1786 42.8636C95.2693 42.8497 95.3305 42.7716 95.3153 42.6892C95.3002 42.6067 95.2144 42.551 95.1237 42.5649C95.033 42.5788 94.9718 42.6569 94.987 42.7393C95.0021 42.8218 95.088 42.8775 95.1786 42.8636Z" fill="#E2E2E2"/>
<path d="M93.6803 45.685H93.5471C93.5107 45.6825 93.4751 45.6734 93.4425 45.6582C93.4099 45.6431 93.3809 45.6223 93.3571 45.5969C93.3334 45.5715 93.3154 45.5421 93.3042 45.5103C93.293 45.4786 93.2888 45.4451 93.2919 45.4119C93.2989 45.3452 93.3341 45.2837 93.39 45.2403C93.446 45.1969 93.5182 45.175 93.5915 45.1792C93.5915 45.1792 94.2298 45.2146 94.3186 44.8504C94.3292 44.8243 94.3292 44.7956 94.3186 44.7695C94.1221 44.6884 93.9022 44.6672 93.6914 44.7088C93.6194 44.7191 93.5458 44.7031 93.4866 44.6642C93.4274 44.6254 93.3874 44.5669 93.3751 44.5014L93.1087 43.1206C93.1023 43.0877 93.1032 43.0539 93.1112 43.0213C93.1192 42.9888 93.1342 42.9579 93.1554 42.9307C93.1765 42.9034 93.2034 42.8802 93.2345 42.8624C93.2655 42.8447 93.3001 42.8327 93.3362 42.8272C93.409 42.8168 93.4832 42.8327 93.5433 42.8714C93.6034 42.9101 93.6446 42.9687 93.6581 43.0346L93.8801 44.1878C94.0306 44.1738 94.1827 44.1872 94.3275 44.2271C94.4723 44.267 94.607 44.3328 94.7237 44.4205C94.7959 44.4912 94.8471 44.5776 94.8723 44.6715C94.8976 44.7653 94.8961 44.8635 94.868 44.9567C94.7906 45.1832 94.6307 45.3788 94.4147 45.5112C94.1988 45.6437 93.9397 45.705 93.6803 45.685Z" fill="#0C0C0C"/>
</svg>
