<svg width="308" height="263" viewBox="0 0 308 263" fill="none" xmlns="http://www.w3.org/2000/svg">
<g filter="url(#filter0_d_59_9519)">
<path d="M264.262 222.42C258.942 225.855 250.24 205.95 249.643 200.393C249.045 194.835 253.457 198.038 253.457 198.038C253.457 198.038 249.28 180.061 251.906 174.583C254.531 169.105 256.864 175.352 256.864 175.352C256.864 175.352 258.847 156.807 267.377 155.136C275.907 153.464 268.909 173.991 268.909 173.991C268.909 173.991 272.392 168.855 275.824 170.227C279.257 171.6 269.176 194.884 269.176 194.884C269.176 194.884 273.059 190.767 276.301 192.054C279.543 193.341 272.487 217.119 264.262 222.42Z" fill="#0C0C0C"/>
<path d="M263.207 221.097C263.132 221.096 263.06 221.07 263.002 221.023C262.945 220.976 262.908 220.911 262.896 220.84C262.832 220.487 256.724 185.209 266.379 158.875C266.39 158.834 266.409 158.796 266.437 158.762C266.464 158.729 266.498 158.702 266.537 158.682C266.576 158.662 266.618 158.65 266.662 158.647C266.706 158.643 266.75 158.649 266.792 158.663C266.834 158.677 266.872 158.699 266.904 158.728C266.936 158.757 266.962 158.792 266.979 158.831C266.996 158.87 267.005 158.912 267.005 158.954C267.004 158.996 266.994 159.038 266.976 159.076C257.378 185.258 263.455 220.383 263.519 220.737C263.526 220.776 263.525 220.817 263.516 220.856C263.506 220.896 263.489 220.933 263.465 220.966C263.441 220.999 263.41 221.027 263.375 221.048C263.339 221.069 263.299 221.084 263.258 221.09H263.207V221.097Z" fill="#E8E8E5"/>
<path d="M261.237 193.377C261.17 193.376 261.106 193.355 261.052 193.316C255.014 189.089 254.194 178.621 254.156 178.176C254.153 178.136 254.158 178.096 254.171 178.058C254.185 178.019 254.206 177.984 254.233 177.954C254.261 177.924 254.294 177.899 254.331 177.881C254.369 177.863 254.41 177.852 254.451 177.85C254.493 177.847 254.535 177.852 254.575 177.865C254.614 177.877 254.651 177.897 254.683 177.924C254.714 177.95 254.74 177.982 254.759 178.018C254.777 178.054 254.788 178.093 254.791 178.133C254.791 178.237 255.611 188.558 261.256 192.7C262.285 192.09 267.815 188.174 271.508 176.407C271.52 176.367 271.541 176.329 271.568 176.297C271.595 176.264 271.629 176.237 271.667 176.217C271.705 176.197 271.747 176.184 271.79 176.18C271.833 176.175 271.877 176.179 271.918 176.19C271.96 176.202 271.999 176.221 272.033 176.247C272.067 176.273 272.095 176.306 272.116 176.342C272.137 176.379 272.15 176.419 272.155 176.46C272.16 176.502 272.156 176.544 272.144 176.584C267.987 189.815 261.682 193.201 261.415 193.341C261.36 193.369 261.298 193.382 261.237 193.377Z" fill="#E8E8E5"/>
<path d="M261.987 211.428H261.891C258.224 210.342 255.433 203.553 255.319 203.266C255.296 203.192 255.302 203.113 255.337 203.044C255.373 202.974 255.434 202.92 255.508 202.893C255.583 202.865 255.666 202.865 255.741 202.894C255.815 202.922 255.876 202.977 255.91 203.046C255.91 203.113 258.624 209.659 261.936 210.8C262.629 210.312 266.233 207.499 269.004 199.935C269.037 199.866 269.096 199.81 269.169 199.78C269.242 199.75 269.324 199.748 269.399 199.773C269.474 199.798 269.536 199.85 269.574 199.917C269.611 199.984 269.621 200.063 269.602 200.136C266.423 208.725 262.324 211.288 262.152 211.397C262.101 211.421 262.044 211.432 261.987 211.428Z" fill="#E8E8E5"/>
<path d="M262.457 176.755C262.414 176.753 262.371 176.743 262.332 176.725C262.292 176.707 262.257 176.682 262.228 176.651C260.48 174.711 260.086 168.586 260.067 168.33C260.065 168.29 260.07 168.25 260.084 168.212C260.098 168.174 260.119 168.139 260.147 168.109C260.174 168.079 260.208 168.055 260.246 168.037C260.283 168.02 260.324 168.009 260.366 168.007C260.408 168.004 260.449 168.01 260.489 168.023C260.528 168.036 260.565 168.057 260.596 168.083C260.627 168.11 260.653 168.142 260.671 168.178C260.69 168.214 260.7 168.254 260.703 168.294C260.703 168.355 261.065 173.924 262.495 175.986C263.353 175.107 266.175 172.033 267.18 168.41C267.191 168.369 267.21 168.332 267.236 168.299C267.262 168.266 267.294 168.238 267.331 168.217C267.368 168.196 267.41 168.182 267.452 168.177C267.495 168.171 267.538 168.173 267.58 168.184C267.622 168.194 267.661 168.212 267.696 168.237C267.73 168.262 267.759 168.294 267.781 168.329C267.803 168.365 267.817 168.404 267.823 168.445C267.829 168.486 267.826 168.528 267.815 168.568C266.589 173.009 262.87 176.498 262.73 176.675C262.694 176.708 262.651 176.732 262.604 176.746C262.556 176.76 262.506 176.763 262.457 176.755Z" fill="#E8E8E5"/>
<path d="M270.638 223.116C264.536 224.165 264.917 203.308 266.627 198.16C268.337 193.011 270.936 197.495 270.936 197.495C270.936 197.495 274.534 180.03 279.072 176.144C283.611 172.259 283.147 178.676 283.147 178.676C283.147 178.676 292.421 163.017 300.646 164.725C308.871 166.433 294.353 181.976 294.353 181.976C294.353 181.976 299.514 178.731 301.98 181.232C304.447 183.733 286.09 200.563 286.09 200.563C286.09 200.563 291.226 198.386 293.558 200.728C295.891 203.07 280.051 221.493 270.638 223.116Z" fill="#E8E8E5"/>
<path d="M270.364 221.585H270.288C270.247 221.575 270.209 221.557 270.176 221.533C270.142 221.509 270.114 221.479 270.093 221.444C270.072 221.409 270.058 221.371 270.052 221.331C270.046 221.292 270.049 221.251 270.059 221.212C270.148 220.877 279.053 187.387 298.275 167.696C298.302 167.663 298.336 167.637 298.375 167.617C298.413 167.598 298.456 167.587 298.499 167.584C298.543 167.581 298.586 167.586 298.627 167.6C298.669 167.614 298.706 167.636 298.738 167.665C298.77 167.693 298.795 167.728 298.813 167.766C298.83 167.804 298.839 167.846 298.839 167.888C298.839 167.929 298.83 167.971 298.813 168.009C298.796 168.047 298.77 168.082 298.739 168.111C279.625 187.686 270.771 221.023 270.676 221.359C270.657 221.424 270.617 221.482 270.56 221.523C270.504 221.564 270.435 221.585 270.364 221.585Z" fill="#0C0C0C"/>
<path d="M279.861 196.324C279.805 196.323 279.751 196.309 279.703 196.282C279.655 196.256 279.615 196.217 279.587 196.171C275.958 190.175 279.479 180.604 279.625 180.195C279.639 180.156 279.66 180.121 279.688 180.09C279.716 180.059 279.75 180.034 279.788 180.016C279.826 179.998 279.868 179.988 279.91 179.986C279.953 179.984 279.995 179.99 280.035 180.004C280.075 180.018 280.112 180.039 280.143 180.067C280.174 180.094 280.199 180.128 280.217 180.165C280.234 180.202 280.244 180.242 280.245 180.283C280.246 180.324 280.238 180.364 280.223 180.402C280.185 180.5 276.721 189.919 280.032 195.689C281.221 195.506 287.66 194.116 295.7 185.112C295.755 185.05 295.833 185.012 295.917 185.006C296.001 185 296.084 185.026 296.148 185.078C296.213 185.131 296.252 185.206 296.259 185.286C296.265 185.367 296.238 185.447 296.183 185.508C287.107 195.665 280.178 196.324 279.886 196.324H279.861Z" fill="#0C0C0C"/>
<path d="M273.199 212.575C273.122 212.575 273.048 212.549 272.989 212.501C270.18 210.165 270.447 203.119 270.479 202.82C270.479 202.78 270.489 202.74 270.506 202.704C270.523 202.667 270.548 202.634 270.579 202.606C270.61 202.579 270.646 202.558 270.686 202.544C270.725 202.531 270.767 202.525 270.809 202.528C270.851 202.529 270.892 202.539 270.93 202.555C270.968 202.572 271.002 202.596 271.03 202.626C271.059 202.655 271.081 202.69 271.095 202.727C271.109 202.765 271.116 202.805 271.114 202.845C271.114 202.912 270.835 209.689 273.288 211.94C274.114 211.763 278.43 210.616 283.935 204.974C283.962 204.941 283.996 204.915 284.035 204.895C284.074 204.876 284.116 204.865 284.16 204.862C284.203 204.859 284.247 204.864 284.288 204.878C284.329 204.892 284.367 204.914 284.398 204.943C284.43 204.971 284.456 205.006 284.473 205.044C284.491 205.082 284.5 205.124 284.5 205.166C284.5 205.207 284.491 205.249 284.473 205.287C284.456 205.326 284.431 205.36 284.399 205.389C278.125 211.812 273.434 212.538 273.237 212.569H273.193L273.199 212.575Z" fill="#0C0C0C"/>
<path d="M287.679 182.074C287.611 182.074 287.544 182.054 287.49 182.015C287.435 181.977 287.394 181.923 287.374 181.86C286.617 179.487 288.747 173.93 288.836 173.686C288.85 173.648 288.872 173.614 288.901 173.585C288.929 173.555 288.964 173.531 289.002 173.515C289.04 173.498 289.081 173.489 289.123 173.487C289.165 173.486 289.206 173.492 289.246 173.506C289.285 173.52 289.321 173.541 289.351 173.569C289.382 173.596 289.407 173.629 289.424 173.666C289.442 173.702 289.451 173.742 289.453 173.782C289.454 173.822 289.448 173.862 289.433 173.9C289.433 173.955 287.482 178.999 287.901 181.354C289.033 180.896 292.757 179.225 295.097 176.407C295.121 176.372 295.153 176.342 295.19 176.319C295.227 176.296 295.268 176.281 295.312 176.274C295.355 176.268 295.4 176.27 295.442 176.281C295.485 176.291 295.524 176.311 295.559 176.337C295.593 176.363 295.622 176.396 295.642 176.433C295.663 176.471 295.675 176.512 295.678 176.554C295.681 176.596 295.675 176.638 295.661 176.678C295.646 176.718 295.623 176.754 295.592 176.785C292.707 180.256 287.965 181.982 287.787 182.056C287.752 182.067 287.716 182.074 287.679 182.074Z" fill="#0C0C0C"/>
<path d="M261.377 225.891C260.873 226.16 260.279 226.228 259.724 226.08C250.463 223.787 236.079 204.291 238.583 202.119C241.087 199.947 245.797 202.375 246.033 202.485C245.677 202.107 229.061 184.368 231.712 182.08C234.362 179.792 239.028 183.196 239.269 183.367C239.041 183.08 230.886 172.826 231.642 168.062C231.715 167.69 231.899 167.346 232.172 167.072C232.446 166.799 232.796 166.608 233.181 166.524C233.565 166.439 233.968 166.463 234.338 166.595C234.708 166.726 235.03 166.958 235.265 167.263C252.446 188.662 259.597 217.577 261.377 225.891Z" fill="#E8E8E5"/>
<path d="M252.268 198.63H252.192C250.469 198.203 244.31 196.092 237.178 186.759C237.129 186.693 237.108 186.611 237.121 186.531C237.134 186.451 237.18 186.38 237.248 186.332C237.316 186.284 237.402 186.264 237.485 186.277C237.569 186.289 237.643 186.333 237.693 186.399C244.685 195.549 250.685 197.629 252.351 198.038C252.419 198.061 252.478 198.107 252.516 198.166C252.554 198.226 252.569 198.297 252.56 198.366C252.55 198.435 252.516 198.5 252.463 198.548C252.409 198.596 252.341 198.625 252.268 198.63Z" fill="#0C0C0C"/>
<path d="M258.008 215.393H257.938C257.747 215.35 253.126 214.289 247.367 207.432C247.341 207.401 247.321 207.365 247.31 207.327C247.298 207.288 247.294 207.248 247.298 207.208C247.303 207.168 247.315 207.129 247.335 207.094C247.355 207.059 247.382 207.027 247.415 207.002C247.447 206.977 247.485 206.958 247.525 206.947C247.565 206.935 247.607 206.932 247.649 206.936C247.69 206.94 247.731 206.952 247.768 206.972C247.804 206.991 247.837 207.017 247.863 207.048C253.482 213.758 258.033 214.789 258.078 214.795C258.15 214.815 258.212 214.859 258.254 214.919C258.296 214.979 258.314 215.051 258.306 215.122C258.298 215.194 258.263 215.261 258.208 215.31C258.154 215.36 258.083 215.389 258.008 215.393Z" fill="#0C0C0C"/>
<path d="M245.111 183.513C245.058 183.514 245.005 183.501 244.958 183.477C243.344 182.623 240.35 180.787 238.43 178.09C238.383 178.023 238.366 177.941 238.382 177.861C238.398 177.782 238.446 177.712 238.516 177.666C238.586 177.621 238.672 177.604 238.755 177.62C238.838 177.635 238.911 177.682 238.958 177.749C240.808 180.341 243.706 182.123 245.27 182.946C245.329 182.98 245.376 183.032 245.402 183.094C245.428 183.155 245.433 183.223 245.415 183.288C245.396 183.352 245.357 183.409 245.302 183.45C245.247 183.49 245.18 183.513 245.111 183.513Z" fill="#0C0C0C"/>
<path d="M274.451 254.275H252.332C250.565 254.276 248.868 253.619 247.597 252.443C246.326 251.266 245.58 249.662 245.518 247.968L244.564 222.292C244.553 221.991 244.605 221.69 244.718 221.408C244.83 221.126 245.001 220.869 245.219 220.651C245.437 220.434 245.699 220.261 245.988 220.142C246.278 220.024 246.589 219.963 246.903 219.962H279.867C280.181 219.963 280.493 220.024 280.782 220.142C281.071 220.261 281.333 220.434 281.551 220.651C281.769 220.869 281.94 221.126 282.052 221.408C282.165 221.69 282.217 221.991 282.206 222.292L281.253 247.968C281.19 249.66 280.446 251.262 279.178 252.438C277.91 253.615 276.215 254.273 274.451 254.275Z" fill="#F5C044"/>
<path d="M279.873 219.962H273.415C272.919 222.036 273.066 225.025 277.293 226.446C278.815 226.981 280.465 227.084 282.047 226.745L282.212 222.292C282.223 221.991 282.171 221.69 282.059 221.408C281.946 221.126 281.776 220.869 281.558 220.651C281.339 220.434 281.078 220.261 280.788 220.142C280.499 220.024 280.188 219.963 279.873 219.962Z" fill="#E0B97F"/>
<path d="M265.54 228.276C264.675 225.354 266.303 222.011 267.599 219.968H260.506C256.425 226.532 258.891 238.464 269.989 235.908C275.487 234.639 279.231 235.298 281.698 236.438L281.888 231.278C275.487 227.434 266.767 232.467 265.54 228.276Z" fill="#E0B97F"/>
<path d="M280.242 251.182C274.839 239.793 265.158 250.963 258.789 239.025C254.435 230.857 248.619 230.844 244.933 231.906L245.143 237.518C256.52 233.248 256.024 251.097 265.705 249.718C270.879 248.968 273.816 251.609 275.424 254.22C276.41 254.083 277.352 253.74 278.184 253.215C279.017 252.69 279.719 251.996 280.242 251.182Z" fill="#E0B97F"/>
<path d="M250.285 243.6C247.348 244.302 250.126 250.615 252.668 248.938C255.211 247.26 252.51 243.069 250.285 243.6Z" fill="#E0B97F"/>
<path d="M274.788 239.281C272.773 240.434 276.301 244.521 277.801 242.728C279.301 240.934 276.301 238.415 274.788 239.281Z" fill="#E0B97F"/>
<path d="M36.8541 227.605C41.3035 230.479 48.5941 213.819 49.1089 209.165C49.6238 204.51 45.9308 207.194 45.9308 207.194C45.9308 207.194 49.4268 192.139 47.2021 187.558C44.9774 182.977 43.0514 188.198 43.0514 188.198C43.0514 188.198 41.3924 172.674 34.248 171.277C27.1036 169.88 32.9767 187.064 32.9767 187.064C32.9767 187.064 30.0592 182.794 27.1862 183.91C24.3132 185.026 32.7543 204.553 32.7543 204.553C32.7543 204.553 29.4681 201.106 26.773 202.186C24.078 203.266 29.9766 223.164 36.8541 227.605Z" fill="#0C0C0C"/>
<path d="M37.7376 226.544H37.6867C37.6453 226.537 37.6057 226.523 37.5701 226.501C37.5346 226.48 37.5038 226.452 37.4796 226.419C37.4553 226.386 37.4381 226.349 37.429 226.31C37.4198 226.27 37.4188 226.23 37.4261 226.19C37.477 225.897 42.5683 196.501 34.534 174.589C34.5143 174.515 34.5241 174.437 34.5616 174.369C34.5991 174.302 34.6616 174.251 34.7366 174.225C34.8116 174.2 34.8938 174.203 34.9669 174.233C35.04 174.263 35.0987 174.318 35.1315 174.388C43.223 196.452 38.1062 225.995 38.049 226.294C38.0357 226.364 37.9972 226.427 37.9403 226.473C37.8835 226.519 37.8117 226.544 37.7376 226.544Z" fill="#E8E8E5"/>
<path d="M39.3903 203.333C39.337 203.333 39.2846 203.321 39.2377 203.296C39.0152 203.18 33.7141 200.338 30.2309 189.266C30.2064 189.185 30.2165 189.098 30.2588 189.024C30.3011 188.951 30.3722 188.896 30.4565 188.873C30.5408 188.849 30.6314 188.859 30.7082 188.899C30.7851 188.94 30.8421 189.008 30.8665 189.089C33.9302 198.849 38.494 202.107 39.403 202.686C44.0875 199.215 44.7613 190.632 44.7677 190.547C44.7706 190.507 44.7817 190.468 44.8004 190.432C44.819 190.396 44.8449 190.364 44.8765 190.338C44.908 190.311 44.9447 190.291 44.9844 190.278C45.0241 190.266 45.066 190.261 45.1077 190.263C45.1495 190.266 45.1902 190.277 45.2276 190.295C45.2651 190.313 45.2985 190.338 45.3259 190.368C45.3534 190.398 45.3743 190.433 45.3876 190.471C45.4009 190.509 45.4062 190.55 45.4033 190.59C45.4033 190.962 44.685 199.74 39.6127 203.302C39.5449 203.338 39.4658 203.349 39.3903 203.333Z" fill="#E8E8E5"/>
<path d="M38.7609 218.449C38.6964 218.453 38.6322 218.438 38.5766 218.406C38.4304 218.321 34.9662 216.162 32.3157 208.957C32.2975 208.919 32.2879 208.877 32.2875 208.835C32.2871 208.793 32.2958 208.751 32.3131 208.712C32.3304 208.673 32.356 208.638 32.3882 208.609C32.4204 208.58 32.4584 208.558 32.5 208.544C32.5416 208.53 32.5857 208.524 32.6297 208.528C32.6736 208.531 32.7163 208.543 32.7552 208.563C32.794 208.583 32.8281 208.61 32.8553 208.643C32.8825 208.677 32.9022 208.715 32.9131 208.756C35.2078 215.003 38.1698 217.369 38.7927 217.815C41.5322 216.839 43.7569 211.416 43.7824 211.361C43.8168 211.291 43.8773 211.237 43.9519 211.208C44.0264 211.18 44.1094 211.179 44.1842 211.207C44.259 211.235 44.32 211.289 44.3552 211.358C44.3903 211.427 44.3968 211.507 44.3735 211.58C44.2782 211.824 41.9327 217.528 38.8372 218.443L38.7609 218.449Z" fill="#E8E8E5"/>
<path d="M38.3669 189.418C38.284 189.419 38.2041 189.388 38.1444 189.333C38.011 189.211 34.8837 186.283 33.854 182.525C33.832 182.444 33.8445 182.358 33.8886 182.286C33.9327 182.214 34.0048 182.162 34.0891 182.141C34.1734 182.12 34.263 182.132 34.3381 182.174C34.4132 182.217 34.4677 182.286 34.4896 182.367C35.3095 185.331 37.5851 187.857 38.3542 188.644C39.5174 186.893 39.8098 182.33 39.8098 182.281C39.8114 182.241 39.8214 182.201 39.8394 182.165C39.8574 182.128 39.8829 182.096 39.9144 182.069C39.9458 182.042 39.9827 182.022 40.0226 182.009C40.0625 181.996 40.1047 181.991 40.1467 181.995C40.1884 181.997 40.2293 182.007 40.2669 182.025C40.3046 182.042 40.3382 182.067 40.366 182.097C40.3937 182.127 40.415 182.162 40.4287 182.2C40.4423 182.238 40.448 182.278 40.4454 182.318C40.4454 182.537 40.1022 187.674 38.6275 189.315C38.5986 189.346 38.5634 189.371 38.5241 189.389C38.4848 189.407 38.4421 189.417 38.3987 189.418H38.3669Z" fill="#E8E8E5"/>
<path d="M31.5212 228.185C36.6062 229.063 36.3138 211.605 34.8836 207.292C33.4535 202.979 31.2796 206.731 31.2796 206.731C31.2796 206.731 28.2668 192.09 24.4657 188.869C20.6647 185.649 21.0588 190.986 21.0588 190.986C21.0588 190.986 13.2914 177.877 6.40755 179.304C-0.476285 180.732 11.6769 193.75 11.6769 193.75C11.6769 193.75 7.35464 191.035 5.27614 193.14C3.19764 195.244 18.5735 209.323 18.5735 209.323C18.5735 209.323 14.2703 207.493 12.3189 209.464C10.3675 211.434 23.633 226.825 31.5212 228.185Z" fill="#E8E8E5"/>
<path d="M31.7499 226.953C31.6795 226.952 31.6113 226.929 31.5561 226.887C31.5009 226.845 31.4617 226.786 31.4448 226.721C31.3686 226.44 23.9508 198.538 7.9648 182.19C7.93298 182.161 7.90763 182.127 7.89031 182.088C7.873 182.05 7.86409 182.008 7.86414 181.967C7.86419 181.925 7.87319 181.883 7.8906 181.845C7.90801 181.807 7.93344 181.772 7.96533 181.744C7.99721 181.715 8.03486 181.693 8.07593 181.679C8.11701 181.666 8.16063 181.66 8.2041 181.663C8.24756 181.666 8.28994 181.677 8.3286 181.696C8.36725 181.716 8.40136 181.742 8.4288 181.775C24.5356 198.245 31.9915 226.306 32.0614 226.605C32.0719 226.644 32.0743 226.684 32.0685 226.724C32.0627 226.764 32.0487 226.802 32.0275 226.837C32.0062 226.871 31.9781 226.901 31.9446 226.925C31.9112 226.95 31.8731 226.967 31.8326 226.977H31.7499V226.953Z" fill="#0C0C0C"/>
<path d="M23.7983 205.803C23.5504 205.803 17.709 205.248 10.1196 196.732C10.0648 196.671 10.0377 196.591 10.0443 196.51C10.0509 196.43 10.0905 196.355 10.1546 196.302C10.2186 196.25 10.3018 196.224 10.3859 196.23C10.4699 196.236 10.5479 196.274 10.6027 196.336C17.2323 203.784 22.5779 204.998 23.6521 205.169C26.3853 200.356 23.4996 192.523 23.4678 192.444C23.4522 192.406 23.4447 192.366 23.4458 192.325C23.4468 192.284 23.4563 192.244 23.4738 192.207C23.4913 192.17 23.5164 192.136 23.5476 192.108C23.5788 192.081 23.6154 192.059 23.6554 192.045C23.6953 192.032 23.7378 192.025 23.7802 192.028C23.8227 192.03 23.8642 192.04 23.9024 192.058C23.9406 192.076 23.9747 192.101 24.0027 192.131C24.0307 192.162 24.052 192.198 24.0653 192.237C24.1924 192.578 27.1481 200.612 24.0653 205.657C24.0373 205.701 23.9982 205.738 23.9515 205.763C23.9048 205.789 23.8521 205.803 23.7983 205.803Z" fill="#0C0C0C"/>
<path d="M29.3727 219.413H29.3219C29.1566 219.413 25.2157 218.803 19.9464 213.386C19.9145 213.357 19.8892 213.323 19.8719 213.284C19.8546 213.246 19.8457 213.205 19.8457 213.163C19.8458 213.121 19.8548 213.08 19.8722 213.041C19.8896 213.003 19.915 212.968 19.9469 212.94C19.9788 212.911 20.0164 212.89 20.0575 212.876C20.0986 212.862 20.1422 212.856 20.1857 212.859C20.2291 212.862 20.2715 212.873 20.3102 212.893C20.3488 212.912 20.3829 212.939 20.4104 212.971C24.9551 217.625 28.5273 218.62 29.271 218.785C31.2923 216.9 31.0571 211.281 31.0571 211.226C31.0554 211.186 31.062 211.146 31.0764 211.109C31.0908 211.071 31.1128 211.037 31.1411 211.007C31.1695 210.978 31.2036 210.954 31.2415 210.937C31.2795 210.92 31.3205 210.911 31.3622 210.909C31.4044 210.906 31.4468 210.911 31.4868 210.924C31.5268 210.937 31.5635 210.958 31.5946 210.986C31.6257 211.013 31.6504 211.047 31.6673 211.084C31.6842 211.121 31.6929 211.161 31.6927 211.202C31.6927 211.452 31.947 217.375 29.5761 219.352C29.5176 219.394 29.4458 219.416 29.3727 219.413Z" fill="#0C0C0C"/>
<path d="M17.245 193.884C17.2072 193.89 17.1685 193.89 17.1306 193.884C16.9654 193.823 12.999 192.377 10.571 189.455C10.5407 189.424 10.5175 189.388 10.5027 189.348C10.4879 189.308 10.4819 189.266 10.4851 189.224C10.4882 189.182 10.5004 189.141 10.5209 189.103C10.5415 189.066 10.5699 189.033 10.6043 189.007C10.6388 188.981 10.6785 188.962 10.7211 188.951C10.7636 188.94 10.8081 188.938 10.8515 188.944C10.895 188.951 10.9366 188.966 10.9736 188.989C11.0107 189.012 11.0424 189.042 11.0667 189.077C12.9736 191.383 16.0056 192.737 17.0099 193.176C17.3213 191.194 15.7386 187.076 15.7386 187.021C15.724 186.983 15.7173 186.943 15.7188 186.903C15.7203 186.863 15.73 186.824 15.7474 186.787C15.7649 186.751 15.7896 186.718 15.8203 186.69C15.8509 186.663 15.8869 186.642 15.9261 186.628C15.9653 186.614 16.0071 186.607 16.0489 186.609C16.0907 186.61 16.1319 186.619 16.1699 186.636C16.208 186.653 16.2423 186.677 16.2708 186.706C16.2993 186.735 16.3215 186.77 16.3361 186.808C16.4124 187.003 18.2048 191.688 17.5628 193.682C17.5396 193.744 17.4961 193.798 17.4388 193.834C17.3815 193.87 17.3136 193.888 17.245 193.884Z" fill="#0C0C0C"/>
<path d="M43.6616 254.275H25.1267C23.6463 254.276 22.223 253.726 21.1562 252.741C20.0893 251.756 19.462 250.412 19.4061 248.993L18.6306 227.496C18.6213 227.243 18.6649 226.991 18.759 226.755C18.8531 226.519 18.9957 226.303 19.1784 226.121C19.361 225.939 19.58 225.794 19.8222 225.695C20.0644 225.596 20.325 225.544 20.5884 225.544H48.1873C48.4507 225.544 48.7112 225.596 48.9535 225.695C49.1957 225.794 49.4146 225.939 49.5973 226.121C49.7799 226.303 49.9225 226.519 50.0166 226.755C50.1107 226.991 50.1544 227.243 50.145 227.496L49.3823 248.993C49.3263 250.412 48.699 251.756 47.6322 252.741C46.5654 253.726 45.1421 254.276 43.6616 254.275Z" fill="#F5C044"/>
<path d="M48.1873 225.544H42.7781C42.3586 227.282 42.4857 229.814 46.0262 230.973C47.3003 231.419 48.6812 231.506 50.0052 231.223L50.145 227.496C50.1544 227.243 50.1107 226.991 50.0166 226.755C49.9225 226.519 49.7799 226.303 49.5973 226.121C49.4146 225.939 49.1957 225.794 48.9535 225.695C48.7112 225.596 48.4507 225.544 48.1873 225.544Z" fill="#E0B97F"/>
<path d="M36.1867 232.504C35.4621 230.064 36.8223 227.258 37.9092 225.544H31.9661C28.5465 231.034 30.6186 241.032 39.9051 238.885C44.507 237.823 47.647 238.384 49.7065 239.33L49.8654 235.011C44.5134 231.815 37.2228 236.018 36.1867 232.504Z" fill="#E0B97F"/>
<path d="M48.4925 251.683C43.9668 242.142 35.8626 251.5 30.5296 241.502C26.8811 234.663 21.9932 234.651 18.9231 235.542L19.0947 240.239C28.6291 236.664 28.2096 251.61 36.3138 250.438C40.6425 249.828 43.1023 252.024 44.4499 254.208C45.2747 254.095 46.0638 253.811 46.7621 253.374C47.4604 252.938 48.0509 252.361 48.4925 251.683Z" fill="#E0B97F"/>
<path d="M23.4106 245.339C20.9507 245.949 23.2771 251.213 25.4064 249.81C27.5358 248.407 25.273 244.893 23.4106 245.339Z" fill="#E0B97F"/>
<path d="M43.9286 241.721C42.2442 242.685 45.1998 246.107 46.4711 244.607C47.7423 243.106 45.2062 240.995 43.9286 241.721Z" fill="#E0B97F"/>
<path d="M141.548 192.462H50.0179C50.0179 192.462 34.89 150.499 35.8434 126.477C36.4218 111.892 41.8437 101.729 51.7913 96.5863C58.2175 93.2312 66.5442 92.0112 76.6761 93.0299C102.883 95.6713 113.816 122.786 115.519 136.512H139.006C139.487 136.512 139.967 136.549 140.442 136.622H140.506C140.986 136.696 141.459 136.812 141.917 136.969C142.201 137.066 142.479 137.178 142.749 137.305C145.419 138.586 147.911 141.758 148.19 149.401C148.591 161.004 146.455 175.382 141.548 192.462Z" fill="#0C0C0C"/>
<path d="M129.389 192.767H129.312C129.231 192.749 129.16 192.7 129.116 192.631C129.072 192.562 129.058 192.48 129.077 192.401C131.105 184.422 133.132 166.531 133.59 158.192C133.673 156.642 133.692 154.971 133.711 153.196C133.781 146.297 133.857 138.476 138.351 136.725C138.39 136.705 138.433 136.694 138.477 136.691C138.522 136.688 138.566 136.693 138.608 136.708C138.649 136.722 138.687 136.745 138.719 136.774C138.751 136.804 138.777 136.839 138.794 136.878C138.811 136.918 138.819 136.96 138.818 137.002C138.817 137.045 138.806 137.087 138.787 137.125C138.768 137.164 138.741 137.198 138.708 137.226C138.674 137.253 138.635 137.274 138.593 137.287C134.493 138.909 134.41 146.516 134.347 153.226C134.347 155.008 134.308 156.685 134.226 158.247C133.774 166.604 131.734 184.557 129.7 192.566C129.677 192.627 129.635 192.679 129.579 192.716C129.523 192.752 129.456 192.77 129.389 192.767Z" fill="#E8E8E5"/>
<path d="M91.696 196.324L102.845 252.152C102.906 252.46 102.895 252.777 102.813 253.08C102.732 253.384 102.582 253.666 102.374 253.907C102.165 254.148 101.904 254.343 101.609 254.476C101.313 254.609 100.991 254.678 100.665 254.678C100.185 254.678 99.7181 254.529 99.3342 254.253C98.9503 253.977 98.67 253.589 98.5353 253.147L81.2081 196.324H91.696Z" fill="#E8E8E5"/>
<path d="M57.2132 196.324L46.0643 252.152C46.0035 252.46 46.0143 252.777 46.0957 253.08C46.1772 253.384 46.3274 253.666 46.5356 253.907C46.7439 254.148 47.005 254.343 47.3004 254.476C47.5958 254.609 47.9181 254.678 48.2445 254.678C48.7242 254.678 49.191 254.529 49.5749 254.253C49.9589 253.977 50.2392 253.589 50.3739 253.147L67.7011 196.324H57.2132Z" fill="#E8E8E5"/>
<path d="M135.395 196.324L146.544 252.152C146.605 252.46 146.594 252.777 146.513 253.08C146.431 253.384 146.281 253.666 146.073 253.907C145.865 254.148 145.604 254.343 145.308 254.476C145.013 254.609 144.69 254.678 144.364 254.678C143.884 254.678 143.417 254.529 143.034 254.253C142.65 253.977 142.369 253.589 142.235 253.147L124.907 196.324H135.395Z" fill="#0C0C0C"/>
<path d="M100.913 196.324L89.7637 252.152C89.7029 252.46 89.7136 252.777 89.7951 253.08C89.8765 253.384 90.0267 253.666 90.235 253.907C90.4432 254.148 90.7043 254.343 90.9997 254.476C91.2951 254.609 91.6175 254.678 91.9439 254.678C92.4236 254.678 92.8904 254.529 93.2743 254.253C93.6582 253.977 93.9385 253.589 94.0732 253.147L111.4 196.324H100.913Z" fill="#0C0C0C"/>
<path d="M141.542 192.462L137.728 199.374H52.4841L50.0115 192.462H141.542Z" fill="#E8E8E5"/>
<path d="M66.0611 199.679H57.5565C57.4722 199.679 57.3913 199.647 57.3317 199.59C57.2721 199.532 57.2386 199.455 57.2386 199.374C57.2386 199.293 57.2721 199.216 57.3317 199.158C57.3913 199.101 57.4722 199.069 57.5565 199.069H66.0611C66.1454 199.069 66.2263 199.101 66.2859 199.158C66.3455 199.216 66.379 199.293 66.379 199.374C66.379 199.455 66.3455 199.532 66.2859 199.59C66.2263 199.647 66.1454 199.679 66.0611 199.679Z" fill="#0C0C0C"/>
<path d="M90.9268 199.679H83.2993C83.215 199.679 83.1342 199.647 83.0746 199.59C83.015 199.532 82.9815 199.455 82.9815 199.374C82.9815 199.293 83.015 199.216 83.0746 199.158C83.1342 199.101 83.215 199.069 83.2993 199.069H90.9268C91.0111 199.069 91.092 199.101 91.1516 199.158C91.2112 199.216 91.2447 199.293 91.2447 199.374C91.2447 199.455 91.2112 199.532 91.1516 199.59C91.092 199.647 91.0111 199.679 90.9268 199.679Z" fill="#0C0C0C"/>
<path d="M141.548 192.462L138.809 199.374H91.6833C91.143 197.654 90.4501 195.305 89.7192 192.462H141.548Z" fill="#0C0C0C"/>
<path d="M104.224 40.1599C104.224 40.1599 104.173 40.0684 104.065 39.9037C103.315 38.7569 99.7493 34.1818 91.1938 35.0236C81.4242 36.0179 77.6105 47.4557 80.6297 52.1833C83.6489 56.911 77.9855 59.0704 72.125 61.4373C66.2645 63.8041 61.5609 71.5025 67.1226 78.4445C72.6843 85.3864 101.046 86.9847 102.877 78.7495C104.707 70.5143 98.904 63.8773 99.5968 57.2404L104.224 40.1599Z" fill="#0C0C0C"/>
<path d="M98.5162 58.3873L97.6073 62.8526L96.6856 67.3789L91.7595 66.7689L92.6113 58.1189L92.8719 55.4836L98.5162 58.3873Z" fill="#E0B97F"/>
<path d="M98.5162 58.3873L97.6073 62.8526C94.6643 62.4866 93.2723 60.1686 92.6113 58.1189L92.8719 55.4836L98.5162 58.3873Z" fill="#0C0C0C"/>
<path d="M80.9539 66.6955C80.9539 66.6955 92.3952 62.0472 104.237 67.6106L102.012 74.1682L82.5493 73.485L80.9539 66.6955Z" fill="#F5C044"/>
<path d="M67.9235 81.3359C67.9235 81.3359 78.2525 71.1182 91.9184 71.4232C105.584 71.7282 113.53 82.251 113.53 82.251C113.53 82.251 120.522 92.7737 120.363 97.9589C120.204 103.144 116.39 117.479 116.39 117.479C117.51 121.729 119.053 125.866 120.998 129.832C124.018 135.78 139.749 146.76 142.292 149.2C144.834 151.64 146.9 175.51 113.371 175.51C79.8415 175.51 66.9701 167.043 66.9701 146.303C66.9701 125.562 67.9235 81.3359 67.9235 81.3359Z" fill="#F5C044"/>
<path d="M101.389 73.6804C101.349 73.6878 101.308 73.6878 101.268 73.6804C98.3025 72.4827 95.1289 71.8289 91.9121 71.7527C89.095 71.7037 86.2867 72.0699 83.5853 72.8386C83.5436 72.8498 83.5 72.853 83.457 72.848C83.4139 72.8431 83.3723 72.83 83.3346 72.8096C83.2968 72.7892 83.2636 72.7619 83.2368 72.7292C83.21 72.6965 83.1902 72.659 83.1785 72.619C83.1669 72.5789 83.1635 72.537 83.1687 72.4957C83.1739 72.4544 83.1875 72.4145 83.2087 72.3783C83.23 72.342 83.2584 72.3101 83.2925 72.2845C83.3266 72.2588 83.3656 72.2398 83.4074 72.2286C86.1725 71.4412 89.0474 71.0668 91.9311 71.1183C95.2229 71.2005 98.4696 71.873 101.504 73.1009C101.567 73.1299 101.619 73.1782 101.65 73.2382C101.682 73.2983 101.692 73.3668 101.679 73.4329C101.666 73.4991 101.63 73.5592 101.578 73.604C101.526 73.6488 101.459 73.6756 101.389 73.6804Z" fill="#E0B97F"/>
<path d="M140.175 230.686L139.069 234.798L136.997 242.478H131.168L133.126 233.785L133.819 230.686H140.175Z" fill="#E0B97F"/>
<path d="M140.175 230.686L139.069 234.798L133.126 233.785L133.819 230.686H140.175Z" fill="#0C0C0C"/>
<path d="M157.013 254.684H126.929C126.905 253.87 126.926 253.056 126.992 252.244C127.35 248.151 128.477 244.154 130.317 240.446C134.029 241.361 138.37 240.55 138.37 240.55C138.37 240.55 155.004 248.682 155.742 249.804C156.143 250.573 156.422 251.395 156.568 252.244C156.848 253.488 157.013 254.684 157.013 254.684Z" fill="#F5C044"/>
<path d="M157.013 254.684H126.929C126.905 253.87 126.926 253.056 126.992 252.244H156.568C156.848 253.488 157.013 254.684 157.013 254.684Z" fill="#0C0C0C"/>
<path d="M128.543 149.78C117.807 149.035 110.256 160.083 115.596 169.05C116.943 171.313 118.774 173.015 120.681 173.747C127.037 176.187 140.385 175.376 140.385 175.376L130.851 232.107H142.502C142.502 232.107 165.174 172.735 166.23 165.006C167.285 157.277 161.888 152.5 152.138 151.585C146.455 151.055 136.126 150.31 128.543 149.78Z" fill="#0C0C0C"/>
<path d="M135.033 229.417H134.969C134.928 229.41 134.888 229.395 134.853 229.373C134.818 229.35 134.787 229.322 134.764 229.288C134.74 229.255 134.724 229.217 134.715 229.177C134.707 229.138 134.707 229.097 134.715 229.057L147.523 165.939L119.422 162.773C119.38 162.768 119.34 162.756 119.303 162.736C119.266 162.717 119.234 162.69 119.208 162.658C119.182 162.627 119.162 162.59 119.151 162.551C119.14 162.512 119.137 162.471 119.142 162.431C119.153 162.352 119.196 162.28 119.261 162.23C119.326 162.18 119.409 162.156 119.492 162.163L147.936 165.366C147.979 165.371 148.021 165.384 148.059 165.405C148.096 165.427 148.129 165.455 148.154 165.489C148.18 165.522 148.198 165.561 148.207 165.601C148.217 165.642 148.218 165.684 148.21 165.725L135.338 229.167C135.325 229.236 135.287 229.299 135.232 229.344C135.176 229.39 135.106 229.415 135.033 229.417Z" fill="#E8E8E5"/>
<path d="M141.021 174.766C140.972 174.766 140.924 174.756 140.881 174.735C140.806 174.699 140.749 174.635 140.723 174.559C140.697 174.482 140.703 174.399 140.741 174.327C140.944 173.93 145.864 164.628 153.212 162.279C153.252 162.266 153.293 162.261 153.335 162.264C153.377 162.266 153.418 162.277 153.455 162.295C153.493 162.313 153.526 162.337 153.554 162.368C153.581 162.398 153.602 162.433 153.616 162.471C153.629 162.509 153.634 162.549 153.631 162.589C153.629 162.629 153.618 162.669 153.599 162.705C153.58 162.741 153.555 162.773 153.523 162.799C153.492 162.825 153.455 162.846 153.415 162.858C146.315 165.128 141.338 174.504 141.338 174.601C141.309 174.656 141.263 174.702 141.206 174.731C141.149 174.761 141.085 174.773 141.021 174.766Z" fill="#E8E8E5"/>
<path d="M107.86 230.686L106.779 234.688L104.682 242.478H98.8595L100.754 234.017L101.504 230.686H107.86Z" fill="#E0B97F"/>
<path d="M107.86 230.686L106.779 234.688L100.754 234.017L101.504 230.686H107.86Z" fill="#0C0C0C"/>
<path d="M124.704 254.684H94.6199C94.5962 253.87 94.6175 253.056 94.6834 252.244C95.0415 248.151 96.1677 244.154 98.0078 240.446C101.72 241.361 106.061 240.55 106.061 240.55C106.061 240.55 122.696 248.682 123.433 249.804C123.834 250.573 124.113 251.395 124.259 252.244C124.539 253.488 124.704 254.684 124.704 254.684Z" fill="#F5C044"/>
<path d="M124.704 254.684H94.6199C94.5962 253.87 94.6175 253.056 94.6834 252.244H124.259C124.539 253.488 124.704 254.684 124.704 254.684Z" fill="#0C0C0C"/>
<path d="M133.921 165.006C132.866 172.735 110.193 232.107 110.193 232.107H98.5417L108.076 175.376C104.543 175.571 101.001 175.571 97.4675 175.376C94.1686 175.162 90.7744 174.705 88.3717 173.784C82.0154 171.344 76.5045 158.125 86.8843 149.176C86.8843 149.176 110.123 150.707 119.835 151.616C129.548 152.525 134.982 157.283 133.921 165.006Z" fill="#E8E8E5"/>
<path d="M115.596 165.671C112.486 168.433 109.937 171.723 108.076 175.376C104.543 175.571 101.001 175.571 97.4675 175.376L115.596 165.671Z" fill="#0C0C0C"/>
<path d="M102.724 229.417H102.661C102.619 229.41 102.58 229.395 102.544 229.373C102.509 229.35 102.478 229.322 102.455 229.288C102.431 229.255 102.415 229.217 102.406 229.177C102.398 229.138 102.398 229.097 102.406 229.057L115.214 165.939L87.1131 162.773C87.0712 162.768 87.0307 162.756 86.9939 162.736C86.9572 162.717 86.9248 162.69 86.8988 162.658C86.8728 162.627 86.8536 162.59 86.8424 162.551C86.8311 162.512 86.8281 162.471 86.8334 162.431C86.8445 162.352 86.8871 162.28 86.9522 162.23C87.0173 162.18 87.1 162.156 87.183 162.163L115.627 165.366C115.67 165.371 115.712 165.384 115.75 165.405C115.787 165.427 115.82 165.455 115.845 165.489C115.871 165.522 115.889 165.561 115.899 165.601C115.908 165.642 115.909 165.684 115.901 165.725L103.029 229.167C103.016 229.236 102.979 229.299 102.923 229.344C102.867 229.39 102.797 229.415 102.724 229.417Z" fill="#0C0C0C"/>
<path d="M108.705 174.766C108.657 174.766 108.609 174.756 108.565 174.735C108.491 174.699 108.434 174.635 108.408 174.559C108.382 174.482 108.388 174.399 108.426 174.327C108.629 173.93 113.549 164.627 120.897 162.279C120.977 162.253 121.064 162.259 121.14 162.295C121.216 162.331 121.273 162.394 121.3 162.471C121.327 162.548 121.321 162.632 121.284 162.705C121.246 162.777 121.18 162.833 121.1 162.858C114 165.128 109.023 174.504 109.023 174.601C108.994 174.656 108.948 174.702 108.891 174.731C108.834 174.761 108.769 174.773 108.705 174.766Z" fill="#0C0C0C"/>
<path d="M109.983 78.9996C104.002 75.9496 95.2555 81.641 99.2854 91.6087C103.315 101.576 130.635 123.988 135.453 124.141C140.271 124.293 139.966 111.739 139.966 111.739C139.966 111.739 120.471 84.3861 109.983 78.9996Z" fill="#F5C044"/>
<path d="M118.532 116.339L124.571 81.5677H103.118L97.0797 116.339H118.532Z" fill="#0C0C0C"/>
<path d="M100.938 80.1526L103.118 81.5678H124.571L122.39 80.1526H100.938Z" fill="#B5B5B5"/>
<path d="M100.938 80.1526L94.8995 114.923L97.0797 116.339L103.118 81.5678L100.938 80.1526Z" fill="#E8E8E5"/>
<path d="M135.453 124.141C133.971 123.964 130.367 120.572 127.901 118.041C126.395 116.51 125.289 115.296 125.289 115.296C122.746 107.768 128.575 104.773 128.575 104.773C128.575 104.773 129.986 105.426 131.912 106.444L131.988 106.481C135.662 108.433 141.135 111.672 142.241 114.228C143.932 118.138 143.531 125.105 135.453 124.141Z" fill="#F5C044"/>
<path d="M132.974 123.037C132.9 123.038 132.828 123.014 132.77 122.97C131.287 121.77 129.876 120.491 128.543 119.139C128.514 119.11 128.491 119.076 128.476 119.038C128.46 119.001 128.452 118.961 128.453 118.921C128.454 118.881 128.462 118.841 128.479 118.804C128.496 118.767 128.52 118.734 128.55 118.706C128.58 118.678 128.615 118.655 128.654 118.641C128.693 118.626 128.735 118.618 128.777 118.619C128.818 118.619 128.86 118.628 128.898 118.644C128.937 118.66 128.972 118.683 129.001 118.712C130.316 120.046 131.708 121.309 133.171 122.494C133.222 122.533 133.259 122.587 133.277 122.647C133.295 122.708 133.293 122.772 133.272 122.832C133.25 122.892 133.21 122.943 133.157 122.98C133.103 123.016 133.039 123.036 132.974 123.037Z" fill="#E0B97F"/>
<path d="M137.664 110.153C137.599 110.154 137.534 110.134 137.48 110.098C136.133 109.183 134.512 108.207 132.662 107.201C132.594 107.159 132.544 107.093 132.525 107.017C132.505 106.942 132.516 106.862 132.556 106.794C132.596 106.726 132.661 106.675 132.739 106.652C132.817 106.629 132.901 106.635 132.974 106.67C134.842 107.689 136.482 108.677 137.842 109.604C137.895 109.642 137.934 109.694 137.954 109.754C137.975 109.814 137.975 109.879 137.956 109.939C137.936 109.999 137.898 110.052 137.845 110.09C137.793 110.129 137.73 110.151 137.664 110.153Z" fill="#E0B97F"/>
<path d="M127.901 118.041C126.395 116.51 125.289 115.296 125.289 115.296C122.746 107.768 128.575 104.773 128.575 104.773C128.575 104.773 129.986 105.426 131.912 106.444C132.446 108.939 132.834 114.265 127.901 118.041Z" fill="#E8E8E5"/>
<path d="M120.573 108.634L122.746 109.195L126.827 113.112C126.827 113.112 129.795 109.805 128.416 106.353L124.71 103.913L122.486 98.9288L120.573 108.634Z" fill="#E0B97F"/>
<path d="M122.187 97.8551C121.117 96.5274 119.762 95.4353 118.214 94.6526C117.185 94.1219 116.149 95.4029 117.14 97.1536C117.14 97.1536 115.526 98.3737 117.077 100.32C117.077 100.32 115.475 101.619 117.026 103.37C117.026 103.37 115.157 104.041 116.473 105.913C117.788 107.786 120.286 109.421 121.164 109.012C122.041 108.604 121.405 106.572 121.405 106.572C121.405 106.572 123.128 105.584 122.041 103.345C122.041 103.345 123.261 102.229 122.2 100.423C122.187 100.423 123.617 99.7401 122.187 97.8551Z" fill="#E0B97F"/>
<path d="M120.573 106.237C120.523 106.237 120.475 106.226 120.43 106.205C120.386 106.183 120.348 106.153 120.318 106.115C119.55 105.219 118.598 104.484 117.522 103.955C117.452 103.917 117.399 103.855 117.375 103.782C117.351 103.708 117.357 103.628 117.392 103.559C117.427 103.489 117.487 103.435 117.562 103.407C117.637 103.378 117.72 103.378 117.795 103.406C118.966 103.974 119.999 104.772 120.827 105.749C120.862 105.794 120.884 105.848 120.889 105.904C120.894 105.961 120.883 106.018 120.857 106.068C120.83 106.119 120.79 106.162 120.74 106.191C120.689 106.221 120.632 106.237 120.573 106.237Z" fill="#0C0C0C"/>
<path d="M121.132 103.248C121.079 103.248 121.026 103.235 120.98 103.21C120.933 103.186 120.894 103.15 120.865 103.108C120.049 102.049 118.952 101.22 117.687 100.71C117.608 100.68 117.546 100.622 117.512 100.547C117.479 100.473 117.478 100.389 117.509 100.314C117.54 100.238 117.601 100.178 117.679 100.146C117.756 100.114 117.844 100.113 117.922 100.143C119.316 100.696 120.524 101.608 121.412 102.778C121.443 102.825 121.46 102.879 121.462 102.935C121.463 102.991 121.449 103.046 121.42 103.094C121.391 103.143 121.349 103.183 121.298 103.21C121.248 103.237 121.19 103.25 121.132 103.248Z" fill="#0C0C0C"/>
<path d="M121.132 100.198C121.079 100.198 121.026 100.185 120.98 100.16C120.933 100.136 120.894 100.1 120.865 100.057C120.053 98.9778 118.999 98.0859 117.782 97.4465C117.707 97.4093 117.651 97.345 117.625 97.2678C117.599 97.1906 117.607 97.1068 117.645 97.0348C117.684 96.9628 117.751 96.9085 117.832 96.8839C117.912 96.8593 118 96.8664 118.075 96.9036C119.393 97.5887 120.53 98.5549 121.399 99.728C121.43 99.774 121.447 99.8272 121.449 99.8819C121.451 99.9365 121.438 99.9907 121.41 100.039C121.383 100.087 121.343 100.127 121.294 100.155C121.245 100.183 121.189 100.198 121.132 100.198Z" fill="#0C0C0C"/>
<path d="M91.6515 115.192C91.6515 115.192 89.8526 116.467 87.0622 118.242C82.0535 121.39 73.8539 126.087 67.1798 127.721C56.8 130.265 49.7001 128.942 49.1725 122.536C48.6449 116.131 58.0713 91.0047 67.9235 81.3603C73.8539 75.5652 83.3883 90.3093 78.9389 97.3244C76.1485 101.723 72.3729 108.097 72.3729 108.097L80.153 105.956L84.5579 104.736C91.9693 107.463 91.6515 115.192 91.6515 115.192Z" fill="#F5C044"/>
<path d="M67.1798 128.002C67.0955 128.012 67.0107 127.989 66.9439 127.939C66.8772 127.888 66.834 127.815 66.8239 127.734C66.8138 127.653 66.8375 127.571 66.89 127.507C66.9424 127.443 67.0193 127.402 67.1035 127.392C73.1166 125.922 80.3945 121.933 85.4414 118.852C85.5121 118.813 85.5955 118.802 85.6746 118.821C85.7536 118.839 85.8222 118.886 85.8662 118.952C85.9102 119.018 85.9263 119.097 85.9111 119.174C85.8959 119.251 85.8507 119.319 85.7846 119.364C80.6996 122.469 73.3518 126.489 67.2625 127.984L67.1798 128.002Z" fill="#E0B97F"/>
<path d="M72.3729 108.378C72.3172 108.378 72.2627 108.363 72.2146 108.336C72.1666 108.309 72.1267 108.271 72.0991 108.225C72.0714 108.178 72.0569 108.126 72.057 108.072C72.0571 108.019 72.0717 107.967 72.0996 107.92C72.1377 107.859 75.9133 101.491 78.6719 97.1414C80.3754 94.4573 80.064 90.1018 77.8838 86.0452C76.0976 82.7267 73.4789 80.4819 71.2097 80.3294C71.1254 80.3237 71.0469 80.2862 70.9915 80.225C70.936 80.1637 70.9082 80.0839 70.9141 80.003C70.92 79.9221 70.9592 79.8468 71.0229 79.7936C71.0867 79.7404 71.1699 79.7137 71.2542 79.7194C73.7967 79.8902 76.5362 82.2082 78.4495 85.7646C80.7314 90.0347 81.0365 94.5976 79.2186 97.4586C76.9812 100.984 74.0763 105.834 73.0466 107.573L78.4431 106.084C78.4848 106.073 78.5285 106.07 78.5715 106.075C78.6145 106.08 78.6561 106.093 78.6939 106.113C78.7317 106.134 78.7649 106.161 78.7917 106.194C78.8184 106.226 78.8382 106.264 78.8499 106.304C78.8616 106.344 78.8649 106.386 78.8598 106.427C78.8546 106.468 78.841 106.508 78.8197 106.545C78.7985 106.581 78.77 106.613 78.7359 106.638C78.7018 106.664 78.6628 106.683 78.6211 106.694L72.4682 108.384L72.3729 108.378Z" fill="#E0B97F"/>
<path d="M91.6514 115.192C91.6514 115.192 89.8526 116.467 87.0622 118.242C80.2292 114.905 79.975 108.433 80.153 105.956L84.5578 104.736C91.9693 107.463 91.6514 115.192 91.6514 115.192Z" fill="#E8E8E5"/>
<path d="M85.0854 106.395C85.0854 106.395 86.1978 111.58 89.9035 113.106L96.9462 107.207C96.9462 107.207 103.989 106.914 104.866 106.304C105.135 106.075 105.349 105.793 105.493 105.477C105.637 105.161 105.707 104.819 105.699 104.474C106.102 104.144 106.399 103.71 106.554 103.224C106.71 102.738 106.717 102.219 106.576 101.729C106.992 101.279 107.271 100.728 107.384 100.137C107.496 99.545 107.436 98.9351 107.212 98.3737C107.212 98.3737 109.157 95.2077 109.436 94.1036C109.716 92.9994 108.324 92.6578 107.294 93.7254C106.698 94.4477 105.954 95.0455 105.108 95.4822C104.555 95.714 99.2281 96.7388 99.2281 96.7388C98.776 96.5451 98.4172 96.1942 98.2239 95.7567L98.8023 92.4321C98.1189 92.7297 97.5049 93.1565 96.9971 93.6868C96.4893 94.2171 96.098 94.8402 95.8466 95.5188C95.1729 97.6905 94.0224 102.308 94.0224 102.308L85.0854 106.395Z" fill="#E0B97F"/>
<path d="M104.459 192.463H50.0179C50.0179 192.463 34.89 150.5 35.8434 126.477C35.9197 124.476 36.0892 122.559 36.3519 120.725C37.299 114.088 47.5008 114.521 47.7932 121.213C48.0284 126.404 48.6386 131.998 49.5094 137.738H87.0813L89.0835 137.787C95.9038 137.787 98.3573 141.709 99.1582 149.151C100.436 160.943 104.459 192.463 104.459 192.463Z" fill="#0C0C0C"/>
<path d="M87.0877 138.043H49.5158C49.4397 138.042 49.3665 138.015 49.3094 137.967C49.2522 137.919 49.215 137.853 49.2043 137.781C48.289 131.735 47.7106 126.19 47.4881 121.225C47.4864 121.185 47.493 121.145 47.5074 121.107C47.5218 121.07 47.5438 121.035 47.5721 121.006C47.6005 120.976 47.6346 120.952 47.6725 120.935C47.7105 120.919 47.7515 120.909 47.7932 120.908C47.8352 120.905 47.8772 120.911 47.9168 120.924C47.9564 120.938 47.9927 120.959 48.0236 120.986C48.0545 121.014 48.0793 121.047 48.0965 121.084C48.1137 121.12 48.123 121.16 48.1237 121.2C48.3462 126.05 48.9056 131.51 49.7954 137.433H87.094C87.1358 137.433 87.177 137.442 87.2154 137.457C87.2538 137.473 87.2886 137.496 87.3178 137.524C87.347 137.553 87.3701 137.587 87.3857 137.624C87.4013 137.661 87.4091 137.701 87.4087 137.741C87.4083 137.781 87.3996 137.821 87.3833 137.858C87.3669 137.894 87.3431 137.928 87.3133 137.956C87.2835 137.984 87.2483 138.006 87.2095 138.021C87.1708 138.036 87.1294 138.043 87.0877 138.043Z" fill="#E8E8E5"/>
<path d="M89.5475 192.011C89.4742 192.011 89.4032 191.987 89.3465 191.942C89.2897 191.898 89.2507 191.836 89.2361 191.767C87.5326 184.148 79.3902 145.79 86.2041 138.726C86.2316 138.694 86.2657 138.667 86.3043 138.648C86.343 138.628 86.3854 138.617 86.4288 138.614C86.4723 138.611 86.5159 138.617 86.557 138.631C86.5981 138.645 86.6357 138.667 86.6676 138.695C86.6995 138.724 86.7249 138.758 86.7423 138.796C86.7597 138.835 86.7687 138.876 86.7688 138.918C86.7688 138.96 86.7599 139.001 86.7426 139.039C86.7253 139.078 86.6999 139.112 86.6681 139.141C79.9241 146.126 88.8165 186.997 89.8463 191.639C89.8633 191.717 89.8475 191.799 89.8023 191.866C89.7571 191.934 89.6862 191.981 89.6047 191.999H89.5348L89.5475 192.011Z" fill="#E8E8E5"/>
<path d="M96.7619 41.9169C91.4608 44.6864 88.6577 60.2966 98.1158 61.0592C107.574 61.8217 107.568 36.2743 96.7619 41.9169Z" fill="#E0B97F"/>
<path d="M90.698 54.4954C90.698 54.4954 92.5286 50.0727 94.8296 47.3277C94.8296 47.3277 100.474 50.7621 105.317 49.0845C110.161 47.407 112.869 38.4886 108.737 36.7317C104.606 34.9749 102.381 38.9461 102.381 38.9461C102.381 38.9461 84.6087 33.9866 90.698 54.4954Z" fill="#0C0C0C"/>
<path d="M92.7129 53.1229C92.7129 53.1229 91.2065 47.407 86.4393 48.5478C81.6721 49.6885 86.0452 58.3873 92.8782 55.4897L92.7129 53.1229Z" fill="#E0B97F"/>
<path d="M90.8697 54.471C90.8051 54.4715 90.742 54.453 90.6886 54.4182C90.6352 54.3833 90.5942 54.3336 90.5709 54.2758C90.5709 54.2453 89.2107 51.0184 86.3822 50.6157C86.3404 50.6097 86.3003 50.5959 86.2642 50.575C86.228 50.5541 86.1965 50.5266 86.1714 50.4941C86.1463 50.4615 86.1281 50.4245 86.118 50.3852C86.1078 50.3459 86.1058 50.305 86.112 50.265C86.1183 50.2249 86.1327 50.1865 86.1544 50.1517C86.1762 50.117 86.2049 50.0868 86.2388 50.0627C86.2727 50.0386 86.3113 50.0212 86.3522 50.0114C86.3932 50.0017 86.4358 49.9997 86.4775 50.0057C89.6556 50.4693 91.1049 53.9098 91.1621 54.0562C91.1805 54.1021 91.1871 54.1516 91.1814 54.2005C91.1756 54.2494 91.1575 54.2962 91.1288 54.337C91.1001 54.3777 91.0615 54.4112 91.0164 54.4345C90.9713 54.4579 90.9209 54.4704 90.8697 54.471Z" fill="#0C0C0C"/>
<path d="M88.2954 53.9159C88.2122 53.9159 88.1323 53.8846 88.0728 53.8288C88.0134 53.7729 87.9792 53.6968 87.9775 53.617C88.0123 52.8242 88.2741 52.056 88.7339 51.3966C88.7786 51.3278 88.8499 51.2789 88.9322 51.2606C89.0144 51.2423 89.1009 51.2561 89.1725 51.299C89.2442 51.3418 89.2951 51.4103 89.3142 51.4892C89.3333 51.5681 89.3189 51.6511 89.2742 51.7199C88.8929 52.2812 88.6736 52.9295 88.6386 53.5987C88.6394 53.6388 88.632 53.6786 88.6169 53.7159C88.6017 53.7532 88.5789 53.7873 88.55 53.8162C88.5211 53.8451 88.4865 53.8682 88.4483 53.8843C88.41 53.9003 88.3689 53.909 88.3271 53.9098L88.2954 53.9159Z" fill="#0C0C0C"/>
<path d="M95.3254 50.7439C95.3254 50.7439 96.4568 48.7796 98.0077 49.6154C98.0197 49.498 98.0749 49.3887 98.1635 49.307C98.2521 49.2253 98.3682 49.1768 98.4908 49.17C98.904 49.17 98.8912 50.4267 98.8912 50.4267C97.6925 50.3019 96.4798 50.4098 95.3254 50.7439Z" fill="#0C0C0C"/>
<path d="M104.211 52.0857C104.211 52.0857 104.18 50.036 102.94 50.5484C102.942 50.4581 102.916 50.3691 102.867 50.2923C102.817 50.2155 102.746 50.154 102.661 50.1153C102.203 50.0238 102.025 51.195 102.025 51.195C102.834 51.261 103.6 51.573 104.211 52.0857Z" fill="#0C0C0C"/>
<path d="M98.334 53.2782C98.3798 52.7038 98.0254 52.2093 97.5424 52.1738C97.0594 52.1383 96.6306 52.5752 96.5848 53.1496C96.5389 53.724 96.8933 54.2185 97.3764 54.254C97.8594 54.2895 98.2881 53.8526 98.334 53.2782Z" fill="#0C0C0C"/>
<path d="M97.9217 52.8752C97.9316 52.7509 97.8347 52.6425 97.7052 52.6329C97.5757 52.6234 97.4626 52.7165 97.4527 52.8407C97.4428 52.965 97.5397 53.0735 97.6692 53.083C97.7988 53.0926 97.9118 52.9995 97.9217 52.8752Z" fill="#F5C044"/>
<path d="M104.142 53.6304C104.19 53.0543 103.836 52.5571 103.351 52.5199C102.867 52.4827 102.435 52.9196 102.387 53.4957C102.339 54.0718 102.693 54.569 103.177 54.6062C103.662 54.6434 104.093 54.2065 104.142 53.6304Z" fill="#0C0C0C"/>
<path d="M103.075 53.254C103.085 53.1297 102.988 53.0212 102.859 53.0117C102.729 53.0022 102.616 53.0952 102.606 53.2195C102.596 53.3438 102.693 53.4523 102.823 53.4618C102.952 53.4713 103.065 53.3783 103.075 53.254Z" fill="#F5C044"/>
<path d="M100.34 56.9782C100.11 56.9777 99.8801 56.9427 99.6604 56.8745C99.5832 56.8472 99.5201 56.7923 99.4842 56.7212C99.4483 56.6502 99.4426 56.5686 99.4681 56.4936C99.4936 56.4186 99.5484 56.356 99.621 56.3189C99.6936 56.2819 99.7784 56.2733 99.8574 56.2949C99.8574 56.2949 100.76 56.5694 101.027 56.0326C101.044 56.006 101.053 55.9754 101.053 55.9442C101.053 55.913 101.044 55.8824 101.027 55.8557C100.782 55.6606 100.475 55.551 100.156 55.5446C100.073 55.5384 99.9957 55.501 99.9409 55.4405C99.8862 55.38 99.8585 55.3013 99.8638 55.2213L100.01 53.19C100.018 53.1107 100.057 53.0374 100.12 52.9852C100.183 52.933 100.264 52.9059 100.347 52.9094C100.43 52.9156 100.507 52.953 100.562 53.0135C100.617 53.074 100.645 53.1527 100.639 53.2327L100.512 54.9834C100.721 55.0067 100.922 55.07 101.104 55.1696C101.287 55.2692 101.446 55.4029 101.574 55.5629C101.64 55.6766 101.675 55.8047 101.675 55.935C101.675 56.0653 101.64 56.1934 101.574 56.3071C101.457 56.5208 101.279 56.6977 101.06 56.8166C100.841 56.9356 100.591 56.9917 100.34 56.9782Z" fill="#0C0C0C"/>
<path d="M100.232 58.8446C100.232 58.8446 97.8234 60.1867 96.4822 57.3562L100.232 58.8446Z" fill="#F5C044"/>
<path d="M127.113 129.985V247.492C127.113 249.429 128.749 250.999 130.768 250.999C132.786 250.999 134.423 249.429 134.423 247.492V129.985C134.423 128.047 132.786 126.477 130.768 126.477C128.749 126.477 127.113 128.047 127.113 129.985Z" fill="#0C0C0C"/>
<path d="M201.526 126.477H85.6829C83.6644 126.477 82.0281 128.048 82.0281 129.985C82.0281 131.922 83.6644 133.492 85.6829 133.492H201.526C203.544 133.492 205.181 131.922 205.181 129.985C205.181 128.048 203.544 126.477 201.526 126.477Z" fill="#E8E8E5"/>
<path d="M104.033 126.477H60.0163C57.9978 126.477 56.3615 128.048 56.3615 129.985C56.3615 131.922 57.9978 133.492 60.0163 133.492H104.033C106.052 133.492 107.688 131.922 107.688 129.985C107.688 128.048 106.052 126.477 104.033 126.477Z" fill="#B5B5B5"/>
<path d="M179.59 242.813H173.349L170.901 234.376L169.808 230.613L177.042 229.777L177.696 233.126L179.59 242.813Z" fill="#E0B97F"/>
<path d="M177.696 233.126L170.901 234.376L169.808 230.613L177.042 229.777L177.696 233.126Z" fill="#0C0C0C"/>
<path d="M180.321 240.684C177.274 240.707 174.227 240.579 171.194 240.3C167.742 245.637 155.735 249.603 155.24 250.414C155.026 251.001 154.937 251.623 154.979 252.244C154.979 253.421 155.1 254.684 155.1 254.684H181.669C181.659 249.988 181.208 245.302 180.321 240.684Z" fill="#0C0C0C"/>
<path d="M181.643 252.244H154.992C154.992 253.421 155.112 254.684 155.112 254.684H181.682C181.682 253.861 181.669 253.055 181.643 252.244Z" fill="#E8E8E5"/>
<path d="M201.125 155.355C201.125 155.355 151.941 154.337 147.733 155.355C143.525 156.374 143.855 162.675 144.428 166.744C145 170.813 167.946 232.217 167.946 232.217H178.478C178.478 232.217 172.192 193.377 169.287 180.165C169.287 180.165 214.69 188.095 223.951 185.655C233.212 183.215 232.748 165.725 232.748 165.725L201.125 155.355Z" fill="#0C0C0C"/>
<path d="M171.721 230.082C171.655 230.081 171.591 230.061 171.537 230.024C171.484 229.987 171.444 229.935 171.423 229.875L155.786 170.703C155.775 170.658 155.774 170.612 155.784 170.567C155.794 170.522 155.814 170.48 155.843 170.443C155.873 170.407 155.91 170.377 155.953 170.357C155.996 170.336 156.043 170.325 156.091 170.325H204.075L208.823 161.943C208.843 161.908 208.87 161.877 208.903 161.852C208.935 161.826 208.973 161.808 209.013 161.796C209.053 161.785 209.095 161.781 209.137 161.786C209.178 161.79 209.218 161.802 209.255 161.821C209.292 161.84 209.324 161.866 209.351 161.898C209.377 161.929 209.396 161.965 209.408 162.003C209.42 162.042 209.424 162.082 209.419 162.122C209.415 162.162 209.402 162.201 209.382 162.236L204.539 170.776C204.511 170.824 204.471 170.865 204.422 170.892C204.372 170.92 204.316 170.935 204.259 170.935H156.504L172.058 229.698C172.069 229.736 172.071 229.777 172.065 229.817C172.06 229.856 172.046 229.895 172.024 229.929C172.003 229.964 171.975 229.994 171.941 230.018C171.908 230.042 171.87 230.06 171.829 230.07L171.721 230.082Z" fill="#E8E8E5"/>
<path d="M167.914 179.298C167.863 179.298 167.813 179.285 167.768 179.262C167.672 179.213 158.31 174.418 152.926 167.427C152.896 167.396 152.873 167.359 152.858 167.318C152.844 167.277 152.839 167.234 152.843 167.192C152.847 167.149 152.861 167.108 152.883 167.07C152.905 167.033 152.935 167.001 152.971 166.975C153.007 166.95 153.048 166.932 153.092 166.923C153.135 166.914 153.18 166.913 153.224 166.922C153.268 166.931 153.309 166.948 153.345 166.973C153.382 166.998 153.412 167.03 153.434 167.067C158.723 173.942 167.965 178.658 168.054 178.719C168.119 178.749 168.171 178.799 168.202 178.862C168.233 178.924 168.241 178.995 168.225 179.062C168.209 179.129 168.169 179.19 168.113 179.232C168.056 179.275 167.986 179.299 167.914 179.298Z" fill="#E8E8E5"/>
<path d="M204.272 170.911C204.219 170.911 204.166 170.898 204.12 170.873C204.073 170.849 204.034 170.813 204.005 170.77C198.92 163.322 203.643 158.985 203.693 158.942C203.756 158.893 203.835 158.869 203.916 158.875C203.996 158.88 204.071 158.915 204.126 158.971C204.181 159.028 204.211 159.102 204.211 159.179C204.211 159.257 204.181 159.331 204.126 159.387C203.941 159.552 199.746 163.432 204.539 170.435C204.571 170.481 204.59 170.535 204.593 170.59C204.596 170.646 204.583 170.701 204.555 170.75C204.528 170.799 204.487 170.84 204.437 170.868C204.387 170.897 204.33 170.911 204.272 170.911Z" fill="#E8E8E5"/>
<path d="M142.851 229.777V242.813H136.253L135.319 235.267L134.747 230.613L142.851 229.777Z" fill="#E0B97F"/>
<path d="M134.747 230.613L142.851 229.777V233.773L135.319 235.267L134.747 230.613Z" fill="#0C0C0C"/>
<path d="M145.68 254.684H111.038C111.144 253.863 111.299 253.048 111.502 252.244C111.625 251.584 111.901 250.958 112.309 250.414C113.161 249.603 128.257 245.637 134.105 240.3C137.513 240.596 140.935 240.724 144.358 240.684C145.104 244.498 145.529 248.364 145.629 252.244C145.667 253.055 145.68 253.848 145.68 254.684Z" fill="#0C0C0C"/>
<path d="M145.68 254.684H111.038C111.144 253.863 111.299 253.048 111.502 252.244H145.642C145.667 253.055 145.68 253.848 145.68 254.684Z" fill="#E8E8E5"/>
<path d="M178.415 155.355C178.415 155.355 132.44 154.337 126.719 155.355C120.998 156.374 119.81 162.675 119.517 166.744C119.225 170.813 133.501 232.217 133.501 232.217H144.091C144.091 232.217 145.788 193.377 145.362 180.165C145.362 180.165 187.739 188.095 200.452 185.655C213.164 183.215 216.978 165.725 216.978 165.725L178.415 155.355Z" fill="#E8E8E5"/>
<path d="M133.495 232.522C133.422 232.522 133.352 232.499 133.295 232.456C133.239 232.412 133.199 232.352 133.183 232.284C132.599 229.771 118.907 170.703 119.2 166.72C119.695 159.772 122.206 155.843 126.662 155.056C132.351 154.044 176.546 155.008 178.427 155.056C178.469 155.057 178.51 155.066 178.548 155.082C178.587 155.098 178.621 155.121 178.65 155.15C178.679 155.179 178.702 155.213 178.717 155.25C178.732 155.288 178.74 155.327 178.739 155.367C178.735 155.448 178.7 155.524 178.639 155.58C178.579 155.635 178.498 155.666 178.415 155.666C177.957 155.666 132.408 154.66 126.783 155.666C122.651 156.398 120.312 160.138 119.841 166.775C119.562 170.673 133.673 231.546 133.825 232.162C133.835 232.201 133.836 232.242 133.829 232.282C133.822 232.322 133.806 232.359 133.784 232.394C133.762 232.428 133.732 232.457 133.698 232.48C133.664 232.503 133.625 232.52 133.584 232.528H133.514L133.495 232.522Z" fill="#0C0C0C"/>
<path d="M139.006 230.082C138.926 230.082 138.848 230.054 138.789 230.002C138.731 229.95 138.694 229.878 138.688 229.801L133.393 170.63C133.39 170.588 133.395 170.546 133.41 170.506C133.424 170.466 133.447 170.429 133.477 170.398C133.507 170.367 133.543 170.343 133.583 170.326C133.623 170.309 133.667 170.3 133.711 170.301H178.491L186.875 161.858C186.934 161.807 187.012 161.779 187.092 161.78C187.172 161.781 187.249 161.811 187.307 161.865C187.365 161.918 187.4 161.99 187.405 162.067C187.409 162.144 187.383 162.22 187.332 162.279L178.86 170.819C178.83 170.849 178.795 170.874 178.756 170.89C178.716 170.907 178.674 170.916 178.631 170.917H134.054L139.324 229.759C139.327 229.799 139.322 229.839 139.309 229.877C139.296 229.916 139.276 229.951 139.249 229.982C139.222 230.012 139.188 230.038 139.151 230.056C139.114 230.074 139.073 230.085 139.031 230.088L139.006 230.082Z" fill="#0C0C0C"/>
<path d="M143.881 179.298C143.822 179.297 143.765 179.28 143.716 179.25C143.639 179.201 135.739 174.412 130.514 167.427C130.485 167.395 130.464 167.358 130.451 167.317C130.438 167.277 130.434 167.234 130.44 167.192C130.445 167.15 130.459 167.11 130.482 167.074C130.504 167.037 130.534 167.006 130.57 166.981C130.606 166.956 130.647 166.939 130.69 166.931C130.733 166.922 130.777 166.922 130.821 166.931C130.864 166.939 130.904 166.957 130.94 166.981C130.976 167.006 131.006 167.037 131.029 167.074C136.171 173.955 143.97 178.664 144.046 178.737C144.103 178.773 144.147 178.825 144.171 178.886C144.195 178.947 144.198 179.014 144.18 179.076C144.161 179.139 144.122 179.195 144.068 179.235C144.015 179.275 143.949 179.297 143.881 179.298Z" fill="#0C0C0C"/>
<path d="M178.624 170.911C178.569 170.911 178.515 170.898 178.468 170.872C178.42 170.846 178.379 170.809 178.351 170.764C176.87 168.44 176.393 166.183 176.934 164.054C177.556 161.931 178.964 160.098 180.893 158.899C180.966 158.857 181.053 158.845 181.135 158.864C181.217 158.884 181.288 158.934 181.332 159.003C181.376 159.073 181.389 159.156 181.369 159.235C181.349 159.314 181.296 159.382 181.224 159.424C179.446 160.548 178.143 162.244 177.55 164.207C177.054 166.165 177.506 168.263 178.898 170.441C178.929 170.487 178.946 170.541 178.948 170.596C178.95 170.652 178.936 170.706 178.908 170.754C178.88 170.803 178.838 170.843 178.788 170.87C178.739 170.898 178.682 170.912 178.624 170.911Z" fill="#0C0C0C"/>
<path d="M195.252 53.6841C195.252 53.6841 194.248 55.3006 193.663 56.2705C193.078 57.2405 196.416 57.6492 196.416 57.6492L195.252 53.6841Z" fill="#E0B97F"/>
<path d="M196.415 57.9542H196.377C195.945 57.8993 193.765 57.5943 193.352 56.8013C193.296 56.6941 193.27 56.5752 193.276 56.4558C193.281 56.3363 193.319 56.2201 193.384 56.1181C193.968 55.1482 194.973 53.5255 194.973 53.5255L195.519 53.8366C195.519 53.8366 194.515 55.4532 193.93 56.4231C193.92 56.4386 193.915 56.4566 193.915 56.4749C193.915 56.4933 193.92 56.5112 193.93 56.5268C194.102 56.8623 195.379 57.21 196.473 57.3442C196.514 57.3478 196.555 57.3593 196.592 57.3779C196.629 57.3966 196.662 57.4221 196.689 57.4529C196.716 57.4838 196.736 57.5195 196.749 57.5579C196.761 57.5962 196.766 57.6366 196.762 57.6767C196.758 57.7167 196.746 57.7557 196.727 57.7913C196.707 57.8269 196.681 57.8585 196.649 57.8843C196.616 57.9101 196.579 57.9295 196.539 57.9415C196.499 57.9535 196.457 57.9578 196.415 57.9542Z" fill="#0C0C0C"/>
<path d="M211.976 52.1042C211.493 59.8514 204.723 63.2125 200.229 62.5659C199.761 62.5035 199.303 62.3888 198.863 62.2243C194.095 60.3943 193.428 50.024 195.367 44.7352C196.638 41.2764 210.622 38.635 211.893 49.3103C212.008 50.2373 212.035 51.1724 211.976 52.1042Z" fill="#E0B97F"/>
<path d="M211.976 52.104C211.493 59.8512 204.723 63.2124 200.229 62.5658C204.043 59.6255 204.914 52.4639 204.914 52.4639C204.914 52.4639 208.569 52.1833 211.976 52.104Z" fill="#0C0C0C"/>
<path d="M209.389 58.2348L209.904 67.7266L203.312 68.0682L203.611 57.6492L209.389 58.2348Z" fill="#E0B97F"/>
<path d="M190.809 32.6385C190.809 32.6385 184.243 37.2137 188.057 44.6375C191.871 52.0614 201.297 48.8039 201.297 48.8039L202.359 54.4466C202.359 54.4466 203.522 60.3942 208.664 60.3942C213.806 60.3942 218.783 50.8353 218.726 49.5665C218.669 48.2976 216.183 45.0951 216.183 45.0951C216.183 45.0951 216.342 38.1836 213.749 37.0124C211.156 35.8411 203.63 38.4886 203.63 38.4886C203.63 38.4886 197.909 33.5536 190.809 32.6385Z" fill="#0C0C0C"/>
<path d="M201.685 55.6543C201.685 55.6543 203.484 51.0304 207.088 51.8417C210.692 52.6531 208.149 58.7532 202.479 58.1981L201.685 55.6543Z" fill="#E0B97F"/>
<path d="M203.007 57.0513C202.969 57.0581 202.93 57.0581 202.892 57.0513C202.854 57.0366 202.818 57.0146 202.788 56.9866C202.758 56.9587 202.734 56.9253 202.718 56.8885C202.701 56.8517 202.692 56.8121 202.692 56.772C202.691 56.7319 202.699 56.6921 202.715 56.6548C202.765 56.5267 203.986 53.5499 206.776 53.1472C206.859 53.1366 206.944 53.1574 207.011 53.2052C207.079 53.253 207.124 53.324 207.138 53.4035C207.145 53.4431 207.143 53.4836 207.133 53.5225C207.123 53.5615 207.105 53.5982 207.08 53.6305C207.055 53.6628 207.024 53.6901 206.988 53.7108C206.953 53.7315 206.913 53.7452 206.872 53.7512C204.456 54.105 203.318 56.85 203.306 56.8744C203.279 56.9288 203.237 56.9746 203.184 57.0061C203.131 57.0375 203.069 57.0533 203.007 57.0513Z" fill="#0C0C0C"/>
<path d="M205.219 56.5755C205.177 56.5747 205.136 56.566 205.098 56.55C205.059 56.5339 205.025 56.5108 204.996 56.4819C204.967 56.453 204.944 56.4189 204.929 56.3816C204.914 56.3443 204.907 56.3045 204.907 56.2644C204.871 55.6956 204.678 55.1463 204.348 54.6723C204.303 54.6035 204.289 54.5205 204.308 54.4416C204.327 54.3627 204.378 54.2942 204.45 54.2514C204.521 54.2085 204.608 54.1947 204.69 54.213C204.772 54.2313 204.844 54.2802 204.888 54.3489C205.281 54.9255 205.501 55.5944 205.524 56.2827C205.521 56.3594 205.488 56.4321 205.431 56.4864C205.375 56.5407 205.299 56.5725 205.219 56.5755Z" fill="#0C0C0C"/>
<path d="M195.761 68.5257C195.761 68.5257 209.389 61.4373 219.876 66.5065L217.734 73.2167L198.627 74.4367L195.761 68.5257Z" fill="#0C0C0C"/>
<path d="M193.034 75.5408C199.164 72.0588 206.279 70.5119 213.374 71.1182C225.375 72.1125 229.347 77.8283 230.619 80.9577C231.89 84.0871 238.882 131.668 236.339 166.744C236.339 166.744 219.387 172.844 201.965 171.014C184.542 169.184 171.213 152.403 171.213 152.403C171.213 152.403 184.243 122.512 185.197 107.262C186.15 92.0112 187.606 80.1342 193.034 75.5408Z" fill="#0C0C0C"/>
<path d="M199.486 73.0155C199.401 73.0285 199.315 73.0087 199.246 72.9607C199.177 72.9127 199.13 72.8402 199.117 72.7593C199.103 72.6784 199.124 72.5957 199.174 72.5294C199.224 72.463 199.3 72.4185 199.384 72.4055C203.901 70.9571 208.68 70.4111 213.425 70.8012C214.766 70.9089 216.098 71.0923 217.417 71.3502C217.458 71.3582 217.496 71.3739 217.531 71.3963C217.566 71.4187 217.595 71.4474 217.618 71.4809C217.641 71.5143 217.657 71.5517 217.665 71.5911C217.673 71.6304 217.673 71.6708 217.665 71.7101C217.646 71.7886 217.597 71.8572 217.527 71.9016C217.457 71.9459 217.372 71.9626 217.29 71.948C215.996 71.6956 214.689 71.5164 213.374 71.4112C208.714 71.0299 204.023 71.5676 199.587 72.9911L199.486 73.0155Z" fill="#E8E8E5"/>
<path d="M147.008 83.8799C146.849 83.8311 141.396 80.0673 141.396 80.0673C141.396 80.0673 139.279 77.676 138.326 77.4259C136.908 77.0257 135.54 76.4796 134.245 75.7972C133.609 75.3396 131.702 73.2046 130.698 72.8996C129.694 72.5946 129.694 74.4734 130.857 75.9497C132.02 77.4259 132.338 78.1884 131.493 78.6947C130.647 79.201 126.935 78.9509 125.823 78.591C124.71 78.2311 121.691 76.6573 120.846 76.6085C120 76.5597 120 77.9322 120.954 78.5422C121.907 79.1522 126.725 82.611 128.531 83.0685C130.336 83.526 137.639 83.3735 137.639 83.3735L144.472 89.2724L147.008 83.8799Z" fill="#E0B97F"/>
<path d="M153.492 85.5329L147.059 82.0253C147.059 82.0253 140.468 83.0196 140.468 92.0905L145.87 97.1231C145.87 97.1231 154.051 93.2312 153.492 85.5329Z" fill="#E8E8E5"/>
<path d="M195.049 75.0346C188.356 74.9065 172.802 98.7215 172.802 98.7215L150.765 85.8074C150.765 85.8074 145.998 87.6375 145.788 94.0426C145.788 94.0426 165.174 117.73 172.802 119.56C180.43 121.39 200.026 101.259 203.522 94.854C207.018 88.4488 205.429 75.2359 195.049 75.0346Z" fill="#0C0C0C"/>
<path d="M171.575 111.989C171.499 111.988 171.426 111.962 171.369 111.913C171.312 111.865 171.274 111.799 171.264 111.727C170.736 107.633 171.102 103.478 172.338 99.5266C172.365 99.4498 172.423 99.3864 172.498 99.3503C172.574 99.3143 172.661 99.3086 172.742 99.3345C172.822 99.3604 172.888 99.4157 172.925 99.4884C172.963 99.561 172.969 99.645 172.942 99.7218C171.737 103.579 171.38 107.633 171.893 111.629C171.899 111.669 171.897 111.709 171.887 111.748C171.877 111.787 171.859 111.824 171.835 111.856C171.81 111.889 171.779 111.916 171.743 111.937C171.707 111.957 171.667 111.971 171.626 111.977H171.582L171.575 111.989Z" fill="#E8E8E5"/>
<path d="M186.042 113.703C185.976 113.704 185.911 113.685 185.857 113.649C185.802 113.613 185.761 113.561 185.738 113.502C185.716 113.442 185.714 113.377 185.732 113.316C185.75 113.254 185.787 113.2 185.839 113.16C193.244 107.292 201.138 98.5811 203.242 94.7136C205.416 90.7302 205.435 84.6118 203.287 80.4759C201.831 77.6637 199.473 75.9374 196.549 75.4677C196.507 75.4612 196.467 75.447 196.431 75.4258C196.395 75.4045 196.364 75.3767 196.339 75.3438C196.314 75.311 196.297 75.2737 196.287 75.2343C196.277 75.1948 196.275 75.1539 196.282 75.1138C196.289 75.0738 196.304 75.0354 196.326 75.0008C196.348 74.9663 196.377 74.9363 196.411 74.9125C196.445 74.8887 196.484 74.8716 196.525 74.8622C196.566 74.8528 196.609 74.8512 196.651 74.8576C199.829 75.3579 202.301 77.2062 203.859 80.1953C206.09 84.4654 206.071 90.8522 203.808 94.9881C201.672 98.9044 193.708 107.707 186.245 113.618C186.191 113.669 186.118 113.699 186.042 113.703Z" fill="#E8E8E5"/>
<path d="M193.619 196.324L204.768 252.152C204.828 252.46 204.818 252.777 204.736 253.08C204.655 253.384 204.505 253.666 204.296 253.907C204.088 254.148 203.827 254.343 203.532 254.476C203.236 254.609 202.914 254.678 202.587 254.678C202.108 254.678 201.641 254.529 201.257 254.253C200.873 253.977 200.593 253.589 200.458 253.147L183.131 196.324H193.619Z" fill="#0C0C0C"/>
<path d="M159.136 196.324L147.987 252.152C147.926 252.46 147.937 252.777 148.019 253.08C148.1 253.384 148.25 253.666 148.458 253.907C148.667 254.148 148.928 254.343 149.223 254.476C149.519 254.609 149.841 254.678 150.167 254.678C150.647 254.678 151.114 254.529 151.498 254.253C151.882 253.977 152.162 253.589 152.297 253.147L169.624 196.324H159.136Z" fill="#E8E8E5"/>
<path d="M237.318 196.324L248.467 252.152C248.528 252.46 248.517 252.777 248.436 253.08C248.354 253.384 248.204 253.666 247.996 253.907C247.787 254.148 247.526 254.343 247.231 254.476C246.936 254.609 246.613 254.678 246.287 254.678C245.807 254.678 245.34 254.529 244.956 254.253C244.572 253.977 244.292 253.589 244.157 253.147L226.83 196.324H237.318Z" fill="#E8E8E5"/>
<path d="M202.835 196.324L191.686 252.152C191.626 252.46 191.636 252.777 191.718 253.08C191.799 253.384 191.949 253.666 192.158 253.907C192.366 254.148 192.627 254.343 192.922 254.476C193.218 254.609 193.54 254.678 193.867 254.678C194.346 254.678 194.813 254.529 195.197 254.253C195.581 253.977 195.861 253.589 195.996 253.147L213.323 196.324H202.835Z" fill="#E8E8E5"/>
<path d="M243.465 192.462L239.651 199.374H155.373L151.934 192.462H243.465Z" fill="#E8E8E5"/>
<path d="M167.914 199.679H159.651C159.567 199.679 159.486 199.647 159.426 199.59C159.366 199.532 159.333 199.455 159.333 199.374C159.333 199.293 159.366 199.216 159.426 199.158C159.486 199.101 159.567 199.069 159.651 199.069H167.914C167.998 199.069 168.079 199.101 168.139 199.158C168.198 199.216 168.232 199.293 168.232 199.374C168.232 199.455 168.198 199.532 168.139 199.59C168.079 199.647 167.998 199.679 167.914 199.679Z" fill="#0C0C0C"/>
<path d="M243.465 192.462L240.572 199.374H198.907C198.367 197.654 197.674 195.305 196.943 192.462H243.465Z" fill="#0C0C0C"/>
<path d="M256.597 140.001C253.844 167.452 243.465 192.462 243.465 192.462H151.934C138.624 165.213 138.052 154.068 140.22 145.693C140.896 143.127 142.446 140.853 144.624 139.23C146.802 137.608 149.482 136.73 152.239 136.738H182.603C182.603 136.738 192.824 94.244 221.218 94.244C225.217 94.2063 229.206 94.6365 233.097 95.525C244.888 98.3555 251.931 105.712 255.084 116.333C256.089 119.849 256.701 123.458 256.908 127.099C256.908 127.099 256.908 127.166 256.908 127.197C256.908 127.593 256.953 127.996 256.972 128.417C256.991 128.838 257.003 129.094 257.01 129.43C257.103 132.958 256.965 136.489 256.597 140.001Z" fill="#E8E8E5"/>
<path d="M239.721 192.767H151.934C151.874 192.767 151.815 192.75 151.765 192.719C151.714 192.688 151.674 192.643 151.648 192.591C138.681 166.067 137.582 154.635 139.915 145.619C139.995 145.306 140.088 144.997 140.194 144.692C140.208 144.654 140.229 144.619 140.256 144.589C140.284 144.558 140.317 144.534 140.355 144.516C140.392 144.498 140.433 144.487 140.475 144.485C140.516 144.482 140.558 144.487 140.598 144.5C140.638 144.513 140.674 144.533 140.706 144.559C140.737 144.586 140.763 144.618 140.782 144.654C140.8 144.69 140.811 144.729 140.814 144.769C140.817 144.809 140.811 144.849 140.798 144.887C140.696 145.176 140.607 145.469 140.531 145.766C138.237 154.629 139.33 165.896 152.138 192.127H239.727C239.816 192.128 239.9 192.162 239.962 192.223C240.024 192.284 240.058 192.365 240.058 192.45C240.057 192.535 240.021 192.616 239.958 192.676C239.894 192.735 239.809 192.768 239.721 192.767Z" fill="#0C0C0C"/>
<path d="M256.597 140.001C253.844 167.452 243.464 192.463 243.464 192.463H196.943C194.918 184.652 193.564 176.695 192.894 168.672C192.22 160.254 192.398 151.14 194.305 142.441C200.452 114.381 215.497 100.753 233.504 103.193C233.682 103.193 233.86 103.242 234.038 103.278L234.343 103.321C240.352 104.257 245.853 107.119 249.95 111.439C254.047 115.759 256.5 121.283 256.908 127.112C256.908 127.112 256.908 127.179 256.908 127.209C256.908 127.606 256.952 128.008 256.972 128.429C256.991 128.85 257.003 129.1 257.01 129.442C257.102 132.966 256.964 136.493 256.597 140.001Z" fill="#0C0C0C"/>
<path d="M242.13 192.749H198.755C198.67 192.749 198.589 192.717 198.53 192.66C198.47 192.603 198.437 192.525 198.437 192.444C198.437 192.363 198.47 192.286 198.53 192.228C198.589 192.171 198.67 192.139 198.755 192.139H242.136C242.178 192.139 242.219 192.148 242.257 192.163C242.296 192.179 242.331 192.202 242.36 192.231C242.389 192.259 242.412 192.293 242.428 192.33C242.443 192.367 242.451 192.407 242.451 192.447C242.45 192.487 242.442 192.527 242.425 192.564C242.409 192.6 242.385 192.634 242.355 192.662C242.326 192.69 242.29 192.712 242.252 192.727C242.213 192.742 242.171 192.749 242.13 192.749Z" fill="#E8E8E5"/>
<path d="M195.532 51.9637C195.532 51.9637 195.532 50.6644 195.971 50.5546C196.409 50.4448 196.307 50.9145 196.307 50.9145C196.307 50.9145 198.513 50.5363 199.091 51.8966C197.923 51.5911 196.687 51.6144 195.532 51.9637Z" fill="#0C0C0C"/>
<path d="M196.81 54.782C197.308 54.782 197.712 54.3041 197.712 53.7145C197.712 53.1249 197.308 52.647 196.81 52.647C196.311 52.647 195.907 53.1249 195.907 53.7145C195.907 54.3041 196.311 54.782 196.81 54.782Z" fill="#0C0C0C"/>
<path d="M196.994 59.5585C196.91 59.565 196.826 59.5391 196.762 59.4865C196.697 59.4338 196.657 59.3588 196.651 59.2779C196.644 59.197 196.671 59.1169 196.726 59.0551C196.781 58.9933 196.859 58.955 196.943 58.9485C197.718 58.7573 198.408 58.329 198.907 57.7285C198.932 57.6929 198.964 57.6627 199.001 57.6397C199.039 57.6168 199.081 57.6016 199.125 57.5952C199.169 57.5888 199.213 57.5914 199.256 57.6027C199.299 57.614 199.339 57.6337 199.373 57.6607C199.408 57.6878 199.436 57.7214 199.456 57.7595C199.476 57.7976 199.487 57.8392 199.49 57.8818C199.492 57.9244 199.485 57.967 199.469 58.0068C199.453 58.0466 199.428 58.0827 199.397 58.1128C198.809 58.8392 197.982 59.3531 197.051 59.5707H197L196.994 59.5585Z" fill="#0C0C0C"/>
<path d="M196.994 53.4706C197.166 53.4706 197.305 53.3368 197.305 53.1717C197.305 53.0066 197.166 52.8728 196.994 52.8728C196.822 52.8728 196.682 53.0066 196.682 53.1717C196.682 53.3368 196.822 53.4706 196.994 53.4706Z" fill="#F5C044"/>
<path d="M189.379 6.841V19.7977C189.379 21.3547 190.023 22.8479 191.17 23.9494C192.316 25.0509 193.872 25.6705 195.494 25.6722H196.53V30.3998C196.523 30.6498 196.595 30.8959 196.736 31.1064C196.877 31.3169 197.08 31.4821 197.319 31.5806C197.559 31.6791 197.824 31.7065 198.079 31.6591C198.335 31.6117 198.571 31.4918 198.755 31.3148L204.634 25.6722H220.283C221.907 25.6722 223.464 25.0532 224.612 23.9516C225.76 22.8499 226.404 21.3557 226.404 19.7977V6.841C226.404 5.283 225.76 3.78881 224.612 2.68714C223.464 1.58546 221.907 0.966553 220.283 0.966553H195.494C193.872 0.968169 192.316 1.5878 191.17 2.68929C190.023 3.79079 189.379 5.28405 189.379 6.841Z" fill="#B5B5B5"/>
<path d="M218.936 5.69421H197.541C196.691 5.69421 196.002 6.35378 196.002 7.1674C196.002 7.98102 196.691 8.64059 197.541 8.64059H218.936C219.785 8.64059 220.474 7.98102 220.474 7.1674C220.474 6.35378 219.785 5.69421 218.936 5.69421Z" fill="#0C0C0C"/>
<path d="M218.936 11.6906H197.541C196.691 11.6906 196.002 12.3501 196.002 13.1637C196.002 13.9774 196.691 14.6369 197.541 14.6369H218.936C219.785 14.6369 220.474 13.9774 220.474 13.1637C220.474 12.3501 219.785 11.6906 218.936 11.6906Z" fill="#0C0C0C"/>
<path d="M207.494 17.6932H197.541C196.691 17.6932 196.002 18.3528 196.002 19.1664C196.002 19.98 196.691 20.6396 197.541 20.6396H207.494C208.344 20.6396 209.033 19.98 209.033 19.1664C209.033 18.3528 208.344 17.6932 207.494 17.6932Z" fill="#0C0C0C"/>
<path d="M136.412 23.6164V36.5731C136.412 38.1301 137.056 39.6233 138.203 40.7248C139.349 41.8263 140.905 42.4459 142.527 42.4475H143.563V47.2057C143.563 47.4531 143.639 47.695 143.783 47.9007C143.926 48.1064 144.129 48.2668 144.367 48.3615C144.606 48.4562 144.868 48.481 145.121 48.4327C145.373 48.3844 145.606 48.2652 145.788 48.0902L151.667 42.4475H167.317C168.94 42.4475 170.497 41.8286 171.645 40.727C172.793 39.6253 173.438 38.1311 173.438 36.5731V23.6164C173.438 22.0584 172.793 20.5642 171.645 19.4625C170.497 18.3609 168.94 17.7419 167.317 17.7419H142.527C140.905 17.7436 139.349 18.3632 138.203 19.4647C137.056 20.5662 136.412 22.0594 136.412 23.6164Z" fill="#E8E8E5"/>
<path d="M164.99 32.6323C166.51 32.6323 167.742 31.4498 167.742 29.991C167.742 28.5322 166.51 27.3496 164.99 27.3496C163.47 27.3496 162.238 28.5322 162.238 29.991C162.238 31.4498 163.47 32.6323 164.99 32.6323Z" fill="#F5C044"/>
<path d="M154.922 32.6323C156.442 32.6323 157.674 31.4498 157.674 29.991C157.674 28.5322 156.442 27.3496 154.922 27.3496C153.402 27.3496 152.169 28.5322 152.169 29.991C152.169 31.4498 153.402 32.6323 154.922 32.6323Z" fill="#F5C044"/>
<path d="M144.86 32.6323C146.38 32.6323 147.612 31.4498 147.612 29.991C147.612 28.5322 146.38 27.3496 144.86 27.3496C143.34 27.3496 142.108 28.5322 142.108 29.991C142.108 31.4498 143.34 32.6323 144.86 32.6323Z" fill="#F5C044"/>
<path d="M61.9613 50.9939C64.201 50.9939 66.0166 49.2514 66.0166 47.102C66.0166 44.9525 64.201 43.2101 61.9613 43.2101C59.7216 43.2101 57.906 44.9525 57.906 47.102C57.906 49.2514 59.7216 50.9939 61.9613 50.9939Z" fill="#E8E8E5"/>
<path d="M65.2221 34.0598C66.1875 34.0598 66.9701 33.3087 66.9701 32.3823C66.9701 31.4558 66.1875 30.7047 65.2221 30.7047C64.2567 30.7047 63.4741 31.4558 63.4741 32.3823C63.4741 33.3087 64.2567 34.0598 65.2221 34.0598Z" fill="#B5B5B5"/>
<path d="M119.409 36.6524C121.34 36.6524 122.905 35.1503 122.905 33.2973C122.905 31.4444 121.34 29.9423 119.409 29.9423C117.479 29.9423 115.913 31.4444 115.913 33.2973C115.913 35.1503 117.479 36.6524 119.409 36.6524Z" fill="#B5B5B5"/>
<path d="M177.569 64.5606C179.911 64.5606 181.809 62.7389 181.809 60.4918C181.809 58.2446 179.911 56.423 177.569 56.423C175.228 56.423 173.33 58.2446 173.33 60.4918C173.33 62.7389 175.228 64.5606 177.569 64.5606Z" fill="#B5B5B5"/>
<path d="M263.379 140.605C264.428 140.605 265.279 139.788 265.279 138.781C265.279 137.774 264.428 136.957 263.379 136.957C262.329 136.957 261.478 137.774 261.478 138.781C261.478 139.788 262.329 140.605 263.379 140.605Z" fill="#E8E8E5"/>
<path d="M235.545 72.1918C236.907 72.1918 238.011 71.1322 238.011 69.825C238.011 68.5178 236.907 67.4581 235.545 67.4581C234.183 67.4581 233.078 68.5178 233.078 69.825C233.078 71.1322 234.183 72.1918 235.545 72.1918Z" fill="#E8E8E5"/>
<path d="M272.85 133.645C274.212 133.645 275.316 132.585 275.316 131.278C275.316 129.971 274.212 128.911 272.85 128.911C271.488 128.911 270.383 129.971 270.383 131.278C270.383 132.585 271.488 133.645 272.85 133.645Z" fill="#B5B5B5"/>
<path d="M247.329 82.251C247.944 82.251 248.442 81.7731 248.442 81.1835C248.442 80.5939 247.944 80.116 247.329 80.116C246.715 80.116 246.217 80.5939 246.217 81.1835C246.217 81.7731 246.715 82.251 247.329 82.251Z" fill="#B5B5B5"/>
<path d="M53.0626 34.4075C52.9783 34.4075 52.8975 34.3754 52.8379 34.3182C52.7783 34.261 52.7448 34.1834 52.7448 34.1025V31.5344C52.7448 31.4535 52.7783 31.3759 52.8379 31.3187C52.8975 31.2615 52.9783 31.2294 53.0626 31.2294C53.1469 31.2294 53.2278 31.2615 53.2874 31.3187C53.347 31.3759 53.3804 31.4535 53.3804 31.5344V34.1025C53.3804 34.1834 53.347 34.261 53.2874 34.3182C53.2278 34.3754 53.1469 34.4075 53.0626 34.4075Z" fill="#E8E8E5"/>
<path d="M57.5691 36.1581H54.8868C54.8025 36.1581 54.7217 36.126 54.6621 36.0688C54.6025 36.0116 54.569 35.934 54.569 35.8531C54.569 35.7722 54.6025 35.6946 54.6621 35.6374C54.7217 35.5802 54.8025 35.5481 54.8868 35.5481H57.5628C57.6045 35.5477 57.6459 35.5552 57.6846 35.5702C57.7234 35.5851 57.7586 35.6072 57.7884 35.6353C57.8182 35.6633 57.842 35.6967 57.8584 35.7336C57.8747 35.7704 57.8833 35.81 57.8838 35.8501C57.8842 35.8901 57.8764 35.9299 57.8608 35.967C57.8452 36.0042 57.8221 36.038 57.7929 36.0666C57.7637 36.0952 57.7289 36.118 57.6905 36.1337C57.6521 36.1494 57.6109 36.1577 57.5691 36.1581Z" fill="#E8E8E5"/>
<path d="M53.0626 40.4772C52.9783 40.4772 52.8975 40.4451 52.8379 40.3879C52.7783 40.3307 52.7448 40.2531 52.7448 40.1722V37.6041C52.7448 37.5232 52.7783 37.4456 52.8379 37.3884C52.8975 37.3312 52.9783 37.2991 53.0626 37.2991C53.1469 37.2991 53.2278 37.3312 53.2874 37.3884C53.347 37.4456 53.3804 37.5232 53.3804 37.6041V40.16C53.3822 40.2011 53.3752 40.2421 53.36 40.2805C53.3448 40.3189 53.3217 40.354 53.292 40.3836C53.2623 40.4133 53.2267 40.4368 53.1873 40.4529C53.1478 40.469 53.1055 40.4773 53.0626 40.4772Z" fill="#E8E8E5"/>
<path d="M51.2447 36.1582H48.5623C48.478 36.1582 48.3972 36.1261 48.3376 36.0689C48.278 36.0117 48.2445 35.9341 48.2445 35.8532C48.2445 35.7723 48.278 35.6948 48.3376 35.6376C48.3972 35.5804 48.478 35.5482 48.5623 35.5482H51.2383C51.28 35.5478 51.3215 35.5553 51.3602 35.5703C51.3989 35.5852 51.4342 35.6074 51.464 35.6354C51.4938 35.6634 51.5175 35.6968 51.5339 35.7337C51.5502 35.7706 51.5589 35.8101 51.5593 35.8502C51.5597 35.8902 51.5519 35.93 51.5363 35.9671C51.5207 36.0043 51.4977 36.0381 51.4685 36.0668C51.4392 36.0954 51.4044 36.1182 51.366 36.1339C51.3276 36.1496 51.2864 36.1578 51.2447 36.1582Z" fill="#E8E8E5"/>
<path d="M250.959 72.2285C250.874 72.2285 250.793 72.1963 250.734 72.1391C250.674 72.0819 250.641 72.0044 250.641 71.9235V69.3553C250.641 69.2744 250.674 69.1968 250.734 69.1396C250.793 69.0824 250.874 69.0503 250.959 69.0503C251.043 69.0503 251.124 69.0824 251.183 69.1396C251.243 69.1968 251.276 69.2744 251.276 69.3553V71.9235C251.276 72.0044 251.243 72.0819 251.183 72.1391C251.124 72.1963 251.043 72.2285 250.959 72.2285Z" fill="#E8E8E5"/>
<path d="M255.459 73.9793H252.783C252.699 73.9793 252.618 73.9471 252.558 73.8899C252.499 73.8327 252.465 73.7552 252.465 73.6743C252.465 73.5934 252.499 73.5158 252.558 73.4586C252.618 73.4014 252.699 73.3693 252.783 73.3693H255.459C255.543 73.3693 255.624 73.4014 255.684 73.4586C255.743 73.5158 255.777 73.5934 255.777 73.6743C255.777 73.7552 255.743 73.8327 255.684 73.8899C255.624 73.9471 255.543 73.9793 255.459 73.9793Z" fill="#E8E8E5"/>
<path d="M250.959 78.2982C250.874 78.2982 250.793 78.266 250.734 78.2088C250.674 78.1516 250.641 78.0741 250.641 77.9932V75.425C250.641 75.3441 250.674 75.2665 250.734 75.2093C250.793 75.1521 250.874 75.12 250.959 75.12C251.043 75.12 251.124 75.1521 251.183 75.2093C251.243 75.2665 251.276 75.3441 251.276 75.425V77.981C251.278 78.022 251.271 78.063 251.256 78.1014C251.241 78.1399 251.218 78.1749 251.188 78.2046C251.158 78.2342 251.123 78.2578 251.083 78.2738C251.044 78.2899 251.001 78.2982 250.959 78.2982Z" fill="#E8E8E5"/>
<path d="M249.134 73.9792H246.427C246.342 73.9792 246.262 73.947 246.202 73.8898C246.142 73.8326 246.109 73.7551 246.109 73.6742C246.109 73.5933 246.142 73.5157 246.202 73.4585C246.262 73.4013 246.342 73.3692 246.427 73.3692H249.103C249.187 73.3651 249.269 73.3934 249.332 73.4477C249.395 73.502 249.432 73.578 249.436 73.6589C249.441 73.7398 249.411 73.819 249.354 73.8791C249.298 73.9391 249.219 73.9751 249.134 73.9792Z" fill="#E8E8E5"/>
<path d="M117.108 68.2999C117.024 68.2999 116.943 68.2677 116.884 68.2105C116.824 68.1533 116.791 68.0758 116.791 67.9949V65.4267C116.791 65.3458 116.824 65.2682 116.884 65.211C116.943 65.1538 117.024 65.1217 117.108 65.1217C117.193 65.1217 117.273 65.1538 117.333 65.211C117.393 65.2682 117.426 65.3458 117.426 65.4267V67.9949C117.426 68.0758 117.393 68.1533 117.333 68.2105C117.273 68.2677 117.193 68.2999 117.108 68.2999Z" fill="#E8E8E5"/>
<path d="M121.609 70.0507H118.933C118.848 70.0507 118.767 70.0185 118.708 69.9613C118.648 69.9041 118.615 69.8266 118.615 69.7457C118.615 69.6648 118.648 69.5872 118.708 69.53C118.767 69.4728 118.848 69.4407 118.933 69.4407H121.609C121.693 69.4407 121.774 69.4728 121.833 69.53C121.893 69.5872 121.926 69.6648 121.926 69.7457C121.926 69.8266 121.893 69.9041 121.833 69.9613C121.774 70.0185 121.693 70.0507 121.609 70.0507Z" fill="#E8E8E5"/>
<path d="M117.108 74.3696C117.024 74.3696 116.943 74.3374 116.884 74.2802C116.824 74.223 116.791 74.1455 116.791 74.0646V71.4964C116.791 71.4155 116.824 71.3379 116.884 71.2807C116.943 71.2235 117.024 71.1914 117.108 71.1914C117.193 71.1914 117.273 71.2235 117.333 71.2807C117.393 71.3379 117.426 71.4155 117.426 71.4964V74.0646C117.426 74.1455 117.393 74.223 117.333 74.2802C117.273 74.3374 117.193 74.3696 117.108 74.3696Z" fill="#E8E8E5"/>
<path d="M115.284 70.0507H112.608C112.524 70.0507 112.443 70.0185 112.383 69.9613C112.324 69.9041 112.29 69.8266 112.29 69.7457C112.29 69.6648 112.324 69.5872 112.383 69.53C112.443 69.4728 112.524 69.4407 112.608 69.4407H115.284C115.368 69.4407 115.449 69.4728 115.509 69.53C115.568 69.5872 115.602 69.6648 115.602 69.7457C115.602 69.8266 115.568 69.9041 115.509 69.9613C115.449 70.0185 115.368 70.0507 115.284 70.0507Z" fill="#E8E8E5"/>
</g>
<defs>
<filter id="filter0_d_59_9519" x="0.296265" y="0.966553" width="306.872" height="261.718" filterUnits="userSpaceOnUse" color-interpolation-filters="sRGB">
<feFlood flood-opacity="0" result="BackgroundImageFix"/>
<feColorMatrix in="SourceAlpha" type="matrix" values="0 0 0 0 0 0 0 0 0 0 0 0 0 0 0 0 0 0 127 0" result="hardAlpha"/>
<feOffset dy="4"/>
<feGaussianBlur stdDeviation="2"/>
<feComposite in2="hardAlpha" operator="out"/>
<feColorMatrix type="matrix" values="0 0 0 0 0 0 0 0 0 0 0 0 0 0 0 0 0 0 0.25 0"/>
<feBlend mode="normal" in2="BackgroundImageFix" result="effect1_dropShadow_59_9519"/>
<feBlend mode="normal" in="SourceGraphic" in2="effect1_dropShadow_59_9519" result="shape"/>
</filter>
</defs>
</svg>
