<svg width="220" height="259" viewBox="0 0 220 259" fill="none" xmlns="http://www.w3.org/2000/svg">
<path d="M35.5736 258.251C35.4826 258.251 35.3943 258.227 35.3238 258.183C35.2533 258.14 35.2048 258.079 35.1866 258.011C29.7125 238.253 3.64531 229.563 3.37674 229.473C3.28436 229.44 3.21239 229.381 3.17593 229.309C3.13948 229.236 3.14138 229.156 3.18122 229.084C3.22107 229.013 3.29578 228.956 3.38967 228.926C3.48356 228.895 3.58933 228.893 3.68481 228.921C3.95338 229.005 30.3918 237.815 35.9528 257.885C35.9632 257.924 35.9634 257.963 35.9536 258.002C35.9437 258.041 35.9239 258.078 35.8953 258.111C35.8667 258.143 35.8298 258.172 35.7868 258.194C35.7438 258.216 35.6956 258.231 35.6447 258.239H35.5657L35.5736 258.251Z" fill="#4A4A4A"/>
<path d="M9.90937 231.844C9.90937 231.844 7.59493 229.119 8.23476 226.82C8.87459 224.522 14.2697 227.048 9.90937 231.844Z" fill="#404B7C"/>
<path d="M15.265 234.676C15.265 234.676 12.5872 230.115 15.2176 227.54C17.848 224.966 19.9887 231.484 15.265 234.676Z" fill="#404B7C"/>
<path d="M22.0661 239.268C22.0661 239.268 19.5778 235.301 20.9918 231.58C22.4057 227.859 28.496 231.892 22.0661 239.268Z" fill="#404B7C"/>
<path d="M6.09409 230.163C6.09409 230.163 4.36418 227.919 1.63897 227.937C-1.08623 227.955 1.24402 231.027 6.09409 230.163Z" fill="#404B7C"/>
<path d="M11.8842 232.828C11.8842 232.828 7.14468 231.628 4.98822 232.408C2.83176 233.188 7.14468 235.643 11.8842 232.828Z" fill="#404B7C"/>
<path d="M16.9633 235.703C16.9633 235.703 11.1574 234.629 9.48277 236.777C7.80815 238.926 14.0959 239.598 16.9633 235.703Z" fill="#404B7C"/>
<path d="M23.4011 240.342C23.4011 240.342 16.9238 239.178 15.1702 241.729C13.4166 244.279 20.7549 244.994 23.4011 240.342Z" fill="#404B7C"/>
<path d="M26.0867 242.755C26.0867 242.755 25.9762 237.701 28.8514 235.493C31.7267 233.284 34.76 239.724 26.0867 242.755Z" fill="#404B7C"/>
<path d="M27.4929 244.171C27.4929 244.171 21.4501 244.501 21.4975 247.142C21.5449 249.783 25.8973 249.063 27.4929 244.171Z" fill="#404B7C"/>
<path d="M30.1154 247.232C30.4022 245.518 31.1067 243.859 32.1928 242.341C33.8753 239.946 39.2784 243.979 30.1154 247.232Z" fill="#404B7C"/>
<path d="M30.9684 248.432C30.9684 248.432 26.6634 249.063 26.4185 251.055C26.1737 253.048 30.5182 252.033 30.9684 248.432Z" fill="#404B7C"/>
<path d="M31.6952 249.417C31.6952 249.417 34.531 246.71 36.174 247.544C37.817 248.378 34.8548 250.683 31.6952 249.417Z" fill="#404B7C"/>
<path d="M175.033 256.337C175.033 256.337 149.226 237.983 161.525 214.757C164.513 219.172 167.847 223.447 171.51 227.559C177.932 234.869 181.092 243.967 175.033 256.337Z" fill="#4A4A4A"/>
<path d="M174.322 254.116C174.251 254.116 174.181 254.102 174.12 254.074C174.059 254.047 174.008 254.007 173.974 253.96C163.706 239.742 161.209 218.52 161.186 218.304C161.181 218.265 161.187 218.225 161.203 218.187C161.219 218.149 161.245 218.115 161.279 218.084C161.312 218.054 161.354 218.03 161.4 218.012C161.446 217.994 161.497 217.983 161.549 217.98C161.653 217.975 161.756 218.001 161.836 218.052C161.915 218.104 161.966 218.177 161.976 218.256C161.976 218.466 164.448 239.568 174.67 253.666C174.704 253.712 174.723 253.764 174.722 253.817C174.722 253.87 174.703 253.922 174.668 253.968C174.633 254.014 174.582 254.051 174.521 254.077C174.461 254.103 174.392 254.117 174.322 254.116Z" fill="#404B7C"/>
<path d="M175.033 256.337C175.033 256.337 177.632 231.598 206.551 228.573C203.454 232.589 201.011 236.875 199.275 241.338C196.511 248.57 189.409 256.337 175.033 256.337Z" fill="#4A4A4A"/>
<path d="M176.992 255.034H176.873C176.774 255.01 176.691 254.956 176.644 254.885C176.597 254.814 176.588 254.732 176.621 254.656C182.829 240.072 202.933 230.229 203.138 230.127C203.226 230.089 203.33 230.078 203.428 230.097C203.526 230.115 203.611 230.161 203.666 230.226C203.721 230.29 203.741 230.368 203.722 230.444C203.703 230.519 203.647 230.587 203.565 230.631C203.367 230.727 183.493 240.462 177.371 254.836C177.343 254.895 177.291 254.946 177.223 254.982C177.155 255.017 177.074 255.036 176.992 255.034Z" fill="#404B7C"/>
<path d="M175.033 256.337C175.033 256.337 168.279 245.534 171.913 230.938C175.546 216.342 197.19 207.123 197.19 207.123C197.19 207.123 195.808 211.726 196.147 220.021C196.487 228.315 194.599 245.81 175.033 256.337Z" fill="#404B7C"/>
<path d="M175.207 254.398C175.105 254.398 175.006 254.368 174.933 254.314C174.859 254.261 174.816 254.187 174.812 254.11C173.437 229.149 192.545 211.318 192.743 211.138C192.81 211.077 192.906 211.038 193.011 211.031C193.115 211.023 193.219 211.048 193.3 211.099C193.38 211.15 193.431 211.223 193.441 211.302C193.45 211.382 193.418 211.461 193.351 211.522C193.161 211.696 174.243 229.359 175.602 254.086C175.604 254.125 175.596 254.165 175.578 254.202C175.56 254.239 175.532 254.273 175.497 254.302C175.462 254.331 175.42 254.354 175.372 254.371C175.325 254.387 175.274 254.397 175.222 254.398H175.207Z" fill="#4A4A4A"/>
<path d="M203.691 256.637H162.742C162.637 256.637 162.537 256.605 162.463 256.549C162.389 256.493 162.347 256.416 162.347 256.337C162.347 256.257 162.389 256.181 162.463 256.124C162.537 256.068 162.637 256.037 162.742 256.037H203.691C203.796 256.037 203.896 256.068 203.97 256.124C204.044 256.181 204.086 256.257 204.086 256.337C204.086 256.416 204.044 256.493 203.97 256.549C203.896 256.605 203.796 256.637 203.691 256.637Z" fill="#404B7C"/>
<path d="M90.5359 256.637H49.5867C49.482 256.637 49.3815 256.605 49.3075 256.549C49.2334 256.493 49.1918 256.416 49.1918 256.337C49.1918 256.257 49.2334 256.181 49.3075 256.124C49.3815 256.068 49.482 256.037 49.5867 256.037H90.5359C90.6406 256.037 90.7411 256.068 90.8151 256.124C90.8892 256.181 90.9308 256.257 90.9308 256.337C90.9308 256.416 90.8892 256.493 90.8151 256.549C90.7411 256.605 90.6406 256.637 90.5359 256.637Z" fill="#404B7C"/>
<path d="M177.948 258.287H114.06C113.955 258.287 113.854 258.256 113.78 258.199C113.706 258.143 113.665 258.067 113.665 257.987C113.665 257.908 113.706 257.831 113.78 257.775C113.854 257.719 113.955 257.687 114.06 257.687H177.948C178.052 257.687 178.153 257.719 178.227 257.775C178.301 257.831 178.343 257.908 178.343 257.987C178.343 258.067 178.301 258.143 178.227 258.199C178.153 258.256 178.052 258.287 177.948 258.287Z" fill="#404B7C"/>
<path d="M46.3955 258.287H29.8073C29.7026 258.287 29.6021 258.256 29.528 258.199C29.454 258.143 29.4124 258.067 29.4124 257.987C29.4124 257.908 29.454 257.831 29.528 257.775C29.6021 257.719 29.7026 257.687 29.8073 257.687H46.3955C46.5002 257.687 46.6007 257.719 46.6748 257.775C46.7488 257.831 46.7905 257.908 46.7905 257.987C46.7905 258.067 46.7488 258.143 46.6748 258.199C46.6007 258.256 46.5002 258.287 46.3955 258.287Z" fill="#404B7C"/>
<path d="M124.905 231.256L126.09 238.68H132.709L132.804 231.028L124.905 231.256Z" fill="#FFDD8E"/>
<path d="M161.541 253.906H121.153C121.153 253.906 121.074 252.214 121.327 249.633C121.68 245.309 122.817 241.044 124.708 236.957H133.594C137.051 240.226 141.847 242.523 147.22 243.481C154.408 244.831 159.116 245.54 160.822 249.633C161.347 251.021 161.589 252.462 161.541 253.906Z" fill="#404B7C"/>
<path d="M161.541 253.906H121.153C121.153 253.906 121.074 252.213 121.327 249.633H160.822C161.347 251.021 161.589 252.462 161.541 253.906Z" fill="#4A4A4A"/>
<path d="M138.594 232.63C133.035 233.395 127.356 233.528 121.745 233.026C121.745 233.026 114.589 187.215 107.669 156.901C107.013 154.038 106.366 151.313 105.718 148.775C105.449 147.682 105.186 146.626 104.928 145.606V122.727C104.9 119.915 105.579 117.124 106.927 114.505C109.036 110.502 113.293 105.995 121.777 105.995C132.472 105.995 136.446 113.641 137.875 118.226C138.383 119.863 138.648 121.538 138.665 123.219C138.721 134.617 139.321 203.15 138.594 232.63Z" fill="#FFB11A"/>
<path d="M110.592 145.378L107.669 156.901C107.013 154.038 106.366 151.313 105.718 148.775C107.527 147.772 109.897 146.95 110.592 145.378Z" fill="#404B7C"/>
<path d="M136.264 137.209C136.222 137.215 136.179 137.215 136.138 137.209C129.755 135.283 130.648 127.378 130.695 127.042C130.705 126.974 130.749 126.912 130.819 126.868C130.888 126.825 130.977 126.803 131.066 126.808C131.111 126.811 131.154 126.821 131.194 126.837C131.234 126.853 131.269 126.874 131.298 126.9C131.326 126.927 131.348 126.957 131.361 126.99C131.374 127.022 131.379 127.056 131.374 127.09C131.374 127.168 130.482 134.947 136.398 136.729C136.46 136.756 136.509 136.798 136.539 136.848C136.568 136.897 136.575 136.953 136.561 137.006C136.546 137.059 136.509 137.108 136.456 137.144C136.402 137.181 136.335 137.203 136.264 137.209Z" fill="#FFDD8E"/>
<path d="M125.956 230.884C125.87 230.884 125.787 230.859 125.723 230.814C125.66 230.77 125.622 230.709 125.616 230.644C123.246 207.321 110.102 146.572 109.968 145.966C109.953 145.898 109.974 145.829 110.027 145.773C110.08 145.717 110.159 145.68 110.248 145.669C110.337 145.658 110.428 145.674 110.502 145.714C110.575 145.754 110.625 145.814 110.639 145.882C110.773 146.482 123.949 207.261 126.295 230.608C126.299 230.641 126.293 230.675 126.279 230.708C126.265 230.74 126.242 230.77 126.213 230.795C126.183 230.821 126.148 230.842 126.108 230.857C126.068 230.872 126.024 230.881 125.979 230.884H125.956Z" fill="#FFDD8E"/>
<path d="M106.476 148.661C106.407 148.66 106.339 148.643 106.283 148.612C106.227 148.582 106.184 148.539 106.161 148.489C106.137 148.439 106.135 148.385 106.153 148.335C106.171 148.284 106.21 148.238 106.263 148.205L109.273 146.362C109.798 146.041 110.228 145.639 110.534 145.183C110.84 144.727 111.016 144.227 111.05 143.715C111.461 137.522 111.666 119.769 111.674 119.595C111.674 119.526 111.71 119.46 111.773 119.412C111.837 119.364 111.924 119.336 112.014 119.336C112.102 119.338 112.187 119.366 112.249 119.414C112.311 119.462 112.345 119.527 112.345 119.595C112.345 119.775 112.132 137.534 111.721 143.739C111.678 144.32 111.475 144.886 111.125 145.403C110.776 145.92 110.287 146.376 109.691 146.74L106.682 148.583C106.628 148.626 106.555 148.654 106.476 148.661Z" fill="#FFDD8E"/>
<path d="M69.1608 231.256L68.9712 238.68H75.5907L77.0994 231.028L69.1608 231.256Z" fill="#FFDD8E"/>
<path d="M82.8262 245.432C78.1894 242.209 76.973 236.957 76.973 236.957H68.0864C65.8589 241.519 63.655 246.314 63.347 249.633C63.0942 252.214 63.1732 253.906 63.1732 253.906H87.5499C87.4946 249.771 86.9891 248.318 82.8262 245.432Z" fill="#404B7C"/>
<path d="M63.347 249.633C63.0942 252.213 63.1732 253.906 63.1732 253.906H87.5499C87.6202 252.466 87.4099 251.026 86.9259 249.633H63.347Z" fill="#4A4A4A"/>
<path d="M106.476 121.047V148.402L79.8798 233.302C79.8798 233.302 71.9807 234.851 66.4513 231.778C66.4513 231.778 72.6363 136.981 73.1656 122.397C73.758 105.995 103.838 96.5899 106.476 121.047Z" fill="#FFB11A"/>
<path d="M106.476 148.66C106.386 148.66 106.3 148.633 106.236 148.585C106.173 148.537 106.137 148.471 106.137 148.402V124.312C106.137 124.243 106.173 124.178 106.236 124.129C106.3 124.081 106.386 124.054 106.476 124.054C106.566 124.054 106.653 124.081 106.717 124.129C106.78 124.178 106.816 124.243 106.816 124.312V148.408C106.814 148.476 106.777 148.54 106.714 148.587C106.65 148.634 106.565 148.661 106.476 148.66Z" fill="#FFDD8E"/>
<path d="M78.7346 137.209C78.6445 137.209 78.5581 137.182 78.4944 137.134C78.4307 137.085 78.3949 137.02 78.3949 136.951C78.3949 136.883 78.4307 136.817 78.4944 136.769C78.5581 136.72 78.6445 136.693 78.7346 136.693C82.6841 136.693 84.9196 133.362 85.3382 126.784C85.3403 126.75 85.3511 126.717 85.3701 126.686C85.389 126.656 85.4158 126.628 85.4488 126.605C85.4818 126.582 85.5204 126.565 85.5625 126.553C85.6045 126.542 85.6491 126.537 85.6937 126.538C85.7383 126.54 85.7821 126.548 85.8226 126.562C85.863 126.577 85.8993 126.597 85.9294 126.622C85.9595 126.647 85.9827 126.677 85.9979 126.709C86.013 126.741 86.0197 126.774 86.0176 126.808C85.5673 133.71 83.1186 137.209 78.7346 137.209Z" fill="#FFDD8E"/>
<path d="M69.8717 230.883C69.827 230.881 69.7834 230.872 69.7433 230.857C69.7033 230.842 69.6675 230.821 69.6382 230.795C69.6088 230.77 69.5864 230.74 69.5723 230.708C69.5581 230.675 69.5525 230.641 69.5557 230.607L79.4296 126.178C79.4316 126.144 79.4426 126.11 79.4622 126.08C79.4818 126.049 79.5094 126.021 79.5434 125.999C79.5774 125.976 79.617 125.959 79.66 125.949C79.7029 125.938 79.7481 125.935 79.793 125.938C79.8376 125.94 79.8812 125.949 79.9213 125.964C79.9614 125.98 79.9971 126.001 80.0265 126.026C80.0558 126.052 80.0782 126.082 80.0924 126.114C80.1065 126.146 80.1122 126.18 80.1089 126.214L70.235 230.643C70.232 230.677 70.2202 230.71 70.2003 230.741C70.1804 230.771 70.1528 230.799 70.119 230.821C70.0852 230.843 70.046 230.86 70.0036 230.871C69.9611 230.882 69.9163 230.886 69.8717 230.883Z" fill="#FFDD8E"/>
<path d="M136.264 44.5254C136.264 44.5254 159.171 68.3821 164.14 81.5858C169.109 94.7895 150.577 97.1901 137.544 80.5355C124.51 63.8808 119.573 55.0283 119.573 55.0283L136.264 44.5254Z" fill="#4A4A4A"/>
<path d="M143.602 124C100.552 129.899 68.4261 124 68.4261 124C70.006 110.988 71.3804 96.0017 72.3757 82.66C73.4895 68.2079 74.232 55.6884 74.5717 49.6507C74.706 47.25 74.777 45.8516 74.777 45.8516C74.777 45.8516 85.5752 36.8491 104.865 36.2489C116.318 35.8858 127.527 38.8347 136.232 44.5013C144.06 79.185 143.602 124 143.602 124Z" fill="#4A4A4A"/>
<path d="M141.928 84.1903C141.827 84.1905 141.73 84.1613 141.656 84.1089C141.583 84.0565 141.539 83.9847 141.533 83.9083C140.324 69.5882 138.539 56.9007 136.225 46.1637C136.208 46.0841 136.233 46.0027 136.296 45.9374C136.358 45.8721 136.452 45.8283 136.556 45.8156C136.661 45.8029 136.768 45.8223 136.854 45.8695C136.94 45.9168 136.998 45.9881 137.014 46.0677C139.337 56.8107 141.122 69.5282 142.331 83.8783C142.334 83.9177 142.327 83.9572 142.31 83.9945C142.293 84.0319 142.266 84.0663 142.232 84.0959C142.197 84.1254 142.156 84.1495 142.109 84.1667C142.062 84.184 142.011 84.1941 141.959 84.1963L141.928 84.1903Z" fill="#404B7C"/>
<path d="M110.307 125.296C110.256 125.293 110.205 125.282 110.158 125.264C110.112 125.246 110.071 125.221 110.037 125.191C110.003 125.161 109.978 125.126 109.962 125.089C109.946 125.051 109.94 125.011 109.944 124.972C111.854 107.204 111.497 89.3381 108.878 71.6229C108.871 71.5835 108.875 71.5434 108.888 71.5051C108.902 71.4667 108.925 71.4307 108.957 71.3992C108.989 71.3678 109.029 71.3414 109.074 71.3215C109.119 71.3017 109.169 71.2889 109.221 71.2838C109.273 71.2787 109.326 71.2813 109.376 71.2917C109.427 71.302 109.474 71.3198 109.516 71.3441C109.557 71.3683 109.592 71.3985 109.618 71.433C109.644 71.4674 109.661 71.5054 109.668 71.5448C112.277 89.3031 112.618 107.212 110.687 125.02C110.679 125.093 110.636 125.162 110.566 125.213C110.496 125.264 110.404 125.293 110.307 125.296Z" fill="#404B7C"/>
<path d="M76.7203 121.299C76.6168 121.291 76.5215 121.253 76.4549 121.192C76.3884 121.132 76.356 121.053 76.3648 120.975C78.9636 98.8405 78.0868 71.6649 78.071 71.3948C78.071 71.3152 78.1126 71.2389 78.1867 71.1826C78.2608 71.1263 78.3612 71.0947 78.466 71.0947C78.5707 71.0947 78.6712 71.1263 78.7453 71.1826C78.8193 71.2389 78.861 71.3152 78.861 71.3948C78.861 71.6649 79.7535 98.8765 77.1468 121.041C77.133 121.117 77.081 121.187 77.0016 121.235C76.9221 121.283 76.8214 121.306 76.7203 121.299Z" fill="#404B7C"/>
<path d="M82.5104 68.658C82.5104 68.658 82.9132 77.8946 72.4073 82.6599C73.5211 68.2078 74.2637 55.6883 74.6033 49.6506C78.6714 50.977 84.0033 55.1782 82.5104 68.658Z" fill="#404B7C"/>
<path d="M102.392 31.5737C86.6574 32.876 80.5355 46.6799 80.5355 46.6799C80.5355 46.6799 97.3449 53.5878 109.478 73.0873C109.478 73.0873 118.586 49.5787 127.275 37.6774C123.778 36.8982 120.348 35.9541 117.006 34.8506C111.871 33.1221 107.527 31.1716 102.392 31.5737Z" fill="#4A4A4A"/>
<path d="M109.478 73.3872C109.403 73.3868 109.33 73.3702 109.267 73.3394C109.204 73.3086 109.154 73.2648 109.122 73.2132C97.1869 54.0078 80.5197 47.0098 80.3538 46.9378C80.2713 46.9045 80.2069 46.8501 80.1722 46.7842C80.1375 46.7182 80.1346 46.6451 80.1642 46.5777C80.9971 44.8474 82.0556 43.1847 83.3239 41.6143C83.3509 41.5804 83.3864 41.5509 83.4283 41.5274C83.4703 41.504 83.518 41.487 83.5686 41.4776C83.6192 41.4681 83.6718 41.4663 83.7233 41.4722C83.7749 41.4782 83.8243 41.4918 83.8689 41.5123C83.9135 41.5328 83.9524 41.5598 83.9833 41.5917C84.0142 41.6236 84.0365 41.6598 84.049 41.6982C84.0614 41.7367 84.0638 41.7766 84.056 41.8158C84.0481 41.8549 84.0302 41.8925 84.0032 41.9264C82.8288 43.3941 81.8296 44.9387 81.0173 46.5417C83.3002 47.568 98.2612 54.806 109.391 72.2529C110.908 68.4478 118.033 50.9469 125.189 39.9939C125.241 39.929 125.323 39.8812 125.418 39.8602C125.514 39.8393 125.617 39.8466 125.706 39.8808C125.795 39.915 125.864 39.9735 125.898 40.0446C125.933 40.1156 125.931 40.194 125.892 40.264C117.906 52.5014 109.936 72.9671 109.897 73.1832C109.874 73.2417 109.829 73.2938 109.767 73.3324C109.705 73.371 109.629 73.3943 109.549 73.3992L109.478 73.3872Z" fill="#404B7C"/>
<path d="M109.241 68.784C109.241 68.784 96.6024 53.7378 94.4855 47.7781C94.4302 47.6161 94.3749 47.466 94.3354 47.322C92.7556 41.7164 93.8614 34.7185 102.329 34.2143C106.342 33.9683 113.649 36.2669 114.77 43.817C114.837 44.2554 114.874 44.6961 114.881 45.1374C115.181 53.2217 109.241 68.784 109.241 68.784Z" fill="#FFB11A"/>
<path d="M114.881 45.1435C111.603 43.8802 107.979 43.2222 104.304 43.223C98.7747 44.4953 95.7809 46.6379 94.4855 47.7842C94.4302 47.6222 94.3749 47.4721 94.3354 47.3281C92.7556 41.7225 93.8614 34.7246 102.329 34.2204C106.342 33.9744 113.649 36.273 114.77 43.8231C114.837 44.2615 114.874 44.7022 114.881 45.1435Z" fill="#1B1B1B"/>
<path d="M108.909 65.9393C108.828 65.9385 108.75 65.9156 108.689 65.8749C108.629 65.8342 108.589 65.7782 108.578 65.7172L104.952 45.0594C104.942 45.0246 104.942 44.9885 104.951 44.9535C104.961 44.9186 104.98 44.8855 105.007 44.8564C105.034 44.8272 105.069 44.8027 105.109 44.7843C105.149 44.7659 105.194 44.754 105.24 44.7494C105.287 44.7449 105.334 44.7477 105.379 44.7577C105.424 44.7677 105.466 44.7847 105.502 44.8076C105.538 44.8306 105.568 44.8589 105.588 44.8909C105.609 44.9229 105.621 44.9578 105.623 44.9934L109.249 65.6512C109.26 65.7188 109.236 65.7871 109.181 65.841C109.126 65.895 109.046 65.9303 108.957 65.9393H108.909Z" fill="#FFDD8E"/>
<path d="M126.153 53.3777L117.796 56.3785C117.796 56.3785 121.809 92.8387 125.956 102.591C130.103 112.344 159.922 126.448 159.922 126.448L167.229 122.397L126.153 53.3777Z" fill="#6B5555"/>
<path d="M126.153 53.3779C126.153 53.3779 129.708 93.139 133.657 100.191C137.607 107.243 167.228 122.397 167.228 122.397C167.228 122.397 187.569 105.442 188.951 97.7903C190.333 90.1382 187.569 51.1272 187.569 51.1272C187.569 51.1272 154.392 47.2261 126.153 53.3779Z" fill="#FFB11A"/>
<path d="M165.191 121.605C165.12 121.605 165.051 121.588 164.993 121.557C158.413 118.088 136.683 106.301 133.318 100.293C129.881 94.1592 126.801 64.1208 125.94 55.0583C125.937 55.0243 125.942 54.9903 125.956 54.958C125.97 54.9258 125.993 54.896 126.022 54.8703C126.052 54.8447 126.087 54.8237 126.127 54.8085C126.167 54.7934 126.211 54.7845 126.256 54.7822C126.301 54.7789 126.346 54.7826 126.389 54.793C126.432 54.8034 126.471 54.8204 126.505 54.8429C126.539 54.8653 126.567 54.8928 126.586 54.9237C126.606 54.9545 126.617 54.988 126.619 55.0222C127.235 61.4561 130.466 93.8771 133.942 100.089C137.235 105.971 158.84 117.68 165.38 121.131C165.442 121.161 165.489 121.206 165.514 121.259C165.539 121.311 165.541 121.368 165.519 121.422C165.498 121.475 165.454 121.522 165.395 121.555C165.336 121.588 165.264 121.606 165.191 121.605Z" fill="#FFDD8E"/>
<path d="M144.913 78.0627C144.913 78.0627 144.321 70.6386 143.926 65.087C143.531 59.5355 149.653 56.3786 157.291 56.4566C164.93 56.5346 169.638 59.6075 170.128 64.4088C170.617 69.2102 171.312 77.6125 171.312 77.6125L166.478 77.6906C166.478 77.6906 166.383 67.8658 165.791 64.7869C165.198 61.7081 162.631 59.5835 157.102 59.7335C151.572 59.8836 148.974 62.1342 149.068 65.135C149.163 68.1359 150.182 77.9846 150.182 77.9846L144.913 78.0627Z" fill="#0C0C0C"/>
<path d="M138.989 77.6846C138.989 77.6846 140.869 96.7399 141.659 102.82C141.659 102.82 164.369 102.97 180.365 101.397C180.365 101.397 180.76 84.7426 179.772 76.9404C179.772 76.9344 157.157 76.3342 138.989 77.6846Z" fill="#0C0C0C"/>
<path d="M165.586 84.7605C165.573 85.5935 165.226 86.4038 164.591 87.0828C163.956 87.7617 163.062 88.277 162.031 88.5595V98.6424H158.871V88.6376C157.893 88.411 157.038 87.9502 156.433 87.3239C155.828 86.6976 155.506 85.9395 155.514 85.1626C155.491 84.1453 155.983 83.1601 156.888 82.4106C157.794 81.6611 159.044 81.2046 160.38 81.1355C161.039 81.1012 161.7 81.1691 162.323 81.3349C162.947 81.5007 163.519 81.761 164.006 82.1C164.493 82.439 164.884 82.8496 165.155 83.307C165.427 83.7643 165.573 84.2588 165.586 84.7605Z" fill="#FFB11A"/>
<path d="M178.192 32.6719L169.511 37.5573L160.83 32.6719V22.9192L169.511 18.0338L178.192 22.9192V32.6719Z" fill="#4A4A4A"/>
<path d="M211.274 73.8254L205.223 77.2224L199.165 73.8254V67.0195L205.223 63.6166L211.274 67.0195V73.8254Z" fill="#404B7C"/>
<path d="M219.11 63.9165L215.192 66.1192L211.274 63.9165V59.5173L215.192 57.3147L219.11 59.5173V63.9165Z" fill="#4A4A4A"/>
<path d="M195.263 124.324L189.338 127.649L183.422 124.324V117.668L189.338 114.343L195.263 117.668V124.324Z" fill="#4A4A4A"/>
<path d="M73.7581 121.347C68.3682 121.347 63.0993 122.561 58.6177 124.836C54.1362 127.111 50.6432 130.345 48.5806 134.129C46.5179 137.912 45.9782 142.075 47.0298 146.092C48.0813 150.109 50.6768 153.798 54.488 156.694C58.2993 159.589 63.1552 161.561 68.4415 162.36C73.7279 163.159 79.2074 162.749 84.187 161.182C89.1667 159.615 93.4229 156.961 96.4174 153.556C99.4119 150.151 101.01 146.148 101.01 142.052C101.01 136.561 98.139 131.294 93.0282 127.411C87.9175 123.528 80.9858 121.347 73.7581 121.347ZM73.7581 157.207C69.8133 157.207 65.9571 156.318 62.6771 154.653C59.3971 152.988 56.8407 150.621 55.3311 147.852C53.8215 145.083 53.4265 142.036 54.1961 139.096C54.9657 136.156 56.8653 133.456 59.6547 131.337C62.4441 129.217 65.998 127.774 69.867 127.189C73.736 126.605 77.7463 126.905 81.3909 128.052C85.0354 129.199 88.1505 131.141 90.3421 133.633C92.5337 136.125 93.7035 139.055 93.7035 142.052C93.7045 144.043 93.1893 146.014 92.1873 147.853C91.1853 149.692 89.7162 151.363 87.8639 152.77C86.0116 154.177 83.8125 155.293 81.3921 156.055C78.9718 156.816 76.3777 157.208 73.7581 157.207Z" fill="#404B7C"/>
<path d="M77.5496 161.408H69.9744C69.1935 161.408 68.5604 161.889 68.5604 162.482V257.387C68.5604 257.98 69.1935 258.461 69.9744 258.461H77.5496C78.3305 258.461 78.9636 257.98 78.9636 257.387V162.482C78.9636 161.889 78.3305 161.408 77.5496 161.408Z" fill="#4A4A4A"/>
<path d="M62.2096 233.626H68.5605V254.26H62.2096V233.626Z" fill="#404B7C"/>
<path d="M62.2096 233.254V254.638C62.2127 254.926 62.1408 255.211 61.9981 255.477C61.8554 255.744 61.6447 255.986 61.3781 256.19C61.1116 256.395 60.7944 256.557 60.445 256.667C60.0955 256.778 59.7207 256.835 59.3422 256.835H47.8884C47.13 256.835 46.4027 256.606 45.8665 256.198C45.3302 255.791 45.0289 255.238 45.0289 254.662V251.355H53.7654C54.1969 251.355 54.6108 251.225 54.916 250.993C55.2212 250.761 55.3926 250.447 55.3926 250.119V247.718C55.3926 247.39 55.2212 247.076 54.916 246.844C54.6108 246.612 54.1969 246.482 53.7654 246.482H45.0289V241.452H53.7654C54.1969 241.452 54.6108 241.322 54.916 241.09C55.2212 240.859 55.3926 240.544 55.3926 240.216V237.815C55.3926 237.488 55.2212 237.173 54.916 236.941C54.6108 236.709 54.1969 236.579 53.7654 236.579H45.0289V233.278C45.0289 232.702 45.3302 232.149 45.8665 231.742C46.4027 231.334 47.13 231.106 47.8884 231.106H59.3422C60.0958 231.106 60.8193 231.331 61.3559 231.733C61.8925 232.135 62.1992 232.682 62.2096 233.254Z" fill="#4A4A4A"/>
<path d="M80.0773 154.158H67.4387C66.6578 154.158 66.0248 154.639 66.0248 155.232V162.734C66.0248 163.328 66.6578 163.809 67.4387 163.809H80.0773C80.8582 163.809 81.4913 163.328 81.4913 162.734V155.232C81.4913 154.639 80.8582 154.158 80.0773 154.158Z" fill="#404B7C"/>
<path d="M74.8087 45.8757C74.8087 45.8757 49.5947 63.4787 41.8298 80.2834C41.8298 80.2834 44.7288 97.1901 52.628 108.491L65.9222 104.992L62.6283 83.1882L82.2418 69.9845C82.2418 69.9845 86.8549 50.575 74.8087 45.8757Z" fill="#4A4A4A"/>
<path d="M82.2497 70.2844H82.1786C82.0761 70.2698 81.9854 70.225 81.9262 70.1598C81.867 70.0946 81.8441 70.0143 81.8626 69.9363C81.9021 69.7683 85.7648 52.9816 76.6255 47.1299C76.5855 47.1047 76.5525 47.0737 76.5283 47.0388C76.5041 47.0039 76.4892 46.9657 76.4845 46.9264C76.4797 46.8871 76.4852 46.8475 76.5005 46.8098C76.5159 46.7722 76.5409 46.7371 76.5741 46.7068C76.6073 46.6765 76.6481 46.6514 76.694 46.633C76.74 46.6146 76.7902 46.6033 76.8419 46.5997C76.8936 46.596 76.9458 46.6002 76.9954 46.6119C77.045 46.6236 77.0911 46.6426 77.131 46.6678C86.61 52.7175 82.8026 69.3061 82.6604 70.0143C82.6504 70.0907 82.6022 70.1613 82.5258 70.2115C82.4494 70.2618 82.3506 70.2878 82.2497 70.2844Z" fill="#404B7C"/>
<path d="M61.4196 83.0862C61.3641 83.0857 61.3095 83.0764 61.2591 83.0588C61.2088 83.0412 61.1639 83.0158 61.1273 82.9841C57.0513 79.5272 49.0732 79.7072 48.9942 79.7072C48.9421 79.7097 48.8898 79.7041 48.8406 79.6907C48.7914 79.6774 48.7463 79.6567 48.7079 79.6298C48.6695 79.6029 48.6387 79.5703 48.6173 79.5341C48.596 79.4979 48.5844 79.4588 48.5835 79.4191C48.5813 79.3797 48.5895 79.3404 48.6074 79.3034C48.6253 79.2663 48.6526 79.2324 48.6879 79.2034C48.7231 79.1744 48.7655 79.151 48.8126 79.1344C48.8598 79.1179 48.9107 79.1086 48.9626 79.1071C49.3023 79.1071 57.391 78.921 61.7118 82.582C61.7642 82.625 61.799 82.6786 61.8117 82.7364C61.8245 82.7941 61.8148 82.8535 61.7837 82.9071C61.7526 82.9607 61.7016 83.0062 61.6369 83.038C61.5722 83.0698 61.4966 83.0866 61.4196 83.0862Z" fill="#404B7C"/>
<path d="M49.3734 107.093C49.3734 107.093 57.6675 101.391 68.2365 101.991L69.8164 108.221C69.8164 108.221 65.9695 113.773 54.2156 114.301C52.2845 112.029 50.6621 109.614 49.3734 107.093Z" fill="#404B7C"/>
<path d="M79.7456 128.699C79.2874 129.401 77.7076 129.749 77.2494 128.147C77.2494 128.147 76.9809 129.347 75.7328 129.449C74.4847 129.551 74.153 128.147 74.153 128.147C74.153 128.147 73.2288 129.551 72.0439 129.401C70.859 129.251 70.9301 127.697 70.9301 127.697C70.9301 127.697 69.5478 128.849 68.5604 128.201C67.573 127.553 68.0943 125.398 68.2286 123.597C68.2286 123.597 61.1194 118.844 60.7244 117.398C60.4866 116.39 60.4202 115.363 60.5269 114.343L58.0703 111.126C60.5155 109.85 63.2881 108.98 66.2064 108.575L69.0185 112.896C69.0185 112.896 78.1657 118.598 79.2874 119.546C80.4091 120.495 80.2116 127.997 79.7456 128.699Z" fill="#FFDD8E"/>
<path d="M71.262 126.844H71.1909C71.0873 126.835 70.9927 126.796 70.9276 126.734C70.8625 126.672 70.8322 126.593 70.8433 126.514C70.8433 126.514 71.2383 123.826 71.3331 122.241C71.3329 122.201 71.3436 122.162 71.3646 122.125C71.3856 122.088 71.4164 122.056 71.455 122.028C71.4937 122.001 71.5393 121.981 71.589 121.968C71.6387 121.955 71.6914 121.95 71.7438 121.953C71.7957 121.955 71.8467 121.964 71.8938 121.98C71.941 121.997 71.9834 122.02 72.0186 122.049C72.0538 122.078 72.0811 122.112 72.099 122.149C72.117 122.186 72.1251 122.226 72.123 122.265C72.0282 123.868 71.6332 126.55 71.6253 126.58C71.6146 126.65 71.5724 126.714 71.5061 126.762C71.4398 126.81 71.3535 126.839 71.262 126.844Z" fill="#404B7C"/>
<path d="M74.3505 127.102H74.3031C74.1995 127.093 74.1049 127.054 74.0398 126.992C73.9747 126.93 73.9444 126.851 73.9555 126.772C73.9555 126.772 74.3978 123.843 74.3978 122.397C74.3978 122.317 74.4395 122.241 74.5135 122.185C74.5876 122.129 74.6881 122.097 74.7928 122.097C74.8976 122.097 74.998 122.129 75.0721 122.185C75.1462 122.241 75.1878 122.317 75.1878 122.397C75.1878 123.879 74.7612 126.718 74.7375 126.838C74.726 126.91 74.6805 126.977 74.6093 127.026C74.5381 127.074 74.4461 127.101 74.3505 127.102Z" fill="#404B7C"/>
<path d="M77.2889 126.676C77.237 126.673 77.1864 126.662 77.14 126.644C77.0935 126.627 77.0523 126.602 77.0185 126.572C76.9847 126.542 76.9591 126.507 76.9432 126.469C76.9272 126.431 76.9212 126.392 76.9256 126.352C76.9256 126.352 77.1941 123.952 77.1941 122.589C77.1941 122.51 77.2357 122.433 77.3098 122.377C77.3839 122.321 77.4843 122.289 77.5891 122.289C77.6938 122.289 77.7943 122.321 77.8684 122.377C77.9424 122.433 77.984 122.51 77.984 122.589C77.984 123.958 77.7234 126.304 77.7076 126.4C77.6995 126.479 77.651 126.552 77.5727 126.603C77.4944 126.655 77.3924 126.681 77.2889 126.676Z" fill="#404B7C"/>
<path d="M55.1319 113.395C55.0579 113.394 54.9854 113.378 54.9228 113.348C54.8602 113.318 54.81 113.275 54.7779 113.225C54.7458 113.174 54.733 113.118 54.7412 113.062C54.7493 113.006 54.7779 112.953 54.8238 112.908C55.7081 112.132 56.7256 111.45 57.8492 110.88C60.3378 109.577 63.1622 108.692 66.1354 108.281C66.8305 108.179 67.5652 108.095 68.3314 108.041C68.4361 108.034 68.5403 108.059 68.6211 108.11C68.7018 108.161 68.7524 108.235 68.7619 108.314C68.7713 108.394 68.7387 108.473 68.6713 108.534C68.6039 108.596 68.5072 108.634 68.4025 108.641C67.6678 108.695 66.9569 108.773 66.2855 108.869C63.4201 109.264 60.6978 110.117 58.2995 111.372C57.2435 111.911 56.2848 112.553 55.4479 113.281C55.4103 113.317 55.3622 113.346 55.3074 113.366C55.2526 113.385 55.1926 113.395 55.1319 113.395Z" fill="#4A4A4A"/>
<path d="M106.871 39.2738C106.79 39.7725 106.573 40.2529 106.232 40.6839C105.892 41.1149 105.437 41.4871 104.896 41.7765C99.2328 41.6264 99.2328 38.6736 99.2328 38.6736L99.4935 30.3253L99.5724 27.6725L99.6277 25.818L106.476 28.0206L106.611 31.8677L106.682 33.8903L106.871 39.2738Z" fill="#FFDD8E"/>
<path d="M106.682 33.8903C102.866 33.3261 100.702 31.8917 99.4934 30.3253L99.5724 27.6725L99.6277 25.818L106.476 28.0206L106.611 31.8677L106.682 33.8903Z" fill="#404B7C"/>
<path d="M111.903 22.553C112.044 22.2153 112.278 21.9042 112.589 21.6402C112.9 21.3761 113.281 21.1651 113.708 21.0211C114.134 20.8771 114.595 20.8033 115.062 20.8046C115.528 20.8059 115.989 20.8822 116.413 21.0286C119.873 21.9768 117.006 27.4564 112.172 26.4781L111.903 22.553Z" fill="#FFDD8E"/>
<path d="M112.63 25.1038H112.503C112.404 25.0791 112.321 25.0254 112.274 24.9545C112.227 24.8836 112.218 24.8013 112.251 24.7257C112.29 24.6297 113.317 22.325 116.042 22.121C116.147 22.1138 116.251 22.1386 116.332 22.1898C116.413 22.241 116.463 22.3145 116.473 22.394C116.482 22.4736 116.45 22.5528 116.382 22.6141C116.315 22.6755 116.218 22.714 116.113 22.7211C113.894 22.8772 113.009 24.8937 112.993 24.9178C112.963 24.9726 112.913 25.0195 112.849 25.0526C112.784 25.0857 112.708 25.1035 112.63 25.1038Z" fill="#404B7C"/>
<path d="M114.636 24.7498C114.531 24.7498 114.431 24.7182 114.357 24.6619C114.283 24.6056 114.241 24.5293 114.241 24.4497C114.214 23.9939 114.075 23.5461 113.83 23.1293C113.805 23.0931 113.79 23.0533 113.786 23.0125C113.782 22.9716 113.789 22.9306 113.806 22.8918C113.824 22.8531 113.852 22.8175 113.888 22.7872C113.924 22.7569 113.968 22.7326 114.018 22.7158C114.067 22.699 114.12 22.69 114.174 22.6894C114.228 22.6887 114.281 22.6965 114.331 22.7122C114.381 22.7279 114.426 22.7512 114.463 22.7806C114.501 22.81 114.53 22.8449 114.549 22.8832C114.841 23.3769 115.005 23.9088 115.031 24.4497C115.031 24.5293 114.99 24.6056 114.915 24.6619C114.841 24.7182 114.741 24.7498 114.636 24.7498Z" fill="#404B7C"/>
<path d="M114.502 13.4005C114.502 13.4005 117.527 16.1493 117.527 17.4997C117.527 18.85 112.195 23.4533 112.195 23.4533L110.687 14.2528L114.502 13.4005Z" fill="#404B7C"/>
<path d="M94.359 18.3519C93.8614 24.2456 99.9674 31.3515 106.508 31.5076C113.048 31.6636 115.292 19.1561 112.985 14.7029C110.679 10.2496 95.22 8.20306 94.359 18.3519Z" fill="#FFDD8E"/>
<path d="M98.1822 25.1038L97.258 22.7692C97.258 22.7692 100.283 21.4668 100.678 16.9175C100.678 16.9175 109.233 19.2702 115.947 14.6669C122.662 10.0636 119.96 1.41518 118.254 0.760999C116.548 0.106816 106.658 3.94189 102.787 7.96302C102.787 7.96302 103.909 4.51205 100.749 5.26226C97.5898 6.01247 93.3084 13.3045 93.3084 13.3045C93.3084 13.3045 89.0271 12.0021 87.2498 14.5529C85.4725 17.1036 96.2864 25.1038 96.2864 25.1038H98.1743H98.1822Z" fill="#404B7C"/>
<path d="M96.6182 24.2815C96.6182 24.2815 94.833 20.4825 91.0888 20.7885C87.3446 21.0946 87.0207 29.7911 97.9294 26.4601L96.6182 24.2815Z" fill="#FFDD8E"/>
<path d="M96.2943 25.65C96.2262 25.6503 96.1591 25.6372 96.0995 25.6119C96.04 25.5867 95.9901 25.5502 95.9547 25.5059C93.6797 22.7031 90.8676 23.3753 90.836 23.3813C90.7868 23.3939 90.7347 23.399 90.6828 23.3964C90.6309 23.3937 90.5803 23.3833 90.5337 23.3657C90.4871 23.3482 90.4455 23.3238 90.4114 23.2941C90.3772 23.2643 90.351 23.2297 90.3344 23.1923C90.3178 23.1548 90.3111 23.1153 90.3146 23.0759C90.3182 23.0365 90.3319 22.9979 90.355 22.9626C90.3781 22.9272 90.4101 22.8956 90.4493 22.8696C90.4885 22.8436 90.534 22.8238 90.5833 22.8112C90.5833 22.8112 94.0194 21.9829 96.6261 25.2118C96.6566 25.2565 96.6719 25.3063 96.6705 25.3566C96.6691 25.407 96.651 25.4562 96.618 25.4999C96.5849 25.5435 96.538 25.5801 96.4814 25.6063C96.4249 25.6326 96.3605 25.6476 96.2943 25.65Z" fill="#404B7C"/>
<path d="M92.9846 25.872C92.8913 25.8715 92.8012 25.8459 92.7303 25.7998C92.6595 25.7536 92.6124 25.6899 92.5975 25.6199C92.4618 24.7841 92.6541 23.9363 93.1505 23.1833C93.1713 23.1452 93.2023 23.1107 93.2415 23.0822C93.2807 23.0536 93.3272 23.0315 93.3781 23.0171C93.4291 23.0028 93.4834 22.9967 93.5376 22.999C93.5918 23.0014 93.6448 23.0122 93.6933 23.0308C93.7417 23.0494 93.7846 23.0755 93.8193 23.1072C93.8539 23.139 93.8795 23.1759 93.8946 23.2155C93.9096 23.2552 93.9137 23.2968 93.9067 23.3377C93.8996 23.3786 93.8815 23.418 93.8535 23.4533C93.4336 24.0917 93.2662 24.8088 93.3716 25.5179C93.3807 25.5569 93.3795 25.597 93.3681 25.6356C93.3567 25.6743 93.3353 25.7109 93.3052 25.7432C93.2751 25.7756 93.2368 25.8031 93.1926 25.8242C93.1485 25.8453 93.0992 25.8595 93.0478 25.866H92.9767L92.9846 25.872Z" fill="#404B7C"/>
<path d="M102.076 20.8126C102.076 20.8126 104.32 19.7263 105.394 21.0286C105.473 20.9411 105.59 20.8774 105.724 20.8488C105.858 20.8203 106.002 20.8287 106.129 20.8726C106.539 21.0526 105.813 22.0309 105.813 22.0309C104.687 21.4397 103.416 21.0254 102.076 20.8126Z" fill="#404B7C"/>
<path d="M111.848 21.3588C111.848 21.3588 110.134 20.0504 109.525 21.1367C109.453 21.0767 109.359 21.034 109.255 21.0138C109.152 20.9935 109.042 20.9966 108.941 21.0227C108.491 21.2387 109.328 22.085 109.328 22.085C110.044 21.6442 110.927 21.3897 111.848 21.3588Z" fill="#404B7C"/>
<path d="M104.403 24.2441C104.953 24.2406 105.394 23.8186 105.388 23.3015C105.382 22.7844 104.932 22.3681 104.383 22.3716C103.833 22.3751 103.392 22.7971 103.398 23.3142C103.403 23.8312 103.854 24.2475 104.403 24.2441Z" fill="#404B7C"/>
<path d="M104.605 23.1745C104.754 23.1735 104.873 23.0814 104.872 22.9687C104.871 22.856 104.749 22.7654 104.601 22.7664C104.452 22.7673 104.333 22.8594 104.334 22.9721C104.335 23.0848 104.457 23.1754 104.605 23.1745Z" fill="#FFB11A"/>
<path d="M110.287 24.2006C110.837 24.1971 111.278 23.7751 111.272 23.258C111.267 22.741 110.816 22.3246 110.267 22.3281C109.717 22.3316 109.276 22.7536 109.282 23.2707C109.288 23.7878 109.738 24.2041 110.287 24.2006Z" fill="#404B7C"/>
<path d="M110.489 23.137C110.638 23.136 110.758 23.0439 110.756 22.9312C110.755 22.8185 110.634 22.7279 110.485 22.7289C110.336 22.7298 110.217 22.8219 110.218 22.9346C110.219 23.0473 110.341 23.1379 110.489 23.137Z" fill="#FFB11A"/>
<path d="M107.819 26.5022C107.625 26.5031 107.432 26.487 107.243 26.4542C107.138 26.4359 107.047 26.3867 106.99 26.3175C106.933 26.2483 106.914 26.1647 106.938 26.0851C106.963 26.0055 107.027 25.9365 107.118 25.8931C107.209 25.8498 107.319 25.8357 107.424 25.854C107.424 25.854 108.443 26.0281 108.688 25.5479C108.704 25.527 108.712 25.5032 108.712 25.4789C108.712 25.4547 108.704 25.4309 108.688 25.4099C108.396 25.2592 108.045 25.1874 107.693 25.2058C107.589 25.2059 107.49 25.1751 107.416 25.1201C107.342 25.0651 107.3 24.9903 107.298 24.9118V23.0753C107.297 23.0358 107.306 22.9967 107.325 22.9599C107.344 22.9232 107.372 22.8897 107.408 22.8613C107.444 22.8329 107.487 22.8101 107.534 22.7943C107.582 22.7785 107.633 22.7699 107.685 22.7692C107.737 22.7675 107.789 22.774 107.838 22.788C107.887 22.8021 107.931 22.8235 107.969 22.8509C108.006 22.8784 108.036 22.9114 108.057 22.9479C108.077 22.9843 108.088 23.0236 108.088 23.0632V24.6237C108.326 24.6312 108.56 24.6748 108.776 24.7522C108.991 24.8295 109.185 24.9388 109.344 25.0738C109.433 25.1743 109.487 25.2904 109.501 25.4111C109.515 25.5319 109.488 25.6533 109.423 25.764C109.294 26.001 109.069 26.2005 108.781 26.3334C108.492 26.4662 108.155 26.5254 107.819 26.5022Z" fill="#404B7C"/>
<path d="M107.914 28.9328C107.846 28.9331 107.779 28.92 107.719 28.8948C107.66 28.8695 107.61 28.833 107.574 28.7888C106.453 27.3784 103.625 27.8585 103.625 27.8645C103.52 27.8828 103.41 27.8688 103.319 27.8254C103.228 27.7821 103.163 27.7131 103.139 27.6335C103.115 27.5539 103.133 27.4703 103.19 27.4011C103.247 27.3318 103.338 27.2827 103.443 27.2644C103.577 27.2644 106.848 26.6642 108.269 28.4647C108.311 28.5113 108.335 28.566 108.338 28.6224C108.34 28.6788 108.322 28.7346 108.285 28.7835C108.248 28.8324 108.193 28.8723 108.128 28.8987C108.062 28.9252 107.988 28.937 107.914 28.9328Z" fill="#404B7C"/>
<path d="M174.67 140.48C174.093 140.48 173.53 140.35 173.05 140.107C172.571 139.863 172.197 139.518 171.977 139.113C171.756 138.708 171.698 138.263 171.811 137.833C171.923 137.404 172.201 137.009 172.608 136.699C173.016 136.39 173.535 136.179 174.101 136.093C174.666 136.008 175.252 136.052 175.785 136.219C176.318 136.387 176.773 136.671 177.093 137.035C177.413 137.399 177.584 137.827 177.584 138.265C177.584 138.853 177.277 139.416 176.731 139.831C176.184 140.247 175.443 140.48 174.67 140.48ZM174.67 136.657C174.249 136.657 173.838 136.752 173.489 136.929C173.14 137.106 172.867 137.359 172.706 137.654C172.546 137.949 172.504 138.273 172.586 138.586C172.668 138.9 172.87 139.187 173.167 139.413C173.464 139.639 173.843 139.793 174.255 139.855C174.667 139.917 175.094 139.885 175.483 139.763C175.871 139.641 176.203 139.434 176.436 139.168C176.67 138.903 176.794 138.591 176.794 138.271C176.795 138.059 176.741 137.848 176.635 137.652C176.529 137.455 176.372 137.276 176.175 137.126C175.977 136.975 175.743 136.856 175.485 136.774C175.226 136.693 174.949 136.651 174.67 136.651V136.657Z" fill="#4A4A4A"/>
<path d="M146.122 43.9849C145.546 43.9849 144.982 43.855 144.503 43.6117C144.023 43.3683 143.65 43.0225 143.429 42.6178C143.209 42.2131 143.151 41.7678 143.263 41.3382C143.376 40.9086 143.653 40.514 144.061 40.2043C144.469 39.8946 144.988 39.6837 145.553 39.5982C146.119 39.5128 146.705 39.5566 147.237 39.7242C147.77 39.8919 148.225 40.1757 148.546 40.5399C148.866 40.9041 149.037 41.3323 149.037 41.7703C149.037 42.3576 148.73 42.9209 148.183 43.3363C147.637 43.7516 146.895 43.9849 146.122 43.9849ZM146.122 40.1618C145.702 40.1618 145.291 40.2565 144.942 40.4339C144.592 40.6113 144.32 40.8635 144.159 41.1585C143.998 41.4535 143.956 41.7781 144.038 42.0913C144.12 42.4044 144.322 42.6921 144.62 42.9179C144.917 43.1437 145.295 43.2974 145.708 43.3597C146.12 43.422 146.547 43.39 146.935 43.2678C147.323 43.1457 147.655 42.9387 147.889 42.6732C148.122 42.4077 148.247 42.0956 148.247 41.7763C148.243 41.3502 148.017 40.9426 147.619 40.6424C147.221 40.3423 146.683 40.1738 146.122 40.1738V40.1618Z" fill="#4A4A4A"/>
<path d="M78.5843 25.2238C78.0078 25.2238 77.4443 25.0939 76.965 24.8506C76.4856 24.6072 76.112 24.2613 75.8914 23.8567C75.6708 23.452 75.6131 23.0067 75.7256 22.5771C75.838 22.1475 76.1156 21.7529 76.5233 21.4432C76.9309 21.1335 77.4503 20.9226 78.0157 20.8371C78.5811 20.7517 79.1672 20.7955 79.6998 20.9631C80.2324 21.1308 80.6876 21.4146 81.0079 21.7788C81.3282 22.143 81.4991 22.5712 81.4991 23.0092C81.4991 23.5965 81.192 24.1598 80.6454 24.5752C80.0988 24.9905 79.3574 25.2238 78.5843 25.2238ZM78.5843 21.4007C78.1641 21.4007 77.7533 21.4954 77.4038 21.6728C77.0544 21.8502 76.782 22.1024 76.6212 22.3974C76.4604 22.6924 76.4183 23.017 76.5003 23.3301C76.5823 23.6433 76.7847 23.931 77.0818 24.1568C77.379 24.3826 77.7576 24.5363 78.1698 24.5986C78.582 24.6609 79.0092 24.6289 79.3975 24.5067C79.7858 24.3845 80.1176 24.1776 80.3511 23.9121C80.5846 23.6466 80.7092 23.3345 80.7092 23.0152C80.7092 22.587 80.4853 22.1764 80.0868 21.8736C79.6884 21.5708 79.1479 21.4007 78.5843 21.4007Z" fill="#4A4A4A"/>
<path d="M68.9948 39.7658C68.5793 39.7658 68.173 39.6721 67.8275 39.4967C67.482 39.3213 67.2127 39.072 67.0536 38.7803C66.8946 38.4885 66.853 38.1676 66.9341 37.8579C67.0151 37.5482 67.2152 37.2637 67.5091 37.0405C67.8029 36.8172 68.1773 36.6652 68.5849 36.6036C68.9925 36.542 69.415 36.5736 69.7989 36.6944C70.1829 36.8152 70.511 37.0199 70.7419 37.2824C70.9728 37.5449 71.096 37.8536 71.096 38.1693C71.096 38.5927 70.8746 38.9988 70.4806 39.2982C70.0866 39.5976 69.5521 39.7658 68.9948 39.7658ZM68.9948 37.173C68.7355 37.173 68.482 37.2315 68.2664 37.3409C68.0507 37.4504 67.8826 37.606 67.7834 37.7881C67.6842 37.9701 67.6582 38.1704 67.7088 38.3637C67.7594 38.5569 67.8843 38.7345 68.0676 38.8738C68.251 39.0131 68.4847 39.108 68.739 39.1465C68.9934 39.1849 69.257 39.1652 69.4966 39.0898C69.7362 39.0144 69.941 38.8867 70.0851 38.7228C70.2292 38.559 70.3061 38.3664 70.3061 38.1693C70.3061 37.9051 70.168 37.6517 69.922 37.4649C69.6761 37.278 69.3426 37.173 68.9948 37.173Z" fill="#4A4A4A"/>
<path d="M194.022 29.635C193.918 29.635 193.817 29.6033 193.743 29.5471C193.669 29.4908 193.627 29.4145 193.627 29.3349V26.22C193.627 26.1404 193.669 26.0641 193.743 26.0078C193.817 25.9515 193.918 25.9199 194.022 25.9199C194.127 25.9199 194.228 25.9515 194.302 26.0078C194.376 26.0641 194.417 26.1404 194.417 26.22V29.3349C194.417 29.4145 194.376 29.4908 194.302 29.5471C194.228 29.6033 194.127 29.635 194.022 29.635Z" fill="#4A4A4A"/>
<path d="M198.296 30.8534H195.207C195.102 30.8534 195.002 30.8217 194.928 30.7655C194.854 30.7092 194.812 30.6329 194.812 30.5533C194.812 30.4737 194.854 30.3974 194.928 30.3411C195.002 30.2848 195.102 30.2532 195.207 30.2532H198.272C198.324 30.252 198.376 30.2586 198.424 30.2726C198.473 30.2866 198.517 30.3077 198.555 30.3347C198.593 30.3617 198.623 30.3942 198.644 30.4301C198.666 30.4661 198.677 30.5049 198.679 30.5443C198.68 30.5837 198.672 30.6229 198.653 30.6598C198.635 30.6967 198.607 30.7304 198.572 30.7591C198.536 30.7878 198.493 30.8109 198.446 30.8271C198.399 30.8432 198.348 30.8522 198.296 30.8534Z" fill="#4A4A4A"/>
<path d="M194.022 35.1866C193.918 35.1866 193.817 35.155 193.743 35.0987C193.669 35.0424 193.627 34.9661 193.627 34.8865V31.7716C193.627 31.6921 193.669 31.6157 193.743 31.5594C193.817 31.5032 193.918 31.4716 194.022 31.4716C194.127 31.4716 194.228 31.5032 194.302 31.5594C194.376 31.6157 194.417 31.6921 194.417 31.7716V34.8865C194.417 34.9661 194.376 35.0424 194.302 35.0987C194.228 35.155 194.127 35.1866 194.022 35.1866Z" fill="#4A4A4A"/>
<path d="M192.838 30.8533H189.773C189.668 30.8533 189.567 30.8217 189.493 30.7654C189.419 30.7092 189.378 30.6328 189.378 30.5533C189.378 30.4737 189.419 30.3973 189.493 30.3411C189.567 30.2848 189.668 30.2532 189.773 30.2532H192.838C192.942 30.2532 193.043 30.2848 193.117 30.3411C193.191 30.3973 193.232 30.4737 193.232 30.5533C193.232 30.6328 193.191 30.7092 193.117 30.7654C193.043 30.8217 192.942 30.8533 192.838 30.8533Z" fill="#4A4A4A"/>
<path d="M199.038 95.6776C198.934 95.6776 198.833 95.646 198.759 95.5897C198.685 95.5334 198.643 95.4571 198.643 95.3775V92.2626C198.643 92.183 198.685 92.1067 198.759 92.0504C198.833 91.9941 198.934 91.9625 199.038 91.9625C199.143 91.9625 199.243 91.9941 199.318 92.0504C199.392 92.1067 199.433 92.183 199.433 92.2626V95.3895C199.429 95.467 199.386 95.5403 199.312 95.594C199.238 95.6477 199.14 95.6776 199.038 95.6776Z" fill="#4A4A4A"/>
<path d="M203.304 96.8959H200.239C200.134 96.8959 200.034 96.8643 199.96 96.8081C199.886 96.7518 199.844 96.6754 199.844 96.5959C199.844 96.5163 199.886 96.44 199.96 96.3837C200.034 96.3274 200.134 96.2958 200.239 96.2958H203.304C203.409 96.2958 203.509 96.3274 203.583 96.3837C203.657 96.44 203.699 96.5163 203.699 96.5959C203.699 96.6754 203.657 96.7518 203.583 96.8081C203.509 96.8643 203.409 96.8959 203.304 96.8959Z" fill="#4A4A4A"/>
<path d="M199.038 101.229C198.934 101.229 198.833 101.198 198.759 101.141C198.685 101.085 198.643 101.009 198.643 100.929V97.7902C198.643 97.7106 198.685 97.6343 198.759 97.578C198.833 97.5217 198.934 97.4901 199.038 97.4901C199.143 97.4901 199.243 97.5217 199.318 97.578C199.392 97.6343 199.433 97.7106 199.433 97.7902V100.905C199.438 100.946 199.431 100.988 199.413 101.027C199.395 101.067 199.366 101.102 199.329 101.133C199.292 101.163 199.247 101.188 199.197 101.204C199.147 101.221 199.093 101.229 199.038 101.229Z" fill="#4A4A4A"/>
<path d="M197.838 96.8959H194.773C194.668 96.8959 194.568 96.8643 194.494 96.8081C194.42 96.7518 194.378 96.6754 194.378 96.5959C194.378 96.5163 194.42 96.44 194.494 96.3837C194.568 96.3274 194.668 96.2958 194.773 96.2958H197.838C197.942 96.2958 198.043 96.3274 198.117 96.3837C198.191 96.44 198.233 96.5163 198.233 96.5959C198.233 96.6754 198.191 96.7518 198.117 96.8081C198.043 96.8643 197.942 96.8959 197.838 96.8959Z" fill="#4A4A4A"/>
<path d="M32.485 110.826C32.3803 110.826 32.2798 110.794 32.2058 110.738C32.1317 110.682 32.0901 110.605 32.0901 110.526V107.393C32.0901 107.313 32.1317 107.237 32.2058 107.181C32.2798 107.124 32.3803 107.093 32.485 107.093C32.5898 107.093 32.6902 107.124 32.7643 107.181C32.8384 107.237 32.88 107.313 32.88 107.393V110.508C32.8832 110.549 32.8754 110.589 32.857 110.628C32.8386 110.666 32.81 110.702 32.773 110.732C32.736 110.761 32.6914 110.785 32.6419 110.801C32.5923 110.817 32.539 110.826 32.485 110.826Z" fill="#4A4A4A"/>
<path d="M36.7584 112.044H33.6856C33.5809 112.044 33.4804 112.013 33.4063 111.956C33.3323 111.9 33.2906 111.824 33.2906 111.744C33.2906 111.664 33.3323 111.588 33.4063 111.532C33.4804 111.476 33.5809 111.444 33.6856 111.444H36.7584C36.8631 111.444 36.9636 111.476 37.0376 111.532C37.1117 111.588 37.1533 111.664 37.1533 111.744C37.1533 111.824 37.1117 111.9 37.0376 111.956C36.9636 112.013 36.8631 112.044 36.7584 112.044Z" fill="#4A4A4A"/>
<path d="M32.485 116.395C32.3803 116.395 32.2798 116.364 32.2058 116.308C32.1317 116.251 32.0901 116.175 32.0901 116.095V112.981C32.0901 112.901 32.1317 112.825 32.2058 112.768C32.2798 112.712 32.3803 112.68 32.485 112.68C32.5898 112.68 32.6902 112.712 32.7643 112.768C32.8384 112.825 32.88 112.901 32.88 112.981V116.095C32.88 116.175 32.8384 116.251 32.7643 116.308C32.6902 116.364 32.5898 116.395 32.485 116.395Z" fill="#4A4A4A"/>
<path d="M31.2844 112.044H28.2116C28.1069 112.044 28.0064 112.013 27.9323 111.956C27.8583 111.9 27.8167 111.824 27.8167 111.744C27.8167 111.664 27.8583 111.588 27.9323 111.532C28.0064 111.476 28.1069 111.444 28.2116 111.444H31.2844C31.3891 111.444 31.4896 111.476 31.5637 111.532C31.6377 111.588 31.6793 111.664 31.6793 111.744C31.6793 111.824 31.6377 111.9 31.5637 111.956C31.4896 112.013 31.3891 112.044 31.2844 112.044Z" fill="#4A4A4A"/>
<path d="M51.8379 14.7148C48.9476 14.7148 46.1223 15.366 43.7191 16.5861C41.316 17.8061 39.4429 19.5402 38.3369 21.569C37.2308 23.5978 36.9414 25.8303 37.5053 27.9841C38.0691 30.1379 39.4609 32.1162 41.5047 33.669C43.5484 35.2218 46.1522 36.2793 48.987 36.7077C51.8217 37.1361 54.76 36.9163 57.4302 36.0759C60.1005 35.2355 62.3828 33.8124 63.9885 31.9865C65.5942 30.1606 66.4513 28.0139 66.4513 25.818C66.4513 22.8732 64.9117 20.0491 62.1711 17.9669C59.4306 15.8846 55.7136 14.7148 51.8379 14.7148ZM51.8379 30.6553C50.5767 30.6624 49.3411 30.3848 48.2879 29.8576C47.2347 29.3305 46.4113 28.5775 45.9222 27.6942C45.433 26.811 45.3001 25.8372 45.5404 24.8965C45.7807 23.9558 46.3833 23.0905 47.2718 22.4104C48.1603 21.7302 49.2946 21.2659 50.5309 21.0764C51.7672 20.8868 53.0497 20.9804 54.2159 21.3455C55.382 21.7105 56.3791 22.3305 57.0808 23.1268C57.7825 23.923 58.1572 24.8597 58.1572 25.818C58.1593 27.0952 57.4957 28.3211 56.3115 29.2276C55.1273 30.134 53.5189 30.6474 51.8379 30.6553Z" fill="#4A4A4A"/>
<path d="M40.1235 26.1181C40.0187 26.1181 39.9183 26.0865 39.8442 26.0302C39.7701 25.9739 39.7285 25.8976 39.7285 25.818C39.7327 23.3788 41.0098 21.0405 43.2799 19.3157C45.5499 17.591 48.6276 16.6206 51.8379 16.6174C51.9426 16.6174 52.0431 16.649 52.1172 16.7053C52.1912 16.7616 52.2329 16.8379 52.2329 16.9175C52.2329 16.9971 52.1912 17.0734 52.1172 17.1297C52.0431 17.186 51.9426 17.2176 51.8379 17.2176C48.8371 17.2208 45.9603 18.1279 43.8384 19.7401C41.7165 21.3523 40.5226 23.538 40.5184 25.818C40.5184 25.8976 40.4768 25.9739 40.4028 26.0302C40.3287 26.0865 40.2282 26.1181 40.1235 26.1181Z" fill="#FFB11A"/>
<path d="M51.838 35.0247C51.7332 35.0247 51.6327 34.9931 51.5587 34.9368C51.4846 34.8805 51.443 34.8042 51.443 34.7246C51.443 34.645 51.4846 34.5687 51.5587 34.5124C51.6327 34.4562 51.7332 34.4245 51.838 34.4245C54.8388 34.4214 57.7155 33.5142 59.8374 31.902C61.9593 30.2898 63.1532 28.1041 63.1574 25.8241C63.1574 25.7445 63.199 25.6682 63.2731 25.6119C63.3472 25.5557 63.4476 25.524 63.5524 25.524C63.6571 25.524 63.7576 25.5557 63.8316 25.6119C63.9057 25.6682 63.9473 25.7445 63.9473 25.8241C63.9432 28.2633 62.666 30.6017 60.396 32.3264C58.1259 34.0512 55.0483 35.0215 51.838 35.0247Z" fill="#FFB11A"/>
<path d="M51.8379 32.7979C49.4021 32.7963 47.0667 32.0604 45.3443 30.7517C43.6219 29.4431 42.6533 27.6686 42.6512 25.8179C42.6512 25.7383 42.6929 25.662 42.7669 25.6057C42.841 25.5494 42.9415 25.5178 43.0462 25.5178C43.151 25.5178 43.2514 25.5494 43.3255 25.6057C43.3996 25.662 43.4412 25.7383 43.4412 25.8179C43.4433 27.5094 44.3286 29.1312 45.9028 30.3273C47.4771 31.5234 49.6116 32.1961 51.8379 32.1977C51.9427 32.1977 52.0431 32.2293 52.1172 32.2856C52.1913 32.3419 52.2329 32.4182 52.2329 32.4978C52.2329 32.5774 52.1913 32.6537 52.1172 32.71C52.0431 32.7662 51.9427 32.7979 51.8379 32.7979Z" fill="#FFB11A"/>
<path d="M60.6297 26.118C60.5249 26.118 60.4245 26.0864 60.3504 26.0301C60.2763 25.9739 60.2347 25.8975 60.2347 25.818C60.2306 24.1275 59.3443 22.5072 57.7703 21.3124C56.1962 20.1176 54.0629 19.4457 51.838 19.4442C51.7332 19.4442 51.6327 19.4125 51.5587 19.3563C51.4846 19.3 51.443 19.2237 51.443 19.1441C51.443 19.0645 51.4846 18.9882 51.5587 18.9319C51.6327 18.8756 51.7332 18.844 51.838 18.844C54.2738 18.8456 56.6092 19.5815 58.3316 20.8901C60.054 22.1988 61.0226 23.9732 61.0247 25.8239C61.0226 25.9025 60.9801 25.9773 60.9062 26.0323C60.8324 26.0873 60.7331 26.1181 60.6297 26.118Z" fill="#FFB11A"/>
</svg>
