<svg width="220" height="259" viewBox="0 0 220 259" fill="none" xmlns="http://www.w3.org/2000/svg">
<path d="M35.5731 258.251C35.4821 258.251 35.3938 258.227 35.3233 258.183C35.2528 258.14 35.2043 258.079 35.1861 258.011C29.712 238.253 3.64483 229.563 3.37626 229.473C3.28387 229.44 3.2119 229.381 3.17544 229.309C3.13899 229.236 3.14089 229.156 3.18074 229.084C3.22059 229.013 3.29529 228.956 3.38918 228.926C3.48307 228.895 3.58885 228.893 3.68432 228.921C3.95289 229.005 30.3913 237.815 35.9523 257.885C35.9627 257.924 35.9629 257.963 35.9531 258.002C35.9432 258.041 35.9234 258.078 35.8948 258.111C35.8662 258.143 35.8293 258.172 35.7864 258.194C35.7434 258.216 35.6951 258.231 35.6442 258.239H35.5652L35.5731 258.251Z" fill="#6B25F1"/>
<path d="M9.90901 231.844C9.90901 231.844 7.59456 229.119 8.23439 226.82C8.87422 224.522 14.2693 227.048 9.90901 231.844Z" fill="#404B7C"/>
<path d="M15.2649 234.676C15.2649 234.676 12.587 230.115 15.2175 227.54C17.8479 224.966 19.9885 231.484 15.2649 234.676Z" fill="#404B7C"/>
<path d="M22.0661 239.268C22.0661 239.268 19.5778 235.301 20.9918 231.58C22.4057 227.859 28.496 231.892 22.0661 239.268Z" fill="#404B7C"/>
<path d="M6.09384 230.163C6.09384 230.163 4.36393 227.919 1.63873 227.937C-1.08647 227.955 1.24377 231.027 6.09384 230.163Z" fill="#404B7C"/>
<path d="M11.8839 232.828C11.8839 232.828 7.14444 231.628 4.98798 232.408C2.83151 233.188 7.14444 235.643 11.8839 232.828Z" fill="#404B7C"/>
<path d="M16.9633 235.703C16.9633 235.703 11.1574 234.629 9.48277 236.777C7.80815 238.926 14.0959 239.598 16.9633 235.703Z" fill="#404B7C"/>
<path d="M23.4009 240.342C23.4009 240.342 16.9236 239.178 15.17 241.729C13.4164 244.279 20.7547 244.994 23.4009 240.342Z" fill="#404B7C"/>
<path d="M26.0865 242.755C26.0865 242.755 25.9759 237.701 28.8512 235.493C31.7265 233.284 34.7598 239.724 26.0865 242.755Z" fill="#404B7C"/>
<path d="M27.4928 244.171C27.4928 244.171 21.45 244.501 21.4973 247.142C21.5447 249.783 25.8972 249.063 27.4928 244.171Z" fill="#404B7C"/>
<path d="M30.1152 247.232C30.402 245.518 31.1066 243.859 32.1927 242.341C33.8752 239.946 39.2782 243.979 30.1152 247.232Z" fill="#404B7C"/>
<path d="M30.9681 248.432C30.9681 248.432 26.663 249.063 26.4182 251.055C26.1733 253.048 30.5178 252.033 30.9681 248.432Z" fill="#404B7C"/>
<path d="M31.6948 249.417C31.6948 249.417 34.5306 246.71 36.1736 247.544C37.8167 248.378 34.8545 250.683 31.6948 249.417Z" fill="#404B7C"/>
<path d="M175.033 256.337C175.033 256.337 149.226 237.983 161.525 214.757C164.513 219.172 167.847 223.447 171.51 227.559C177.932 234.869 181.091 243.967 175.033 256.337Z" fill="#6B25F1"/>
<path d="M174.322 254.116C174.251 254.116 174.181 254.102 174.12 254.074C174.059 254.047 174.008 254.007 173.974 253.96C163.705 239.742 161.209 218.52 161.185 218.304C161.181 218.265 161.187 218.225 161.203 218.187C161.219 218.149 161.245 218.115 161.278 218.084C161.312 218.054 161.353 218.03 161.4 218.012C161.446 217.994 161.497 217.983 161.549 217.98C161.653 217.975 161.756 218.001 161.836 218.052C161.915 218.104 161.965 218.177 161.975 218.256C161.975 218.466 164.448 239.568 174.669 253.666C174.704 253.712 174.722 253.764 174.722 253.817C174.722 253.87 174.703 253.922 174.668 253.968C174.633 254.014 174.582 254.051 174.521 254.077C174.46 254.103 174.392 254.117 174.322 254.116Z" fill="#404B7C"/>
<path d="M175.033 256.337C175.033 256.337 177.632 231.598 206.55 228.573C203.454 232.589 201.011 236.875 199.275 241.338C196.51 248.57 189.409 256.337 175.033 256.337Z" fill="#6B25F1"/>
<path d="M176.992 255.034H176.873C176.774 255.01 176.691 254.956 176.644 254.885C176.597 254.814 176.588 254.732 176.62 254.656C182.829 240.072 202.933 230.229 203.138 230.127C203.226 230.089 203.329 230.078 203.428 230.097C203.526 230.115 203.611 230.161 203.666 230.226C203.72 230.29 203.74 230.368 203.722 230.444C203.703 230.519 203.646 230.587 203.564 230.631C203.367 230.727 183.493 240.462 177.371 254.836C177.343 254.895 177.291 254.946 177.223 254.982C177.155 255.017 177.074 255.036 176.992 255.034Z" fill="#404B7C"/>
<path d="M175.033 256.337C175.033 256.337 168.279 245.534 171.913 230.938C175.546 216.342 197.19 207.123 197.19 207.123C197.19 207.123 195.808 211.726 196.147 220.021C196.487 228.315 194.599 245.81 175.033 256.337Z" fill="#404B7C"/>
<path d="M175.206 254.398C175.104 254.398 175.006 254.368 174.933 254.314C174.859 254.261 174.816 254.187 174.811 254.11C173.437 229.149 192.545 211.318 192.743 211.138C192.81 211.077 192.906 211.038 193.01 211.031C193.115 211.023 193.219 211.048 193.299 211.099C193.38 211.15 193.431 211.223 193.44 211.302C193.45 211.382 193.418 211.461 193.351 211.522C193.161 211.696 174.243 229.359 175.601 254.086C175.603 254.125 175.595 254.165 175.577 254.202C175.56 254.239 175.532 254.273 175.497 254.302C175.462 254.331 175.419 254.354 175.372 254.371C175.325 254.387 175.274 254.397 175.222 254.398H175.206Z" fill="#6B25F1"/>
<path d="M203.691 256.637H162.742C162.637 256.637 162.536 256.605 162.462 256.549C162.388 256.493 162.347 256.416 162.347 256.337C162.347 256.257 162.388 256.181 162.462 256.124C162.536 256.068 162.637 256.037 162.742 256.037H203.691C203.796 256.037 203.896 256.068 203.97 256.124C204.044 256.181 204.086 256.257 204.086 256.337C204.086 256.416 204.044 256.493 203.97 256.549C203.896 256.605 203.796 256.637 203.691 256.637Z" fill="#404B7C"/>
<path d="M90.5355 256.637H49.5864C49.4816 256.637 49.3812 256.605 49.3071 256.549C49.233 256.493 49.1914 256.416 49.1914 256.337C49.1914 256.257 49.233 256.181 49.3071 256.124C49.3812 256.068 49.4816 256.037 49.5864 256.037H90.5355C90.6403 256.037 90.7407 256.068 90.8148 256.124C90.8888 256.181 90.9305 256.257 90.9305 256.337C90.9305 256.416 90.8888 256.493 90.8148 256.549C90.7407 256.605 90.6403 256.637 90.5355 256.637Z" fill="#404B7C"/>
<path d="M177.947 258.287H114.059C113.954 258.287 113.854 258.256 113.78 258.199C113.706 258.143 113.664 258.067 113.664 257.987C113.664 257.908 113.706 257.831 113.78 257.775C113.854 257.719 113.954 257.687 114.059 257.687H177.947C178.052 257.687 178.152 257.719 178.227 257.775C178.301 257.831 178.342 257.908 178.342 257.987C178.342 258.067 178.301 258.143 178.227 258.199C178.152 258.256 178.052 258.287 177.947 258.287Z" fill="#404B7C"/>
<path d="M46.3953 258.287H29.8071C29.7023 258.287 29.6019 258.256 29.5278 258.199C29.4537 258.143 29.4121 258.067 29.4121 257.987C29.4121 257.908 29.4537 257.831 29.5278 257.775C29.6019 257.719 29.7023 257.687 29.8071 257.687H46.3953C46.5 257.687 46.6005 257.719 46.6745 257.775C46.7486 257.831 46.7902 257.908 46.7902 257.987C46.7902 258.067 46.7486 258.143 46.6745 258.199C46.6005 258.256 46.5 258.287 46.3953 258.287Z" fill="#404B7C"/>
<path d="M124.905 231.256L126.09 238.68H132.709L132.804 231.028L124.905 231.256Z" fill="#B9A474"/>
<path d="M161.541 253.906H121.153C121.153 253.906 121.074 252.214 121.327 249.633C121.68 245.309 122.817 241.044 124.707 236.957H133.594C137.051 240.226 141.847 242.523 147.22 243.481C154.408 244.831 159.116 245.54 160.822 249.633C161.347 251.021 161.589 252.462 161.541 253.906Z" fill="#404B7C"/>
<path d="M161.541 253.906H121.153C121.153 253.906 121.074 252.213 121.327 249.633H160.822C161.347 251.021 161.589 252.462 161.541 253.906Z" fill="#6B25F1"/>
<path d="M138.594 232.63C133.035 233.395 127.356 233.528 121.745 233.026C121.745 233.026 114.589 187.215 107.669 156.901C107.013 154.038 106.366 151.313 105.718 148.775C105.449 147.682 105.186 146.626 104.928 145.606V122.727C104.9 119.915 105.579 117.124 106.927 114.505C109.036 110.502 113.293 105.995 121.777 105.995C132.472 105.995 136.446 113.641 137.875 118.226C138.383 119.863 138.648 121.538 138.665 123.219C138.721 134.617 139.321 203.15 138.594 232.63Z" fill="white"/>
<path d="M110.592 145.378L107.669 156.901C107.013 154.038 106.366 151.313 105.718 148.775C107.527 147.772 109.896 146.95 110.592 145.378Z" fill="#404B7C"/>
<path d="M136.264 137.209C136.222 137.215 136.179 137.215 136.138 137.209C129.755 135.283 130.648 127.378 130.695 127.042C130.705 126.974 130.749 126.912 130.819 126.868C130.888 126.825 130.977 126.803 131.066 126.808C131.111 126.811 131.154 126.821 131.194 126.837C131.234 126.853 131.269 126.874 131.298 126.9C131.326 126.927 131.348 126.957 131.361 126.99C131.374 127.022 131.379 127.056 131.374 127.09C131.374 127.168 130.482 134.947 136.398 136.729C136.46 136.756 136.509 136.798 136.539 136.848C136.568 136.897 136.575 136.953 136.561 137.006C136.546 137.059 136.509 137.108 136.456 137.144C136.402 137.181 136.335 137.203 136.264 137.209Z" fill="#B9A474"/>
<path d="M125.955 230.884C125.869 230.884 125.786 230.859 125.723 230.814C125.66 230.77 125.622 230.709 125.616 230.644C123.246 207.321 110.102 146.572 109.967 145.966C109.953 145.898 109.974 145.829 110.027 145.773C110.079 145.717 110.159 145.68 110.248 145.669C110.337 145.658 110.428 145.674 110.501 145.714C110.575 145.754 110.624 145.814 110.639 145.882C110.773 146.482 123.949 207.261 126.295 230.608C126.298 230.641 126.293 230.675 126.278 230.708C126.264 230.74 126.242 230.77 126.212 230.795C126.183 230.821 126.147 230.842 126.107 230.857C126.067 230.872 126.024 230.881 125.979 230.884H125.955Z" fill="#B9A474"/>
<path d="M106.476 148.661C106.406 148.66 106.339 148.643 106.283 148.612C106.226 148.582 106.183 148.539 106.16 148.489C106.137 148.439 106.134 148.385 106.153 148.335C106.171 148.284 106.209 148.238 106.263 148.205L109.272 146.362C109.797 146.041 110.227 145.639 110.533 145.183C110.84 144.727 111.016 144.227 111.049 143.715C111.46 137.522 111.666 119.769 111.673 119.595C111.673 119.526 111.709 119.46 111.773 119.412C111.837 119.364 111.923 119.336 112.013 119.336C112.102 119.338 112.186 119.366 112.248 119.414C112.31 119.462 112.345 119.527 112.345 119.595C112.345 119.775 112.132 137.534 111.721 143.739C111.678 144.32 111.475 144.886 111.125 145.403C110.775 145.92 110.287 146.376 109.691 146.74L106.681 148.583C106.627 148.626 106.554 148.654 106.476 148.661Z" fill="#B9A474"/>
<path d="M69.1608 231.256L68.9712 238.68H75.5907L77.0994 231.028L69.1608 231.256Z" fill="#B9A474"/>
<path d="M82.8259 245.432C78.1891 242.209 76.9726 236.957 76.9726 236.957H68.0861C65.8585 241.519 63.6547 246.314 63.3466 249.633C63.0938 252.214 63.1728 253.906 63.1728 253.906H87.5496C87.4943 249.771 86.9887 248.318 82.8259 245.432Z" fill="#404B7C"/>
<path d="M63.3466 249.633C63.0938 252.213 63.1728 253.906 63.1728 253.906H87.5496C87.6198 252.466 87.4096 251.026 86.9255 249.633H63.3466Z" fill="#6B25F1"/>
<path d="M106.476 121.047V148.402L79.8797 233.302C79.8797 233.302 71.9806 234.851 66.4512 231.778C66.4512 231.778 72.6362 136.981 73.1654 122.397C73.7579 105.995 103.838 96.5899 106.476 121.047Z" fill="white"/>
<path d="M106.476 148.66C106.386 148.66 106.299 148.633 106.236 148.585C106.172 148.537 106.136 148.471 106.136 148.402V124.312C106.136 124.243 106.172 124.178 106.236 124.129C106.299 124.081 106.386 124.054 106.476 124.054C106.566 124.054 106.652 124.081 106.716 124.129C106.78 124.178 106.816 124.243 106.816 124.312V148.408C106.813 148.476 106.777 148.54 106.713 148.587C106.65 148.634 106.565 148.661 106.476 148.66Z" fill="#B9A474"/>
<path d="M78.7342 137.209C78.6441 137.209 78.5577 137.182 78.494 137.134C78.4303 137.085 78.3945 137.02 78.3945 136.951C78.3945 136.883 78.4303 136.817 78.494 136.769C78.5577 136.72 78.6441 136.693 78.7342 136.693C82.6838 136.693 84.9192 133.362 85.3379 126.784C85.3399 126.75 85.3507 126.717 85.3697 126.686C85.3887 126.656 85.4154 126.628 85.4484 126.605C85.4814 126.582 85.5201 126.565 85.5621 126.553C85.6041 126.542 85.6487 126.537 85.6933 126.538C85.738 126.54 85.7817 126.548 85.8222 126.562C85.8626 126.577 85.8989 126.597 85.929 126.622C85.9591 126.647 85.9824 126.677 85.9975 126.709C86.0126 126.741 86.0193 126.774 86.0172 126.808C85.567 133.71 83.1182 137.209 78.7342 137.209Z" fill="#B9A474"/>
<path d="M69.8715 230.883C69.8269 230.881 69.7833 230.872 69.7432 230.857C69.7031 230.842 69.6674 230.821 69.638 230.795C69.6087 230.77 69.5863 230.74 69.5721 230.708C69.558 230.675 69.5523 230.641 69.5556 230.607L79.4295 126.178C79.4314 126.144 79.4425 126.11 79.4621 126.08C79.4816 126.049 79.5093 126.021 79.5433 125.999C79.5773 125.976 79.6169 125.959 79.6598 125.949C79.7028 125.938 79.748 125.935 79.7929 125.938C79.8375 125.94 79.8811 125.949 79.9212 125.964C79.9613 125.98 79.997 126.001 80.0264 126.026C80.0557 126.052 80.0781 126.082 80.0923 126.114C80.1064 126.146 80.112 126.18 80.1088 126.214L70.2349 230.643C70.2319 230.677 70.2201 230.71 70.2002 230.741C70.1803 230.771 70.1526 230.799 70.1189 230.821C70.0851 230.843 70.0459 230.86 70.0034 230.871C69.961 230.882 69.9162 230.886 69.8715 230.883Z" fill="#B9A474"/>
<path d="M136.264 44.5254C136.264 44.5254 159.171 68.3821 164.14 81.5858C169.108 94.7895 150.577 97.1901 137.543 80.5355C124.51 63.8808 119.573 55.0283 119.573 55.0283L136.264 44.5254Z" fill="#6B25F1"/>
<path d="M143.602 124C100.552 129.899 68.4258 124 68.4258 124C70.0056 110.988 71.3801 96.0017 72.3754 82.66C73.4891 68.2079 74.2316 55.6884 74.5713 49.6507C74.7056 47.25 74.7767 45.8516 74.7767 45.8516C74.7767 45.8516 85.5748 36.8491 104.865 36.2489C116.318 35.8858 127.527 38.8347 136.232 44.5013C144.06 79.185 143.602 124 143.602 124Z" fill="#6B25F1"/>
<path d="M141.927 84.1903C141.827 84.1905 141.73 84.1613 141.656 84.1089C141.583 84.0565 141.539 83.9847 141.532 83.9083C140.324 69.5882 138.539 56.9007 136.224 46.1637C136.208 46.0841 136.233 46.0027 136.295 45.9374C136.357 45.8721 136.451 45.8283 136.556 45.8156C136.661 45.8029 136.768 45.8223 136.854 45.8695C136.94 45.9168 136.997 45.9881 137.014 46.0677C139.337 56.8107 141.122 69.5282 142.33 83.8783C142.334 83.9177 142.326 83.9572 142.31 83.9945C142.293 84.0319 142.266 84.0663 142.232 84.0959C142.197 84.1254 142.155 84.1495 142.109 84.1667C142.062 84.184 142.011 84.1941 141.959 84.1963L141.927 84.1903Z" fill="#404B7C"/>
<path d="M110.307 125.296C110.255 125.293 110.205 125.282 110.158 125.264C110.112 125.246 110.07 125.221 110.037 125.191C110.003 125.161 109.977 125.126 109.961 125.089C109.945 125.051 109.939 125.011 109.944 124.972C111.853 107.204 111.496 89.3381 108.877 71.6229C108.871 71.5835 108.874 71.5434 108.888 71.5051C108.901 71.4667 108.925 71.4307 108.957 71.3992C108.989 71.3678 109.028 71.3414 109.074 71.3215C109.119 71.3017 109.169 71.2889 109.221 71.2838C109.273 71.2787 109.326 71.2813 109.376 71.2917C109.427 71.302 109.474 71.3198 109.515 71.3441C109.557 71.3683 109.591 71.3985 109.618 71.433C109.644 71.4674 109.661 71.5054 109.667 71.5448C112.277 89.3031 112.618 107.212 110.686 125.02C110.679 125.093 110.636 125.162 110.566 125.213C110.496 125.264 110.404 125.293 110.307 125.296Z" fill="#404B7C"/>
<path d="M76.7202 121.299C76.6167 121.291 76.5214 121.253 76.4548 121.192C76.3883 121.132 76.3559 121.053 76.3647 120.975C78.9635 98.8405 78.0867 71.6649 78.0709 71.3948C78.0709 71.3152 78.1125 71.2389 78.1866 71.1826C78.2607 71.1263 78.3611 71.0947 78.4659 71.0947C78.5706 71.0947 78.6711 71.1263 78.7451 71.1826C78.8192 71.2389 78.8608 71.3152 78.8608 71.3948C78.8608 71.6649 79.7534 98.8765 77.1467 121.041C77.1329 121.117 77.0809 121.187 77.0015 121.235C76.922 121.283 76.8213 121.306 76.7202 121.299Z" fill="#404B7C"/>
<path d="M82.5102 68.658C82.5102 68.658 82.9131 77.8946 72.4072 82.6599C73.521 68.2078 74.2635 55.6883 74.6032 49.6506C78.6713 50.977 84.0032 55.1782 82.5102 68.658Z" fill="#404B7C"/>
<path d="M102.392 31.5737C86.657 32.876 80.5352 46.6799 80.5352 46.6799C80.5352 46.6799 97.3445 53.5878 109.478 73.0873C109.478 73.0873 118.585 49.5787 127.274 37.6774C123.777 36.8982 120.348 35.9541 117.005 34.8506C111.871 33.1221 107.527 31.1716 102.392 31.5737Z" fill="#6B25F1"/>
<path d="M109.478 73.3872C109.403 73.3868 109.33 73.3702 109.267 73.3394C109.204 73.3086 109.154 73.2648 109.122 73.2132C97.1865 54.0078 80.5193 47.0098 80.3535 46.9378C80.2709 46.9045 80.2065 46.8501 80.1718 46.7842C80.1371 46.7182 80.1343 46.6451 80.1639 46.5777C80.9968 44.8474 82.0552 43.1847 83.3235 41.6143C83.3505 41.5804 83.386 41.5509 83.428 41.5274C83.47 41.504 83.5176 41.487 83.5682 41.4776C83.6188 41.4681 83.6714 41.4663 83.723 41.4722C83.7745 41.4782 83.824 41.4918 83.8686 41.5123C83.9132 41.5328 83.952 41.5598 83.9829 41.5917C84.0138 41.6236 84.0361 41.6598 84.0486 41.6982C84.0611 41.7367 84.0634 41.7766 84.0556 41.8158C84.0477 41.8549 84.0298 41.8925 84.0029 41.9264C82.8285 43.3941 81.8292 44.9387 81.017 46.5417C83.2998 47.568 98.2608 54.806 109.391 72.2529C110.907 68.4478 118.032 50.9469 125.189 39.9939C125.24 39.929 125.322 39.8812 125.418 39.8602C125.514 39.8393 125.617 39.8466 125.706 39.8808C125.795 39.915 125.863 39.9735 125.898 40.0446C125.932 40.1156 125.93 40.194 125.892 40.264C117.906 52.5014 109.936 72.9671 109.896 73.1832C109.874 73.2417 109.829 73.2938 109.767 73.3324C109.705 73.371 109.629 73.3943 109.549 73.3992L109.478 73.3872Z" fill="#404B7C"/>
<path d="M109.241 68.784C109.241 68.784 96.602 53.7378 94.485 47.7781C94.4297 47.6161 94.3744 47.466 94.3349 47.322C92.7551 41.7164 93.861 34.7185 102.329 34.2143C106.342 33.9683 113.648 36.2669 114.77 43.817C114.837 44.2554 114.874 44.6961 114.881 45.1374C115.181 53.2217 109.241 68.784 109.241 68.784Z" fill="white"/>
<path d="M114.881 45.1435C111.603 43.8802 107.979 43.2222 104.304 43.223C98.7742 44.4953 95.7804 46.6379 94.485 47.7842C94.4297 47.6222 94.3744 47.4721 94.3349 47.3281C92.7551 41.7225 93.861 34.7246 102.329 34.2204C106.342 33.9744 113.648 36.273 114.77 43.8231C114.837 44.2615 114.874 44.7022 114.881 45.1435Z" fill="#F9F5FD"/>
<path d="M108.909 65.9393C108.828 65.9385 108.75 65.9156 108.689 65.8749C108.628 65.8342 108.588 65.7782 108.577 65.7172L104.951 45.0594C104.942 45.0246 104.941 44.9885 104.951 44.9535C104.96 44.9186 104.979 44.8855 105.006 44.8564C105.033 44.8272 105.068 44.8027 105.108 44.7843C105.149 44.7659 105.193 44.754 105.24 44.7494C105.286 44.7449 105.334 44.7477 105.379 44.7577C105.424 44.7677 105.466 44.7847 105.502 44.8076C105.538 44.8306 105.567 44.8589 105.588 44.8909C105.609 44.9229 105.621 44.9578 105.623 44.9934L109.249 65.6512C109.26 65.7188 109.235 65.7871 109.181 65.841C109.126 65.895 109.045 65.9303 108.956 65.9393H108.909Z" fill="#B9A474"/>
<path d="M126.153 53.3777L117.795 56.3785C117.795 56.3785 121.808 92.8387 125.955 102.591C130.102 112.344 159.922 126.448 159.922 126.448L167.228 122.397L126.153 53.3777Z" fill="#6D6363"/>
<path d="M126.153 53.3779C126.153 53.3779 129.707 93.139 133.657 100.191C137.607 107.243 167.228 122.397 167.228 122.397C167.228 122.397 187.569 105.442 188.951 97.7903C190.333 90.1382 187.569 51.1272 187.569 51.1272C187.569 51.1272 154.392 47.2261 126.153 53.3779Z" fill="white"/>
<path d="M165.19 121.605C165.119 121.605 165.05 121.588 164.993 121.557C158.413 118.088 136.682 106.301 133.317 100.293C129.881 94.1592 126.8 64.1208 125.939 55.0583C125.936 55.0243 125.942 54.9903 125.956 54.958C125.97 54.9258 125.992 54.896 126.022 54.8703C126.051 54.8447 126.087 54.8237 126.127 54.8085C126.167 54.7934 126.211 54.7845 126.255 54.7822C126.3 54.7789 126.345 54.7826 126.388 54.793C126.431 54.8034 126.471 54.8204 126.505 54.8429C126.539 54.8653 126.567 54.8928 126.586 54.9237C126.606 54.9545 126.617 54.988 126.619 55.0222C127.235 61.4561 130.466 93.8771 133.941 100.089C137.235 105.971 158.839 117.68 165.38 121.131C165.441 121.161 165.488 121.206 165.513 121.259C165.538 121.311 165.54 121.368 165.519 121.422C165.498 121.475 165.454 121.522 165.395 121.555C165.335 121.588 165.264 121.606 165.19 121.605Z" fill="#B9A474"/>
<path d="M144.913 78.0627C144.913 78.0627 144.321 70.6386 143.926 65.087C143.531 59.5355 149.653 56.3786 157.291 56.4566C164.93 56.5346 169.638 59.6075 170.127 64.4088C170.617 69.2102 171.312 77.6125 171.312 77.6125L166.478 77.6906C166.478 77.6906 166.383 67.8658 165.791 64.7869C165.198 61.7081 162.631 59.5835 157.102 59.7335C151.572 59.8836 148.973 62.1342 149.068 65.135C149.163 68.1359 150.182 77.9846 150.182 77.9846L144.913 78.0627Z" fill="#A7A7A7"/>
<path d="M138.989 77.6846C138.989 77.6846 140.869 96.7399 141.659 102.82C141.659 102.82 164.369 102.97 180.364 101.397C180.364 101.397 180.759 84.7426 179.772 76.9404C179.772 76.9344 157.157 76.3342 138.989 77.6846Z" fill="#A7A7A7"/>
<path d="M165.585 84.7605C165.573 85.5935 165.226 86.4038 164.591 87.0828C163.955 87.7617 163.062 88.277 162.031 88.5595V98.6424H158.871V88.6376C157.893 88.411 157.038 87.9502 156.433 87.3239C155.828 86.6976 155.505 85.9395 155.514 85.1626C155.491 84.1453 155.983 83.1601 156.888 82.4106C157.794 81.6611 159.044 81.2046 160.38 81.1355C161.039 81.1012 161.7 81.1691 162.323 81.3349C162.946 81.5007 163.519 81.761 164.006 82.1C164.492 82.439 164.883 82.8496 165.155 83.307C165.427 83.7643 165.573 84.2588 165.585 84.7605Z" fill="white"/>
<path d="M178.192 32.6719L169.511 37.5573L160.83 32.6719V22.9192L169.511 18.0338L178.192 22.9192V32.6719Z" fill="#6B25F1"/>
<path d="M211.274 73.8254L205.223 77.2224L199.165 73.8254V67.0195L205.223 63.6166L211.274 67.0195V73.8254Z" fill="#404B7C"/>
<path d="M219.11 63.9165L215.192 66.1192L211.274 63.9165V59.5173L215.192 57.3147L219.11 59.5173V63.9165Z" fill="#6B25F1"/>
<path d="M195.262 124.324L189.338 127.649L183.421 124.324V117.668L189.338 114.343L195.262 117.668V124.324Z" fill="#6B25F1"/>
<path d="M73.7579 121.347C68.368 121.347 63.0991 122.561 58.6175 124.836C54.1359 127.111 50.643 130.345 48.5803 134.129C46.5177 137.912 45.978 142.075 47.0295 146.092C48.081 150.109 50.6765 153.798 54.4878 156.694C58.2991 159.589 63.1549 161.561 68.4413 162.36C73.7277 163.159 79.2071 162.749 84.1868 161.182C89.1665 159.615 93.4226 156.961 96.4171 153.556C99.4116 150.151 101.01 146.148 101.01 142.052C101.01 136.561 98.1387 131.294 93.028 127.411C87.9172 123.528 80.9856 121.347 73.7579 121.347ZM73.7579 157.207C69.8131 157.207 65.9569 156.318 62.6769 154.653C59.3969 152.988 56.8404 150.621 55.3308 147.852C53.8212 145.083 53.4262 142.036 54.1958 139.096C54.9654 136.156 56.865 133.456 59.6544 131.337C62.4438 129.217 65.9977 127.774 69.8668 127.189C73.7358 126.605 77.7461 126.905 81.3906 128.052C85.0352 129.199 88.1502 131.141 90.3418 133.633C92.5335 136.125 93.7032 139.055 93.7032 142.052C93.7043 144.043 93.1891 146.014 92.1871 147.853C91.1851 149.692 89.716 151.363 87.8637 152.77C86.0114 154.177 83.8122 155.293 81.3919 156.055C78.9715 156.816 76.3774 157.208 73.7579 157.207Z" fill="#404B7C"/>
<path d="M77.5493 161.408H69.974C69.1931 161.408 68.5601 161.889 68.5601 162.482V257.387C68.5601 257.98 69.1931 258.461 69.974 258.461H77.5493C78.3302 258.461 78.9632 257.98 78.9632 257.387V162.482C78.9632 161.889 78.3302 161.408 77.5493 161.408Z" fill="#6B25F1"/>
<path d="M62.2095 233.626H68.5604V254.26H62.2095V233.626Z" fill="#404B7C"/>
<path d="M62.2094 233.254V254.638C62.2126 254.926 62.1407 255.211 61.998 255.477C61.8553 255.744 61.6446 255.986 61.378 256.19C61.1114 256.395 60.7943 256.557 60.4448 256.667C60.0954 256.778 59.7206 256.835 59.342 256.835H47.8883C47.1299 256.835 46.4026 256.606 45.8663 256.198C45.3301 255.791 45.0288 255.238 45.0288 254.662V251.355H53.7653C54.1968 251.355 54.6107 251.225 54.9159 250.993C55.221 250.761 55.3925 250.447 55.3925 250.119V247.718C55.3925 247.39 55.221 247.076 54.9159 246.844C54.6107 246.612 54.1968 246.482 53.7653 246.482H45.0288V241.452H53.7653C54.1968 241.452 54.6107 241.322 54.9159 241.09C55.221 240.859 55.3925 240.544 55.3925 240.216V237.815C55.3925 237.488 55.221 237.173 54.9159 236.941C54.6107 236.709 54.1968 236.579 53.7653 236.579H45.0288V233.278C45.0288 232.702 45.3301 232.149 45.8663 231.742C46.4026 231.334 47.1299 231.106 47.8883 231.106H59.342C60.0957 231.106 60.8191 231.331 61.3558 231.733C61.8924 232.135 62.1991 232.682 62.2094 233.254Z" fill="#6B25F1"/>
<path d="M80.077 154.158H67.4384C66.6575 154.158 66.0244 154.639 66.0244 155.232V162.734C66.0244 163.328 66.6575 163.809 67.4384 163.809H80.077C80.8579 163.809 81.4909 163.328 81.4909 162.734V155.232C81.4909 154.639 80.8579 154.158 80.077 154.158Z" fill="#404B7C"/>
<path d="M74.8085 45.8757C74.8085 45.8757 49.5944 63.4787 41.8296 80.2834C41.8296 80.2834 44.7286 97.1901 52.6277 108.491L65.922 104.992L62.628 83.1882L82.2416 69.9845C82.2416 69.9845 86.8547 50.575 74.8085 45.8757Z" fill="#6B25F1"/>
<path d="M82.2493 70.2844H82.1782C82.0757 70.2698 81.985 70.225 81.9258 70.1598C81.8666 70.0946 81.8438 70.0143 81.8622 69.9363C81.9017 69.7683 85.7644 52.9816 76.6251 47.1299C76.5852 47.1047 76.5521 47.0737 76.528 47.0388C76.5038 47.0039 76.4889 46.9657 76.4841 46.9264C76.4793 46.8871 76.4848 46.8475 76.5002 46.8098C76.5156 46.7722 76.5406 46.7371 76.5738 46.7068C76.607 46.6765 76.6477 46.6514 76.6936 46.633C76.7396 46.6146 76.7899 46.6033 76.8416 46.5997C76.8933 46.596 76.9454 46.6002 76.995 46.6119C77.0446 46.6236 77.0907 46.6426 77.1306 46.6678C86.6096 52.7175 82.8022 69.3061 82.66 70.0143C82.65 70.0907 82.6019 70.1613 82.5255 70.2115C82.4491 70.2618 82.3502 70.2878 82.2493 70.2844Z" fill="#404B7C"/>
<path d="M61.4194 83.0862C61.364 83.0857 61.3094 83.0764 61.259 83.0588C61.2087 83.0412 61.1637 83.0158 61.1272 82.9841C57.0512 79.5272 49.0731 79.7072 48.9941 79.7072C48.942 79.7097 48.8897 79.7041 48.8405 79.6907C48.7913 79.6774 48.7462 79.6567 48.7078 79.6298C48.6694 79.6029 48.6386 79.5703 48.6172 79.5341C48.5958 79.4979 48.5843 79.4588 48.5833 79.4191C48.5812 79.3797 48.5893 79.3404 48.6073 79.3034C48.6252 79.2663 48.6525 79.2324 48.6877 79.2034C48.723 79.1744 48.7654 79.151 48.8125 79.1344C48.8596 79.1179 48.9106 79.1086 48.9625 79.1071C49.3022 79.1071 57.3909 78.921 61.7117 82.582C61.7641 82.625 61.7989 82.6786 61.8116 82.7364C61.8244 82.7941 61.8146 82.8535 61.7836 82.9071C61.7525 82.9607 61.7015 83.0062 61.6368 83.038C61.5721 83.0698 61.4965 83.0866 61.4194 83.0862Z" fill="#404B7C"/>
<path d="M49.373 107.093C49.373 107.093 57.6671 101.391 68.2362 101.991L69.816 108.221C69.816 108.221 65.9691 113.773 54.2152 114.301C52.2841 112.029 50.6618 109.614 49.373 107.093Z" fill="#404B7C"/>
<path d="M79.7456 128.699C79.2874 129.401 77.7076 129.749 77.2494 128.147C77.2494 128.147 76.9809 129.347 75.7328 129.449C74.4847 129.551 74.153 128.147 74.153 128.147C74.153 128.147 73.2288 129.551 72.0439 129.401C70.859 129.251 70.9301 127.697 70.9301 127.697C70.9301 127.697 69.5478 128.849 68.5604 128.201C67.573 127.553 68.0943 125.398 68.2286 123.597C68.2286 123.597 61.1194 118.844 60.7244 117.398C60.4866 116.39 60.4202 115.363 60.5269 114.343L58.0703 111.126C60.5155 109.85 63.2881 108.98 66.2064 108.575L69.0185 112.896C69.0185 112.896 78.1657 118.598 79.2874 119.546C80.4091 120.495 80.2116 127.997 79.7456 128.699Z" fill="#B9A474"/>
<path d="M71.2617 126.844H71.1906C71.0871 126.835 70.9925 126.796 70.9274 126.734C70.8623 126.672 70.832 126.593 70.8431 126.514C70.8431 126.514 71.238 123.826 71.3328 122.241C71.3326 122.201 71.3434 122.162 71.3644 122.125C71.3854 122.088 71.4162 122.056 71.4548 122.028C71.4934 122.001 71.539 121.981 71.5888 121.968C71.6385 121.955 71.6912 121.95 71.7436 121.953C71.7955 121.955 71.8464 121.964 71.8936 121.98C71.9407 121.997 71.9831 122.02 72.0183 122.049C72.0535 122.078 72.0809 122.112 72.0988 122.149C72.1167 122.186 72.1248 122.226 72.1227 122.265C72.0279 123.868 71.633 126.55 71.6251 126.58C71.6143 126.65 71.5722 126.714 71.5059 126.762C71.4396 126.81 71.3532 126.839 71.2617 126.844Z" fill="#404B7C"/>
<path d="M74.3503 127.102H74.3029C74.1994 127.093 74.1048 127.054 74.0397 126.992C73.9746 126.93 73.9443 126.851 73.9554 126.772C73.9554 126.772 74.3977 123.843 74.3977 122.397C74.3977 122.317 74.4393 122.241 74.5134 122.185C74.5875 122.129 74.6879 122.097 74.7927 122.097C74.8974 122.097 74.9979 122.129 75.072 122.185C75.146 122.241 75.1876 122.317 75.1876 122.397C75.1876 123.879 74.7611 126.718 74.7374 126.838C74.7259 126.91 74.6803 126.977 74.6092 127.026C74.538 127.074 74.446 127.101 74.3503 127.102Z" fill="#404B7C"/>
<path d="M77.2886 126.676C77.2366 126.673 77.186 126.662 77.1396 126.644C77.0932 126.627 77.0519 126.602 77.0181 126.572C76.9844 126.542 76.9588 126.507 76.9428 126.469C76.9269 126.431 76.9209 126.392 76.9252 126.352C76.9252 126.352 77.1938 123.952 77.1938 122.589C77.1938 122.51 77.2354 122.433 77.3094 122.377C77.3835 122.321 77.484 122.289 77.5887 122.289C77.6935 122.289 77.7939 122.321 77.868 122.377C77.9421 122.433 77.9837 122.51 77.9837 122.589C77.9837 123.958 77.723 126.304 77.7072 126.4C77.6991 126.479 77.6507 126.552 77.5723 126.603C77.494 126.655 77.3921 126.681 77.2886 126.676Z" fill="#404B7C"/>
<path d="M55.1314 113.395C55.0574 113.394 54.9849 113.378 54.9223 113.348C54.8597 113.318 54.8095 113.275 54.7774 113.225C54.7453 113.174 54.7325 113.118 54.7407 113.062C54.7488 113.006 54.7774 112.953 54.8234 112.908C55.7076 112.132 56.7252 111.45 57.8487 110.88C60.3373 109.577 63.1617 108.692 66.1349 108.281C66.8301 108.179 67.5647 108.095 68.3309 108.041C68.4356 108.034 68.5398 108.059 68.6206 108.11C68.7013 108.161 68.752 108.235 68.7614 108.314C68.7708 108.394 68.7382 108.473 68.6708 108.534C68.6034 108.596 68.5067 108.634 68.402 108.641C67.6674 108.695 66.9564 108.773 66.285 108.869C63.4196 109.264 60.6973 110.117 58.299 111.372C57.243 111.911 56.2843 112.553 55.4474 113.281C55.4098 113.317 55.3617 113.346 55.3069 113.366C55.2521 113.385 55.1921 113.395 55.1314 113.395Z" fill="#6B25F1"/>
<path d="M106.871 39.2738C106.79 39.7725 106.572 40.2529 106.232 40.6839C105.892 41.1149 105.437 41.4871 104.896 41.7765C99.2324 41.6264 99.2324 38.6736 99.2324 38.6736L99.4931 30.3253L99.5721 27.6725L99.6274 25.818L106.476 28.0206L106.61 31.8677L106.681 33.8903L106.871 39.2738Z" fill="#B9A474"/>
<path d="M106.681 33.8903C102.866 33.3261 100.702 31.8917 99.4932 30.3253L99.5721 27.6725L99.6274 25.818L106.476 28.0206L106.61 31.8677L106.681 33.8903Z" fill="#404B7C"/>
<path d="M111.903 22.553C112.044 22.2153 112.278 21.9042 112.589 21.6402C112.9 21.3761 113.281 21.1651 113.707 21.0211C114.134 20.8771 114.595 20.8033 115.061 20.8046C115.528 20.8059 115.988 20.8822 116.413 21.0286C119.873 21.9768 117.006 27.4564 112.171 26.4781L111.903 22.553Z" fill="#B9A474"/>
<path d="M112.63 25.1038H112.503C112.404 25.0791 112.321 25.0254 112.274 24.9545C112.226 24.8836 112.218 24.8013 112.25 24.7257C112.29 24.6297 113.317 22.325 116.042 22.121C116.147 22.1138 116.251 22.1386 116.332 22.1898C116.412 22.241 116.463 22.3145 116.472 22.394C116.482 22.4736 116.449 22.5528 116.382 22.6141C116.315 22.6755 116.218 22.714 116.113 22.7211C113.893 22.8772 113.009 24.8937 112.993 24.9178C112.963 24.9726 112.913 25.0195 112.848 25.0526C112.784 25.0857 112.707 25.1035 112.63 25.1038Z" fill="#404B7C"/>
<path d="M114.636 24.7498C114.531 24.7498 114.431 24.7182 114.357 24.6619C114.283 24.6056 114.241 24.5293 114.241 24.4497C114.214 23.9939 114.074 23.5461 113.83 23.1293C113.805 23.0931 113.79 23.0533 113.786 23.0125C113.782 22.9716 113.789 22.9306 113.806 22.8918C113.824 22.8531 113.851 22.8175 113.888 22.7872C113.924 22.7569 113.968 22.7326 114.017 22.7158C114.067 22.699 114.12 22.69 114.174 22.6894C114.228 22.6887 114.281 22.6965 114.331 22.7122C114.381 22.7279 114.426 22.7512 114.463 22.7806C114.501 22.81 114.53 22.8449 114.549 22.8832C114.841 23.3769 115.005 23.9088 115.031 24.4497C115.031 24.5293 114.989 24.6056 114.915 24.6619C114.841 24.7182 114.741 24.7498 114.636 24.7498Z" fill="#404B7C"/>
<path d="M114.501 13.4005C114.501 13.4005 117.527 16.1493 117.527 17.4997C117.527 18.85 112.195 23.4533 112.195 23.4533L110.686 14.2528L114.501 13.4005Z" fill="#404B7C"/>
<path d="M94.359 18.3519C93.8614 24.2456 99.9674 31.3515 106.508 31.5076C113.048 31.6636 115.292 19.1561 112.985 14.7029C110.679 10.2496 95.22 8.20306 94.359 18.3519Z" fill="#B9A474"/>
<path d="M98.182 25.1038L97.2578 22.7692C97.2578 22.7692 100.283 21.4668 100.678 16.9175C100.678 16.9175 109.233 19.2702 115.947 14.6669C122.661 10.0636 119.96 1.41518 118.254 0.760999C116.547 0.106816 106.658 3.94189 102.787 7.96302C102.787 7.96302 103.909 4.51205 100.749 5.26226C97.5895 6.01247 93.3082 13.3045 93.3082 13.3045C93.3082 13.3045 89.0269 12.0021 87.2496 14.5529C85.4723 17.1036 96.2862 25.1038 96.2862 25.1038H98.1741H98.182Z" fill="#404B7C"/>
<path d="M96.6179 24.2815C96.6179 24.2815 94.8327 20.4825 91.0885 20.7885C87.3443 21.0946 87.0205 29.7911 97.9292 26.4601L96.6179 24.2815Z" fill="#B9A474"/>
<path d="M96.2941 25.65C96.2259 25.6503 96.1588 25.6372 96.0993 25.6119C96.0398 25.5867 95.9899 25.5502 95.9544 25.5059C93.6795 22.7031 90.8674 23.3753 90.8358 23.3813C90.7865 23.3939 90.7344 23.399 90.6826 23.3964C90.6307 23.3937 90.58 23.3833 90.5335 23.3657C90.4869 23.3482 90.4453 23.3238 90.4111 23.2941C90.3769 23.2643 90.3508 23.2297 90.3342 23.1923C90.3176 23.1548 90.3109 23.1153 90.3144 23.0759C90.3179 23.0365 90.3316 22.9979 90.3547 22.9626C90.3778 22.9272 90.4099 22.8956 90.449 22.8696C90.4882 22.8436 90.5337 22.8238 90.583 22.8112C90.583 22.8112 94.0191 21.9829 96.6259 25.2118C96.6564 25.2565 96.6717 25.3063 96.6703 25.3566C96.6688 25.407 96.6508 25.4562 96.6177 25.4999C96.5847 25.5435 96.5377 25.5801 96.4812 25.6063C96.4246 25.6326 96.3603 25.6476 96.2941 25.65Z" fill="#404B7C"/>
<path d="M92.9846 25.872C92.8913 25.8715 92.8012 25.8459 92.7303 25.7998C92.6595 25.7536 92.6124 25.6899 92.5975 25.6199C92.4618 24.7841 92.6541 23.9363 93.1505 23.1833C93.1713 23.1452 93.2023 23.1107 93.2415 23.0822C93.2807 23.0536 93.3272 23.0315 93.3781 23.0171C93.4291 23.0028 93.4834 22.9967 93.5376 22.999C93.5918 23.0014 93.6448 23.0122 93.6933 23.0308C93.7417 23.0494 93.7846 23.0755 93.8193 23.1072C93.8539 23.139 93.8795 23.1759 93.8946 23.2155C93.9096 23.2552 93.9137 23.2968 93.9067 23.3377C93.8996 23.3786 93.8815 23.418 93.8535 23.4533C93.4336 24.0917 93.2662 24.8088 93.3716 25.5179C93.3807 25.5569 93.3795 25.597 93.3681 25.6356C93.3567 25.6743 93.3353 25.7109 93.3052 25.7432C93.2751 25.7756 93.2368 25.8031 93.1926 25.8242C93.1485 25.8453 93.0992 25.8595 93.0478 25.866H92.9767L92.9846 25.872Z" fill="#404B7C"/>
<path d="M102.076 20.8126C102.076 20.8126 104.32 19.7263 105.394 21.0286C105.472 20.9411 105.589 20.8774 105.724 20.8488C105.858 20.8203 106.001 20.8287 106.128 20.8726C106.539 21.0526 105.812 22.0309 105.812 22.0309C104.686 21.4397 103.416 21.0254 102.076 20.8126Z" fill="#404B7C"/>
<path d="M111.848 21.3588C111.848 21.3588 110.133 20.0504 109.525 21.1367C109.453 21.0767 109.359 21.034 109.255 21.0138C109.151 20.9935 109.042 20.9966 108.941 21.0227C108.49 21.2387 109.328 22.085 109.328 22.085C110.044 21.6442 110.927 21.3897 111.848 21.3588Z" fill="#404B7C"/>
<path d="M104.403 24.2441C104.953 24.2406 105.394 23.8186 105.388 23.3015C105.382 22.7844 104.932 22.3681 104.382 22.3716C103.833 22.3751 103.392 22.7971 103.398 23.3142C103.403 23.8312 103.853 24.2475 104.403 24.2441Z" fill="#404B7C"/>
<path d="M104.605 23.1745C104.754 23.1735 104.873 23.0814 104.872 22.9687C104.871 22.856 104.749 22.7654 104.601 22.7664C104.452 22.7673 104.333 22.8594 104.334 22.9721C104.335 23.0848 104.456 23.1754 104.605 23.1745Z" fill="white"/>
<path d="M110.287 24.2006C110.837 24.1971 111.278 23.7751 111.272 23.258C111.267 22.741 110.816 22.3246 110.267 22.3281C109.717 22.3316 109.276 22.7536 109.282 23.2707C109.288 23.7878 109.738 24.2041 110.287 24.2006Z" fill="#404B7C"/>
<path d="M110.489 23.137C110.638 23.136 110.757 23.0439 110.756 22.9312C110.755 22.8185 110.633 22.7279 110.485 22.7289C110.336 22.7298 110.217 22.8219 110.218 22.9346C110.219 23.0473 110.341 23.1379 110.489 23.137Z" fill="white"/>
<path d="M107.819 26.5022C107.625 26.5031 107.431 26.487 107.242 26.4542C107.137 26.4359 107.047 26.3867 106.989 26.3175C106.932 26.2483 106.914 26.1647 106.938 26.0851C106.962 26.0055 107.027 25.9365 107.118 25.8931C107.209 25.8498 107.319 25.8357 107.424 25.854C107.424 25.854 108.443 26.0281 108.688 25.5479C108.704 25.527 108.712 25.5032 108.712 25.4789C108.712 25.4547 108.704 25.4309 108.688 25.4099C108.395 25.2592 108.045 25.1874 107.692 25.2058C107.589 25.2059 107.49 25.1751 107.416 25.1201C107.342 25.0651 107.3 24.9903 107.297 24.9118V23.0753C107.296 23.0358 107.306 22.9967 107.324 22.9599C107.343 22.9232 107.372 22.8897 107.408 22.8613C107.443 22.8329 107.486 22.8101 107.534 22.7943C107.581 22.7785 107.633 22.7699 107.685 22.7692C107.737 22.7675 107.789 22.774 107.837 22.788C107.886 22.8021 107.931 22.8235 107.968 22.8509C108.006 22.8784 108.036 22.9114 108.056 22.9479C108.077 22.9843 108.087 23.0236 108.087 23.0632V24.6237C108.326 24.6312 108.56 24.6748 108.775 24.7522C108.991 24.8295 109.184 24.9388 109.343 25.0738C109.432 25.1743 109.487 25.2904 109.5 25.4111C109.514 25.5319 109.487 25.6533 109.422 25.764C109.294 26.001 109.069 26.2005 108.78 26.3334C108.492 26.4662 108.155 26.5254 107.819 26.5022Z" fill="#404B7C"/>
<path d="M107.914 28.9328C107.846 28.9331 107.778 28.92 107.719 28.8948C107.659 28.8695 107.61 28.833 107.574 28.7888C106.452 27.3784 103.625 27.8585 103.625 27.8645C103.52 27.8828 103.41 27.8688 103.319 27.8254C103.228 27.7821 103.163 27.7131 103.139 27.6335C103.115 27.5539 103.133 27.4703 103.19 27.4011C103.247 27.3318 103.338 27.2827 103.443 27.2644C103.577 27.2644 106.847 26.6642 108.269 28.4647C108.311 28.5113 108.335 28.566 108.337 28.6224C108.34 28.6788 108.322 28.7346 108.285 28.7835C108.248 28.8324 108.193 28.8723 108.128 28.8987C108.062 28.9252 107.988 28.937 107.914 28.9328Z" fill="#404B7C"/>
<path d="M174.669 140.48C174.093 140.48 173.529 140.35 173.05 140.107C172.57 139.863 172.197 139.518 171.976 139.113C171.756 138.708 171.698 138.263 171.81 137.833C171.923 137.404 172.2 137.009 172.608 136.699C173.016 136.39 173.535 136.179 174.101 136.093C174.666 136.008 175.252 136.052 175.785 136.219C176.317 136.387 176.772 136.671 177.093 137.035C177.413 137.399 177.584 137.827 177.584 138.265C177.584 138.853 177.277 139.416 176.73 139.831C176.184 140.247 175.442 140.48 174.669 140.48ZM174.669 136.657C174.249 136.657 173.838 136.752 173.489 136.929C173.139 137.106 172.867 137.359 172.706 137.654C172.545 137.949 172.503 138.273 172.585 138.586C172.667 138.9 172.869 139.187 173.167 139.413C173.464 139.639 173.842 139.793 174.255 139.855C174.667 139.917 175.094 139.885 175.482 139.763C175.871 139.641 176.202 139.434 176.436 139.168C176.669 138.903 176.794 138.591 176.794 138.271C176.795 138.059 176.741 137.848 176.635 137.652C176.528 137.455 176.372 137.276 176.175 137.126C175.977 136.975 175.742 136.856 175.484 136.774C175.226 136.693 174.949 136.651 174.669 136.651V136.657Z" fill="#6B25F1"/>
<path d="M146.122 43.9849C145.545 43.9849 144.982 43.855 144.502 43.6117C144.023 43.3683 143.65 43.0225 143.429 42.6178C143.208 42.2131 143.151 41.7678 143.263 41.3382C143.376 40.9086 143.653 40.514 144.061 40.2043C144.468 39.8946 144.988 39.6837 145.553 39.5982C146.119 39.5128 146.705 39.5566 147.237 39.7242C147.77 39.8919 148.225 40.1757 148.545 40.5399C148.866 40.9041 149.037 41.3323 149.037 41.7703C149.037 42.3576 148.73 42.9209 148.183 43.3363C147.636 43.7516 146.895 43.9849 146.122 43.9849ZM146.122 40.1618C145.702 40.1618 145.291 40.2565 144.941 40.4339C144.592 40.6113 144.32 40.8635 144.159 41.1585C143.998 41.4535 143.956 41.7781 144.038 42.0913C144.12 42.4044 144.322 42.6921 144.619 42.9179C144.916 43.1437 145.295 43.2974 145.707 43.3597C146.119 43.422 146.547 43.39 146.935 43.2678C147.323 43.1457 147.655 42.9387 147.889 42.6732C148.122 42.4077 148.247 42.0956 148.247 41.7763C148.242 41.3502 148.017 40.9426 147.619 40.6424C147.221 40.3423 146.683 40.1738 146.122 40.1738V40.1618Z" fill="#6B25F1"/>
<path d="M78.5842 25.2238C78.0077 25.2238 77.4442 25.0939 76.9649 24.8506C76.4855 24.6072 76.1119 24.2613 75.8913 23.8567C75.6707 23.452 75.613 23.0067 75.7254 22.5771C75.8379 22.1475 76.1155 21.7529 76.5232 21.4432C76.9308 21.1335 77.4502 20.9226 78.0156 20.8371C78.581 20.7517 79.167 20.7955 79.6996 20.9631C80.2323 21.1308 80.6875 21.4146 81.0078 21.7788C81.328 22.143 81.499 22.5712 81.499 23.0092C81.499 23.5965 81.1919 24.1598 80.6453 24.5752C80.0986 24.9905 79.3573 25.2238 78.5842 25.2238ZM78.5842 21.4007C78.164 21.4007 77.7531 21.4954 77.4037 21.6728C77.0543 21.8502 76.7819 22.1024 76.6211 22.3974C76.4603 22.6924 76.4182 23.017 76.5002 23.3301C76.5822 23.6433 76.7845 23.931 77.0817 24.1568C77.3789 24.3826 77.7575 24.5363 78.1697 24.5986C78.5819 24.6609 79.0091 24.6289 79.3974 24.5067C79.7856 24.3845 80.1175 24.1776 80.351 23.9121C80.5845 23.6466 80.7091 23.3345 80.7091 23.0152C80.7091 22.587 80.4852 22.1764 80.0867 21.8736C79.6882 21.5708 79.1478 21.4007 78.5842 21.4007Z" fill="#6B25F1"/>
<path d="M68.9947 39.7658C68.5792 39.7658 68.1729 39.6721 67.8274 39.4967C67.4818 39.3213 67.2125 39.072 67.0535 38.7803C66.8945 38.4885 66.8529 38.1676 66.9339 37.8579C67.015 37.5482 67.2151 37.2637 67.509 37.0405C67.8028 36.8172 68.1772 36.6652 68.5848 36.6036C68.9924 36.542 69.4149 36.5736 69.7988 36.6944C70.1828 36.8152 70.5109 37.0199 70.7418 37.2824C70.9727 37.5449 71.0959 37.8536 71.0959 38.1693C71.0959 38.5927 70.8745 38.9988 70.4805 39.2982C70.0864 39.5976 69.552 39.7658 68.9947 39.7658ZM68.9947 37.173C68.7354 37.173 68.4819 37.2315 68.2662 37.3409C68.0506 37.4504 67.8825 37.606 67.7833 37.7881C67.684 37.9701 67.6581 38.1704 67.7087 38.3637C67.7593 38.5569 67.8841 38.7345 68.0675 38.8738C68.2509 39.0131 68.4846 39.108 68.7389 39.1465C68.9933 39.1849 69.2569 39.1652 69.4965 39.0898C69.7361 39.0144 69.9409 38.8867 70.085 38.7228C70.2291 38.559 70.306 38.3664 70.306 38.1693C70.306 37.9051 70.1678 37.6517 69.9219 37.4649C69.676 37.278 69.3425 37.173 68.9947 37.173Z" fill="#6B25F1"/>
<path d="M194.022 29.635C193.917 29.635 193.817 29.6033 193.743 29.5471C193.669 29.4908 193.627 29.4145 193.627 29.3349V26.22C193.627 26.1404 193.669 26.0641 193.743 26.0078C193.817 25.9515 193.917 25.9199 194.022 25.9199C194.127 25.9199 194.227 25.9515 194.301 26.0078C194.375 26.0641 194.417 26.1404 194.417 26.22V29.3349C194.417 29.4145 194.375 29.4908 194.301 29.5471C194.227 29.6033 194.127 29.635 194.022 29.635Z" fill="#6B25F1"/>
<path d="M198.296 30.8534H195.207C195.102 30.8534 195.002 30.8217 194.928 30.7655C194.854 30.7092 194.812 30.6329 194.812 30.5533C194.812 30.4737 194.854 30.3974 194.928 30.3411C195.002 30.2848 195.102 30.2532 195.207 30.2532H198.272C198.324 30.252 198.375 30.2586 198.424 30.2726C198.472 30.2866 198.517 30.3077 198.555 30.3347C198.592 30.3617 198.623 30.3942 198.644 30.4301C198.665 30.4661 198.677 30.5049 198.679 30.5443C198.68 30.5837 198.672 30.6229 198.653 30.6598C198.635 30.6967 198.607 30.7304 198.571 30.7591C198.536 30.7878 198.493 30.8109 198.446 30.8271C198.398 30.8432 198.347 30.8522 198.296 30.8534Z" fill="#6B25F1"/>
<path d="M194.022 35.1866C193.917 35.1866 193.817 35.155 193.743 35.0987C193.669 35.0424 193.627 34.9661 193.627 34.8865V31.7716C193.627 31.6921 193.669 31.6157 193.743 31.5594C193.817 31.5032 193.917 31.4716 194.022 31.4716C194.127 31.4716 194.227 31.5032 194.301 31.5594C194.375 31.6157 194.417 31.6921 194.417 31.7716V34.8865C194.417 34.9661 194.375 35.0424 194.301 35.0987C194.227 35.155 194.127 35.1866 194.022 35.1866Z" fill="#6B25F1"/>
<path d="M192.837 30.8533H189.772C189.668 30.8533 189.567 30.8217 189.493 30.7654C189.419 30.7092 189.377 30.6328 189.377 30.5533C189.377 30.4737 189.419 30.3973 189.493 30.3411C189.567 30.2848 189.668 30.2532 189.772 30.2532H192.837C192.942 30.2532 193.042 30.2848 193.117 30.3411C193.191 30.3973 193.232 30.4737 193.232 30.5533C193.232 30.6328 193.191 30.7092 193.117 30.7654C193.042 30.8217 192.942 30.8533 192.837 30.8533Z" fill="#6B25F1"/>
<path d="M199.038 95.6776C198.933 95.6776 198.833 95.646 198.759 95.5897C198.685 95.5334 198.643 95.4571 198.643 95.3775V92.2626C198.643 92.183 198.685 92.1067 198.759 92.0504C198.833 91.9941 198.933 91.9625 199.038 91.9625C199.143 91.9625 199.243 91.9941 199.317 92.0504C199.391 92.1067 199.433 92.183 199.433 92.2626V95.3895C199.429 95.467 199.385 95.5403 199.312 95.594C199.238 95.6477 199.14 95.6776 199.038 95.6776Z" fill="#6B25F1"/>
<path d="M203.304 96.8959H200.239C200.134 96.8959 200.034 96.8643 199.959 96.8081C199.885 96.7518 199.844 96.6754 199.844 96.5959C199.844 96.5163 199.885 96.44 199.959 96.3837C200.034 96.3274 200.134 96.2958 200.239 96.2958H203.304C203.408 96.2958 203.509 96.3274 203.583 96.3837C203.657 96.44 203.699 96.5163 203.699 96.5959C203.699 96.6754 203.657 96.7518 203.583 96.8081C203.509 96.8643 203.408 96.8959 203.304 96.8959Z" fill="#6B25F1"/>
<path d="M199.038 101.229C198.933 101.229 198.833 101.198 198.759 101.141C198.685 101.085 198.643 101.009 198.643 100.929V97.7902C198.643 97.7106 198.685 97.6343 198.759 97.578C198.833 97.5217 198.933 97.4901 199.038 97.4901C199.143 97.4901 199.243 97.5217 199.317 97.578C199.391 97.6343 199.433 97.7106 199.433 97.7902V100.905C199.437 100.946 199.43 100.988 199.412 101.027C199.395 101.067 199.366 101.102 199.329 101.133C199.292 101.163 199.247 101.188 199.197 101.204C199.147 101.221 199.093 101.229 199.038 101.229Z" fill="#6B25F1"/>
<path d="M197.837 96.8959H194.772C194.668 96.8959 194.567 96.8643 194.493 96.8081C194.419 96.7518 194.377 96.6754 194.377 96.5959C194.377 96.5163 194.419 96.44 194.493 96.3837C194.567 96.3274 194.668 96.2958 194.772 96.2958H197.837C197.942 96.2958 198.042 96.3274 198.117 96.3837C198.191 96.44 198.232 96.5163 198.232 96.5959C198.232 96.6754 198.191 96.7518 198.117 96.8081C198.042 96.8643 197.942 96.8959 197.837 96.8959Z" fill="#6B25F1"/>
<path d="M32.4848 110.826C32.3801 110.826 32.2796 110.794 32.2055 110.738C32.1315 110.682 32.0898 110.605 32.0898 110.526V107.393C32.0898 107.313 32.1315 107.237 32.2055 107.181C32.2796 107.124 32.3801 107.093 32.4848 107.093C32.5895 107.093 32.69 107.124 32.7641 107.181C32.8381 107.237 32.8798 107.313 32.8798 107.393V110.508C32.883 110.549 32.8752 110.589 32.8568 110.628C32.8384 110.666 32.8098 110.702 32.7728 110.732C32.7358 110.761 32.6912 110.785 32.6416 110.801C32.5921 110.817 32.5387 110.826 32.4848 110.826Z" fill="#6B25F1"/>
<path d="M36.7582 112.044H33.6855C33.5807 112.044 33.4803 112.013 33.4062 111.956C33.3321 111.9 33.2905 111.824 33.2905 111.744C33.2905 111.664 33.3321 111.588 33.4062 111.532C33.4803 111.476 33.5807 111.444 33.6855 111.444H36.7582C36.863 111.444 36.9635 111.476 37.0375 111.532C37.1116 111.588 37.1532 111.664 37.1532 111.744C37.1532 111.824 37.1116 111.9 37.0375 111.956C36.9635 112.013 36.863 112.044 36.7582 112.044Z" fill="#6B25F1"/>
<path d="M32.4848 116.395C32.3801 116.395 32.2796 116.364 32.2055 116.308C32.1315 116.251 32.0898 116.175 32.0898 116.095V112.981C32.0898 112.901 32.1315 112.825 32.2055 112.768C32.2796 112.712 32.3801 112.68 32.4848 112.68C32.5895 112.68 32.69 112.712 32.7641 112.768C32.8381 112.825 32.8798 112.901 32.8798 112.981V116.095C32.8798 116.175 32.8381 116.251 32.7641 116.308C32.69 116.364 32.5895 116.395 32.4848 116.395Z" fill="#6B25F1"/>
<path d="M31.2841 112.044H28.2114C28.1066 112.044 28.0062 112.013 27.9321 111.956C27.858 111.9 27.8164 111.824 27.8164 111.744C27.8164 111.664 27.858 111.588 27.9321 111.532C28.0062 111.476 28.1066 111.444 28.2114 111.444H31.2841C31.3889 111.444 31.4893 111.476 31.5634 111.532C31.6375 111.588 31.6791 111.664 31.6791 111.744C31.6791 111.824 31.6375 111.9 31.5634 111.956C31.4893 112.013 31.3889 112.044 31.2841 112.044Z" fill="#6B25F1"/>
<path d="M51.8375 14.7148C48.9473 14.7148 46.1219 15.366 43.7188 16.5861C41.3156 17.8061 39.4426 19.5402 38.3365 21.569C37.2305 23.5978 36.9411 25.8303 37.5049 27.9841C38.0688 30.1379 39.4606 32.1162 41.5043 33.669C43.548 35.2218 46.1519 36.2793 48.9866 36.7077C51.8213 37.1361 54.7596 36.9163 57.4298 36.0759C60.1001 35.2355 62.3824 33.8124 63.9881 31.9865C65.5939 30.1606 66.4509 28.0139 66.4509 25.818C66.4509 22.8732 64.9113 20.0491 62.1708 17.9669C59.4302 15.8846 55.7133 14.7148 51.8375 14.7148ZM51.8375 30.6553C50.5763 30.6624 49.3408 30.3848 48.2876 29.8576C47.2343 29.3305 46.4109 28.5775 45.9218 27.6942C45.4326 26.811 45.2998 25.8372 45.54 24.8965C45.7803 23.9558 46.3829 23.0905 47.2714 22.4104C48.1599 21.7302 49.2942 21.2659 50.5305 21.0764C51.7668 20.8868 53.0494 20.9804 54.2155 21.3455C55.3816 21.7105 56.3788 22.3305 57.0805 23.1268C57.7822 23.923 58.1568 24.8597 58.1568 25.818C58.159 27.0952 57.4954 28.3211 56.3112 29.2276C55.127 30.134 53.5185 30.6474 51.8375 30.6553Z" fill="#6B25F1"/>
<path d="M40.1235 26.1181C40.0187 26.1181 39.9183 26.0865 39.8442 26.0302C39.7701 25.9739 39.7285 25.8976 39.7285 25.818C39.7327 23.3788 41.0098 21.0405 43.2799 19.3157C45.5499 17.591 48.6276 16.6206 51.8379 16.6174C51.9426 16.6174 52.0431 16.649 52.1172 16.7053C52.1912 16.7616 52.2329 16.8379 52.2329 16.9175C52.2329 16.9971 52.1912 17.0734 52.1172 17.1297C52.0431 17.186 51.9426 17.2176 51.8379 17.2176C48.8371 17.2208 45.9603 18.1279 43.8384 19.7401C41.7165 21.3523 40.5226 23.538 40.5184 25.818C40.5184 25.8976 40.4768 25.9739 40.4028 26.0302C40.3287 26.0865 40.2282 26.1181 40.1235 26.1181Z" fill="white"/>
<path d="M51.8378 35.0247C51.7331 35.0247 51.6326 34.9931 51.5586 34.9368C51.4845 34.8805 51.4429 34.8042 51.4429 34.7246C51.4429 34.645 51.4845 34.5687 51.5586 34.5124C51.6326 34.4562 51.7331 34.4245 51.8378 34.4245C54.8387 34.4214 57.7154 33.5142 59.8373 31.902C61.9592 30.2898 63.1531 28.1041 63.1573 25.8241C63.1573 25.7445 63.1989 25.6682 63.273 25.6119C63.347 25.5557 63.4475 25.524 63.5523 25.524C63.657 25.524 63.7575 25.5557 63.8315 25.6119C63.9056 25.6682 63.9472 25.7445 63.9472 25.8241C63.943 28.2633 62.6659 30.6017 60.3958 32.3264C58.1258 34.0512 55.0482 35.0215 51.8378 35.0247Z" fill="white"/>
<path d="M51.8376 32.7979C49.4018 32.7963 47.0663 32.0604 45.3439 30.7517C43.6215 29.4431 42.653 27.6686 42.6509 25.8179C42.6509 25.7383 42.6925 25.662 42.7666 25.6057C42.8406 25.5494 42.9411 25.5178 43.0458 25.5178C43.1506 25.5178 43.2511 25.5494 43.3251 25.6057C43.3992 25.662 43.4408 25.7383 43.4408 25.8179C43.4429 27.5094 44.3282 29.1312 45.9025 30.3273C47.4767 31.5234 49.6113 32.1961 51.8376 32.1977C51.9423 32.1977 52.0428 32.2293 52.1169 32.2856C52.1909 32.3419 52.2325 32.4182 52.2325 32.4978C52.2325 32.5774 52.1909 32.6537 52.1169 32.71C52.0428 32.7662 51.9423 32.7979 51.8376 32.7979Z" fill="white"/>
<path d="M60.6296 26.118C60.5248 26.118 60.4244 26.0864 60.3503 26.0301C60.2762 25.9739 60.2346 25.8975 60.2346 25.818C60.2304 24.1275 59.3442 22.5072 57.7701 21.3124C56.1961 20.1176 54.0628 19.4457 51.8378 19.4442C51.7331 19.4442 51.6326 19.4125 51.5586 19.3563C51.4845 19.3 51.4429 19.2237 51.4429 19.1441C51.4429 19.0645 51.4845 18.9882 51.5586 18.9319C51.6326 18.8756 51.7331 18.844 51.8378 18.844C54.2736 18.8456 56.6091 19.5815 58.3315 20.8901C60.0539 22.1988 61.0224 23.9732 61.0245 25.8239C61.0225 25.9025 60.9799 25.9773 60.9061 26.0323C60.8322 26.0873 60.733 26.1181 60.6296 26.118Z" fill="white"/>
</svg>
