<svg width="300" height="255" viewBox="0 0 300 255" fill="none" xmlns="http://www.w3.org/2000/svg">
<path d="M260.262 222.42C254.942 225.855 246.24 205.95 245.643 200.393C245.045 194.835 249.457 198.038 249.457 198.038C249.457 198.038 245.28 180.061 247.906 174.583C250.531 169.105 252.864 175.352 252.864 175.352C252.864 175.352 254.847 156.807 263.377 155.136C271.907 153.464 264.909 173.991 264.909 173.991C264.909 173.991 268.392 168.855 271.824 170.227C275.257 171.6 265.176 194.884 265.176 194.884C265.176 194.884 269.059 190.767 272.301 192.054C275.543 193.341 268.487 217.119 260.262 222.42Z" fill="#404B7C"/>
<path d="M259.207 221.097C259.132 221.096 259.06 221.07 259.002 221.023C258.945 220.976 258.908 220.911 258.896 220.84C258.832 220.487 252.724 185.209 262.379 158.875C262.39 158.834 262.409 158.796 262.437 158.762C262.464 158.729 262.498 158.702 262.537 158.682C262.576 158.662 262.618 158.65 262.662 158.647C262.706 158.643 262.75 158.649 262.792 158.663C262.834 158.677 262.872 158.699 262.904 158.728C262.936 158.757 262.962 158.792 262.979 158.831C262.996 158.87 263.005 158.912 263.005 158.954C263.004 158.996 262.994 159.038 262.976 159.076C253.378 185.258 259.455 220.383 259.519 220.737C259.526 220.776 259.525 220.817 259.516 220.856C259.506 220.896 259.489 220.933 259.465 220.966C259.441 220.999 259.41 221.027 259.375 221.048C259.339 221.069 259.299 221.084 259.258 221.09H259.207V221.097Z" fill="#BDBBE3"/>
<path d="M257.237 193.377C257.17 193.376 257.106 193.355 257.052 193.316C251.014 189.089 250.194 178.621 250.156 178.176C250.153 178.136 250.158 178.096 250.171 178.058C250.185 178.019 250.206 177.984 250.233 177.954C250.261 177.924 250.294 177.899 250.331 177.881C250.369 177.863 250.41 177.852 250.451 177.85C250.493 177.847 250.535 177.852 250.575 177.865C250.614 177.877 250.651 177.897 250.683 177.924C250.714 177.95 250.74 177.982 250.759 178.018C250.777 178.054 250.789 178.093 250.791 178.133C250.791 178.237 251.611 188.558 257.256 192.7C258.285 192.09 263.815 188.174 267.508 176.407C267.521 176.367 267.541 176.329 267.568 176.297C267.595 176.264 267.629 176.237 267.667 176.217C267.705 176.197 267.747 176.184 267.79 176.18C267.833 176.175 267.877 176.179 267.918 176.19C267.96 176.202 267.999 176.221 268.033 176.247C268.067 176.273 268.095 176.306 268.116 176.342C268.137 176.379 268.15 176.419 268.155 176.46C268.16 176.502 268.156 176.544 268.144 176.584C263.987 189.815 257.682 193.201 257.415 193.341C257.36 193.369 257.298 193.382 257.237 193.377Z" fill="#BDBBE3"/>
<path d="M257.987 211.428H257.891C254.224 210.342 251.433 203.553 251.319 203.266C251.296 203.192 251.302 203.113 251.337 203.044C251.373 202.974 251.434 202.92 251.508 202.893C251.583 202.865 251.666 202.865 251.741 202.894C251.815 202.922 251.876 202.977 251.91 203.046C251.91 203.113 254.624 209.659 257.936 210.8C258.629 210.312 262.233 207.499 265.004 199.935C265.037 199.866 265.096 199.81 265.169 199.78C265.242 199.75 265.324 199.748 265.399 199.773C265.474 199.798 265.536 199.85 265.574 199.917C265.611 199.984 265.621 200.063 265.602 200.136C262.423 208.725 258.324 211.288 258.152 211.397C258.101 211.421 258.044 211.432 257.987 211.428Z" fill="#BDBBE3"/>
<path d="M258.457 176.755C258.414 176.753 258.371 176.743 258.332 176.725C258.292 176.707 258.257 176.682 258.228 176.651C256.48 174.711 256.086 168.586 256.067 168.33C256.065 168.29 256.07 168.25 256.084 168.212C256.098 168.174 256.119 168.139 256.147 168.109C256.174 168.079 256.208 168.055 256.246 168.037C256.283 168.02 256.324 168.009 256.366 168.007C256.408 168.004 256.449 168.01 256.489 168.023C256.528 168.036 256.565 168.057 256.596 168.083C256.627 168.11 256.653 168.142 256.671 168.178C256.69 168.214 256.7 168.254 256.703 168.294C256.703 168.355 257.065 173.924 258.495 175.986C259.353 175.107 262.175 172.033 263.18 168.41C263.191 168.369 263.21 168.332 263.236 168.299C263.262 168.266 263.294 168.238 263.331 168.217C263.368 168.196 263.41 168.182 263.452 168.177C263.495 168.171 263.538 168.173 263.58 168.184C263.622 168.194 263.661 168.212 263.696 168.237C263.73 168.262 263.759 168.294 263.781 168.329C263.803 168.365 263.817 168.404 263.823 168.445C263.829 168.486 263.826 168.528 263.815 168.568C262.589 173.009 258.87 176.498 258.73 176.675C258.694 176.708 258.651 176.732 258.604 176.746C258.556 176.76 258.506 176.763 258.457 176.755Z" fill="#BDBBE3"/>
<path d="M266.638 223.116C260.536 224.165 260.917 203.308 262.627 198.16C264.337 193.011 266.936 197.495 266.936 197.495C266.936 197.495 270.534 180.03 275.072 176.144C279.611 172.259 279.147 178.676 279.147 178.676C279.147 178.676 288.421 163.017 296.646 164.725C304.871 166.433 290.353 181.976 290.353 181.976C290.353 181.976 295.514 178.731 297.98 181.232C300.447 183.733 282.09 200.563 282.09 200.563C282.09 200.563 287.226 198.386 289.558 200.728C291.891 203.07 276.051 221.493 266.638 223.116Z" fill="#BDBBE3"/>
<path d="M266.364 221.585H266.288C266.247 221.575 266.209 221.557 266.176 221.533C266.142 221.509 266.114 221.479 266.093 221.444C266.072 221.409 266.058 221.371 266.052 221.331C266.046 221.292 266.049 221.251 266.059 221.212C266.148 220.877 275.053 187.387 294.275 167.696C294.302 167.663 294.336 167.637 294.375 167.617C294.413 167.598 294.456 167.587 294.499 167.584C294.543 167.581 294.586 167.586 294.627 167.6C294.669 167.614 294.706 167.636 294.738 167.665C294.77 167.693 294.795 167.728 294.813 167.766C294.83 167.804 294.839 167.846 294.839 167.888C294.839 167.929 294.83 167.971 294.813 168.009C294.796 168.047 294.77 168.082 294.739 168.111C275.625 187.686 266.771 221.023 266.676 221.359C266.657 221.424 266.617 221.482 266.56 221.523C266.504 221.564 266.435 221.585 266.364 221.585Z" fill="#404B7C"/>
<path d="M275.861 196.324C275.805 196.323 275.751 196.309 275.703 196.282C275.655 196.256 275.615 196.217 275.587 196.171C271.958 190.175 275.479 180.604 275.625 180.195C275.639 180.156 275.66 180.121 275.688 180.09C275.716 180.059 275.75 180.034 275.788 180.016C275.827 179.998 275.868 179.988 275.91 179.986C275.953 179.984 275.995 179.99 276.035 180.004C276.075 180.018 276.112 180.039 276.143 180.067C276.174 180.094 276.199 180.128 276.217 180.165C276.234 180.202 276.244 180.242 276.245 180.283C276.246 180.324 276.239 180.364 276.223 180.402C276.185 180.5 272.721 189.919 276.032 195.689C277.221 195.506 283.66 194.116 291.7 185.112C291.755 185.05 291.833 185.012 291.917 185.006C292.001 185 292.084 185.026 292.149 185.078C292.213 185.131 292.252 185.206 292.259 185.286C292.265 185.367 292.238 185.447 292.184 185.508C283.107 195.665 276.178 196.324 275.886 196.324H275.861Z" fill="#404B7C"/>
<path d="M269.199 212.575C269.122 212.575 269.048 212.549 268.989 212.501C266.18 210.165 266.447 203.119 266.479 202.82C266.479 202.78 266.489 202.74 266.506 202.704C266.523 202.667 266.548 202.634 266.579 202.606C266.61 202.579 266.646 202.558 266.686 202.544C266.725 202.531 266.767 202.525 266.809 202.528C266.851 202.529 266.892 202.539 266.93 202.555C266.968 202.572 267.002 202.596 267.03 202.626C267.059 202.655 267.081 202.69 267.095 202.727C267.109 202.765 267.116 202.805 267.114 202.845C267.114 202.912 266.835 209.689 269.288 211.94C270.114 211.763 274.43 210.616 279.935 204.974C279.962 204.941 279.996 204.915 280.035 204.895C280.074 204.876 280.116 204.865 280.16 204.862C280.203 204.859 280.247 204.864 280.288 204.878C280.329 204.892 280.366 204.914 280.398 204.943C280.43 204.971 280.456 205.006 280.473 205.044C280.49 205.082 280.499 205.124 280.5 205.166C280.5 205.207 280.491 205.249 280.473 205.287C280.456 205.326 280.431 205.36 280.399 205.389C274.125 211.812 269.434 212.538 269.237 212.569H269.193L269.199 212.575Z" fill="#404B7C"/>
<path d="M283.679 182.074C283.611 182.074 283.544 182.054 283.49 182.015C283.435 181.977 283.394 181.923 283.374 181.86C282.617 179.487 284.747 173.93 284.836 173.686C284.85 173.648 284.872 173.614 284.901 173.585C284.929 173.555 284.964 173.531 285.002 173.515C285.04 173.498 285.081 173.489 285.123 173.487C285.165 173.486 285.206 173.492 285.246 173.506C285.285 173.52 285.321 173.541 285.351 173.569C285.382 173.596 285.407 173.629 285.424 173.666C285.442 173.702 285.451 173.742 285.453 173.782C285.454 173.822 285.448 173.862 285.433 173.9C285.433 173.955 283.482 178.999 283.901 181.354C285.033 180.896 288.757 179.225 291.097 176.407C291.121 176.372 291.153 176.342 291.19 176.319C291.227 176.296 291.268 176.281 291.312 176.274C291.355 176.268 291.4 176.27 291.442 176.281C291.485 176.291 291.524 176.311 291.559 176.337C291.593 176.363 291.622 176.396 291.642 176.433C291.663 176.471 291.675 176.512 291.678 176.554C291.681 176.596 291.675 176.638 291.661 176.678C291.646 176.718 291.623 176.754 291.592 176.785C288.707 180.256 283.965 181.982 283.787 182.056C283.752 182.067 283.716 182.074 283.679 182.074Z" fill="#404B7C"/>
<path d="M257.377 225.891C256.873 226.16 256.279 226.228 255.724 226.08C246.463 223.787 232.079 204.291 234.583 202.119C237.087 199.947 241.797 202.375 242.033 202.485C241.677 202.107 225.061 184.368 227.712 182.08C230.362 179.792 235.028 183.196 235.269 183.367C235.041 183.08 226.886 172.826 227.642 168.062C227.715 167.69 227.899 167.346 228.172 167.072C228.446 166.799 228.796 166.608 229.181 166.524C229.565 166.439 229.968 166.463 230.338 166.595C230.708 166.726 231.03 166.958 231.265 167.263C248.446 188.662 255.597 217.577 257.377 225.891Z" fill="#BDBBE3"/>
<path d="M248.268 198.63H248.192C246.469 198.203 240.31 196.092 233.178 186.759C233.129 186.693 233.108 186.611 233.121 186.531C233.134 186.451 233.18 186.38 233.248 186.332C233.316 186.284 233.402 186.264 233.485 186.277C233.569 186.289 233.643 186.333 233.693 186.399C240.685 195.549 246.685 197.629 248.351 198.038C248.419 198.061 248.478 198.107 248.516 198.166C248.554 198.226 248.569 198.297 248.56 198.366C248.55 198.435 248.516 198.5 248.463 198.548C248.409 198.596 248.341 198.625 248.268 198.63Z" fill="#404B7C"/>
<path d="M254.008 215.393H253.938C253.747 215.35 249.126 214.289 243.367 207.432C243.341 207.401 243.321 207.365 243.31 207.327C243.298 207.288 243.294 207.248 243.298 207.208C243.303 207.168 243.315 207.129 243.335 207.094C243.355 207.059 243.382 207.027 243.415 207.002C243.447 206.977 243.485 206.958 243.525 206.947C243.565 206.935 243.607 206.932 243.649 206.936C243.69 206.94 243.731 206.952 243.768 206.972C243.804 206.991 243.837 207.017 243.863 207.048C249.482 213.758 254.033 214.789 254.078 214.795C254.15 214.815 254.212 214.859 254.254 214.919C254.296 214.979 254.314 215.051 254.306 215.122C254.298 215.194 254.263 215.261 254.208 215.31C254.154 215.36 254.083 215.389 254.008 215.393Z" fill="#404B7C"/>
<path d="M241.111 183.513C241.058 183.514 241.005 183.501 240.958 183.477C239.344 182.623 236.35 180.787 234.43 178.09C234.383 178.023 234.366 177.941 234.382 177.861C234.398 177.782 234.446 177.712 234.516 177.666C234.586 177.621 234.672 177.604 234.755 177.62C234.838 177.635 234.911 177.682 234.958 177.749C236.808 180.341 239.706 182.123 241.27 182.946C241.329 182.98 241.376 183.032 241.402 183.094C241.428 183.155 241.433 183.223 241.415 183.288C241.396 183.352 241.357 183.409 241.302 183.45C241.247 183.49 241.18 183.513 241.111 183.513Z" fill="#404B7C"/>
<path d="M270.451 254.275H248.332C246.565 254.276 244.868 253.619 243.597 252.443C242.326 251.266 241.58 249.662 241.518 247.968L240.564 222.292C240.553 221.991 240.605 221.69 240.718 221.408C240.83 221.126 241.001 220.869 241.219 220.651C241.437 220.434 241.699 220.261 241.988 220.142C242.278 220.024 242.589 219.963 242.903 219.962H275.867C276.181 219.963 276.493 220.024 276.782 220.142C277.071 220.261 277.333 220.434 277.551 220.651C277.769 220.869 277.94 221.126 278.052 221.408C278.165 221.69 278.217 221.991 278.206 222.292L277.253 247.968C277.19 249.66 276.446 251.262 275.178 252.438C273.91 253.615 272.215 254.273 270.451 254.275Z" fill="#F68D88"/>
<path d="M275.873 219.962H269.415C268.92 222.036 269.066 225.025 273.293 226.446C274.815 226.981 276.465 227.084 278.047 226.745L278.212 222.292C278.224 221.991 278.171 221.69 278.059 221.408C277.946 221.126 277.776 220.869 277.558 220.651C277.339 220.434 277.078 220.261 276.788 220.142C276.499 220.024 276.188 219.963 275.873 219.962Z" fill="#FFB681"/>
<path d="M261.54 228.276C260.676 225.354 262.303 222.011 263.599 219.968H256.506C252.425 226.532 254.891 238.464 265.989 235.908C271.488 234.639 275.231 235.298 277.698 236.438L277.888 231.278C271.488 227.434 262.767 232.467 261.54 228.276Z" fill="#FFB681"/>
<path d="M276.242 251.182C270.839 239.793 261.159 250.963 254.79 239.025C250.435 230.857 244.619 230.844 240.933 231.906L241.143 237.518C252.52 233.248 252.025 251.097 261.705 249.718C266.879 248.968 269.816 251.609 271.424 254.22C272.41 254.083 273.352 253.74 274.185 253.215C275.017 252.69 275.719 251.996 276.242 251.182Z" fill="#FFB681"/>
<path d="M246.285 243.6C243.348 244.302 246.126 250.615 248.668 248.938C251.211 247.26 248.51 243.069 246.285 243.6Z" fill="#FFB681"/>
<path d="M270.788 239.281C268.773 240.434 272.301 244.521 273.801 242.728C275.301 240.934 272.301 238.415 270.788 239.281Z" fill="#FFB681"/>
<path d="M32.8541 227.605C37.3035 230.479 44.5941 213.819 45.1089 209.165C45.6238 204.51 41.9308 207.194 41.9308 207.194C41.9308 207.194 45.4268 192.139 43.2021 187.558C40.9774 182.977 39.0514 188.198 39.0514 188.198C39.0514 188.198 37.3924 172.674 30.248 171.277C23.1036 169.88 28.9767 187.064 28.9767 187.064C28.9767 187.064 26.0592 182.794 23.1862 183.91C20.3132 185.026 28.7543 204.553 28.7543 204.553C28.7543 204.553 25.4681 201.106 22.773 202.186C20.078 203.266 25.9766 223.164 32.8541 227.605Z" fill="#404B7C"/>
<path d="M33.7376 226.544H33.6867C33.6453 226.537 33.6057 226.523 33.5701 226.501C33.5346 226.48 33.5038 226.452 33.4796 226.419C33.4553 226.386 33.4381 226.349 33.429 226.31C33.4198 226.27 33.4188 226.23 33.4261 226.19C33.477 225.897 38.5683 196.501 30.534 174.589C30.5143 174.515 30.5241 174.437 30.5616 174.369C30.5991 174.302 30.6616 174.251 30.7366 174.225C30.8116 174.2 30.8938 174.203 30.9669 174.233C31.04 174.263 31.0987 174.318 31.1315 174.388C39.223 196.452 34.1062 225.995 34.049 226.294C34.0357 226.364 33.9972 226.427 33.9403 226.473C33.8835 226.519 33.8117 226.544 33.7376 226.544Z" fill="#BDBBE3"/>
<path d="M35.3903 203.333C35.337 203.333 35.2846 203.321 35.2377 203.296C35.0152 203.18 29.7141 200.338 26.2309 189.266C26.2064 189.185 26.2165 189.098 26.2588 189.024C26.3011 188.951 26.3722 188.896 26.4565 188.873C26.5408 188.849 26.6314 188.859 26.7082 188.899C26.7851 188.94 26.8421 189.008 26.8665 189.089C29.9302 198.849 34.494 202.107 35.403 202.686C40.0875 199.215 40.7613 190.632 40.7677 190.547C40.7706 190.507 40.7817 190.468 40.8004 190.432C40.819 190.396 40.8449 190.364 40.8765 190.338C40.908 190.311 40.9447 190.291 40.9844 190.278C41.0241 190.266 41.066 190.261 41.1077 190.263C41.1495 190.266 41.1902 190.277 41.2276 190.295C41.2651 190.313 41.2985 190.338 41.3259 190.368C41.3534 190.398 41.3743 190.433 41.3876 190.471C41.4009 190.509 41.4062 190.55 41.4033 190.59C41.4033 190.962 40.685 199.74 35.6127 203.302C35.5449 203.338 35.4658 203.349 35.3903 203.333Z" fill="#BDBBE3"/>
<path d="M34.7609 218.449C34.6964 218.453 34.6322 218.438 34.5766 218.406C34.4304 218.321 30.9662 216.162 28.3157 208.957C28.2975 208.919 28.2879 208.877 28.2875 208.835C28.2871 208.793 28.2958 208.751 28.3131 208.712C28.3304 208.673 28.356 208.638 28.3882 208.609C28.4204 208.58 28.4584 208.558 28.5 208.544C28.5416 208.53 28.5857 208.524 28.6297 208.528C28.6736 208.531 28.7163 208.543 28.7552 208.563C28.794 208.583 28.8281 208.61 28.8553 208.643C28.8825 208.677 28.9022 208.715 28.9131 208.756C31.2078 215.003 34.1698 217.369 34.7927 217.815C37.5322 216.839 39.7569 211.416 39.7824 211.361C39.8168 211.291 39.8773 211.237 39.9519 211.208C40.0264 211.18 40.1094 211.179 40.1842 211.207C40.259 211.235 40.32 211.289 40.3552 211.358C40.3903 211.427 40.3968 211.507 40.3735 211.58C40.2782 211.824 37.9327 217.528 34.8372 218.443L34.7609 218.449Z" fill="#BDBBE3"/>
<path d="M34.3669 189.418C34.284 189.419 34.2041 189.388 34.1444 189.333C34.011 189.211 30.8837 186.283 29.854 182.525C29.832 182.444 29.8445 182.358 29.8886 182.286C29.9327 182.214 30.0048 182.162 30.0891 182.141C30.1734 182.12 30.263 182.132 30.3381 182.174C30.4132 182.217 30.4677 182.286 30.4896 182.367C31.3095 185.331 33.5851 187.857 34.3542 188.644C35.5174 186.893 35.8098 182.33 35.8098 182.281C35.8114 182.241 35.8214 182.201 35.8394 182.165C35.8574 182.128 35.8829 182.096 35.9144 182.069C35.9458 182.042 35.9827 182.022 36.0226 182.009C36.0625 181.996 36.1047 181.991 36.1467 181.995C36.1884 181.997 36.2293 182.007 36.2669 182.025C36.3046 182.042 36.3382 182.067 36.366 182.097C36.3937 182.127 36.415 182.162 36.4287 182.2C36.4423 182.238 36.448 182.278 36.4454 182.318C36.4454 182.537 36.1022 187.674 34.6275 189.315C34.5986 189.346 34.5634 189.371 34.5241 189.389C34.4848 189.407 34.4421 189.417 34.3987 189.418H34.3669Z" fill="#BDBBE3"/>
<path d="M27.5212 228.185C32.6062 229.063 32.3138 211.605 30.8836 207.292C29.4535 202.979 27.2796 206.731 27.2796 206.731C27.2796 206.731 24.2668 192.09 20.4657 188.869C16.6647 185.649 17.0588 190.986 17.0588 190.986C17.0588 190.986 9.29139 177.877 2.40755 179.304C-4.47628 180.732 7.6769 193.75 7.6769 193.75C7.6769 193.75 3.35464 191.035 1.27614 193.14C-0.802361 195.244 14.5735 209.323 14.5735 209.323C14.5735 209.323 10.2703 207.493 8.31888 209.464C6.36751 211.434 19.633 226.825 27.5212 228.185Z" fill="#BDBBE3"/>
<path d="M27.7499 226.953C27.6795 226.952 27.6113 226.929 27.5561 226.887C27.5009 226.845 27.4617 226.786 27.4448 226.721C27.3686 226.44 19.9508 198.538 3.9648 182.19C3.93298 182.161 3.90763 182.127 3.89031 182.088C3.873 182.05 3.86409 182.008 3.86414 181.967C3.86419 181.925 3.87319 181.883 3.8906 181.845C3.90801 181.807 3.93344 181.772 3.96533 181.744C3.99721 181.715 4.03486 181.693 4.07593 181.679C4.11701 181.666 4.16063 181.66 4.2041 181.663C4.24756 181.666 4.28994 181.677 4.3286 181.696C4.36725 181.716 4.40136 181.742 4.4288 181.775C20.5356 198.245 27.9915 226.306 28.0614 226.605C28.0719 226.644 28.0743 226.684 28.0685 226.724C28.0627 226.764 28.0487 226.802 28.0275 226.837C28.0062 226.871 27.9781 226.901 27.9446 226.925C27.9112 226.95 27.8731 226.967 27.8326 226.977H27.7499V226.953Z" fill="#404B7C"/>
<path d="M19.7983 205.803C19.5504 205.803 13.709 205.248 6.11963 196.732C6.06484 196.671 6.03774 196.591 6.0443 196.51C6.05085 196.43 6.09053 196.355 6.15459 196.302C6.21865 196.25 6.30185 196.224 6.38589 196.23C6.46992 196.236 6.54791 196.274 6.6027 196.336C13.2323 203.784 18.5779 204.998 19.6521 205.169C22.3853 200.356 19.4996 192.523 19.4678 192.444C19.4522 192.406 19.4447 192.366 19.4458 192.325C19.4468 192.284 19.4563 192.244 19.4738 192.207C19.4913 192.17 19.5164 192.136 19.5476 192.108C19.5788 192.081 19.6154 192.059 19.6554 192.045C19.6953 192.032 19.7378 192.025 19.7802 192.028C19.8227 192.03 19.8642 192.04 19.9024 192.058C19.9406 192.076 19.9747 192.101 20.0027 192.131C20.0307 192.162 20.052 192.198 20.0653 192.237C20.1924 192.578 23.1481 200.612 20.0653 205.657C20.0373 205.701 19.9982 205.738 19.9515 205.763C19.9048 205.789 19.8521 205.803 19.7983 205.803Z" fill="#404B7C"/>
<path d="M25.3727 219.413H25.3219C25.1566 219.413 21.2157 218.803 15.9464 213.386C15.9145 213.357 15.8892 213.323 15.8719 213.284C15.8546 213.246 15.8457 213.205 15.8457 213.163C15.8458 213.121 15.8548 213.08 15.8722 213.041C15.8896 213.003 15.915 212.968 15.9469 212.94C15.9788 212.911 16.0164 212.89 16.0575 212.876C16.0986 212.862 16.1422 212.856 16.1857 212.859C16.2291 212.862 16.2715 212.873 16.3102 212.893C16.3488 212.912 16.3829 212.939 16.4104 212.971C20.9551 217.625 24.5273 218.62 25.271 218.785C27.2923 216.9 27.0571 211.281 27.0571 211.226C27.0554 211.186 27.062 211.146 27.0764 211.109C27.0908 211.071 27.1128 211.037 27.1411 211.007C27.1695 210.978 27.2036 210.954 27.2415 210.937C27.2795 210.92 27.3205 210.911 27.3622 210.909C27.4044 210.906 27.4468 210.911 27.4868 210.924C27.5268 210.937 27.5635 210.958 27.5946 210.986C27.6257 211.013 27.6504 211.047 27.6673 211.084C27.6842 211.121 27.6929 211.161 27.6927 211.202C27.6927 211.452 27.947 217.375 25.5761 219.352C25.5176 219.394 25.4458 219.416 25.3727 219.413Z" fill="#404B7C"/>
<path d="M13.245 193.884C13.2072 193.89 13.1685 193.89 13.1306 193.884C12.9654 193.823 8.99905 192.377 6.57095 189.455C6.54074 189.424 6.51751 189.388 6.50273 189.348C6.48794 189.308 6.48192 189.266 6.48506 189.224C6.4882 189.182 6.50042 189.141 6.52094 189.103C6.54147 189.066 6.56986 189.033 6.60431 189.007C6.63876 188.981 6.67852 188.962 6.72108 188.951C6.76364 188.94 6.80806 188.938 6.85153 188.944C6.895 188.951 6.93658 188.966 6.97362 188.989C7.01067 189.012 7.04238 189.042 7.06674 189.077C8.97362 191.383 12.0056 192.737 13.0099 193.176C13.3213 191.194 11.7386 187.076 11.7386 187.021C11.724 186.983 11.7173 186.943 11.7188 186.903C11.7203 186.863 11.73 186.824 11.7474 186.787C11.7649 186.751 11.7896 186.718 11.8203 186.69C11.8509 186.663 11.8869 186.642 11.9261 186.628C11.9653 186.614 12.0071 186.607 12.0489 186.609C12.0907 186.61 12.1319 186.619 12.1699 186.636C12.208 186.653 12.2423 186.677 12.2708 186.706C12.2993 186.735 12.3215 186.77 12.3361 186.808C12.4124 187.003 14.2048 191.688 13.5628 193.682C13.5396 193.744 13.4961 193.798 13.4388 193.834C13.3815 193.87 13.3136 193.888 13.245 193.884Z" fill="#404B7C"/>
<path d="M39.6616 254.275H21.1267C19.6463 254.276 18.223 253.726 17.1562 252.741C16.0893 251.756 15.462 250.412 15.4061 248.993L14.6306 227.496C14.6213 227.243 14.6649 226.991 14.759 226.755C14.8531 226.519 14.9957 226.303 15.1784 226.121C15.361 225.939 15.58 225.794 15.8222 225.695C16.0644 225.596 16.325 225.544 16.5884 225.544H44.1873C44.4507 225.544 44.7112 225.596 44.9535 225.695C45.1957 225.794 45.4146 225.939 45.5973 226.121C45.7799 226.303 45.9225 226.519 46.0166 226.755C46.1107 226.991 46.1544 227.243 46.145 227.496L45.3823 248.993C45.3263 250.412 44.699 251.756 43.6322 252.741C42.5654 253.726 41.1421 254.276 39.6616 254.275Z" fill="#F68D88"/>
<path d="M44.1873 225.544H38.7781C38.3586 227.282 38.4857 229.814 42.0262 230.973C43.3003 231.419 44.6812 231.506 46.0052 231.223L46.145 227.496C46.1544 227.243 46.1107 226.991 46.0166 226.755C45.9225 226.519 45.7799 226.303 45.5973 226.121C45.4146 225.939 45.1957 225.794 44.9535 225.695C44.7112 225.596 44.4507 225.544 44.1873 225.544Z" fill="#FFB681"/>
<path d="M32.1867 232.504C31.4621 230.064 32.8223 227.258 33.9092 225.544H27.9661C24.5465 231.034 26.6186 241.032 35.9051 238.885C40.507 237.823 43.647 238.384 45.7065 239.33L45.8654 235.011C40.5134 231.815 33.2228 236.018 32.1867 232.504Z" fill="#FFB681"/>
<path d="M44.4925 251.683C39.9668 242.142 31.8626 251.5 26.5296 241.502C22.8811 234.663 17.9932 234.651 14.9231 235.542L15.0947 240.239C24.6291 236.664 24.2096 251.61 32.3138 250.438C36.6425 249.828 39.1023 252.024 40.4499 254.208C41.2747 254.095 42.0638 253.811 42.7621 253.374C43.4604 252.938 44.0509 252.361 44.4925 251.683Z" fill="#FFB681"/>
<path d="M19.4106 245.339C16.9507 245.949 19.2771 251.213 21.4064 249.81C23.5358 248.407 21.273 244.893 19.4106 245.339Z" fill="#FFB681"/>
<path d="M39.9286 241.721C38.2442 242.685 41.1999 246.107 42.4712 244.607C43.7424 243.106 41.2063 240.995 39.9286 241.721Z" fill="#FFB681"/>
<path d="M137.548 192.462H46.0179C46.0179 192.462 30.89 150.499 31.8434 126.477C32.4218 111.892 37.8437 101.729 47.7913 96.5863C54.2175 93.2312 62.5442 92.0112 72.6761 93.0299C98.883 95.6713 109.816 122.786 111.519 136.512H135.006C135.487 136.512 135.967 136.549 136.442 136.622H136.506C136.986 136.696 137.459 136.812 137.917 136.969C138.201 137.066 138.479 137.178 138.749 137.305C141.419 138.586 143.911 141.758 144.19 149.401C144.591 161.004 142.455 175.382 137.548 192.462Z" fill="#404B7C"/>
<path d="M125.389 192.767H125.312C125.231 192.749 125.16 192.7 125.116 192.631C125.072 192.562 125.058 192.48 125.077 192.401C127.105 184.422 129.132 166.531 129.59 158.192C129.673 156.642 129.692 154.971 129.711 153.196C129.781 146.297 129.857 138.476 134.351 136.725C134.39 136.705 134.433 136.694 134.477 136.691C134.522 136.688 134.566 136.693 134.608 136.708C134.649 136.722 134.687 136.745 134.719 136.774C134.751 136.804 134.777 136.839 134.794 136.878C134.811 136.918 134.819 136.96 134.818 137.002C134.817 137.045 134.806 137.087 134.787 137.125C134.768 137.164 134.741 137.198 134.708 137.226C134.674 137.253 134.635 137.274 134.593 137.287C130.493 138.909 130.41 146.516 130.347 153.226C130.347 155.008 130.308 156.685 130.226 158.247C129.774 166.604 127.734 184.557 125.7 192.566C125.677 192.627 125.635 192.679 125.579 192.716C125.523 192.752 125.456 192.77 125.389 192.767Z" fill="#BDBBE3"/>
<path d="M87.696 196.324L98.8449 252.152C98.9057 252.46 98.8949 252.777 98.8135 253.08C98.732 253.384 98.5818 253.666 98.3736 253.907C98.1653 254.148 97.9042 254.343 97.6088 254.476C97.3134 254.609 96.991 254.678 96.6647 254.678C96.1849 254.678 95.7181 254.529 95.3342 254.253C94.9503 253.977 94.67 253.589 94.5353 253.147L77.2081 196.324H87.696Z" fill="#BDBBE3"/>
<path d="M53.2132 196.324L42.0643 252.152C42.0035 252.46 42.0143 252.777 42.0957 253.08C42.1772 253.384 42.3274 253.666 42.5356 253.907C42.7439 254.148 43.005 254.343 43.3004 254.476C43.5958 254.609 43.9181 254.678 44.2445 254.678C44.7242 254.678 45.191 254.529 45.5749 254.253C45.9589 253.977 46.2392 253.589 46.3739 253.147L63.7011 196.324H53.2132Z" fill="#BDBBE3"/>
<path d="M131.395 196.324L142.544 252.152C142.605 252.46 142.594 252.777 142.513 253.08C142.431 253.384 142.281 253.666 142.073 253.907C141.865 254.148 141.604 254.343 141.308 254.476C141.013 254.609 140.69 254.678 140.364 254.678C139.884 254.678 139.417 254.529 139.034 254.253C138.65 253.977 138.369 253.589 138.235 253.147L120.907 196.324H131.395Z" fill="#404B7C"/>
<path d="M96.9126 196.324L85.7637 252.152C85.7029 252.46 85.7136 252.777 85.7951 253.08C85.8765 253.384 86.0267 253.666 86.235 253.907C86.4432 254.148 86.7043 254.343 86.9997 254.476C87.2951 254.609 87.6175 254.678 87.9439 254.678C88.4236 254.678 88.8904 254.529 89.2743 254.253C89.6582 253.977 89.9385 253.589 90.0732 253.147L107.4 196.324H96.9126Z" fill="#404B7C"/>
<path d="M137.542 192.462L133.728 199.374H48.4842L46.0116 192.462H137.542Z" fill="#BDBBE3"/>
<path d="M62.0611 199.679H53.5565C53.4722 199.679 53.3913 199.647 53.3317 199.59C53.2721 199.532 53.2386 199.455 53.2386 199.374C53.2386 199.293 53.2721 199.216 53.3317 199.158C53.3913 199.101 53.4722 199.069 53.5565 199.069H62.0611C62.1454 199.069 62.2263 199.101 62.2859 199.158C62.3455 199.216 62.379 199.293 62.379 199.374C62.379 199.455 62.3455 199.532 62.2859 199.59C62.2263 199.647 62.1454 199.679 62.0611 199.679Z" fill="#404B7C"/>
<path d="M86.9269 199.679H79.2994C79.2151 199.679 79.1342 199.647 79.0746 199.59C79.015 199.532 78.9816 199.455 78.9816 199.374C78.9816 199.293 79.015 199.216 79.0746 199.158C79.1342 199.101 79.2151 199.069 79.2994 199.069H86.9269C87.0112 199.069 87.092 199.101 87.1516 199.158C87.2112 199.216 87.2447 199.293 87.2447 199.374C87.2447 199.455 87.2112 199.532 87.1516 199.59C87.092 199.647 87.0112 199.679 86.9269 199.679Z" fill="#404B7C"/>
<path d="M137.548 192.462L134.809 199.374H87.6833C87.143 197.654 86.4502 195.305 85.7192 192.462H137.548Z" fill="#404B7C"/>
<path d="M100.224 40.1599C100.224 40.1599 100.173 40.0684 100.065 39.9037C99.3152 38.7569 95.7493 34.1818 87.1938 35.0236C77.4242 36.0179 73.6105 47.4557 76.6297 52.1833C79.6489 56.911 73.9855 59.0704 68.125 61.4373C62.2645 63.8041 57.5609 71.5025 63.1226 78.4445C68.6843 85.3864 97.046 86.9847 98.8766 78.7495C100.707 70.5143 94.904 63.8773 95.5968 57.2404L100.224 40.1599Z" fill="#404B7C"/>
<path d="M94.5162 58.3873L93.6073 62.8526L92.6856 67.3789L87.7595 66.7689L88.6113 58.1189L88.8719 55.4836L94.5162 58.3873Z" fill="#FFB681"/>
<path d="M94.5163 58.3873L93.6074 62.8526C90.6644 62.4866 89.2724 60.1686 88.6113 58.1189L88.8719 55.4836L94.5163 58.3873Z" fill="#404B7C"/>
<path d="M76.9539 66.6955C76.9539 66.6955 88.3951 62.0472 100.237 67.6106L98.0122 74.1682L78.5493 73.485L76.9539 66.6955Z" fill="#F68D88"/>
<path d="M63.9235 81.3359C63.9235 81.3359 74.2525 71.1182 87.9184 71.4232C101.584 71.7282 109.53 82.251 109.53 82.251C109.53 82.251 116.522 92.7737 116.363 97.9589C116.204 103.144 112.39 117.479 112.39 117.479C113.51 121.729 115.053 125.866 116.998 129.832C120.018 135.78 135.749 146.76 138.292 149.2C140.834 151.64 142.9 175.51 109.371 175.51C75.8415 175.51 62.9701 167.043 62.9701 146.303C62.9701 125.562 63.9235 81.3359 63.9235 81.3359Z" fill="#F68D88"/>
<path d="M97.3893 73.6804C97.3494 73.6878 97.3084 73.6878 97.2686 73.6804C94.3026 72.4827 91.129 71.8289 87.9121 71.7527C85.095 71.7037 82.2867 72.0699 79.5854 72.8386C79.5437 72.8498 79.5 72.853 79.457 72.848C79.414 72.8431 79.3724 72.83 79.3346 72.8096C79.2968 72.7892 79.2636 72.7619 79.2369 72.7292C79.2101 72.6965 79.1903 72.659 79.1786 72.619C79.1669 72.5789 79.1636 72.537 79.1687 72.4957C79.1739 72.4544 79.1875 72.4145 79.2088 72.3783C79.23 72.342 79.2585 72.3101 79.2926 72.2845C79.3267 72.2588 79.3657 72.2398 79.4074 72.2286C82.1726 71.4412 85.0474 71.0668 87.9312 71.1183C91.2229 71.2005 94.4696 71.873 97.5037 73.1009C97.5671 73.1299 97.6186 73.1782 97.6503 73.2382C97.6821 73.2983 97.6922 73.3668 97.6791 73.4329C97.666 73.4991 97.6305 73.5592 97.5781 73.604C97.5257 73.6488 97.4593 73.6756 97.3893 73.6804Z" fill="#FFB681"/>
<path d="M136.175 230.686L135.069 234.798L132.997 242.478H127.168L129.126 233.785L129.819 230.686H136.175Z" fill="#FFB681"/>
<path d="M136.175 230.686L135.069 234.798L129.126 233.785L129.819 230.686H136.175Z" fill="#404B7C"/>
<path d="M153.013 254.684H122.929C122.905 253.87 122.926 253.056 122.992 252.244C123.35 248.151 124.477 244.154 126.317 240.446C130.029 241.361 134.37 240.55 134.37 240.55C134.37 240.55 151.004 248.682 151.742 249.804C152.143 250.573 152.422 251.395 152.568 252.244C152.848 253.488 153.013 254.684 153.013 254.684Z" fill="#F68D88"/>
<path d="M153.013 254.684H122.929C122.905 253.87 122.926 253.056 122.992 252.244H152.568C152.848 253.488 153.013 254.684 153.013 254.684Z" fill="#404B7C"/>
<path d="M124.543 149.78C113.807 149.035 106.256 160.083 111.596 169.05C112.943 171.313 114.774 173.015 116.681 173.747C123.037 176.187 136.385 175.376 136.385 175.376L126.851 232.107H138.502C138.502 232.107 161.174 172.735 162.23 165.006C163.285 157.277 157.888 152.5 148.138 151.585C142.455 151.055 132.126 150.31 124.543 149.78Z" fill="#404B7C"/>
<path d="M131.033 229.417H130.969C130.928 229.41 130.888 229.395 130.853 229.373C130.818 229.35 130.787 229.322 130.764 229.288C130.74 229.255 130.724 229.217 130.715 229.177C130.707 229.138 130.707 229.097 130.715 229.057L143.523 165.939L115.422 162.773C115.38 162.768 115.34 162.756 115.303 162.736C115.266 162.717 115.234 162.69 115.208 162.658C115.182 162.627 115.162 162.59 115.151 162.551C115.14 162.512 115.137 162.471 115.142 162.431C115.153 162.352 115.196 162.28 115.261 162.23C115.326 162.18 115.409 162.156 115.492 162.163L143.936 165.366C143.979 165.371 144.021 165.384 144.059 165.405C144.096 165.427 144.129 165.455 144.154 165.489C144.18 165.522 144.198 165.561 144.207 165.601C144.217 165.642 144.218 165.684 144.21 165.725L131.338 229.167C131.325 229.236 131.287 229.299 131.232 229.344C131.176 229.39 131.106 229.415 131.033 229.417Z" fill="#BDBBE3"/>
<path d="M137.021 174.766C136.972 174.766 136.924 174.756 136.881 174.735C136.806 174.699 136.749 174.635 136.723 174.559C136.697 174.482 136.703 174.399 136.741 174.327C136.944 173.93 141.864 164.628 149.212 162.279C149.251 162.266 149.293 162.261 149.335 162.264C149.377 162.266 149.418 162.277 149.455 162.295C149.493 162.313 149.526 162.337 149.554 162.368C149.581 162.398 149.602 162.433 149.615 162.471C149.629 162.509 149.634 162.549 149.631 162.589C149.629 162.629 149.618 162.669 149.599 162.705C149.58 162.741 149.555 162.773 149.523 162.799C149.492 162.825 149.455 162.846 149.415 162.858C142.315 165.128 137.338 174.504 137.338 174.601C137.309 174.656 137.263 174.702 137.206 174.731C137.149 174.761 137.085 174.773 137.021 174.766Z" fill="#BDBBE3"/>
<path d="M103.86 230.686L102.779 234.688L100.682 242.478H94.8595L96.7537 234.017L97.5037 230.686H103.86Z" fill="#FFB681"/>
<path d="M103.86 230.686L102.779 234.688L96.7537 234.017L97.5037 230.686H103.86Z" fill="#404B7C"/>
<path d="M120.704 254.684H90.6198C90.5962 253.87 90.6174 253.056 90.6834 252.244C91.0415 248.151 92.1677 244.154 94.0077 240.446C97.7198 241.361 102.061 240.55 102.061 240.55C102.061 240.55 118.695 248.682 119.433 249.804C119.834 250.573 120.113 251.395 120.259 252.244C120.539 253.488 120.704 254.684 120.704 254.684Z" fill="#F68D88"/>
<path d="M120.704 254.684H90.6198C90.5962 253.87 90.6174 253.056 90.6834 252.244H120.259C120.539 253.488 120.704 254.684 120.704 254.684Z" fill="#404B7C"/>
<path d="M129.921 165.006C128.866 172.735 106.193 232.107 106.193 232.107H94.5417L104.076 175.376C100.543 175.571 97.0008 175.571 93.4675 175.376C90.1686 175.162 86.7744 174.705 84.3717 173.784C78.0154 171.344 72.5045 158.125 82.8843 149.176C82.8843 149.176 106.123 150.707 115.835 151.616C125.548 152.525 130.982 157.283 129.921 165.006Z" fill="#BDBBE3"/>
<path d="M111.596 165.671C108.486 168.433 105.937 171.723 104.076 175.376C100.543 175.571 97.0008 175.571 93.4675 175.376L111.596 165.671Z" fill="#404B7C"/>
<path d="M98.724 229.417H98.6605C98.619 229.41 98.5794 229.395 98.5441 229.373C98.5088 229.35 98.4784 229.322 98.4548 229.288C98.4311 229.255 98.4146 229.217 98.4063 229.177C98.398 229.138 98.3979 229.097 98.4062 229.057L111.214 165.939L83.113 162.773C83.0712 162.768 83.0307 162.756 82.9939 162.736C82.9571 162.717 82.9247 162.69 82.8987 162.658C82.8727 162.627 82.8535 162.59 82.8423 162.551C82.8311 162.512 82.828 162.471 82.8334 162.431C82.8445 162.352 82.887 162.28 82.9521 162.23C83.0172 162.18 83.0999 162.156 83.183 162.163L111.627 165.366C111.67 165.371 111.712 165.384 111.75 165.405C111.787 165.427 111.82 165.455 111.845 165.489C111.871 165.522 111.889 165.561 111.899 165.601C111.908 165.642 111.909 165.684 111.901 165.725L99.0291 229.167C99.016 229.236 98.9785 229.299 98.9229 229.344C98.8673 229.39 98.7971 229.415 98.724 229.417Z" fill="#404B7C"/>
<path d="M104.705 174.766C104.657 174.766 104.609 174.756 104.565 174.735C104.491 174.699 104.434 174.635 104.408 174.559C104.382 174.482 104.388 174.399 104.426 174.327C104.629 173.93 109.549 164.627 116.897 162.279C116.977 162.253 117.064 162.259 117.14 162.295C117.216 162.331 117.273 162.394 117.3 162.471C117.327 162.548 117.321 162.632 117.284 162.705C117.246 162.777 117.18 162.833 117.1 162.858C110 165.128 105.023 174.504 105.023 174.601C104.994 174.656 104.948 174.702 104.891 174.731C104.834 174.761 104.769 174.773 104.705 174.766Z" fill="#404B7C"/>
<path d="M105.983 78.9996C100.002 75.9496 91.2555 81.641 95.2854 91.6087C99.3153 101.576 126.635 123.988 131.453 124.141C136.271 124.293 135.966 111.739 135.966 111.739C135.966 111.739 116.471 84.3861 105.983 78.9996Z" fill="#F68D88"/>
<path d="M114.532 116.339L120.571 81.5677H99.1182L93.0797 116.339H114.532Z" fill="#404B7C"/>
<path d="M96.938 80.1526L99.1182 81.5678H120.571L118.39 80.1526H96.938Z" fill="#E9F3FF"/>
<path d="M96.938 80.1526L90.8995 114.923L93.0797 116.339L99.1182 81.5678L96.938 80.1526Z" fill="#BDBBE3"/>
<path d="M131.453 124.141C129.971 123.964 126.367 120.572 123.901 118.041C122.395 116.51 121.289 115.296 121.289 115.296C118.746 107.768 124.575 104.773 124.575 104.773C124.575 104.773 125.986 105.426 127.912 106.444L127.988 106.481C131.662 108.433 137.135 111.672 138.241 114.228C139.932 118.138 139.531 125.105 131.453 124.141Z" fill="#F68D88"/>
<path d="M128.974 123.037C128.9 123.038 128.828 123.014 128.77 122.97C127.287 121.77 125.876 120.491 124.543 119.139C124.514 119.11 124.491 119.076 124.476 119.038C124.46 119.001 124.452 118.961 124.453 118.921C124.454 118.881 124.462 118.841 124.479 118.804C124.496 118.767 124.52 118.734 124.55 118.706C124.58 118.678 124.615 118.655 124.654 118.641C124.693 118.626 124.735 118.618 124.777 118.619C124.819 118.619 124.86 118.628 124.898 118.644C124.937 118.66 124.972 118.683 125.001 118.712C126.316 120.046 127.708 121.309 129.171 122.494C129.222 122.533 129.259 122.587 129.277 122.647C129.295 122.708 129.294 122.772 129.272 122.832C129.25 122.892 129.21 122.943 129.157 122.98C129.103 123.016 129.039 123.036 128.974 123.037Z" fill="#FFB681"/>
<path d="M133.665 110.153C133.599 110.154 133.534 110.134 133.48 110.098C132.133 109.183 130.512 108.207 128.662 107.201C128.594 107.159 128.544 107.093 128.525 107.017C128.505 106.942 128.516 106.862 128.556 106.794C128.596 106.726 128.662 106.675 128.739 106.652C128.817 106.629 128.901 106.635 128.974 106.67C130.842 107.689 132.482 108.677 133.843 109.604C133.895 109.642 133.934 109.694 133.954 109.754C133.975 109.814 133.975 109.879 133.956 109.939C133.936 109.999 133.898 110.052 133.846 110.09C133.793 110.129 133.73 110.151 133.665 110.153Z" fill="#FFB681"/>
<path d="M123.901 118.041C122.395 116.51 121.289 115.296 121.289 115.296C118.746 107.768 124.575 104.773 124.575 104.773C124.575 104.773 125.986 105.426 127.912 106.444C128.446 108.939 128.834 114.265 123.901 118.041Z" fill="#BDBBE3"/>
<path d="M116.573 108.634L118.746 109.195L122.827 113.112C122.827 113.112 125.795 109.805 124.416 106.353L120.71 103.913L118.486 98.9288L116.573 108.634Z" fill="#FFB681"/>
<path d="M118.187 97.8551C117.117 96.5274 115.762 95.4353 114.214 94.6526C113.185 94.1219 112.149 95.4029 113.14 97.1536C113.14 97.1536 111.526 98.3737 113.077 100.32C113.077 100.32 111.475 101.619 113.026 103.37C113.026 103.37 111.157 104.041 112.473 105.913C113.788 107.786 116.286 109.421 117.164 109.012C118.041 108.604 117.405 106.572 117.405 106.572C117.405 106.572 119.128 105.584 118.041 103.345C118.041 103.345 119.261 102.229 118.2 100.423C118.187 100.423 119.617 99.7401 118.187 97.8551Z" fill="#FFB681"/>
<path d="M116.573 106.237C116.523 106.237 116.475 106.226 116.43 106.205C116.386 106.183 116.348 106.153 116.318 106.115C115.55 105.219 114.598 104.484 113.522 103.955C113.452 103.917 113.399 103.855 113.375 103.782C113.351 103.708 113.357 103.628 113.392 103.559C113.427 103.489 113.487 103.435 113.562 103.407C113.637 103.378 113.72 103.378 113.795 103.406C114.966 103.974 115.999 104.772 116.827 105.749C116.862 105.794 116.884 105.848 116.889 105.904C116.894 105.961 116.883 106.018 116.857 106.068C116.83 106.119 116.79 106.162 116.74 106.191C116.689 106.221 116.632 106.237 116.573 106.237Z" fill="#404B7C"/>
<path d="M117.132 103.248C117.079 103.248 117.026 103.235 116.98 103.21C116.933 103.186 116.894 103.15 116.865 103.108C116.049 102.049 114.951 101.22 113.687 100.71C113.608 100.68 113.546 100.622 113.512 100.547C113.479 100.473 113.478 100.389 113.509 100.314C113.54 100.238 113.601 100.178 113.678 100.146C113.756 100.114 113.844 100.113 113.922 100.143C115.316 100.696 116.523 101.608 117.411 102.778C117.443 102.825 117.46 102.879 117.462 102.935C117.463 102.991 117.449 103.046 117.42 103.094C117.391 103.143 117.349 103.183 117.298 103.21C117.247 103.237 117.19 103.25 117.132 103.248Z" fill="#404B7C"/>
<path d="M117.132 100.198C117.079 100.198 117.026 100.185 116.98 100.16C116.933 100.136 116.894 100.1 116.865 100.057C116.052 98.9778 114.999 98.0859 113.782 97.4465C113.707 97.4093 113.651 97.345 113.625 97.2678C113.599 97.1906 113.607 97.1068 113.645 97.0348C113.684 96.9628 113.751 96.9085 113.832 96.8839C113.912 96.8593 113.999 96.8664 114.074 96.9036C115.393 97.5887 116.53 98.5549 117.399 99.728C117.43 99.774 117.447 99.8272 117.449 99.8819C117.451 99.9365 117.438 99.9907 117.41 100.039C117.383 100.087 117.343 100.127 117.294 100.155C117.245 100.183 117.189 100.198 117.132 100.198Z" fill="#404B7C"/>
<path d="M87.6515 115.192C87.6515 115.192 85.8526 116.467 83.0622 118.242C78.0535 121.39 69.8539 126.087 63.1798 127.721C52.8 130.265 45.7001 128.942 45.1725 122.536C44.6449 116.131 54.0713 91.0047 63.9235 81.3603C69.8539 75.5652 79.3883 90.3093 74.9389 97.3244C72.1485 101.723 68.3729 108.097 68.3729 108.097L76.153 105.956L80.5579 104.736C87.9693 107.463 87.6515 115.192 87.6515 115.192Z" fill="#F68D88"/>
<path d="M63.1798 128.002C63.0955 128.012 63.0106 127.989 62.9439 127.939C62.8771 127.888 62.8339 127.815 62.8238 127.734C62.8137 127.653 62.8375 127.571 62.8899 127.507C62.9424 127.443 63.0192 127.402 63.1035 127.392C69.1165 125.922 76.3944 121.933 81.4413 118.852C81.512 118.813 81.5955 118.802 81.6745 118.821C81.7535 118.839 81.8221 118.886 81.8661 118.952C81.9101 119.018 81.9262 119.097 81.911 119.174C81.8959 119.251 81.8506 119.319 81.7846 119.364C76.6996 122.469 69.3517 126.489 63.2624 127.984L63.1798 128.002Z" fill="#FFB681"/>
<path d="M68.3729 108.378C68.3172 108.378 68.2627 108.363 68.2146 108.336C68.1666 108.309 68.1267 108.271 68.0991 108.225C68.0714 108.178 68.0569 108.126 68.057 108.072C68.0571 108.019 68.0717 107.967 68.0996 107.92C68.1377 107.859 71.9133 101.491 74.6719 97.1414C76.3754 94.4573 76.064 90.1018 73.8838 86.0452C72.0976 82.7267 69.4789 80.4819 67.2097 80.3294C67.1254 80.3237 67.0469 80.2862 66.9915 80.225C66.936 80.1637 66.9082 80.0839 66.9141 80.003C66.92 79.9221 66.9592 79.8468 67.0229 79.7936C67.0867 79.7404 67.1699 79.7137 67.2542 79.7194C69.7967 79.8902 72.5362 82.2082 74.4495 85.7646C76.7314 90.0347 77.0365 94.5976 75.2186 97.4586C72.9812 100.984 70.0763 105.834 69.0466 107.573L74.4431 106.084C74.4848 106.073 74.5285 106.07 74.5715 106.075C74.6145 106.08 74.6561 106.093 74.6939 106.113C74.7317 106.134 74.7649 106.161 74.7917 106.194C74.8184 106.226 74.8382 106.264 74.8499 106.304C74.8616 106.344 74.8649 106.386 74.8598 106.427C74.8546 106.468 74.841 106.508 74.8197 106.545C74.7985 106.581 74.77 106.613 74.7359 106.638C74.7018 106.664 74.6628 106.683 74.6211 106.694L68.4682 108.384L68.3729 108.378Z" fill="#FFB681"/>
<path d="M87.6514 115.192C87.6514 115.192 85.8526 116.467 83.0622 118.242C76.2292 114.905 75.975 108.433 76.153 105.956L80.5578 104.736C87.9693 107.463 87.6514 115.192 87.6514 115.192Z" fill="#BDBBE3"/>
<path d="M81.0854 106.395C81.0854 106.395 82.1978 111.58 85.9035 113.106L92.9462 107.207C92.9462 107.207 99.989 106.914 100.866 106.304C101.135 106.075 101.349 105.793 101.493 105.477C101.637 105.161 101.707 104.819 101.699 104.474C102.102 104.144 102.399 103.71 102.554 103.224C102.71 102.738 102.717 102.219 102.576 101.729C102.992 101.279 103.271 100.728 103.384 100.137C103.496 99.545 103.436 98.9351 103.212 98.3737C103.212 98.3737 105.157 95.2077 105.436 94.1036C105.716 92.9994 104.324 92.6578 103.294 93.7254C102.698 94.4477 101.954 95.0455 101.108 95.4822C100.555 95.714 95.2281 96.7388 95.2281 96.7388C94.776 96.5451 94.4172 96.1942 94.2239 95.7567L94.8023 92.4321C94.1189 92.7297 93.5049 93.1565 92.9971 93.6868C92.4893 94.2171 92.098 94.8402 91.8466 95.5188C91.1729 97.6905 90.0224 102.308 90.0224 102.308L81.0854 106.395Z" fill="#FFB681"/>
<path d="M100.459 192.463H46.0179C46.0179 192.463 30.89 150.5 31.8434 126.477C31.9197 124.476 32.0892 122.559 32.3519 120.725C33.299 114.088 43.5008 114.521 43.7932 121.213C44.0284 126.404 44.6386 131.998 45.5094 137.738H83.0813L85.0835 137.787C91.9038 137.787 94.3573 141.709 95.1582 149.151C96.4358 160.943 100.459 192.463 100.459 192.463Z" fill="#404B7C"/>
<path d="M83.0876 138.043H45.5157C45.4397 138.042 45.3665 138.015 45.3093 137.967C45.2522 137.919 45.2149 137.853 45.2043 137.781C44.2889 131.735 43.7105 126.19 43.4881 121.225C43.4864 121.185 43.4929 121.145 43.5073 121.107C43.5217 121.07 43.5437 121.035 43.5721 121.006C43.6004 120.976 43.6345 120.952 43.6725 120.935C43.7104 120.919 43.7514 120.909 43.7932 120.908C43.8351 120.905 43.8771 120.911 43.9167 120.924C43.9563 120.938 43.9927 120.959 44.0235 120.986C44.0544 121.014 44.0792 121.047 44.0964 121.084C44.1136 121.12 44.1229 121.16 44.1237 121.2C44.3462 126.05 44.9055 131.51 45.7954 137.433H83.094C83.1357 137.433 83.177 137.442 83.2154 137.457C83.2538 137.473 83.2886 137.496 83.3178 137.524C83.347 137.553 83.37 137.587 83.3856 137.624C83.4012 137.661 83.409 137.701 83.4086 137.741C83.4082 137.781 83.3996 137.821 83.3832 137.858C83.3668 137.894 83.3431 137.928 83.3133 137.956C83.2835 137.984 83.2482 138.006 83.2095 138.021C83.1708 138.036 83.1294 138.043 83.0876 138.043Z" fill="#BDBBE3"/>
<path d="M85.5475 192.011C85.4742 192.011 85.4032 191.987 85.3465 191.942C85.2897 191.898 85.2507 191.836 85.2361 191.767C83.5326 184.148 75.3902 145.79 82.2041 138.726C82.2316 138.694 82.2657 138.667 82.3043 138.648C82.343 138.628 82.3854 138.617 82.4288 138.614C82.4723 138.611 82.5159 138.617 82.557 138.631C82.5981 138.645 82.6357 138.667 82.6676 138.695C82.6995 138.724 82.7249 138.758 82.7423 138.796C82.7597 138.835 82.7687 138.876 82.7688 138.918C82.7688 138.96 82.7599 139.001 82.7426 139.039C82.7253 139.078 82.6999 139.112 82.6681 139.141C75.9241 146.126 84.8165 186.997 85.8463 191.639C85.8633 191.717 85.8475 191.799 85.8023 191.866C85.7571 191.934 85.6862 191.981 85.6047 191.999H85.5348L85.5475 192.011Z" fill="#BDBBE3"/>
<path d="M92.7618 41.9169C87.4607 44.6864 84.6576 60.2966 94.1157 61.0592C103.574 61.8217 103.568 36.2743 92.7618 41.9169Z" fill="#FFB681"/>
<path d="M86.698 54.4954C86.698 54.4954 88.5286 50.0727 90.8296 47.3277C90.8296 47.3277 96.474 50.7621 101.317 49.0845C106.161 47.407 108.869 38.4886 104.737 36.7317C100.606 34.9749 98.3809 38.9461 98.3809 38.9461C98.3809 38.9461 80.6087 33.9866 86.698 54.4954Z" fill="#404B7C"/>
<path d="M88.7129 53.1229C88.7129 53.1229 87.2065 47.407 82.4393 48.5478C77.6721 49.6885 82.0452 58.3873 88.8782 55.4897L88.7129 53.1229Z" fill="#FFB681"/>
<path d="M86.8696 54.471C86.8051 54.4715 86.7419 54.453 86.6885 54.4182C86.6352 54.3833 86.5941 54.3336 86.5709 54.2758C86.5709 54.2453 85.2106 51.0184 82.3821 50.6157C82.3404 50.6097 82.3003 50.5959 82.2641 50.575C82.2279 50.5541 82.1964 50.5266 82.1713 50.4941C82.1462 50.4615 82.1281 50.4245 82.1179 50.3852C82.1077 50.3459 82.1057 50.305 82.112 50.265C82.1182 50.2249 82.1326 50.1865 82.1544 50.1517C82.1761 50.117 82.2048 50.0868 82.2387 50.0627C82.2727 50.0386 82.3112 50.0212 82.3522 50.0114C82.3931 50.0017 82.4357 49.9997 82.4774 50.0057C85.6556 50.4693 87.1048 53.9098 87.162 54.0562C87.1805 54.1021 87.1871 54.1516 87.1813 54.2005C87.1755 54.2494 87.1575 54.2962 87.1288 54.337C87.1 54.3777 87.0615 54.4112 87.0163 54.4345C86.9712 54.4579 86.9209 54.4704 86.8696 54.471Z" fill="#404B7C"/>
<path d="M84.2954 53.9159C84.2122 53.9159 84.1323 53.8846 84.0728 53.8288C84.0134 53.7729 83.9792 53.6968 83.9775 53.617C84.0123 52.8242 84.2741 52.056 84.7339 51.3966C84.7786 51.3278 84.8499 51.2789 84.9322 51.2606C85.0144 51.2423 85.1009 51.2561 85.1725 51.299C85.2442 51.3418 85.2951 51.4103 85.3142 51.4892C85.3333 51.5681 85.3189 51.6511 85.2742 51.7199C84.8929 52.2812 84.6736 52.9295 84.6386 53.5987C84.6394 53.6388 84.632 53.6786 84.6169 53.7159C84.6017 53.7532 84.5789 53.7873 84.55 53.8162C84.5211 53.8451 84.4865 53.8682 84.4483 53.8843C84.41 53.9003 84.3689 53.909 84.3271 53.9098L84.2954 53.9159Z" fill="#404B7C"/>
<path d="M91.3254 50.7439C91.3254 50.7439 92.4569 48.7796 94.0078 49.6154C94.0197 49.498 94.075 49.3887 94.1635 49.307C94.2521 49.2253 94.3682 49.1768 94.4909 49.17C94.904 49.17 94.8913 50.4267 94.8913 50.4267C93.6925 50.3019 92.4799 50.4098 91.3254 50.7439Z" fill="#404B7C"/>
<path d="M100.211 52.0857C100.211 52.0857 100.18 50.036 98.9402 50.5484C98.9419 50.4581 98.9165 50.3691 98.8669 50.2923C98.8173 50.2155 98.7456 50.154 98.6605 50.1153C98.2029 50.0238 98.0249 51.195 98.0249 51.195C98.834 51.261 99.6 51.573 100.211 52.0857Z" fill="#404B7C"/>
<path d="M94.3339 53.2782C94.3798 52.7038 94.0254 52.2093 93.5423 52.1738C93.0593 52.1383 92.6306 52.5752 92.5847 53.1496C92.5389 53.724 92.8933 54.2185 93.3763 54.254C93.8593 54.2895 94.2881 53.8526 94.3339 53.2782Z" fill="#404B7C"/>
<path d="M93.9218 52.8752C93.9317 52.7509 93.8347 52.6425 93.7052 52.6329C93.5757 52.6234 93.4627 52.7165 93.4528 52.8407C93.4429 52.965 93.5398 53.0735 93.6693 53.083C93.7988 53.0926 93.9118 52.9995 93.9218 52.8752Z" fill="white"/>
<path d="M100.142 53.6304C100.19 53.0543 99.8358 52.5571 99.3514 52.5199C98.8669 52.4827 98.4353 52.9196 98.3872 53.4957C98.3392 54.0718 98.693 54.569 99.1775 54.6062C99.6619 54.6434 100.094 54.2065 100.142 53.6304Z" fill="#404B7C"/>
<path d="M99.0751 53.254C99.085 53.1297 98.9881 53.0212 98.8586 53.0117C98.729 53.0022 98.616 53.0952 98.6061 53.2195C98.5962 53.3438 98.6931 53.4523 98.8226 53.4618C98.9521 53.4713 99.0652 53.3783 99.0751 53.254Z" fill="white"/>
<path d="M96.3405 56.9782C96.1096 56.9777 95.8801 56.9427 95.6604 56.8745C95.5832 56.8472 95.5201 56.7923 95.4842 56.7212C95.4483 56.6502 95.4426 56.5686 95.4681 56.4936C95.4936 56.4186 95.5484 56.356 95.621 56.3189C95.6936 56.2819 95.7784 56.2733 95.8574 56.2949C95.8574 56.2949 96.76 56.5694 97.027 56.0326C97.0438 56.006 97.0527 55.9754 97.0527 55.9442C97.0527 55.913 97.0438 55.8824 97.027 55.8557C96.7816 55.6606 96.4747 55.551 96.1562 55.5446C96.073 55.5384 95.9957 55.501 95.9409 55.4405C95.8862 55.38 95.8585 55.3013 95.8638 55.2213L96.01 53.19C96.018 53.1107 96.0575 53.0374 96.1201 52.9852C96.1828 52.933 96.2639 52.9059 96.3469 52.9094C96.4301 52.9156 96.5074 52.953 96.5621 53.0135C96.6168 53.074 96.6445 53.1527 96.6392 53.2327L96.5121 54.9834C96.7205 55.0067 96.9219 55.07 97.1043 55.1696C97.2866 55.2692 97.4462 55.4029 97.5736 55.5629C97.6399 55.6766 97.6747 55.8047 97.6747 55.935C97.6747 56.0653 97.6399 56.1934 97.5736 56.3071C97.4569 56.5208 97.2785 56.6977 97.0599 56.8166C96.8412 56.9356 96.5915 56.9917 96.3405 56.9782Z" fill="#404B7C"/>
<path d="M96.2325 58.8446C96.2325 58.8446 93.8235 60.1867 92.4823 57.3562L96.2325 58.8446Z" fill="white"/>
<path d="M123.113 129.985V247.492C123.113 249.429 124.749 250.999 126.768 250.999C128.786 250.999 130.423 249.429 130.423 247.492V129.985C130.423 128.047 128.786 126.477 126.768 126.477C124.749 126.477 123.113 128.047 123.113 129.985Z" fill="#404B7C"/>
<path d="M197.526 126.477H81.6829C79.6644 126.477 78.0281 128.048 78.0281 129.985C78.0281 131.922 79.6644 133.492 81.6829 133.492H197.526C199.544 133.492 201.181 131.922 201.181 129.985C201.181 128.048 199.544 126.477 197.526 126.477Z" fill="#BDBBE3"/>
<path d="M100.033 126.477H56.0163C53.9978 126.477 52.3615 128.048 52.3615 129.985C52.3615 131.922 53.9978 133.492 56.0163 133.492H100.033C102.052 133.492 103.688 131.922 103.688 129.985C103.688 128.048 102.052 126.477 100.033 126.477Z" fill="#E9F3FF"/>
<path d="M175.59 242.813H169.349L166.901 234.376L165.808 230.613L173.042 229.777L173.696 233.126L175.59 242.813Z" fill="#FFB681"/>
<path d="M173.696 233.126L166.901 234.376L165.808 230.613L173.042 229.777L173.696 233.126Z" fill="#404B7C"/>
<path d="M176.321 240.684C173.274 240.707 170.227 240.579 167.194 240.3C163.742 245.637 151.735 249.603 151.24 250.414C151.026 251.001 150.937 251.623 150.979 252.244C150.979 253.421 151.1 254.684 151.1 254.684H177.669C177.659 249.988 177.208 245.302 176.321 240.684Z" fill="#404B7C"/>
<path d="M177.644 252.244H150.992C150.992 253.421 151.112 254.684 151.112 254.684H177.682C177.682 253.861 177.669 253.055 177.644 252.244Z" fill="#BDBBE3"/>
<path d="M197.125 155.355C197.125 155.355 147.941 154.337 143.733 155.355C139.525 156.374 139.855 162.675 140.428 166.744C141 170.813 163.946 232.217 163.946 232.217H174.478C174.478 232.217 168.192 193.377 165.287 180.165C165.287 180.165 210.69 188.095 219.951 185.655C229.212 183.215 228.748 165.725 228.748 165.725L197.125 155.355Z" fill="#404B7C"/>
<path d="M167.721 230.082C167.655 230.081 167.591 230.061 167.537 230.024C167.484 229.987 167.444 229.935 167.423 229.875L151.786 170.703C151.775 170.658 151.774 170.612 151.784 170.567C151.794 170.522 151.814 170.48 151.843 170.443C151.873 170.407 151.91 170.377 151.953 170.357C151.996 170.336 152.043 170.325 152.091 170.325H200.075L204.823 161.943C204.843 161.908 204.87 161.877 204.903 161.852C204.935 161.826 204.973 161.808 205.013 161.796C205.053 161.785 205.095 161.781 205.136 161.786C205.178 161.79 205.218 161.802 205.255 161.821C205.292 161.84 205.324 161.866 205.35 161.898C205.377 161.929 205.396 161.965 205.408 162.003C205.42 162.042 205.424 162.082 205.419 162.122C205.415 162.162 205.402 162.201 205.382 162.236L200.539 170.776C200.511 170.824 200.471 170.865 200.422 170.892C200.372 170.92 200.316 170.935 200.259 170.935H152.504L168.058 229.698C168.069 229.736 168.071 229.777 168.065 229.817C168.059 229.856 168.046 229.895 168.024 229.929C168.003 229.964 167.975 229.994 167.941 230.018C167.908 230.042 167.87 230.06 167.829 230.07L167.721 230.082Z" fill="#BDBBE3"/>
<path d="M163.914 179.298C163.863 179.298 163.813 179.285 163.768 179.262C163.672 179.213 154.31 174.418 148.926 167.427C148.896 167.396 148.873 167.359 148.858 167.318C148.844 167.277 148.839 167.234 148.843 167.192C148.847 167.149 148.861 167.108 148.883 167.07C148.905 167.033 148.935 167.001 148.971 166.975C149.007 166.95 149.048 166.932 149.092 166.923C149.135 166.914 149.18 166.913 149.224 166.922C149.268 166.931 149.309 166.948 149.345 166.973C149.382 166.998 149.412 167.03 149.434 167.067C154.723 173.942 163.965 178.658 164.054 178.719C164.119 178.749 164.171 178.799 164.202 178.862C164.233 178.924 164.241 178.995 164.225 179.062C164.209 179.129 164.169 179.19 164.113 179.232C164.056 179.275 163.986 179.299 163.914 179.298Z" fill="#BDBBE3"/>
<path d="M200.272 170.911C200.219 170.911 200.166 170.898 200.12 170.873C200.073 170.849 200.034 170.813 200.005 170.77C194.92 163.322 199.643 158.985 199.693 158.942C199.756 158.893 199.835 158.869 199.916 158.875C199.996 158.88 200.071 158.915 200.126 158.971C200.181 159.028 200.212 159.102 200.211 159.179C200.211 159.257 200.181 159.331 200.126 159.387C199.941 159.552 195.746 163.432 200.539 170.435C200.571 170.481 200.59 170.535 200.593 170.59C200.596 170.646 200.583 170.701 200.555 170.75C200.528 170.799 200.487 170.84 200.437 170.868C200.387 170.897 200.33 170.911 200.272 170.911Z" fill="#BDBBE3"/>
<path d="M138.851 229.777V242.813H132.253L131.319 235.267L130.747 230.613L138.851 229.777Z" fill="#FFB681"/>
<path d="M130.747 230.613L138.851 229.777V233.773L131.319 235.267L130.747 230.613Z" fill="#404B7C"/>
<path d="M141.68 254.684H107.038C107.144 253.863 107.299 253.048 107.502 252.244C107.625 251.584 107.901 250.958 108.309 250.414C109.161 249.603 124.257 245.637 130.105 240.3C133.513 240.596 136.935 240.724 140.358 240.684C141.104 244.498 141.529 248.364 141.629 252.244C141.667 253.055 141.68 253.848 141.68 254.684Z" fill="#404B7C"/>
<path d="M141.68 254.684H107.038C107.144 253.863 107.299 253.048 107.502 252.244H141.642C141.667 253.055 141.68 253.848 141.68 254.684Z" fill="#BDBBE3"/>
<path d="M174.415 155.355C174.415 155.355 128.44 154.337 122.719 155.355C116.998 156.374 115.81 162.675 115.517 166.744C115.225 170.813 129.501 232.217 129.501 232.217H140.091C140.091 232.217 141.788 193.377 141.362 180.165C141.362 180.165 183.739 188.095 196.452 185.655C209.164 183.215 212.978 165.725 212.978 165.725L174.415 155.355Z" fill="#BDBBE3"/>
<path d="M129.495 232.522C129.422 232.522 129.352 232.499 129.295 232.456C129.239 232.412 129.199 232.352 129.183 232.284C128.599 229.771 114.907 170.703 115.2 166.72C115.695 159.772 118.206 155.843 122.662 155.056C128.351 154.044 172.546 155.008 174.427 155.056C174.469 155.057 174.51 155.066 174.548 155.082C174.587 155.098 174.621 155.121 174.65 155.15C174.679 155.179 174.702 155.213 174.717 155.25C174.732 155.288 174.74 155.327 174.739 155.367C174.735 155.448 174.7 155.524 174.639 155.58C174.579 155.635 174.498 155.666 174.415 155.666C173.957 155.666 128.408 154.66 122.783 155.666C118.651 156.398 116.312 160.138 115.842 166.775C115.562 170.673 129.673 231.546 129.825 232.162C129.835 232.201 129.836 232.242 129.829 232.282C129.822 232.322 129.807 232.359 129.784 232.394C129.762 232.428 129.732 232.457 129.698 232.48C129.664 232.503 129.625 232.52 129.584 232.528H129.514L129.495 232.522Z" fill="#404B7C"/>
<path d="M135.006 230.082C134.926 230.082 134.848 230.054 134.789 230.002C134.731 229.95 134.694 229.878 134.688 229.801L129.393 170.63C129.39 170.588 129.395 170.546 129.41 170.506C129.424 170.466 129.447 170.429 129.477 170.398C129.507 170.367 129.543 170.343 129.583 170.326C129.623 170.309 129.667 170.3 129.711 170.301H174.491L182.875 161.858C182.934 161.807 183.012 161.779 183.092 161.78C183.172 161.781 183.249 161.811 183.307 161.865C183.365 161.918 183.4 161.99 183.405 162.067C183.409 162.144 183.383 162.22 183.332 162.279L174.86 170.819C174.83 170.849 174.795 170.874 174.756 170.89C174.716 170.907 174.674 170.916 174.631 170.917H130.054L135.324 229.759C135.327 229.799 135.322 229.839 135.309 229.877C135.296 229.916 135.276 229.951 135.249 229.982C135.222 230.012 135.188 230.038 135.151 230.056C135.114 230.074 135.073 230.085 135.031 230.088L135.006 230.082Z" fill="#404B7C"/>
<path d="M139.881 179.298C139.822 179.297 139.765 179.28 139.716 179.25C139.639 179.201 131.739 174.412 126.514 167.427C126.485 167.395 126.464 167.358 126.451 167.317C126.438 167.277 126.434 167.234 126.44 167.192C126.445 167.15 126.459 167.11 126.482 167.074C126.504 167.037 126.534 167.006 126.57 166.981C126.606 166.956 126.647 166.939 126.69 166.931C126.733 166.922 126.777 166.922 126.82 166.931C126.864 166.939 126.904 166.957 126.94 166.981C126.976 167.006 127.006 167.037 127.029 167.074C132.171 173.955 139.97 178.664 140.046 178.737C140.103 178.773 140.147 178.825 140.171 178.886C140.195 178.947 140.198 179.014 140.18 179.076C140.161 179.139 140.122 179.195 140.068 179.235C140.015 179.275 139.949 179.297 139.881 179.298Z" fill="#404B7C"/>
<path d="M174.624 170.911C174.569 170.911 174.515 170.898 174.468 170.872C174.42 170.846 174.379 170.809 174.351 170.764C172.87 168.44 172.393 166.183 172.934 164.054C173.556 161.931 174.964 160.098 176.893 158.899C176.966 158.857 177.053 158.845 177.135 158.864C177.217 158.884 177.288 158.934 177.332 159.003C177.376 159.073 177.389 159.156 177.369 159.235C177.349 159.314 177.296 159.382 177.224 159.424C175.446 160.548 174.143 162.244 173.55 164.207C173.054 166.165 173.506 168.263 174.898 170.441C174.929 170.487 174.946 170.541 174.948 170.596C174.95 170.652 174.936 170.706 174.908 170.754C174.88 170.803 174.838 170.843 174.788 170.87C174.739 170.898 174.682 170.912 174.624 170.911Z" fill="#404B7C"/>
<path d="M191.252 53.6841C191.252 53.6841 190.248 55.3006 189.663 56.2705C189.078 57.2405 192.416 57.6492 192.416 57.6492L191.252 53.6841Z" fill="#FFB681"/>
<path d="M192.415 57.9542H192.377C191.945 57.8993 189.765 57.5943 189.352 56.8013C189.296 56.6941 189.27 56.5752 189.276 56.4558C189.281 56.3363 189.318 56.2201 189.383 56.1181C189.968 55.1482 190.973 53.5255 190.973 53.5255L191.519 53.8366C191.519 53.8366 190.515 55.4532 189.93 56.4231C189.92 56.4386 189.915 56.4566 189.915 56.4749C189.915 56.4933 189.92 56.5112 189.93 56.5268C190.102 56.8623 191.379 57.21 192.473 57.3442C192.514 57.3478 192.555 57.3593 192.592 57.3779C192.629 57.3966 192.662 57.4221 192.689 57.4529C192.716 57.4838 192.736 57.5195 192.749 57.5579C192.761 57.5962 192.766 57.6366 192.762 57.6767C192.758 57.7167 192.746 57.7557 192.727 57.7913C192.707 57.8269 192.681 57.8585 192.649 57.8843C192.616 57.9101 192.579 57.9295 192.539 57.9415C192.499 57.9535 192.457 57.9578 192.415 57.9542Z" fill="#404B7C"/>
<path d="M207.976 52.1042C207.493 59.8514 200.723 63.2125 196.229 62.5659C195.761 62.5035 195.303 62.3888 194.863 62.2243C190.096 60.3943 189.428 50.024 191.367 44.7352C192.638 41.2764 206.622 38.635 207.893 49.3103C208.008 50.2373 208.035 51.1724 207.976 52.1042Z" fill="#FFB681"/>
<path d="M207.976 52.104C207.493 59.8512 200.723 63.2124 196.229 62.5658C200.043 59.6255 200.914 52.4639 200.914 52.4639C200.914 52.4639 204.569 52.1833 207.976 52.104Z" fill="#404B7C"/>
<path d="M205.389 58.2348L205.903 67.7266L199.312 68.0682L199.611 57.6492L205.389 58.2348Z" fill="#FFB681"/>
<path d="M186.809 32.6385C186.809 32.6385 180.243 37.2137 184.057 44.6375C187.871 52.0614 197.297 48.8039 197.297 48.8039L198.359 54.4466C198.359 54.4466 199.522 60.3942 204.664 60.3942C209.806 60.3942 214.783 50.8353 214.726 49.5665C214.669 48.2976 212.183 45.0951 212.183 45.0951C212.183 45.0951 212.342 38.1836 209.749 37.0124C207.156 35.8411 199.63 38.4886 199.63 38.4886C199.63 38.4886 193.909 33.5536 186.809 32.6385Z" fill="#404B7C"/>
<path d="M197.685 55.6543C197.685 55.6543 199.484 51.0304 203.088 51.8417C206.692 52.6531 204.149 58.7532 198.479 58.1981L197.685 55.6543Z" fill="#FFB681"/>
<path d="M199.007 57.0513C198.969 57.0581 198.93 57.0581 198.892 57.0513C198.854 57.0366 198.818 57.0146 198.788 56.9866C198.758 56.9587 198.734 56.9253 198.718 56.8885C198.701 56.8517 198.692 56.8121 198.692 56.772C198.691 56.7319 198.699 56.6921 198.715 56.6548C198.765 56.5267 199.986 53.5499 202.776 53.1472C202.859 53.1366 202.944 53.1574 203.011 53.2052C203.079 53.253 203.124 53.324 203.138 53.4035C203.145 53.4431 203.143 53.4836 203.133 53.5225C203.123 53.5615 203.105 53.5982 203.08 53.6305C203.055 53.6628 203.024 53.6901 202.988 53.7108C202.953 53.7315 202.913 53.7452 202.872 53.7512C200.456 54.105 199.318 56.85 199.306 56.8744C199.279 56.9288 199.237 56.9746 199.184 57.0061C199.131 57.0375 199.069 57.0533 199.007 57.0513Z" fill="#404B7C"/>
<path d="M201.219 56.5755C201.177 56.5747 201.136 56.566 201.098 56.55C201.06 56.5339 201.025 56.5108 200.996 56.4819C200.967 56.453 200.944 56.4189 200.929 56.3816C200.914 56.3443 200.907 56.3045 200.907 56.2644C200.871 55.6956 200.678 55.1463 200.348 54.6723C200.303 54.6035 200.289 54.5205 200.308 54.4416C200.327 54.3627 200.378 54.2942 200.45 54.2514C200.521 54.2085 200.608 54.1947 200.69 54.213C200.772 54.2313 200.844 54.2802 200.888 54.3489C201.281 54.9255 201.501 55.5944 201.524 56.2827C201.521 56.3594 201.488 56.4321 201.431 56.4864C201.375 56.5407 201.299 56.5725 201.219 56.5755Z" fill="#404B7C"/>
<path d="M191.761 68.5257C191.761 68.5257 205.389 61.4373 215.876 66.5065L213.734 73.2167L194.627 74.4367L191.761 68.5257Z" fill="#404B7C"/>
<path d="M189.034 75.5408C195.164 72.0588 202.279 70.5119 209.374 71.1182C221.375 72.1125 225.347 77.8283 226.619 80.9577C227.89 84.0871 234.882 131.668 232.339 166.744C232.339 166.744 215.387 172.844 197.965 171.014C180.542 169.184 167.213 152.403 167.213 152.403C167.213 152.403 180.243 122.512 181.197 107.262C182.15 92.0112 183.606 80.1342 189.034 75.5408Z" fill="#404B7C"/>
<path d="M195.486 73.0155C195.401 73.0285 195.315 73.0087 195.246 72.9607C195.177 72.9127 195.13 72.8402 195.117 72.7593C195.103 72.6784 195.124 72.5957 195.174 72.5294C195.224 72.463 195.3 72.4185 195.384 72.4055C199.901 70.9571 204.68 70.4111 209.425 70.8012C210.766 70.9089 212.098 71.0923 213.417 71.3502C213.458 71.3582 213.496 71.3739 213.531 71.3963C213.566 71.4187 213.595 71.4474 213.618 71.4809C213.641 71.5143 213.657 71.5517 213.665 71.5911C213.673 71.6304 213.673 71.6708 213.665 71.7101C213.646 71.7886 213.597 71.8572 213.527 71.9016C213.457 71.9459 213.372 71.9626 213.29 71.948C211.996 71.6956 210.689 71.5164 209.374 71.4112C204.714 71.0299 200.023 71.5676 195.587 72.9911L195.486 73.0155Z" fill="#BDBBE3"/>
<path d="M143.008 83.8799C142.849 83.8311 137.396 80.0673 137.396 80.0673C137.396 80.0673 135.279 77.676 134.325 77.4259C132.908 77.0257 131.54 76.4796 130.245 75.7972C129.609 75.3396 127.702 73.2046 126.698 72.8996C125.694 72.5946 125.694 74.4734 126.857 75.9497C128.02 77.4259 128.338 78.1884 127.492 78.6947C126.647 79.201 122.935 78.9509 121.823 78.591C120.71 78.2311 117.691 76.6573 116.846 76.6085C116 76.5597 116 77.9322 116.954 78.5422C117.907 79.1522 122.725 82.611 124.53 83.0685C126.336 83.526 133.639 83.3735 133.639 83.3735L140.472 89.2724L143.008 83.8799Z" fill="#FFB681"/>
<path d="M149.492 85.5329L143.059 82.0253C143.059 82.0253 136.468 83.0196 136.468 92.0905L141.87 97.1231C141.87 97.1231 150.051 93.2312 149.492 85.5329Z" fill="#BDBBE3"/>
<path d="M191.049 75.0346C184.356 74.9065 168.802 98.7215 168.802 98.7215L146.765 85.8074C146.765 85.8074 141.998 87.6375 141.788 94.0426C141.788 94.0426 161.174 117.73 168.802 119.56C176.43 121.39 196.026 101.259 199.522 94.854C203.018 88.4488 201.429 75.2359 191.049 75.0346Z" fill="#404B7C"/>
<path d="M167.575 111.989C167.499 111.988 167.426 111.962 167.369 111.913C167.312 111.865 167.274 111.799 167.264 111.727C166.736 107.633 167.102 103.478 168.338 99.5266C168.365 99.4498 168.423 99.3864 168.498 99.3503C168.574 99.3143 168.661 99.3086 168.742 99.3345C168.822 99.3604 168.888 99.4157 168.925 99.4884C168.963 99.561 168.969 99.645 168.942 99.7218C167.737 103.579 167.38 107.633 167.893 111.629C167.899 111.669 167.897 111.709 167.887 111.748C167.877 111.787 167.859 111.824 167.835 111.856C167.81 111.889 167.779 111.916 167.743 111.937C167.707 111.957 167.667 111.971 167.626 111.977H167.582L167.575 111.989Z" fill="#BDBBE3"/>
<path d="M182.042 113.703C181.976 113.704 181.911 113.685 181.857 113.649C181.802 113.613 181.761 113.561 181.738 113.502C181.716 113.442 181.714 113.377 181.732 113.316C181.75 113.254 181.787 113.2 181.839 113.16C189.244 107.292 197.138 98.5811 199.242 94.7136C201.416 90.7302 201.435 84.6118 199.287 80.4759C197.831 77.6637 195.473 75.9374 192.549 75.4677C192.507 75.4612 192.467 75.447 192.431 75.4258C192.395 75.4045 192.364 75.3767 192.339 75.3438C192.314 75.311 192.297 75.2737 192.287 75.2343C192.277 75.1948 192.275 75.1539 192.282 75.1138C192.289 75.0738 192.304 75.0354 192.326 75.0008C192.348 74.9663 192.377 74.9363 192.411 74.9125C192.445 74.8887 192.484 74.8716 192.525 74.8622C192.566 74.8528 192.609 74.8512 192.651 74.8576C195.829 75.3579 198.301 77.2062 199.859 80.1953C202.09 84.4654 202.071 90.8522 199.808 94.9881C197.672 98.9044 189.708 107.707 182.246 113.618C182.191 113.669 182.118 113.699 182.042 113.703Z" fill="#BDBBE3"/>
<path d="M189.619 196.324L200.768 252.152C200.828 252.46 200.818 252.777 200.736 253.08C200.655 253.384 200.505 253.666 200.296 253.907C200.088 254.148 199.827 254.343 199.532 254.476C199.236 254.609 198.914 254.678 198.587 254.678C198.108 254.678 197.641 254.529 197.257 254.253C196.873 253.977 196.593 253.589 196.458 253.147L179.131 196.324H189.619Z" fill="#404B7C"/>
<path d="M155.136 196.324L143.987 252.152C143.926 252.46 143.937 252.777 144.018 253.08C144.1 253.384 144.25 253.666 144.458 253.907C144.667 254.148 144.928 254.343 145.223 254.476C145.518 254.609 145.841 254.678 146.167 254.678C146.647 254.678 147.114 254.529 147.498 254.253C147.882 253.977 148.162 253.589 148.297 253.147L165.624 196.324H155.136Z" fill="#BDBBE3"/>
<path d="M233.318 196.324L244.467 252.152C244.528 252.46 244.517 252.777 244.436 253.08C244.354 253.384 244.204 253.666 243.996 253.907C243.787 254.148 243.526 254.343 243.231 254.476C242.936 254.609 242.613 254.678 242.287 254.678C241.807 254.678 241.34 254.529 240.956 254.253C240.572 253.977 240.292 253.589 240.157 253.147L222.83 196.324H233.318Z" fill="#BDBBE3"/>
<path d="M198.835 196.324L187.686 252.152C187.626 252.46 187.636 252.777 187.718 253.08C187.799 253.384 187.949 253.666 188.158 253.907C188.366 254.148 188.627 254.343 188.922 254.476C189.218 254.609 189.54 254.678 189.867 254.678C190.346 254.678 190.813 254.529 191.197 254.253C191.581 253.977 191.861 253.589 191.996 253.147L209.323 196.324H198.835Z" fill="#BDBBE3"/>
<path d="M239.465 192.462L235.651 199.374H151.373L147.934 192.462H239.465Z" fill="#BDBBE3"/>
<path d="M163.914 199.679H155.651C155.567 199.679 155.486 199.647 155.426 199.59C155.366 199.532 155.333 199.455 155.333 199.374C155.333 199.293 155.366 199.216 155.426 199.158C155.486 199.101 155.567 199.069 155.651 199.069H163.914C163.998 199.069 164.079 199.101 164.139 199.158C164.198 199.216 164.232 199.293 164.232 199.374C164.232 199.455 164.198 199.532 164.139 199.59C164.079 199.647 163.998 199.679 163.914 199.679Z" fill="#404B7C"/>
<path d="M239.465 192.462L236.572 199.374H194.907C194.367 197.654 193.674 195.305 192.943 192.462H239.465Z" fill="#404B7C"/>
<path d="M252.597 140.001C249.844 167.452 239.465 192.462 239.465 192.462H147.934C134.624 165.213 134.052 154.068 136.22 145.693C136.896 143.127 138.446 140.853 140.624 139.23C142.802 137.608 145.482 136.73 148.239 136.738H178.603C178.603 136.738 188.824 94.244 217.218 94.244C221.217 94.2063 225.206 94.6365 229.098 95.525C240.888 98.3555 247.931 105.712 251.084 116.333C252.089 119.849 252.701 123.458 252.908 127.099C252.908 127.099 252.908 127.166 252.908 127.197C252.908 127.593 252.953 127.996 252.972 128.417C252.991 128.838 253.003 129.094 253.01 129.43C253.103 132.958 252.965 136.489 252.597 140.001Z" fill="#BDBBE3"/>
<path d="M235.721 192.767H147.934C147.874 192.767 147.815 192.75 147.765 192.719C147.714 192.688 147.674 192.643 147.648 192.591C134.681 166.067 133.582 154.635 135.915 145.619C135.995 145.306 136.088 144.997 136.194 144.692C136.208 144.654 136.229 144.619 136.256 144.589C136.284 144.558 136.317 144.534 136.355 144.516C136.392 144.498 136.433 144.487 136.475 144.485C136.516 144.482 136.558 144.487 136.598 144.5C136.638 144.513 136.674 144.533 136.706 144.559C136.737 144.586 136.763 144.618 136.782 144.654C136.8 144.69 136.811 144.729 136.814 144.769C136.817 144.809 136.811 144.849 136.798 144.887C136.696 145.176 136.607 145.469 136.531 145.766C134.237 154.629 135.33 165.896 148.138 192.127H235.727C235.816 192.128 235.9 192.162 235.962 192.223C236.024 192.284 236.058 192.365 236.058 192.45C236.057 192.535 236.021 192.616 235.958 192.676C235.894 192.735 235.809 192.768 235.721 192.767Z" fill="#404B7C"/>
<path d="M252.597 140.001C249.844 167.452 239.464 192.463 239.464 192.463H192.943C190.918 184.652 189.564 176.695 188.894 168.672C188.22 160.254 188.398 151.14 190.305 142.441C196.452 114.381 211.497 100.753 229.504 103.193C229.682 103.193 229.86 103.242 230.038 103.278L230.343 103.321C236.352 104.257 241.853 107.119 245.95 111.439C250.047 115.759 252.5 121.283 252.908 127.112C252.908 127.112 252.908 127.179 252.908 127.209C252.908 127.606 252.952 128.008 252.972 128.429C252.991 128.85 253.003 129.1 253.01 129.442C253.102 132.966 252.964 136.493 252.597 140.001Z" fill="#404B7C"/>
<path d="M238.13 192.749H194.755C194.67 192.749 194.589 192.717 194.53 192.66C194.47 192.603 194.437 192.525 194.437 192.444C194.437 192.363 194.47 192.286 194.53 192.228C194.589 192.171 194.67 192.139 194.755 192.139H238.136C238.178 192.139 238.219 192.148 238.257 192.163C238.296 192.179 238.331 192.202 238.36 192.231C238.389 192.259 238.412 192.293 238.428 192.33C238.443 192.367 238.451 192.407 238.451 192.447C238.45 192.487 238.442 192.527 238.425 192.564C238.409 192.6 238.385 192.634 238.355 192.662C238.326 192.69 238.29 192.712 238.252 192.727C238.213 192.742 238.171 192.749 238.13 192.749Z" fill="#BDBBE3"/>
<path d="M191.532 51.9637C191.532 51.9637 191.532 50.6644 191.971 50.5546C192.409 50.4448 192.307 50.9145 192.307 50.9145C192.307 50.9145 194.513 50.5363 195.091 51.8966C193.923 51.5911 192.687 51.6144 191.532 51.9637Z" fill="#404B7C"/>
<path d="M192.81 54.782C193.308 54.782 193.712 54.3041 193.712 53.7145C193.712 53.1249 193.308 52.647 192.81 52.647C192.311 52.647 191.907 53.1249 191.907 53.7145C191.907 54.3041 192.311 54.782 192.81 54.782Z" fill="#404B7C"/>
<path d="M192.994 59.5585C192.91 59.565 192.826 59.5391 192.762 59.4865C192.697 59.4338 192.657 59.3588 192.651 59.2779C192.644 59.197 192.671 59.1169 192.726 59.0551C192.781 58.9933 192.859 58.955 192.943 58.9485C193.718 58.7573 194.408 58.329 194.907 57.7285C194.932 57.6929 194.964 57.6627 195.001 57.6397C195.039 57.6168 195.081 57.6016 195.125 57.5952C195.169 57.5888 195.213 57.5914 195.256 57.6027C195.299 57.614 195.339 57.6337 195.373 57.6607C195.408 57.6878 195.436 57.7214 195.456 57.7595C195.476 57.7976 195.487 57.8392 195.49 57.8818C195.492 57.9244 195.485 57.967 195.469 58.0068C195.453 58.0466 195.428 58.0827 195.397 58.1128C194.809 58.8392 193.982 59.3531 193.051 59.5707H193L192.994 59.5585Z" fill="#404B7C"/>
<path d="M192.994 53.4706C193.166 53.4706 193.305 53.3368 193.305 53.1717C193.305 53.0066 193.166 52.8728 192.994 52.8728C192.822 52.8728 192.682 53.0066 192.682 53.1717C192.682 53.3368 192.822 53.4706 192.994 53.4706Z" fill="white"/>
<path d="M185.379 6.841V19.7977C185.379 21.3547 186.023 22.8479 187.17 23.9494C188.316 25.0509 189.872 25.6705 191.494 25.6722H192.53V30.3998C192.523 30.6498 192.595 30.8959 192.736 31.1064C192.877 31.3169 193.08 31.4821 193.319 31.5806C193.559 31.6791 193.824 31.7065 194.079 31.6591C194.335 31.6117 194.571 31.4918 194.755 31.3148L200.634 25.6722H216.283C217.907 25.6722 219.464 25.0532 220.612 23.9516C221.76 22.8499 222.404 21.3557 222.404 19.7977V6.841C222.404 5.283 221.76 3.78881 220.612 2.68714C219.464 1.58546 217.907 0.966553 216.283 0.966553H191.494C189.872 0.968169 188.316 1.5878 187.17 2.68929C186.023 3.79079 185.379 5.28405 185.379 6.841Z" fill="#E9F3FF"/>
<path d="M214.936 5.69421H193.541C192.691 5.69421 192.002 6.35378 192.002 7.1674C192.002 7.98102 192.691 8.64059 193.541 8.64059H214.936C215.785 8.64059 216.474 7.98102 216.474 7.1674C216.474 6.35378 215.785 5.69421 214.936 5.69421Z" fill="#404B7C"/>
<path d="M214.936 11.6906H193.541C192.691 11.6906 192.002 12.3501 192.002 13.1637C192.002 13.9774 192.691 14.6369 193.541 14.6369H214.936C215.785 14.6369 216.474 13.9774 216.474 13.1637C216.474 12.3501 215.785 11.6906 214.936 11.6906Z" fill="#404B7C"/>
<path d="M203.494 17.6932H193.541C192.691 17.6932 192.002 18.3528 192.002 19.1664C192.002 19.98 192.691 20.6396 193.541 20.6396H203.494C204.344 20.6396 205.033 19.98 205.033 19.1664C205.033 18.3528 204.344 17.6932 203.494 17.6932Z" fill="#404B7C"/>
<path d="M132.412 23.6164V36.5731C132.412 38.1301 133.056 39.6233 134.203 40.7248C135.349 41.8263 136.905 42.4459 138.527 42.4475H139.563V47.2057C139.563 47.4531 139.639 47.695 139.783 47.9007C139.926 48.1064 140.129 48.2668 140.367 48.3615C140.606 48.4562 140.868 48.481 141.121 48.4327C141.373 48.3844 141.606 48.2652 141.788 48.0902L147.667 42.4475H163.317C164.94 42.4475 166.497 41.8286 167.645 40.727C168.793 39.6253 169.438 38.1311 169.438 36.5731V23.6164C169.438 22.0584 168.793 20.5642 167.645 19.4625C166.497 18.3609 164.94 17.7419 163.317 17.7419H138.527C136.905 17.7436 135.349 18.3632 134.203 19.4647C133.056 20.5662 132.412 22.0594 132.412 23.6164Z" fill="#BDBBE3"/>
<path d="M160.99 32.6323C162.51 32.6323 163.742 31.4498 163.742 29.991C163.742 28.5322 162.51 27.3496 160.99 27.3496C159.47 27.3496 158.238 28.5322 158.238 29.991C158.238 31.4498 159.47 32.6323 160.99 32.6323Z" fill="white"/>
<path d="M150.922 32.6323C152.442 32.6323 153.674 31.4498 153.674 29.991C153.674 28.5322 152.442 27.3496 150.922 27.3496C149.402 27.3496 148.169 28.5322 148.169 29.991C148.169 31.4498 149.402 32.6323 150.922 32.6323Z" fill="white"/>
<path d="M140.86 32.6323C142.38 32.6323 143.612 31.4498 143.612 29.991C143.612 28.5322 142.38 27.3496 140.86 27.3496C139.34 27.3496 138.108 28.5322 138.108 29.991C138.108 31.4498 139.34 32.6323 140.86 32.6323Z" fill="white"/>
<path d="M57.9613 50.9939C60.201 50.9939 62.0166 49.2514 62.0166 47.102C62.0166 44.9525 60.201 43.2101 57.9613 43.2101C55.7216 43.2101 53.906 44.9525 53.906 47.102C53.906 49.2514 55.7216 50.9939 57.9613 50.9939Z" fill="#BDBBE3"/>
<path d="M61.2221 34.0598C62.1875 34.0598 62.9701 33.3087 62.9701 32.3823C62.9701 31.4558 62.1875 30.7047 61.2221 30.7047C60.2567 30.7047 59.4741 31.4558 59.4741 32.3823C59.4741 33.3087 60.2567 34.0598 61.2221 34.0598Z" fill="#E9F3FF"/>
<path d="M115.409 36.6524C117.34 36.6524 118.905 35.1503 118.905 33.2973C118.905 31.4444 117.34 29.9423 115.409 29.9423C113.479 29.9423 111.913 31.4444 111.913 33.2973C111.913 35.1503 113.479 36.6524 115.409 36.6524Z" fill="#E9F3FF"/>
<path d="M173.569 64.5606C175.911 64.5606 177.809 62.7389 177.809 60.4918C177.809 58.2446 175.911 56.423 173.569 56.423C171.228 56.423 169.33 58.2446 169.33 60.4918C169.33 62.7389 171.228 64.5606 173.569 64.5606Z" fill="#E9F3FF"/>
<path d="M259.379 140.605C260.428 140.605 261.279 139.788 261.279 138.781C261.279 137.774 260.428 136.957 259.379 136.957C258.329 136.957 257.478 137.774 257.478 138.781C257.478 139.788 258.329 140.605 259.379 140.605Z" fill="#BDBBE3"/>
<path d="M231.545 72.1918C232.907 72.1918 234.011 71.1322 234.011 69.825C234.011 68.5178 232.907 67.4581 231.545 67.4581C230.183 67.4581 229.078 68.5178 229.078 69.825C229.078 71.1322 230.183 72.1918 231.545 72.1918Z" fill="#BDBBE3"/>
<path d="M268.85 133.645C270.212 133.645 271.316 132.585 271.316 131.278C271.316 129.971 270.212 128.911 268.85 128.911C267.488 128.911 266.383 129.971 266.383 131.278C266.383 132.585 267.488 133.645 268.85 133.645Z" fill="#E9F3FF"/>
<path d="M243.329 82.251C243.943 82.251 244.441 81.7731 244.441 81.1835C244.441 80.5939 243.943 80.116 243.329 80.116C242.715 80.116 242.217 80.5939 242.217 81.1835C242.217 81.7731 242.715 82.251 243.329 82.251Z" fill="#E9F3FF"/>
<path d="M49.0626 34.4075C48.9783 34.4075 48.8974 34.3754 48.8378 34.3182C48.7782 34.261 48.7448 34.1834 48.7448 34.1025V31.5344C48.7448 31.4535 48.7782 31.3759 48.8378 31.3187C48.8974 31.2615 48.9783 31.2294 49.0626 31.2294C49.1469 31.2294 49.2277 31.2615 49.2873 31.3187C49.3469 31.3759 49.3804 31.4535 49.3804 31.5344V34.1025C49.3804 34.1834 49.3469 34.261 49.2873 34.3182C49.2277 34.3754 49.1469 34.4075 49.0626 34.4075Z" fill="#BDBBE3"/>
<path d="M53.5691 36.1581H50.8868C50.8025 36.1581 50.7217 36.126 50.6621 36.0688C50.6025 36.0116 50.569 35.934 50.569 35.8531C50.569 35.7722 50.6025 35.6946 50.6621 35.6374C50.7217 35.5802 50.8025 35.5481 50.8868 35.5481H53.5628C53.6045 35.5477 53.6459 35.5552 53.6846 35.5702C53.7234 35.5851 53.7586 35.6072 53.7884 35.6353C53.8182 35.6633 53.842 35.6967 53.8584 35.7336C53.8747 35.7704 53.8833 35.81 53.8838 35.8501C53.8842 35.8901 53.8764 35.9299 53.8608 35.967C53.8452 36.0042 53.8221 36.038 53.7929 36.0666C53.7637 36.0952 53.7289 36.118 53.6905 36.1337C53.6521 36.1494 53.6109 36.1577 53.5691 36.1581Z" fill="#BDBBE3"/>
<path d="M49.0626 40.4772C48.9783 40.4772 48.8974 40.4451 48.8378 40.3879C48.7782 40.3307 48.7448 40.2531 48.7448 40.1722V37.6041C48.7448 37.5232 48.7782 37.4456 48.8378 37.3884C48.8974 37.3312 48.9783 37.2991 49.0626 37.2991C49.1469 37.2991 49.2277 37.3312 49.2873 37.3884C49.3469 37.4456 49.3804 37.5232 49.3804 37.6041V40.16C49.3821 40.2011 49.3751 40.2421 49.3599 40.2805C49.3447 40.3189 49.3216 40.354 49.2919 40.3836C49.2622 40.4133 49.2266 40.4368 49.1872 40.4529C49.1478 40.469 49.1054 40.4773 49.0626 40.4772Z" fill="#BDBBE3"/>
<path d="M47.2447 36.1582H44.5623C44.478 36.1582 44.3972 36.1261 44.3376 36.0689C44.278 36.0117 44.2445 35.9341 44.2445 35.8532C44.2445 35.7723 44.278 35.6948 44.3376 35.6376C44.3972 35.5804 44.478 35.5482 44.5623 35.5482H47.2383C47.28 35.5478 47.3215 35.5553 47.3602 35.5703C47.3989 35.5852 47.4342 35.6074 47.464 35.6354C47.4938 35.6634 47.5175 35.6968 47.5339 35.7337C47.5502 35.7706 47.5589 35.8101 47.5593 35.8502C47.5597 35.8902 47.5519 35.93 47.5363 35.9671C47.5207 36.0043 47.4977 36.0381 47.4685 36.0668C47.4392 36.0954 47.4044 36.1182 47.366 36.1339C47.3276 36.1496 47.2864 36.1578 47.2447 36.1582Z" fill="#BDBBE3"/>
<path d="M246.959 72.2285C246.874 72.2285 246.793 72.1963 246.734 72.1391C246.674 72.0819 246.641 72.0044 246.641 71.9235V69.3553C246.641 69.2744 246.674 69.1968 246.734 69.1396C246.793 69.0824 246.874 69.0503 246.959 69.0503C247.043 69.0503 247.124 69.0824 247.183 69.1396C247.243 69.1968 247.276 69.2744 247.276 69.3553V71.9235C247.276 72.0044 247.243 72.0819 247.183 72.1391C247.124 72.1963 247.043 72.2285 246.959 72.2285Z" fill="#BDBBE3"/>
<path d="M251.459 73.9793H248.783C248.699 73.9793 248.618 73.9471 248.558 73.8899C248.499 73.8327 248.465 73.7552 248.465 73.6743C248.465 73.5934 248.499 73.5158 248.558 73.4586C248.618 73.4014 248.699 73.3693 248.783 73.3693H251.459C251.543 73.3693 251.624 73.4014 251.684 73.4586C251.743 73.5158 251.777 73.5934 251.777 73.6743C251.777 73.7552 251.743 73.8327 251.684 73.8899C251.624 73.9471 251.543 73.9793 251.459 73.9793Z" fill="#BDBBE3"/>
<path d="M246.959 78.2982C246.874 78.2982 246.793 78.266 246.734 78.2088C246.674 78.1516 246.641 78.0741 246.641 77.9932V75.425C246.641 75.3441 246.674 75.2665 246.734 75.2093C246.793 75.1521 246.874 75.12 246.959 75.12C247.043 75.12 247.124 75.1521 247.183 75.2093C247.243 75.2665 247.276 75.3441 247.276 75.425V77.981C247.278 78.022 247.271 78.063 247.256 78.1014C247.241 78.1399 247.218 78.1749 247.188 78.2046C247.158 78.2342 247.123 78.2578 247.083 78.2738C247.044 78.2899 247.001 78.2982 246.959 78.2982Z" fill="#BDBBE3"/>
<path d="M245.134 73.9792H242.427C242.342 73.9792 242.262 73.947 242.202 73.8898C242.142 73.8326 242.109 73.7551 242.109 73.6742C242.109 73.5933 242.142 73.5157 242.202 73.4585C242.262 73.4013 242.342 73.3692 242.427 73.3692H245.103C245.187 73.3651 245.269 73.3934 245.332 73.4477C245.395 73.502 245.432 73.578 245.436 73.6589C245.441 73.7398 245.411 73.819 245.355 73.8791C245.298 73.9391 245.219 73.9751 245.134 73.9792Z" fill="#BDBBE3"/>
<path d="M113.108 68.2999C113.024 68.2999 112.943 68.2677 112.884 68.2105C112.824 68.1533 112.791 68.0758 112.791 67.9949V65.4267C112.791 65.3458 112.824 65.2682 112.884 65.211C112.943 65.1538 113.024 65.1217 113.108 65.1217C113.193 65.1217 113.273 65.1538 113.333 65.211C113.393 65.2682 113.426 65.3458 113.426 65.4267V67.9949C113.426 68.0758 113.393 68.1533 113.333 68.2105C113.273 68.2677 113.193 68.2999 113.108 68.2999Z" fill="#BDBBE3"/>
<path d="M117.609 70.0507H114.933C114.848 70.0507 114.767 70.0185 114.708 69.9613C114.648 69.9041 114.615 69.8266 114.615 69.7457C114.615 69.6648 114.648 69.5872 114.708 69.53C114.767 69.4728 114.848 69.4407 114.933 69.4407H117.609C117.693 69.4407 117.774 69.4728 117.833 69.53C117.893 69.5872 117.926 69.6648 117.926 69.7457C117.926 69.8266 117.893 69.9041 117.833 69.9613C117.774 70.0185 117.693 70.0507 117.609 70.0507Z" fill="#BDBBE3"/>
<path d="M113.108 74.3696C113.024 74.3696 112.943 74.3374 112.884 74.2802C112.824 74.223 112.791 74.1455 112.791 74.0646V71.4964C112.791 71.4155 112.824 71.3379 112.884 71.2807C112.943 71.2235 113.024 71.1914 113.108 71.1914C113.193 71.1914 113.273 71.2235 113.333 71.2807C113.393 71.3379 113.426 71.4155 113.426 71.4964V74.0646C113.426 74.1455 113.393 74.223 113.333 74.2802C113.273 74.3374 113.193 74.3696 113.108 74.3696Z" fill="#BDBBE3"/>
<path d="M111.284 70.0507H108.608C108.524 70.0507 108.443 70.0185 108.383 69.9613C108.324 69.9041 108.29 69.8266 108.29 69.7457C108.29 69.6648 108.324 69.5872 108.383 69.53C108.443 69.4728 108.524 69.4407 108.608 69.4407H111.284C111.368 69.4407 111.449 69.4728 111.509 69.53C111.568 69.5872 111.602 69.6648 111.602 69.7457C111.602 69.8266 111.568 69.9041 111.509 69.9613C111.449 70.0185 111.368 70.0507 111.284 70.0507Z" fill="#BDBBE3"/>
</svg>
