<svg width="161" height="229" viewBox="0 0 161 229" fill="none" xmlns="http://www.w3.org/2000/svg">
<path d="M24.9567 207.677C24.9567 207.677 24.3984 181.167 47.7167 168.148C47.7167 168.148 48.0402 193.195 24.9567 207.677Z" fill="#404B7C"/>
<path d="M26.7046 205.168C26.6592 205.168 26.6146 205.157 26.5752 205.135C26.5358 205.114 26.5028 205.082 26.4796 205.044C26.4565 205.007 26.4438 204.964 26.443 204.92C26.4422 204.876 26.4532 204.832 26.475 204.794L45.3582 171.37C45.3914 171.311 45.4474 171.267 45.514 171.248C45.5805 171.229 45.6521 171.236 45.713 171.269C45.7739 171.301 45.8191 171.355 45.8386 171.42C45.8582 171.484 45.8505 171.553 45.8173 171.612L26.9342 205.037C26.9116 205.077 26.8784 205.11 26.838 205.133C26.7976 205.156 26.7515 205.168 26.7046 205.168Z" fill="#BDBBE3"/>
<path d="M22.6191 203.297C22.6191 203.297 16.8796 177.374 37.2289 160.302C37.2289 160.302 42.4467 184.834 22.6191 203.297Z" fill="#BDBBE3"/>
<path d="M23.7721 200.515H23.6938C23.6281 200.494 23.5736 200.449 23.5423 200.389C23.511 200.329 23.5055 200.26 23.5269 200.196L35.5278 163.904C35.538 163.871 35.555 163.84 35.5776 163.813C35.6002 163.786 35.628 163.764 35.6595 163.747C35.691 163.731 35.7255 163.721 35.7611 163.717C35.7967 163.714 35.8326 163.717 35.8669 163.727C35.9012 163.737 35.9331 163.753 35.9608 163.775C35.9885 163.797 36.0115 163.824 36.0285 163.855C36.0454 163.885 36.056 163.919 36.0596 163.953C36.0632 163.988 36.0598 164.022 36.0495 164.056L24.0486 200.348C24.0289 200.402 23.9908 200.448 23.9405 200.478C23.8903 200.509 23.8309 200.521 23.7721 200.515Z" fill="#404B7C"/>
<path d="M23.0469 209.063C23.0469 209.063 20.6572 187.121 0 178.714C0 178.734 2.43149 199.447 23.0469 209.063Z" fill="#404B7C"/>
<path d="M21.3093 207.212C21.2675 207.212 21.2262 207.202 21.189 207.184C21.1517 207.165 21.1196 207.138 21.0954 207.105L1.90436 181.425C1.88415 181.398 1.8696 181.368 1.86155 181.335C1.85349 181.303 1.85209 181.27 1.85742 181.237C1.86275 181.204 1.87471 181.172 1.89261 181.144C1.91051 181.115 1.93401 181.091 1.96176 181.071C1.98951 181.052 2.02097 181.037 2.05435 181.03C2.08772 181.022 2.12236 181.02 2.15627 181.026C2.19019 181.031 2.22272 181.042 2.25202 181.06C2.28131 181.077 2.30679 181.1 2.32701 181.127L21.518 206.812C21.5456 206.85 21.5621 206.894 21.5657 206.94C21.5692 206.986 21.5598 207.032 21.5383 207.073C21.5168 207.114 21.4841 207.149 21.4437 207.173C21.4034 207.198 21.3569 207.211 21.3093 207.212Z" fill="#BDBBE3"/>
<path d="M21.8468 204.49C21.8468 204.49 40.3491 177.379 24.9775 149.078C24.9827 149.078 7.71709 174.824 21.8468 204.49Z" fill="#404B7C"/>
<path d="M21.9042 200.773C21.8699 200.771 21.8364 200.762 21.8055 200.748C21.7746 200.733 21.7469 200.713 21.7241 200.688C21.7014 200.663 21.6839 200.634 21.6727 200.602C21.6615 200.571 21.6568 200.538 21.6589 200.504L24.6748 153.853C24.6769 153.82 24.6857 153.788 24.7007 153.758C24.7157 153.728 24.7366 153.701 24.7623 153.679C24.788 153.657 24.8179 153.64 24.8503 153.629C24.8828 153.618 24.9171 153.614 24.9514 153.616C24.9856 153.618 25.0191 153.626 25.05 153.641C25.0809 153.655 25.1085 153.675 25.1313 153.7C25.154 153.725 25.1715 153.754 25.1827 153.786C25.1939 153.817 25.1987 153.85 25.1966 153.884L22.1651 200.515C22.1658 200.548 22.1595 200.582 22.1467 200.613C22.1339 200.644 22.1148 200.673 22.0905 200.697C22.0662 200.721 22.0372 200.74 22.0052 200.753C21.9732 200.766 21.9389 200.773 21.9042 200.773Z" fill="#BDBBE3"/>
<path d="M21.0537 203.549C21.0537 203.549 26.7933 177.627 6.44391 160.555C6.44391 160.555 1.22613 185.087 21.0537 203.549Z" fill="#BDBBE3"/>
<path d="M19.8798 200.768C19.824 200.768 19.7696 200.751 19.7245 200.719C19.6794 200.687 19.6461 200.642 19.6293 200.591L7.62843 164.298C7.61815 164.265 7.61472 164.23 7.61834 164.196C7.62195 164.161 7.63254 164.128 7.6495 164.097C7.66646 164.067 7.68946 164.04 7.71717 164.018C7.74489 163.996 7.77679 163.98 7.81106 163.97C7.84532 163.96 7.88126 163.956 7.91685 163.96C7.95244 163.963 7.98696 163.974 8.01845 163.99C8.04995 164.006 8.07779 164.029 8.1004 164.056C8.12301 164.083 8.13993 164.113 8.15021 164.147L20.1511 200.439C20.1725 200.503 20.1669 200.572 20.1356 200.632C20.1043 200.691 20.0498 200.737 19.9841 200.757L19.8798 200.768Z" fill="#404B7C"/>
<path d="M39.6864 201.739L36.4252 228.461H7.46656L4.20544 201.739C15.9309 199.614 27.9609 199.614 39.6864 201.739Z" fill="#F68D88"/>
<path d="M30.905 214.637C25.6455 215.183 24.5132 215.987 23.2088 221.632C22.5409 224.515 19.8851 226.857 17.4275 228.461H23.1097C25.2358 226.668 26.6034 224.177 26.9499 221.465C27.6909 216.24 31.4738 216.66 35.5593 217.126C36.3034 217.215 37.0546 217.237 37.8029 217.191L38.3821 212.447C36.9003 213.802 34.4322 214.268 30.905 214.637Z" fill="#FDB2B2"/>
<path d="M18.8569 215.396C18.6847 209.705 19.2482 207.429 27.0331 207.262C32.0787 207.151 34.1398 203.539 34.9746 201.01C33.5101 200.818 32.0457 200.649 30.5812 200.504C30.0073 202.558 28.1028 205.168 22.0815 204.961C12.2564 204.622 18.1264 213.433 13.253 216.255C10.3623 217.93 7.62299 216.68 5.88025 215.39L6.40203 219.771C11.5989 223.124 19.0186 220.621 18.8569 215.396Z" fill="#FDB2B2"/>
<path d="M10.7694 208.648C8.74485 209.154 7.68042 213.241 10.8581 213.241C14.0357 213.241 14.1609 207.808 10.7694 208.648Z" fill="#FDB2B2"/>
<path d="M130.763 61.4362L127.909 67.6981H122.738L120.265 62.2606L125.326 61.6891L130.763 61.4362Z" fill="#404B7C"/>
<path d="M138.715 34.102C138.757 35.8589 138.43 37.6058 137.754 39.2363C137.078 40.8667 136.066 42.3467 134.781 43.586C133.346 45.009 132.441 46.8544 132.208 48.8313L131.201 56.5803H119.414L118.407 48.8262C118.163 46.8277 117.246 44.9628 115.798 43.5202C114.252 42.013 113.111 40.1612 112.475 38.1272C111.839 36.0932 111.727 33.9389 112.149 31.8532C112.571 29.7674 113.514 27.8138 114.895 26.1633C116.277 24.5129 118.055 23.2161 120.074 22.3865C122.092 21.5569 124.29 21.2197 126.474 21.4046C128.658 21.5895 130.763 22.2908 132.602 23.4471C134.442 24.6033 135.961 26.1792 137.027 28.0368C138.093 29.8944 138.672 31.9769 138.715 34.102Z" fill="#F68D88"/>
<path d="M125.31 43.0042C124.965 43.0042 124.627 42.9048 124.339 42.7186C124.052 42.5324 123.828 42.2678 123.695 41.9582C123.563 41.6485 123.528 41.3078 123.596 40.9791C123.663 40.6504 123.83 40.3485 124.074 40.1115C124.319 39.8746 124.63 39.7132 124.969 39.6478C125.308 39.5824 125.66 39.616 125.979 39.7442C126.299 39.8725 126.572 40.0897 126.764 40.3683C126.956 40.647 127.058 40.9746 127.058 41.3097C127.058 41.5322 127.013 41.7526 126.925 41.9582C126.837 42.1637 126.709 42.3505 126.546 42.5079C126.384 42.6652 126.191 42.79 125.979 42.8752C125.767 42.9604 125.54 43.0042 125.31 43.0042ZM125.31 40.0553C125.053 40.0553 124.802 40.1292 124.588 40.2676C124.375 40.4059 124.208 40.6026 124.11 40.8328C124.012 41.0629 123.986 41.3162 124.036 41.5605C124.086 41.8048 124.21 42.0292 124.392 42.2054C124.573 42.3815 124.805 42.5014 125.057 42.55C125.309 42.5986 125.57 42.5737 125.807 42.4784C126.045 42.383 126.248 42.2216 126.39 42.0145C126.533 41.8074 126.609 41.5639 126.609 41.3148C126.611 41.1485 126.578 40.9837 126.514 40.8297C126.449 40.6757 126.353 40.5357 126.233 40.4176C126.112 40.2996 125.968 40.2059 125.81 40.142C125.652 40.0781 125.482 40.0452 125.31 40.0452V40.0553Z" fill="white"/>
<path d="M125.31 56.3376C125.251 56.3376 125.194 56.3147 125.152 56.2739C125.109 56.2331 125.086 56.1778 125.086 56.1201V42.7868C125.086 42.7292 125.109 42.6738 125.152 42.633C125.194 42.5923 125.251 42.5693 125.31 42.5693C125.37 42.5693 125.427 42.5923 125.469 42.633C125.511 42.6738 125.535 42.7292 125.535 42.7868V56.1251C125.533 56.1819 125.509 56.236 125.467 56.2757C125.425 56.3154 125.369 56.3376 125.31 56.3376Z" fill="white"/>
<path d="M125.31 38.8313C125.251 38.8313 125.194 38.8084 125.152 38.7676C125.109 38.7268 125.086 38.6715 125.086 38.6138V36.4185C125.086 36.3609 125.109 36.3055 125.152 36.2648C125.194 36.224 125.251 36.201 125.31 36.201C125.37 36.201 125.427 36.224 125.469 36.2648C125.511 36.3055 125.535 36.3609 125.535 36.4185V38.6087C125.535 38.6377 125.53 38.6665 125.519 38.6935C125.508 38.7205 125.492 38.7451 125.471 38.7658C125.45 38.7865 125.425 38.803 125.397 38.8143C125.37 38.8255 125.34 38.8313 125.31 38.8313Z" fill="white"/>
<path d="M127.277 39.6203C127.233 39.6196 127.191 39.6064 127.155 39.5824C127.119 39.5585 127.09 39.5248 127.074 39.4856C127.057 39.4463 127.053 39.4032 127.061 39.3615C127.069 39.3199 127.09 39.2815 127.121 39.2511L128.717 37.7033C128.738 37.683 128.763 37.667 128.79 37.656C128.818 37.645 128.847 37.6394 128.876 37.6394C128.906 37.6394 128.935 37.645 128.963 37.656C128.99 37.667 129.015 37.683 129.036 37.7033C129.056 37.7236 129.073 37.7476 129.084 37.7741C129.096 37.8006 129.102 37.8289 129.102 37.8576C129.102 37.8862 129.096 37.9146 129.084 37.9411C129.073 37.9675 129.056 37.9916 129.036 38.0119L127.434 39.5394C127.415 39.5625 127.391 39.5816 127.364 39.5955C127.337 39.6094 127.308 39.6179 127.277 39.6203Z" fill="white"/>
<path d="M130.356 41.5262H128.096C128.037 41.5262 127.98 41.5034 127.938 41.4627C127.896 41.422 127.872 41.3668 127.872 41.3092C127.872 41.2516 127.896 41.1964 127.938 41.1557C127.98 41.115 128.037 41.0922 128.096 41.0922H130.356C130.415 41.0922 130.472 41.115 130.514 41.1557C130.556 41.1964 130.58 41.2516 130.58 41.3092C130.58 41.3668 130.556 41.422 130.514 41.4627C130.472 41.5034 130.415 41.5262 130.356 41.5262Z" fill="white"/>
<path d="M128.879 44.982C128.82 44.9809 128.764 44.9573 128.723 44.9162L127.126 43.3684C127.084 43.3275 127.06 43.272 127.06 43.2141C127.06 43.1563 127.084 43.1008 127.126 43.0599C127.168 43.019 127.226 42.996 127.285 42.996C127.345 42.996 127.402 43.019 127.444 43.0599L129.041 44.6077C129.074 44.6381 129.096 44.6774 129.105 44.7204C129.115 44.7634 129.11 44.8081 129.093 44.8486C129.075 44.8891 129.045 44.9235 129.007 44.9473C128.969 44.9711 128.925 44.9832 128.879 44.982Z" fill="white"/>
<path d="M121.741 44.9819C121.697 44.9811 121.655 44.9679 121.619 44.944C121.583 44.92 121.554 44.8864 121.538 44.8471C121.521 44.8079 121.517 44.7648 121.525 44.7231C121.533 44.6814 121.554 44.6431 121.585 44.6127L123.181 43.0649C123.202 43.0446 123.227 43.0285 123.254 43.0176C123.282 43.0066 123.311 43.001 123.34 43.001C123.37 43.001 123.399 43.0066 123.427 43.0176C123.454 43.0285 123.479 43.0446 123.5 43.0649C123.52 43.0851 123.537 43.1092 123.548 43.1357C123.56 43.1621 123.566 43.1905 123.566 43.2192C123.566 43.2478 123.56 43.2762 123.548 43.3026C123.537 43.3291 123.52 43.3532 123.5 43.3734L121.903 44.9212C121.881 44.9412 121.856 44.9569 121.828 44.9673C121.801 44.9777 121.771 44.9827 121.741 44.9819Z" fill="white"/>
<path d="M122.529 41.5263H120.27C120.21 41.5263 120.153 41.5034 120.111 41.4627C120.069 41.422 120.046 41.3668 120.046 41.3093C120.046 41.2517 120.069 41.1965 120.111 41.1558C120.153 41.1151 120.21 41.0922 120.27 41.0922H122.529C122.589 41.0922 122.646 41.1151 122.688 41.1558C122.73 41.1965 122.754 41.2517 122.754 41.3093C122.754 41.3668 122.73 41.422 122.688 41.4627C122.646 41.5034 122.589 41.5263 122.529 41.5263Z" fill="white"/>
<path d="M123.343 39.6204C123.284 39.6193 123.228 39.5956 123.186 39.5546L121.585 38.022C121.564 38.0017 121.547 37.9777 121.536 37.9512C121.524 37.9247 121.519 37.8964 121.519 37.8677C121.519 37.8391 121.524 37.8107 121.536 37.7842C121.547 37.7578 121.564 37.7337 121.585 37.7134C121.605 37.6932 121.63 37.6771 121.658 37.6661C121.685 37.6552 121.714 37.6495 121.744 37.6495C121.773 37.6495 121.803 37.6552 121.83 37.6661C121.857 37.6771 121.882 37.6932 121.903 37.7134L123.5 39.2612C123.527 39.2919 123.545 39.3294 123.551 39.3695C123.558 39.4095 123.553 39.4506 123.536 39.4879C123.52 39.5252 123.493 39.5574 123.459 39.5808C123.425 39.6042 123.385 39.6179 123.343 39.6204Z" fill="white"/>
<path d="M131.864 59.4482C131.7 59.6123 131.489 59.7251 131.259 59.772C131.511 59.7825 131.748 59.8876 131.922 60.0651C132.095 60.2426 132.19 60.4785 132.187 60.7229C132.184 61.0017 132.072 61.2691 131.874 61.4715C131.672 61.6759 131.399 61.8003 131.107 61.8205L119.566 62.6146C119.429 62.6281 119.291 62.6136 119.161 62.5722C119.031 62.5308 118.911 62.4633 118.809 62.3742C118.707 62.2851 118.626 62.1762 118.57 62.0547C118.514 61.9332 118.486 61.8017 118.485 61.6688C118.487 61.3886 118.601 61.1201 118.804 60.9202C118.968 60.7526 119.181 60.6378 119.414 60.5914C119.163 60.5796 118.926 60.4741 118.753 60.2969C118.58 60.1197 118.484 59.8845 118.485 59.6405C118.491 59.3829 118.588 59.135 118.76 58.9386C118.932 58.7423 119.169 58.6096 119.43 58.5631C119.176 58.5552 118.935 58.4513 118.758 58.2737C118.582 58.0961 118.484 57.8587 118.485 57.6121C118.488 57.3336 118.602 57.067 118.804 56.8686C119.002 56.661 119.274 56.5344 119.566 56.5145L131.097 55.7255C131.234 55.712 131.372 55.7266 131.503 55.7683C131.633 55.81 131.754 55.8779 131.856 55.9676C131.957 56.0573 132.039 56.1667 132.094 56.2888C132.149 56.4109 132.178 56.543 132.177 56.6764C132.175 56.954 132.063 57.2202 131.864 57.4199C131.703 57.5882 131.491 57.7032 131.259 57.7487C131.513 57.7553 131.755 57.8588 131.932 58.0367C132.108 58.2146 132.206 58.4527 132.203 58.6996C132.195 58.9826 132.074 59.2513 131.864 59.4482Z" fill="#BDBBE3"/>
<path d="M119.837 58.7604C119.768 58.7604 119.701 58.7338 119.652 58.6863C119.604 58.6389 119.576 58.5746 119.576 58.5075C119.576 58.4404 119.604 58.3761 119.652 58.3287C119.701 58.2813 119.768 58.2546 119.837 58.2546L130.737 57.4959C130.806 57.4916 130.874 57.5135 130.926 57.557C130.979 57.6004 131.012 57.6619 131.019 57.7286C131.022 57.7618 131.018 57.7952 131.007 57.827C130.996 57.8587 130.98 57.8881 130.957 57.9135C130.935 57.9389 130.908 57.9598 130.877 57.9749C130.846 57.99 130.813 57.9991 130.779 58.0017L119.858 58.7604H119.837Z" fill="#404B7C"/>
<path d="M119.837 60.7837C119.768 60.7837 119.701 60.757 119.652 60.7096C119.604 60.6622 119.576 60.5978 119.576 60.5308C119.576 60.4637 119.604 60.3994 119.652 60.3519C119.701 60.3045 119.768 60.2779 119.837 60.2779L130.601 59.4989C130.67 59.4942 130.739 59.5164 130.791 59.5605C130.843 59.6046 130.876 59.667 130.88 59.7341C130.885 59.8012 130.862 59.8674 130.817 59.9181C130.771 59.9689 130.707 60 130.638 60.0047L119.858 60.7837H119.837Z" fill="#404B7C"/>
<path d="M134.473 30.5122C135.425 29.618 134.951 27.6473 133.415 26.1106C131.879 24.5739 129.862 24.0532 128.91 24.9474C127.958 25.8417 128.432 27.8124 129.968 29.3491C131.504 30.8857 133.521 31.4065 134.473 30.5122Z" fill="#FDB2B2"/>
<path d="M127.256 0L126.281 17.4556H124.319L123.343 0H127.256Z" fill="#FDB2B2"/>
<path d="M101.611 8.73547L113.649 21.745L112.266 23.0905L98.8457 11.4213L101.611 8.73547Z" fill="#FDB2B2"/>
<path d="M89.85 32.4934L107.851 33.4393V35.3411L89.85 36.287V32.4934Z" fill="#FDB2B2"/>
<path d="M98.8561 57.3542L112.281 45.6801L113.664 47.0255L101.627 60.035L98.8561 57.3542Z" fill="#FDB2B2"/>
<path d="M149.009 60.0199L136.967 47.0104L138.355 45.6649L151.775 57.3391L149.009 60.0199Z" fill="#FDB2B2"/>
<path d="M160.77 36.2667L142.769 35.3209V33.419L160.77 32.4731V36.2667Z" fill="#FDB2B2"/>
<path d="M151.764 11.4061L138.339 23.0752L136.956 21.7297L148.994 8.72021L151.764 11.4061Z" fill="#FDB2B2"/>
<path d="M100.301 196.974L100.108 201.855L99.8422 208.608H95.1462L94.6661 203.696L93.9722 196.594L100.301 196.974Z" fill="#FFB681"/>
<path d="M100.301 196.974L100.108 201.855L94.6661 203.696L93.9722 196.594L100.301 196.974Z" fill="#404B7C"/>
<path d="M91.0815 227.282L114.108 227.348C114.108 227.348 115.068 218.476 107.564 217.338C107.339 217.303 107.117 217.247 106.902 217.171C102.842 215.719 100.954 206.969 100.954 206.969C100.954 206.969 96.1271 205.831 93.2573 207.414C93.2573 207.414 91.3111 216.569 90.998 224.419C90.9511 225.466 91.0502 226.306 91.0815 227.282Z" fill="#404B7C"/>
<path d="M104.048 219.073C104.015 219.079 103.982 219.079 103.949 219.073C102.488 218.364 101.252 217.283 100.375 215.947C98.2875 213.003 96.8735 207.561 96.8161 207.348C96.7995 207.281 96.8111 207.21 96.8483 207.152C96.8855 207.093 96.9452 207.051 97.0144 207.035C97.0836 207.018 97.1565 207.03 97.2172 207.066C97.2779 207.102 97.3213 207.16 97.3379 207.227C97.3379 207.282 98.7832 212.791 100.823 215.679C101.643 216.914 102.782 217.92 104.126 218.597C104.175 218.622 104.216 218.66 104.241 218.708C104.266 218.756 104.274 218.81 104.266 218.863C104.257 218.916 104.231 218.964 104.192 219.002C104.153 219.04 104.103 219.065 104.048 219.073Z" fill="#BDBBE3"/>
<path d="M90.8468 227.51H114.259C114.259 227.51 115.172 218.345 107.669 217.206C107.443 217.171 107.221 217.115 107.006 217.04C104.825 217.813 101.94 219.73 100.865 224.455H90.8677C90.8259 225.507 90.8155 226.534 90.8468 227.51Z" fill="#BDBBE3"/>
<path d="M94.8383 219.361C95.7115 219.361 96.4193 218.03 96.4193 216.387C96.4193 214.744 95.7115 213.413 94.8383 213.413C93.9652 213.413 93.2573 214.744 93.2573 216.387C93.2573 218.03 93.9652 219.361 94.8383 219.361Z" fill="#BDBBE3"/>
<path d="M92.8192 194.91C92.8192 194.91 86.7353 150.651 84.8203 138.846C84.8203 138.846 82.2115 101.754 92.1252 101.077C102.039 100.399 106.041 111.026 106.735 118.274C107.429 125.523 103.083 185.714 101.168 195.158L92.8192 194.91Z" fill="#F68D88"/>
<path d="M105.498 117.399C105.464 117.407 105.428 117.407 105.394 117.399C101.303 115.376 100.234 110.136 100.176 109.913C100.172 109.86 100.188 109.807 100.221 109.764C100.255 109.721 100.303 109.692 100.358 109.682C100.412 109.672 100.468 109.682 100.516 109.709C100.563 109.737 100.598 109.781 100.614 109.832C100.614 109.883 101.689 115.062 105.587 117.015C105.621 117.04 105.646 117.074 105.661 117.113C105.675 117.152 105.678 117.194 105.669 117.234C105.659 117.275 105.638 117.312 105.608 117.341C105.578 117.37 105.54 117.39 105.498 117.399Z" fill="#FFB681"/>
<path d="M103.7 157.769C103.708 154.137 101.743 151.189 99.3112 151.183C96.879 151.178 94.9005 154.118 94.892 157.749C94.8835 161.381 96.8482 164.329 99.2804 164.334C101.713 164.34 103.691 161.4 103.7 157.769Z" fill="#FDB2B2"/>
<path d="M95.2558 194.536C95.1997 194.536 95.1456 194.516 95.1041 194.479C95.0626 194.443 95.0366 194.393 95.0314 194.339C92.84 168.466 88.551 132.366 88.5092 132.002C88.5025 131.972 88.5023 131.942 88.5086 131.912C88.5149 131.882 88.5275 131.854 88.5457 131.829C88.5639 131.805 88.5872 131.784 88.6141 131.768C88.6411 131.753 88.6711 131.743 88.7022 131.74C88.7333 131.736 88.7648 131.739 88.7947 131.748C88.8246 131.757 88.8523 131.772 88.8759 131.792C88.8995 131.812 88.9185 131.836 88.9318 131.864C88.945 131.891 88.9521 131.921 88.9527 131.952C88.9945 132.311 93.2835 168.421 95.4749 194.298C95.4793 194.355 95.4604 194.411 95.4223 194.455C95.3843 194.498 95.3301 194.526 95.2714 194.531L95.2558 194.536Z" fill="#FFB681"/>
<path d="M90.2102 194.404C90.2102 194.404 97.8647 192.042 103.688 194.657L102.816 201.319L90.6433 201.405L90.2102 194.404Z" fill="#FDB2B2"/>
<path d="M89.1928 125.806C89.14 125.807 89.0883 125.791 89.0469 125.759C89.0055 125.727 88.977 125.682 88.9664 125.632C88.9558 125.582 88.9638 125.53 88.989 125.485C89.0141 125.44 89.0549 125.405 89.1041 125.386C90.7216 124.734 92.5269 123.828 92.6261 123.499C92.7669 123.024 93.0852 114.577 93.2679 109.013C93.267 108.984 93.2725 108.955 93.2839 108.928C93.2953 108.902 93.3124 108.877 93.334 108.857C93.3556 108.837 93.3813 108.822 93.4095 108.812C93.4376 108.802 93.4676 108.798 93.4974 108.8C93.5269 108.801 93.556 108.807 93.5829 108.819C93.6099 108.831 93.6342 108.847 93.6546 108.868C93.6749 108.888 93.6909 108.913 93.7015 108.939C93.7122 108.966 93.7173 108.994 93.7166 109.023C93.6696 110.449 93.2522 122.978 93.0539 123.621C92.8556 124.263 90.1059 125.447 89.271 125.781C89.2468 125.794 89.2203 125.802 89.1928 125.806Z" fill="#FFB681"/>
<path d="M73.7326 108.143C73.7326 108.143 71.1237 110.864 71.0611 111.431C70.9984 111.997 59.5819 179.149 58.0166 197.692H65.6711C65.6711 197.692 89.8451 130.925 90.3669 128.057C90.8886 125.189 91.4104 108.497 91.2382 103.778C91.066 99.0586 78.8199 99.6908 73.7326 108.143Z" fill="#F68D88"/>
<path d="M90.3877 128.274H90.346C90.3168 128.269 90.2889 128.259 90.2639 128.244C90.2389 128.228 90.2173 128.208 90.2004 128.185C90.1834 128.161 90.1714 128.135 90.165 128.107C90.1587 128.079 90.1581 128.05 90.1633 128.021C90.5599 125.851 90.9825 115.209 91.0556 108.021C91.0532 107.992 91.0574 107.963 91.0679 107.936C91.0783 107.908 91.0948 107.883 91.1161 107.863C91.1374 107.842 91.1631 107.826 91.1914 107.816C91.2197 107.806 91.2499 107.802 91.28 107.804C91.3386 107.805 91.3943 107.829 91.4352 107.869C91.4762 107.91 91.4991 107.965 91.4991 108.021C91.4365 114.466 91.0295 125.725 90.6016 128.092C90.5932 128.142 90.5673 128.187 90.5283 128.22C90.4893 128.253 90.4396 128.273 90.3877 128.274Z" fill="#FFB681"/>
<path d="M71.3846 118.664C71.3251 118.664 71.2681 118.641 71.226 118.6C71.1839 118.559 71.1603 118.504 71.1603 118.446C71.1603 118.389 71.1839 118.333 71.226 118.293C71.2681 118.252 71.3251 118.229 71.3846 118.229C71.5881 118.229 76.4355 117.839 77.4373 111.709C77.441 111.681 77.4508 111.653 77.4658 111.628C77.4809 111.603 77.501 111.582 77.5249 111.565C77.5488 111.548 77.576 111.536 77.6049 111.529C77.6338 111.523 77.6637 111.522 77.6929 111.527C77.7517 111.536 77.8046 111.567 77.8398 111.613C77.875 111.66 77.8898 111.718 77.8808 111.775C76.8372 118.259 71.4681 118.654 71.4107 118.659L71.3846 118.664Z" fill="#FFB681"/>
<path d="M65.5145 193.271H65.4414C65.3857 193.253 65.3396 193.214 65.3132 193.163C65.2869 193.112 65.2823 193.053 65.3006 192.998L87.0848 130.783C87.0925 130.754 87.1063 130.727 87.1254 130.703C87.1445 130.679 87.1685 130.66 87.1958 130.645C87.2231 130.631 87.2532 130.623 87.2841 130.62C87.3151 130.618 87.3462 130.621 87.3755 130.631C87.4048 130.641 87.4318 130.657 87.4545 130.677C87.4773 130.698 87.4955 130.722 87.5079 130.75C87.5203 130.778 87.5267 130.807 87.5266 130.837C87.5265 130.868 87.52 130.897 87.5074 130.925L65.7232 193.14C65.7057 193.179 65.6765 193.213 65.6394 193.236C65.6022 193.26 65.5588 193.272 65.5145 193.271Z" fill="#FFB681"/>
<path d="M73.4746 158.467C74.0877 154.885 72.6397 151.668 70.2404 151.282C67.841 150.896 65.3989 153.487 64.7857 157.07C64.1726 160.652 65.6206 163.87 68.02 164.255C70.4193 164.641 72.8614 162.05 73.4746 158.467Z" fill="#FDB2B2"/>
<path d="M64.8625 196.594L63.2345 203.58L62.0605 208.608H57.3645L58.1367 200.904L58.5333 196.974L64.8625 196.594Z" fill="#FFB681"/>
<path d="M58.5333 196.974L64.8624 196.594L63.2345 203.58L58.1367 200.904L58.5333 196.974Z" fill="#404B7C"/>
<path d="M66.0675 227.196L43.271 227.323C43.271 227.323 42.0918 218.597 49.6002 217.459C49.8565 217.405 50.1078 217.331 50.3515 217.237C54.411 215.785 56.2528 206.964 56.2528 206.964C56.2528 206.964 61.0793 205.826 63.9491 207.409C63.9491 207.409 65.8535 216.513 66.1666 224.384C66.2084 225.436 66.0988 226.22 66.0675 227.196Z" fill="#404B7C"/>
<path d="M53.1538 219.073C53.0846 219.086 53.013 219.071 52.9548 219.033C52.8965 218.994 52.8564 218.935 52.8433 218.868C52.8301 218.801 52.845 218.732 52.8847 218.675C52.9243 218.619 52.9854 218.58 53.0546 218.567C54.4157 217.888 55.5677 216.872 56.394 215.623C58.4289 212.755 59.8638 207.227 59.8795 207.171C59.8961 207.104 59.9395 207.046 60.0002 207.01C60.0608 206.974 60.1338 206.963 60.203 206.979C60.2722 206.995 60.3319 207.037 60.3691 207.096C60.4063 207.155 60.4179 207.225 60.4012 207.292C60.3439 207.525 58.9298 212.968 56.8427 215.891C55.9654 217.228 54.73 218.308 53.2685 219.017C53.2357 219.045 53.1962 219.064 53.1538 219.073Z" fill="#BDBBE3"/>
<path d="M66.3599 227.51H42.9477C42.9477 227.51 42.0346 218.345 49.5378 217.206C49.7636 217.171 49.9854 217.115 50.2004 217.04C52.3815 217.813 55.2669 219.73 56.3418 224.455H66.339C66.3808 225.507 66.3912 226.534 66.3599 227.51Z" fill="#BDBBE3"/>
<path d="M62.3682 219.361C63.2414 219.361 63.9492 218.03 63.9492 216.387C63.9492 214.744 63.2414 213.413 62.3682 213.413C61.4951 213.413 60.7872 214.744 60.7872 216.387C60.7872 218.03 61.4951 219.361 62.3682 219.361Z" fill="#BDBBE3"/>
<path d="M55.9503 193.727L55.079 200.98L66.6468 201.739L68.473 194.996C68.473 194.996 61.9508 192.209 55.9503 193.727Z" fill="#FDB2B2"/>
<path d="M105.039 64.7695C105.039 64.7695 115.824 77.172 120.411 90.3535C120.804 91.4872 120.74 92.7229 120.233 93.8133C118.668 97.1567 115.746 104.117 113.972 105.128C112.198 106.14 105.363 104.031 105.493 100.996C105.624 97.961 107.919 90.5002 107.919 90.5002C107.919 90.5002 101.789 83.6717 97.223 77.4755C92.6574 71.2793 97.6039 59.6456 105.039 64.7695Z" fill="#BDBBE3"/>
<path d="M115.866 91.1324C115.821 91.1335 115.776 91.123 115.736 91.1021C111.535 88.8057 108.739 90.6468 108.707 90.6671C108.679 90.6881 108.647 90.7034 108.613 90.712C108.579 90.7206 108.543 90.7224 108.508 90.7172C108.473 90.712 108.439 90.6999 108.409 90.6818C108.379 90.6636 108.353 90.6397 108.333 90.6115C108.313 90.5834 108.299 90.5515 108.292 90.5179C108.285 90.4842 108.285 90.4496 108.292 90.416C108.299 90.3823 108.313 90.3505 108.334 90.3224C108.354 90.2942 108.38 90.2704 108.41 90.2523C108.535 90.1663 111.509 88.229 115.991 90.662C116.04 90.6899 116.078 90.7324 116.1 90.783C116.121 90.8337 116.125 90.8898 116.111 90.9428C116.097 90.9959 116.065 91.043 116.021 91.0772C115.977 91.1114 115.923 91.1308 115.866 91.1324Z" fill="#404B7C"/>
<path d="M106.182 101.122L104.956 104.537C105.419 105.757 106.355 106.755 107.564 107.319C108.75 107.921 110.102 108.142 111.426 107.951L113.784 103.904C113.784 103.904 111.18 99.4379 106.182 101.122Z" fill="#404B7C"/>
<path d="M110.309 107.106C108.952 109.691 105.613 115.159 104.569 116.625C103.249 115.641 102.2 114.355 101.517 112.882C103.291 109.741 105.493 104.739 105.493 104.739C109.046 103.818 110.309 107.106 110.309 107.106Z" fill="#FFB681"/>
<path d="M87.038 57.1822L82.3107 57.0507L83.2499 47.7943L83.2864 47.4099L86.9701 47.9461L86.9962 51.1985L87.038 57.1822Z" fill="#FFB681"/>
<path d="M86.9961 51.1732C84.6064 50.46 83.6359 48.9678 83.2498 47.7691L83.2863 47.3846L86.97 47.9208L86.9961 51.1732Z" fill="#404B7C"/>
<path d="M72.2979 102.705C72.4961 102.705 72.3657 108.902 72.5587 108.902C72.7518 108.902 76.9312 110.485 81.3664 110.293C85.8015 110.1 99.6286 109.726 103.411 107.197L103.61 100.874C93.6908 104.051 83.2552 104.435 72.2979 102.705Z" fill="#404B7C"/>
<path d="M88.0708 103.722C88.0708 103.722 88.2012 109.989 88.196 110.242C88.1908 110.495 95.8035 110.02 96.101 109.903C96.3984 109.787 96.2105 103.201 96.2105 103.201C96.2105 103.201 93.299 103.555 88.0708 103.722Z" fill="#FDB2B2"/>
<path d="M76.2788 102.893C76.2788 102.893 76.1797 110.166 76.2788 110.323C76.3779 110.48 78.1729 110.642 78.1729 110.642C78.1729 110.642 78.1415 102.958 78.0424 102.928C77.9433 102.898 76.4406 102.67 76.2788 102.893Z" fill="#FDB2B2"/>
<path d="M81.6269 103.242C81.6269 103.242 81.5278 110.515 81.6269 110.672C81.7261 110.829 83.3906 110.672 83.3906 110.672C83.3906 110.672 83.4897 103.307 83.3906 103.277C83.2914 103.247 81.7887 103.019 81.6269 103.242Z" fill="#FDB2B2"/>
<path d="M101.074 101.37C101.074 101.37 101.147 108.628 101.074 108.8C101.001 108.972 99.7432 109.023 99.7432 109.023C99.7432 109.023 99.6701 101.668 99.7432 101.623C99.8162 101.577 100.948 101.173 101.074 101.37Z" fill="#FDB2B2"/>
<path d="M78.5276 53.8286C80.7069 52.9664 83.0622 52.6036 85.4099 52.7685C87.7575 52.9335 90.0342 53.6217 92.0625 54.7796L91.6712 58.8918L79.3781 59.6809L78.5276 53.8286Z" fill="#404B7C"/>
<path d="M105.691 100.237L103.802 101.562C103.802 101.562 90.6901 106.054 72.2348 103.651L68.2537 100.111C68.3204 96.2398 68.127 92.3689 67.6745 88.5224C67.4758 86.8616 67.1462 85.2179 66.6883 83.6059C66.6883 83.5705 66.6883 83.5301 66.6518 83.4845C65.9526 81.0718 65.6083 77.349 65.3995 73.7122C65.2534 70.8038 65.2169 67.9561 65.2169 65.8772C65.2169 63.9399 65.2534 62.6804 65.2534 62.6804C65.4517 62.6804 75.5586 57.1822 85.0184 57.0507C94.4782 56.9192 105.039 64.7694 105.039 64.7694C105.039 64.7694 107.387 84.5568 105.691 100.237Z" fill="#BDBBE3"/>
<path d="M106.307 87.3994C106.238 87.3994 106.172 87.3728 106.123 87.3254C106.074 87.278 106.046 87.2136 106.046 87.1465C106.046 77.9812 105.274 69.5189 104.945 66.3121C104.942 66.2788 104.945 66.2452 104.955 66.2132C104.965 66.1812 104.981 66.1514 105.003 66.1255C105.025 66.0996 105.052 66.0782 105.082 66.0625C105.112 66.0468 105.146 66.0371 105.18 66.0339C105.249 66.0282 105.318 66.0488 105.371 66.0913C105.425 66.1338 105.459 66.1948 105.467 66.2615C105.796 69.4785 106.563 77.9559 106.573 87.1465C106.573 87.2136 106.546 87.278 106.497 87.3254C106.448 87.3728 106.382 87.3994 106.312 87.3994H106.307Z" fill="#404B7C"/>
<path d="M70.2521 75.3662C69.986 79.008 69.3181 85.1385 67.6745 88.5173C67.4758 86.8565 67.1462 85.2128 66.6883 83.6008C66.6883 83.5654 66.6883 83.525 66.6518 83.4794C65.9526 81.0667 65.6083 77.3439 65.3995 73.7071C65.2534 70.7987 65.2169 67.951 65.2169 65.8721C66.4896 66.8083 67.5963 67.9392 68.4937 69.2206C69.7925 71.0116 70.4136 73.1825 70.2521 75.3662Z" fill="#404B7C"/>
<path d="M94.0817 102.64C94.0475 102.638 94.0138 102.631 93.9826 102.617C93.9515 102.603 93.9235 102.583 93.9002 102.559C93.877 102.534 93.8589 102.506 93.8471 102.474C93.8352 102.443 93.8299 102.41 93.8313 102.377C94.9896 77.8093 85.8585 58.4923 85.7698 58.3001C85.7554 58.2699 85.7473 58.2372 85.7459 58.204C85.7446 58.1707 85.75 58.1375 85.7619 58.1063C85.7737 58.075 85.7918 58.0464 85.8151 58.0219C85.8384 57.9975 85.8665 57.9777 85.8976 57.9638C85.9288 57.9498 85.9625 57.942 85.9968 57.9406C86.0311 57.9393 86.0654 57.9446 86.0976 57.9561C86.1298 57.9676 86.1594 57.9851 86.1846 58.0077C86.2098 58.0303 86.2302 58.0575 86.2446 58.0877C86.3385 58.2799 95.5218 77.7132 94.3583 102.402C94.3563 102.435 94.3475 102.468 94.3325 102.498C94.3175 102.528 94.2966 102.554 94.2709 102.577C94.2452 102.599 94.2153 102.616 94.1828 102.626C94.1504 102.637 94.116 102.642 94.0817 102.64Z" fill="#404B7C"/>
<path d="M96.0385 102.64C96.0042 102.638 95.9705 102.63 95.9394 102.617C95.9082 102.603 95.8802 102.583 95.857 102.558C95.8337 102.534 95.8156 102.505 95.8038 102.474C95.792 102.443 95.7866 102.41 95.788 102.377C96.9463 77.8194 88.0083 58.7401 87.9196 58.5529C87.9052 58.5227 87.8971 58.49 87.8957 58.4568C87.8944 58.4235 87.8998 58.3903 87.9116 58.3591C87.9235 58.3278 87.9416 58.2992 87.9649 58.2747C87.9882 58.2503 88.0162 58.2305 88.0474 58.2166C88.0786 58.2026 88.1123 58.1948 88.1466 58.1934C88.1809 58.1921 88.2152 58.1974 88.2474 58.2089C88.2796 58.2204 88.3092 58.2379 88.3344 58.2605C88.3596 58.2831 88.38 58.3103 88.3944 58.3405C88.4831 58.5327 97.4733 77.7131 96.3098 102.402C96.3057 102.468 96.275 102.53 96.2243 102.575C96.1735 102.619 96.1068 102.642 96.0385 102.64Z" fill="#404B7C"/>
<path d="M72.2977 99.5189C72.2634 99.5182 72.2296 99.511 72.1982 99.4977C72.1668 99.4844 72.1384 99.4652 72.1147 99.4412C72.091 99.4173 72.0723 99.389 72.0598 99.3581C72.0474 99.3271 72.0413 99.2941 72.042 99.2609C72.1724 93.616 70.0644 80.3839 70.0436 80.2524C70.0332 80.1853 70.0507 80.117 70.0923 80.0625C70.1339 80.0079 70.1961 79.9716 70.2653 79.9616C70.3345 79.9515 70.405 79.9685 70.4613 80.0088C70.5175 80.0491 70.555 80.1095 70.5653 80.1765C70.5653 80.3081 72.6994 93.5857 72.569 99.271C72.5683 99.3047 72.5607 99.3378 72.5467 99.3686C72.5326 99.3994 72.5123 99.4271 72.4871 99.4502C72.4618 99.4733 72.432 99.4913 72.3995 99.503C72.367 99.5148 72.3323 99.5202 72.2977 99.5189Z" fill="#404B7C"/>
<path d="M65.2537 62.6804L50.2526 77.4148L44.1217 95.1789C44.1217 95.1789 56.1904 93.6008 67.4087 81.9671C69.4304 78.8458 70.4727 75.2222 70.4089 71.5372C70.4128 69.7549 69.9399 68.002 69.0363 66.4497C68.1328 64.8974 66.8295 63.5987 65.2537 62.6804Z" fill="#BDBBE3"/>
<path d="M67.4035 82.2199C67.3555 82.2201 67.3084 82.2075 67.2672 82.1834C67.2261 82.1594 67.1927 82.1248 67.1706 82.0835C67.1484 82.0421 67.1385 81.9957 67.1419 81.9493C67.1452 81.9028 67.1618 81.8582 67.1896 81.8203C69.1705 78.7378 70.1956 75.1684 70.1429 71.5371C70.1429 70.0359 69.7983 68.5536 69.1341 67.1975C68.4699 65.8415 67.5026 64.6457 66.3026 63.697C66.2569 63.6526 66.2299 63.5934 66.2268 63.5308C66.2236 63.4682 66.2445 63.4068 66.2854 63.3583C66.3263 63.3098 66.3844 63.2777 66.4483 63.2684C66.5122 63.259 66.5774 63.2729 66.6313 63.3075C67.8912 64.3033 68.9068 65.5584 69.6044 66.9818C70.302 68.4052 70.6642 69.9612 70.6646 71.5371C70.7122 75.2745 69.6489 78.9462 67.6018 82.1136C67.5791 82.1447 67.5495 82.1703 67.5152 82.1887C67.4809 82.2071 67.4427 82.2177 67.4035 82.2199Z" fill="#404B7C"/>
<path d="M47.2523 62.9332C47.2523 62.9332 43.9912 65.8417 42.6241 68.1836C41.257 70.5255 38.7786 85.1283 39.4934 88.9877C40.2083 92.847 44.1216 95.1788 44.1216 95.1788C44.1216 95.1788 51.4265 92.5233 52.7309 86.0135C54.0354 79.5037 54.4946 71.5978 54.2963 69.701C54.098 67.8042 52.6005 64.9615 52.6005 64.9615L47.2523 62.9332Z" fill="#BDBBE3"/>
<path d="M48.1445 93.1556C48.0906 93.1553 48.0381 93.1389 47.9943 93.1085C47.9504 93.0781 47.9174 93.0353 47.8997 92.9859C47.8819 92.9366 47.8804 92.8831 47.8953 92.8329C47.9102 92.7827 47.9407 92.7382 47.9828 92.7055C50.4508 90.8137 51.9587 88.5527 52.4753 85.9883C53.1279 82.5756 53.5878 79.131 53.8528 75.6697C53.8547 75.6362 53.8636 75.6034 53.879 75.5734C53.8944 75.5433 53.9159 75.5166 53.9423 75.4948C53.9686 75.4731 53.9992 75.4567 54.0323 75.4468C54.0653 75.4369 54.1001 75.4335 54.1345 75.437C54.1688 75.4396 54.2023 75.4487 54.2329 75.4638C54.2636 75.4789 54.2909 75.4998 54.3132 75.5252C54.3355 75.5506 54.3524 75.58 54.3629 75.6117C54.3735 75.6435 54.3774 75.6769 54.3745 75.7101C54.1086 79.1867 53.647 82.6465 52.9918 86.0743C52.4701 88.7601 50.9047 91.1324 48.2958 93.095C48.2534 93.1304 48.2004 93.1517 48.1445 93.1556Z" fill="#404B7C"/>
<path d="M47.732 60.1918L46.1666 64.3648C47.0725 65.2265 48.1582 65.8904 49.3506 66.3118C50.5431 66.7331 51.8147 66.9023 53.0802 66.8079L54.5568 62.6754C54.5568 62.6754 52.5584 59.0993 47.732 60.1918Z" fill="#404B7C"/>
<path d="M57.8496 51.2692L55.2094 57.2732L53.3832 62.7107C50.023 62.8675 48.6194 60.7532 48.6194 60.7532L50.9674 57.0507L50.9048 51.0467C50.9048 51.0467 52.2092 47.5363 52.5014 47.4402C53.3696 47.3704 54.2422 47.3704 55.1103 47.4402L56.013 40.2172C56.0259 40.1124 56.0601 40.0111 56.1136 39.9192C56.1671 39.8273 56.2388 39.7465 56.3247 39.6816C56.4106 39.6167 56.5088 39.569 56.6139 39.5411C56.7189 39.5132 56.8285 39.5058 56.9365 39.5192C57.134 39.5424 57.3162 39.634 57.4495 39.7771C57.5828 39.9203 57.6582 40.1053 57.6618 40.2981L57.8496 51.2692Z" fill="#FFB681"/>
<path d="M55.1415 52.8625C55.0634 52.8686 54.9849 52.8686 54.9067 52.8625C53.9101 52.7057 53.8162 51.1832 53.8058 51.0113C53.8058 50.9442 53.8333 50.8799 53.8822 50.8324C53.9311 50.785 53.9975 50.7584 54.0667 50.7584C54.1359 50.7584 54.2022 50.785 54.2512 50.8324C54.3001 50.8799 54.3276 50.9442 54.3276 51.0113C54.3276 51.3451 54.4945 52.3061 54.9902 52.3871C55.3529 52.3997 55.7101 52.298 56.0082 52.0975C56.3064 51.8969 56.5295 51.6081 56.6443 51.2743C56.7253 50.1976 56.6302 49.1153 56.3625 48.0674C56.2738 47.8449 55.5485 47.6982 55.0789 47.6881C55.0447 47.6868 55.011 47.6789 54.9799 47.665C54.9487 47.6511 54.9207 47.6313 54.8974 47.6069C54.8742 47.5825 54.8561 47.5538 54.8443 47.5226C54.8324 47.4914 54.8271 47.4583 54.8285 47.425C54.837 47.3601 54.8689 47.3001 54.9185 47.2557C54.9681 47.2113 55.0323 47.1853 55.0998 47.1823C55.3502 47.1823 56.613 47.2581 56.8582 47.8904C57.1573 49.0313 57.2596 50.2123 57.1608 51.3856C57.021 51.8027 56.7523 52.1681 56.3911 52.4323C56.0299 52.6965 55.5937 52.8467 55.1415 52.8625Z" fill="#404B7C"/>
<path d="M54.3382 55.599H54.2965C54.2625 55.5935 54.2299 55.5815 54.2008 55.5638C54.1716 55.546 54.1463 55.5228 54.1264 55.4956C54.1065 55.4683 54.0924 55.4375 54.0849 55.4049C54.0773 55.3723 54.0765 55.3385 54.0825 55.3057C54.3038 54.1865 54.2302 53.0313 53.8686 51.9471C53.843 51.8847 53.844 51.815 53.8714 51.7533C53.8988 51.6917 53.9503 51.6431 54.0147 51.6183C54.079 51.5935 54.1509 51.5944 54.2145 51.621C54.2781 51.6476 54.3282 51.6975 54.3539 51.7599C54.7539 52.9305 54.8366 54.1811 54.5939 55.3916C54.5829 55.4497 54.5514 55.5022 54.5047 55.5401C54.458 55.578 54.3991 55.5988 54.3382 55.599Z" fill="#404B7C"/>
<path d="M54.0354 52.1089C53.7053 52.1108 53.3839 52.0058 53.1223 51.8105C53.0697 51.7669 53.0372 51.7048 53.0318 51.6379C53.0264 51.5711 53.0487 51.5049 53.0936 51.4539C53.1386 51.4029 53.2026 51.3713 53.2716 51.3661C53.3406 51.3609 53.4089 51.3825 53.4615 51.4261C53.5648 51.4994 53.6822 51.5519 53.8067 51.5805C53.9313 51.6092 54.0605 51.6134 54.1868 51.593C54.2559 51.5829 54.3264 51.5999 54.3827 51.6402C54.439 51.6806 54.4764 51.7409 54.4868 51.808C54.4972 51.875 54.4796 51.9434 54.438 51.9979C54.3965 52.0524 54.3342 52.0887 54.265 52.0988C54.1889 52.1076 54.1121 52.111 54.0354 52.1089Z" fill="#404B7C"/>
<path d="M55.5123 51.4715C55.444 51.4715 55.3784 51.4456 55.3296 51.3992C55.2808 51.3529 55.2527 51.2899 55.2514 51.2237C55.2798 50.6894 55.1927 50.1554 54.9957 49.6557C54.2433 49.6309 53.4902 49.6767 52.7468 49.7922C52.7126 49.7965 52.6778 49.7943 52.6444 49.7856C52.6111 49.7768 52.5798 49.7618 52.5524 49.7414C52.4971 49.7001 52.461 49.6393 52.452 49.5722C52.443 49.5051 52.4619 49.4373 52.5045 49.3837C52.547 49.3301 52.6098 49.2951 52.679 49.2864C53.1695 49.2257 54.7974 49.0386 55.2044 49.1903C55.6114 49.342 55.7575 50.379 55.7731 51.2136C55.7738 51.2468 55.7678 51.2798 55.7553 51.3107C55.7428 51.3417 55.7242 51.3699 55.7004 51.3939C55.6767 51.4178 55.6483 51.437 55.6169 51.4504C55.5855 51.4637 55.5517 51.4709 55.5175 51.4715H55.5123Z" fill="#404B7C"/>
<path d="M56.2528 50.2778C56.1854 50.2779 56.1206 50.2526 56.072 50.2074C56.0233 50.1621 55.9946 50.1003 55.9919 50.035C55.9659 49.4129 55.7989 48.6491 55.6058 48.553C54.8841 48.4271 54.1467 48.4101 53.4196 48.5024C53.3853 48.5054 53.3508 48.5018 53.318 48.4919C53.2851 48.4819 53.2546 48.4658 53.2282 48.4444C53.1749 48.4013 53.1414 48.3393 53.1352 48.2723C53.129 48.2052 53.1505 48.1385 53.195 48.0868C53.2395 48.0351 53.3034 48.0026 53.3726 47.9966C53.6961 47.9713 55.3502 47.8449 55.8511 48.1028C56.352 48.3608 56.4929 49.6203 56.5085 50.0097C56.5099 50.043 56.5045 50.0761 56.4927 50.1073C56.4809 50.1385 56.4628 50.1672 56.4395 50.1916C56.4163 50.216 56.3883 50.2358 56.3571 50.2497C56.326 50.2636 56.2923 50.2715 56.2581 50.2728L56.2528 50.2778Z" fill="#404B7C"/>
<path d="M55.6998 51.0771C55.7415 51.3666 55.8555 51.6419 56.0319 51.8791C56.2083 52.1162 56.4418 52.308 56.712 52.4377C55.7761 53.0898 55.1073 54.0408 54.8232 55.1236C54.3014 56.9901 54.7606 57.3391 54.7606 57.3391L57.3277 56.4842C57.5993 56.3943 57.8493 56.252 58.0627 56.066C58.2761 55.88 58.4485 55.6541 58.5695 55.4018C59.2531 53.9653 60.6254 51.0619 60.6984 50.637C60.7975 50.0705 60.0775 49.7215 59.2635 49.9744C58.4495 50.2273 55.7624 50.7938 55.6998 51.0771Z" fill="#FFB681"/>
<path d="M57.5521 52.7766C57.4114 52.7854 57.2702 52.7854 57.1295 52.7766C56.6873 52.7581 56.2683 52.5794 55.9553 52.276C55.6423 51.9726 55.4581 51.5665 55.4389 51.1378C55.4299 51.0735 55.4467 51.0083 55.4859 50.9557C55.5433 50.8798 55.9137 50.4954 57.573 50.1768C57.6422 50.164 57.7137 50.1784 57.772 50.2169C57.8302 50.2553 57.8703 50.3145 57.8834 50.3816C57.8966 50.4487 57.8817 50.5181 57.8421 50.5745C57.8024 50.631 57.7413 50.6698 57.6721 50.6826C57.0769 50.7623 56.5009 50.9438 55.9711 51.2187C55.998 51.506 56.1331 51.7737 56.3506 51.9706C56.5681 52.1674 56.8528 52.2797 57.1503 52.286C57.7067 52.3391 58.2683 52.2788 58.7992 52.109C58.8649 52.0875 58.9367 52.0922 58.9989 52.1221C59.061 52.152 59.1083 52.2046 59.1305 52.2683C59.1526 52.332 59.1477 52.4017 59.1169 52.4619C59.0861 52.5221 59.0319 52.568 58.9661 52.5895C58.508 52.7244 58.0307 52.7875 57.5521 52.7766Z" fill="#404B7C"/>
<path d="M79.7747 44.3851C79.7747 44.3851 82.1645 47.4605 83.4272 48.3457C84.6899 49.2308 88.8224 50.1615 90.0381 49.4028C91.2538 48.6441 90.5182 39.3725 90.5182 39.3725C90.5182 39.3725 87.2988 34.8607 82.561 36.8435C77.8233 38.8262 79.7747 44.3851 79.7747 44.3851Z" fill="#FFB681"/>
<path d="M93.5184 40.3842C88.9059 41.5627 83.1663 38.9476 83.1663 38.9476C83.1158 40.1494 82.851 41.3337 82.3836 42.4479L83.3176 44.4711L80.907 46.029C80.907 46.029 72.7777 43.7984 72.7307 42.7868C72.6838 41.7751 74.2961 34.7747 75.1257 34.4813C76.4302 34.2231 77.7518 34.054 79.0808 33.9755C79.7763 31.9659 80.6673 30.025 81.7419 28.1789C83.6359 28.9983 82.7176 31.5122 82.6602 31.669L89.0937 24.5573C94.181 25.3969 93.1792 29.9492 93.1792 29.9492C94.507 28.9601 96.1141 28.3867 97.7865 28.3053C99.691 31.6134 98.1257 39.2006 93.5184 40.3842Z" fill="#404B7C"/>
<path d="M82.0913 45.6546C81.844 45.0225 81.3908 44.4859 80.8003 44.1262C80.2099 43.7666 79.5145 43.6035 78.8197 43.6617C78.3643 43.7048 77.9318 43.8763 77.5758 44.1549C77.2197 44.4336 76.9556 44.8072 76.8161 45.2297C75.6421 48.0977 81.1625 49.4431 82.6444 47.0001L82.0913 45.6546Z" fill="#FFB681"/>
<path d="M81.8198 46.9041C81.778 46.9043 81.7367 46.8948 81.6995 46.8763C81.6622 46.8578 81.6301 46.8309 81.6059 46.7979C80.2284 44.891 78.0108 45.8318 77.9169 45.8723C77.8548 45.895 77.7861 45.894 77.7247 45.8693C77.6634 45.8447 77.614 45.7983 77.5867 45.7396C77.5595 45.6809 77.5563 45.6143 77.5779 45.5535C77.5995 45.4926 77.6442 45.442 77.703 45.412C77.7291 45.412 80.4162 44.2587 82.0337 46.5096C82.0602 46.5475 82.0755 46.5916 82.0781 46.6373C82.0807 46.6829 82.0705 46.7284 82.0485 46.7689C82.0266 46.8094 81.9937 46.8433 81.9534 46.8671C81.9132 46.891 81.867 46.9037 81.8198 46.9041Z" fill="#404B7C"/>
<path d="M79.5345 47.425C79.4721 47.4244 79.412 47.4021 79.3651 47.3622C79.3182 47.3223 79.2876 47.2674 79.2789 47.2075C79.1914 46.5733 79.2448 45.9283 79.4354 45.3158C79.4623 45.2581 79.5105 45.2123 79.5705 45.1874C79.6305 45.1625 79.698 45.1603 79.7596 45.1813C79.8211 45.2022 79.8724 45.2448 79.9032 45.3006C79.934 45.3564 79.9421 45.4214 79.9258 45.4827C79.7631 46.0173 79.7169 46.5788 79.7902 47.1316C79.7954 47.1645 79.7938 47.1981 79.7856 47.2304C79.7774 47.2627 79.7627 47.2931 79.7423 47.3199C79.722 47.3467 79.6964 47.3693 79.667 47.3865C79.6376 47.4036 79.605 47.415 79.571 47.42H79.5345V47.425Z" fill="#404B7C"/>
<path d="M84.0428 42.4124C84.0428 42.4124 84.3194 40.8949 85.5091 41.1023C85.5091 41.1023 85.436 40.4245 85.7021 40.3436C85.9682 40.2627 86.2604 41.4412 86.2604 41.4412C85.4617 41.6179 84.7076 41.9481 84.0428 42.4124Z" fill="#404B7C"/>
<path d="M89.8034 41.2339C89.8034 41.2339 89.4069 39.9036 88.7964 40.5056C88.7964 40.5056 88.7233 39.8379 88.5668 39.8581C88.212 39.9087 88.4468 41.0771 88.4468 41.0771C88.9038 40.9701 89.3852 41.0258 89.8034 41.2339Z" fill="#404B7C"/>
<path d="M89.2345 46.717C88.968 47.0681 88.6558 47.3843 88.3057 47.6578C87.7265 48.0928 87.0013 48.3204 86.5421 47.3695C86.3763 47.0129 86.2655 46.6345 86.2134 46.2466C86.2134 46.2466 87.116 46.8485 89.2345 46.717Z" fill="#404B7C"/>
<path d="M88.3107 47.6325C87.7316 48.0675 87.0063 48.2951 86.5471 47.3441C86.8444 47.2596 87.1576 47.2416 87.4632 47.2915C87.7687 47.3415 88.0585 47.458 88.3107 47.6325Z" fill="white"/>
<path d="M86.0159 44.2559C86.3428 44.2028 86.5529 43.8426 86.4852 43.4514C86.4175 43.0602 86.0977 42.7861 85.7709 42.8392C85.444 42.8924 85.2339 43.2526 85.3016 43.6438C85.3693 44.035 85.6891 44.3091 86.0159 44.2559Z" fill="#404B7C"/>
<path d="M86.0085 43.4281C86.094 43.4142 86.1517 43.3361 86.1374 43.2536C86.1231 43.1711 86.0423 43.1155 85.9569 43.1294C85.8714 43.1433 85.8137 43.2214 85.828 43.3039C85.8422 43.3864 85.9231 43.442 86.0085 43.4281Z" fill="white"/>
<path d="M89.4884 43.6964C89.8152 43.6432 90.0253 43.283 89.9576 42.8918C89.8899 42.5006 89.5701 42.2265 89.2433 42.2796C88.9164 42.3328 88.7064 42.693 88.774 43.0842C88.8417 43.4754 89.1615 43.7495 89.4884 43.6964Z" fill="#404B7C"/>
<path d="M89.4851 42.8635C89.5705 42.8496 89.6282 42.7715 89.614 42.689C89.5997 42.6065 89.5189 42.5509 89.4334 42.5648C89.348 42.5787 89.2903 42.6568 89.3045 42.7393C89.3188 42.8218 89.3996 42.8774 89.4851 42.8635Z" fill="white"/>
<path d="M88.0762 45.685H87.951C87.9167 45.6825 87.8832 45.6734 87.8526 45.6582C87.8219 45.6431 87.7946 45.6223 87.7723 45.5969C87.75 45.5715 87.7331 45.5421 87.7226 45.5103C87.7121 45.4786 87.7081 45.4451 87.7109 45.4119C87.7176 45.3452 87.7507 45.2837 87.8033 45.2403C87.8558 45.1969 87.9238 45.175 87.9927 45.1792C87.9927 45.1792 88.5928 45.2146 88.6762 44.8504C88.6862 44.8243 88.6862 44.7956 88.6762 44.7695C88.4915 44.6884 88.2848 44.6672 88.0866 44.7088C88.0189 44.7191 87.9497 44.7031 87.894 44.6642C87.8384 44.6254 87.8007 44.5669 87.7892 44.5014L87.5388 43.1206C87.5328 43.0877 87.5336 43.0539 87.5411 43.0213C87.5486 42.9888 87.5627 42.9579 87.5826 42.9307C87.6025 42.9034 87.6278 42.8802 87.657 42.8624C87.6862 42.8447 87.7187 42.8327 87.7527 42.8272C87.821 42.8168 87.8909 42.8327 87.9474 42.8714C88.0039 42.9101 88.0426 42.9687 88.0553 43.0346L88.264 44.1878C88.4055 44.1738 88.5485 44.1872 88.6846 44.2271C88.8208 44.267 88.9474 44.3328 89.0571 44.4205C89.125 44.4912 89.1731 44.5776 89.1969 44.6715C89.2206 44.7653 89.2192 44.8635 89.1928 44.9567C89.12 45.1832 88.9697 45.3788 88.7666 45.5112C88.5636 45.6437 88.32 45.705 88.0762 45.685Z" fill="#404B7C"/>
</svg>
