<svg width="400" height="581" viewBox="0 0 400 581" fill="none" xmlns="http://www.w3.org/2000/svg">
<path d="M62.0926 528.144C62.0926 528.144 60.7036 460.727 118.72 427.617C118.72 427.617 119.525 491.316 62.0926 528.144Z" fill="#000105"/>
<path d="M66.4415 521.764C66.3287 521.765 66.2177 521.736 66.1196 521.681C66.0214 521.625 65.9395 521.546 65.8818 521.45C65.8242 521.354 65.7928 521.244 65.7908 521.133C65.7887 521.021 65.8161 520.91 65.8703 520.812L112.852 435.811C112.935 435.661 113.074 435.55 113.24 435.501C113.405 435.453 113.583 435.472 113.735 435.554C113.886 435.636 113.999 435.774 114.047 435.938C114.096 436.102 114.077 436.278 113.994 436.429L67.0127 521.43C66.9567 521.531 66.874 521.616 66.7735 521.675C66.673 521.734 66.5583 521.765 66.4415 521.764Z" fill="#505050"/>
<path d="M56.2769 517.005C56.2769 517.005 41.9967 451.08 92.6263 407.666C92.6263 407.666 105.608 470.053 56.2769 517.005Z" fill="#505050"/>
<path d="M59.1458 509.93H58.9511C58.7876 509.877 58.652 509.762 58.5742 509.61C58.4963 509.458 58.4824 509.282 58.5357 509.119L88.3942 416.825C88.4197 416.74 88.4618 416.662 88.5181 416.593C88.5743 416.525 88.6436 416.468 88.722 416.427C88.8003 416.385 88.8862 416.359 88.9748 416.35C89.0633 416.341 89.1527 416.349 89.238 416.375C89.3232 416.4 89.4026 416.442 89.4716 416.497C89.5405 416.553 89.5977 416.622 89.6399 416.699C89.6821 416.777 89.7085 416.862 89.7175 416.95C89.7265 417.038 89.7179 417.126 89.6923 417.211L59.8339 509.505C59.7848 509.643 59.69 509.76 59.5649 509.837C59.4399 509.914 59.2921 509.947 59.1458 509.93Z" fill="#000105"/>
<path d="M57.3413 531.669C57.3413 531.669 51.3955 475.868 0 454.489C0 454.54 6.04959 507.216 57.3413 531.669Z" fill="#000105"/>
<path d="M53.0183 526.961C52.9142 526.962 52.8116 526.937 52.7189 526.89C52.6263 526.843 52.5464 526.775 52.4861 526.691L4.73846 461.384C4.68817 461.315 4.65197 461.238 4.63193 461.155C4.61188 461.073 4.60839 460.988 4.62166 460.904C4.63492 460.82 4.66467 460.74 4.70921 460.668C4.75375 460.596 4.81222 460.533 4.88126 460.483C4.95031 460.433 5.02858 460.397 5.11162 460.378C5.19465 460.358 5.28083 460.354 5.36521 460.367C5.4496 460.38 5.53054 460.41 5.60342 460.454C5.67631 460.498 5.73971 460.556 5.79 460.625L53.5376 525.945C53.6063 526.04 53.6473 526.153 53.6562 526.27C53.665 526.387 53.6415 526.504 53.588 526.608C53.5345 526.713 53.4532 526.801 53.3528 526.863C53.2523 526.926 53.1367 526.959 53.0183 526.961Z" fill="#505050"/>
<path d="M54.3552 520.04C54.3552 520.04 100.389 451.093 62.1444 379.122C62.1574 379.122 19.2001 444.597 54.3552 520.04Z" fill="#000105"/>
<path d="M54.4985 510.586C54.4132 510.581 54.3297 510.559 54.2528 510.522C54.176 510.485 54.1072 510.434 54.0505 510.37C53.9938 510.307 53.9503 510.233 53.9225 510.153C53.8947 510.073 53.8831 509.989 53.8883 509.904L61.3919 391.265C61.397 391.181 61.4189 391.098 61.4562 391.022C61.4936 390.946 61.5457 390.878 61.6095 390.822C61.6734 390.766 61.7479 390.722 61.8286 390.695C61.9093 390.667 61.9947 390.656 62.0799 390.661C62.1652 390.666 62.2486 390.687 62.3254 390.724C62.4022 390.761 62.4709 390.813 62.5275 390.876C62.5842 390.94 62.6277 391.013 62.6556 391.093C62.6835 391.173 62.6952 391.258 62.6901 391.342L55.1476 509.93C55.1493 510.015 55.1338 510.1 55.1019 510.18C55.0701 510.259 55.0225 510.332 54.9621 510.393C54.9017 510.454 54.8295 510.503 54.7499 510.536C54.6703 510.569 54.5848 510.586 54.4985 510.586Z" fill="#505050"/>
<path d="M52.3826 517.648C52.3826 517.648 66.6627 451.723 16.0331 408.309C16.0331 408.309 3.05118 470.696 52.3826 517.648Z" fill="#505050"/>
<path d="M49.4608 510.573C49.322 510.574 49.1866 510.531 49.0744 510.45C48.9622 510.369 48.8793 510.254 48.8376 510.123L18.9791 417.828C18.9536 417.744 18.945 417.655 18.954 417.567C18.963 417.48 18.9894 417.395 19.0316 417.317C19.0738 417.239 19.131 417.171 19.1999 417.115C19.2689 417.059 19.3483 417.017 19.4335 416.992C19.5188 416.967 19.6082 416.958 19.6967 416.967C19.7853 416.976 19.8712 417.002 19.9495 417.044C20.0279 417.086 20.0972 417.143 20.1534 417.211C20.2097 417.279 20.2518 417.358 20.2773 417.442L50.1358 509.737C50.1891 509.899 50.1752 510.075 50.0973 510.227C50.0194 510.379 49.8839 510.494 49.7204 510.547L49.4608 510.573Z" fill="#000105"/>
<path d="M98.7409 513.043L90.6272 581H18.5773L10.4636 513.043C39.6368 507.64 69.5677 507.64 98.7409 513.043Z" fill="#FFB11A"/>
<path d="M76.8918 545.844C63.8059 547.234 60.9889 549.279 57.7434 563.634C56.0817 570.967 49.4739 576.922 43.3594 581H57.4967C62.7865 576.44 66.1893 570.105 67.0514 563.21C68.8949 549.922 78.3068 550.99 88.4716 552.173C90.3231 552.401 92.1919 552.457 94.0539 552.34L95.4949 540.275C91.808 543.722 85.6675 544.905 76.8918 545.844Z" fill="#FFB11A"/>
<path d="M46.9164 547.774C46.488 533.302 47.89 527.514 67.2591 527.089C79.8126 526.806 84.9405 517.622 87.0176 511.19C83.374 510.701 79.7304 510.273 76.0868 509.904C74.6588 515.126 69.9204 521.764 54.9392 521.236C30.4942 520.375 45.0989 542.783 32.9737 549.96C25.7817 554.218 18.9662 551.041 14.6302 547.761L15.9284 558.9C28.8585 567.429 47.3188 561.061 46.9164 547.774Z" fill="#FFB11A"/>
<path d="M26.7947 530.614C21.7577 531.9 19.1094 542.294 27.0154 542.294C34.9214 542.294 35.233 528.479 26.7947 530.614Z" fill="#FFB11A"/>
<path d="M325.341 156.239L318.239 172.164H305.374L299.221 158.335L311.813 156.882L325.341 156.239Z" fill="#000105"/>
<path d="M345.125 86.725C345.231 91.1929 344.417 95.6355 342.735 99.7819C341.052 103.928 338.535 107.692 335.337 110.844C331.768 114.463 329.516 119.156 328.937 124.183L326.431 143.89H297.105L294.599 124.17C293.991 119.088 291.71 114.345 288.108 110.677C284.262 106.843 281.423 102.134 279.84 96.9615C278.257 91.7888 277.978 86.3103 279.028 81.006C280.078 75.7017 282.424 70.7333 285.862 66.5362C289.299 62.339 293.723 59.041 298.745 56.9312C303.768 54.8214 309.236 53.964 314.67 54.4342C320.105 54.9044 325.34 56.6879 329.917 59.6283C334.495 62.5688 338.275 66.5765 340.926 71.3005C343.577 76.0245 345.019 81.3206 345.125 86.725Z" fill="#FFB11A"/>
<path d="M311.775 109.364C310.915 109.364 310.074 109.111 309.359 108.638C308.643 108.164 308.086 107.491 307.757 106.704C307.428 105.917 307.342 105.05 307.509 104.214C307.677 103.378 308.091 102.611 308.7 102.008C309.308 101.405 310.083 100.995 310.926 100.829C311.77 100.662 312.644 100.748 313.439 101.074C314.234 101.4 314.913 101.952 315.391 102.661C315.869 103.37 316.124 104.203 316.124 105.055C316.124 105.621 316.011 106.181 315.793 106.704C315.574 107.227 315.254 107.702 314.85 108.102C314.446 108.502 313.967 108.82 313.439 109.036C312.911 109.253 312.346 109.364 311.775 109.364ZM311.775 101.865C311.135 101.865 310.51 102.053 309.979 102.405C309.447 102.757 309.033 103.257 308.788 103.842C308.544 104.427 308.48 105.071 308.604 105.693C308.729 106.314 309.037 106.885 309.489 107.333C309.941 107.781 310.517 108.086 311.144 108.209C311.771 108.333 312.421 108.269 313.012 108.027C313.602 107.785 314.107 107.374 314.462 106.847C314.818 106.321 315.007 105.701 315.007 105.068C315.011 104.645 314.93 104.226 314.769 103.834C314.608 103.443 314.37 103.086 314.07 102.786C313.769 102.486 313.412 102.248 313.018 102.085C312.624 101.923 312.201 101.839 311.775 101.839V101.865Z" fill="#FFB11A"/>
<path d="M311.774 143.272C311.626 143.272 311.484 143.214 311.38 143.11C311.275 143.007 311.216 142.866 311.216 142.719V108.811C311.216 108.665 311.275 108.524 311.38 108.42C311.484 108.317 311.626 108.258 311.774 108.258C311.922 108.258 312.064 108.317 312.169 108.42C312.274 108.524 312.333 108.665 312.333 108.811V142.732C312.329 142.877 312.269 143.014 312.165 143.115C312.06 143.216 311.92 143.272 311.774 143.272Z" fill="#FFB11A"/>
<path d="M311.774 98.752C311.626 98.752 311.484 98.6938 311.38 98.59C311.275 98.4863 311.216 98.3456 311.216 98.1989V92.6162C311.216 92.4695 311.275 92.3288 311.38 92.2251C311.484 92.1214 311.626 92.0631 311.774 92.0631C311.922 92.0631 312.064 92.1214 312.169 92.2251C312.274 92.3288 312.333 92.4695 312.333 92.6162V98.186C312.334 98.2598 312.321 98.3331 312.294 98.4017C312.267 98.4703 312.226 98.5328 312.174 98.5855C312.122 98.6382 312.06 98.6801 311.991 98.7087C311.922 98.7373 311.849 98.752 311.774 98.752Z" fill="#FFB11A"/>
<path d="M316.668 100.759C316.56 100.757 316.454 100.723 316.364 100.662C316.274 100.601 316.204 100.516 316.163 100.416C316.121 100.316 316.11 100.206 316.131 100.101C316.151 99.9946 316.203 99.897 316.279 99.8197L320.252 95.8835C320.303 95.832 320.365 95.7911 320.433 95.7632C320.501 95.7353 320.574 95.721 320.647 95.721C320.721 95.721 320.794 95.7353 320.862 95.7632C320.93 95.7911 320.991 95.832 321.043 95.8835C321.095 95.935 321.137 95.9962 321.165 96.0635C321.193 96.1308 321.207 96.203 321.207 96.2758C321.207 96.3487 321.193 96.4208 321.165 96.4881C321.137 96.5555 321.095 96.6166 321.043 96.6682L317.058 100.553C317.011 100.612 316.952 100.66 316.885 100.696C316.818 100.731 316.744 100.752 316.668 100.759Z" fill="#FFB11A"/>
<path d="M324.328 105.606H318.707C318.559 105.606 318.417 105.547 318.312 105.444C318.208 105.34 318.149 105.2 318.149 105.054C318.149 104.907 318.208 104.767 318.312 104.663C318.417 104.56 318.559 104.502 318.707 104.502H324.328C324.476 104.502 324.618 104.56 324.723 104.663C324.828 104.767 324.886 104.907 324.886 105.054C324.886 105.2 324.828 105.34 324.723 105.444C324.618 105.547 324.476 105.606 324.328 105.606Z" fill="#FFB11A"/>
<path d="M320.654 114.394C320.507 114.391 320.367 114.331 320.265 114.227L316.292 110.29C316.187 110.186 316.128 110.045 316.128 109.898C316.128 109.751 316.187 109.61 316.292 109.506C316.397 109.402 316.54 109.343 316.688 109.343C316.837 109.343 316.979 109.402 317.084 109.506L321.057 113.442C321.138 113.519 321.194 113.619 321.217 113.729C321.24 113.838 321.229 113.952 321.185 114.055C321.141 114.158 321.067 114.245 320.973 114.306C320.878 114.366 320.767 114.397 320.654 114.394Z" fill="#FFB11A"/>
<path d="M302.895 114.394C302.786 114.392 302.68 114.358 302.59 114.297C302.5 114.236 302.43 114.151 302.389 114.051C302.348 113.951 302.337 113.842 302.357 113.736C302.378 113.63 302.43 113.532 302.506 113.455L306.478 109.519C306.53 109.467 306.592 109.426 306.66 109.398C306.728 109.37 306.8 109.356 306.874 109.356C306.948 109.356 307.02 109.37 307.088 109.398C307.156 109.426 307.218 109.467 307.27 109.519C307.322 109.57 307.363 109.631 307.391 109.699C307.419 109.766 307.434 109.838 307.434 109.911C307.434 109.984 307.419 110.056 307.391 110.123C307.363 110.191 307.322 110.252 307.27 110.303L303.297 114.239C303.244 114.29 303.181 114.33 303.112 114.357C303.043 114.383 302.969 114.396 302.895 114.394Z" fill="#FFB11A"/>
<path d="M304.855 105.606H299.234C299.086 105.606 298.944 105.548 298.84 105.444C298.735 105.341 298.676 105.2 298.676 105.054C298.676 104.907 298.735 104.767 298.84 104.664C298.944 104.56 299.086 104.502 299.234 104.502H304.855C305.003 104.502 305.145 104.56 305.25 104.664C305.355 104.767 305.414 104.907 305.414 105.054C305.414 105.2 305.355 105.341 305.25 105.444C305.145 105.548 305.003 105.606 304.855 105.606Z" fill="#FFB11A"/>
<path d="M306.88 100.759C306.733 100.756 306.593 100.696 306.491 100.592L302.505 96.6939C302.453 96.6424 302.412 96.5812 302.384 96.5139C302.356 96.4466 302.341 96.3744 302.341 96.3016C302.341 96.2287 302.356 96.1566 302.384 96.0893C302.412 96.0219 302.453 95.9608 302.505 95.9092C302.557 95.8577 302.619 95.8169 302.687 95.789C302.755 95.7611 302.828 95.7467 302.901 95.7467C302.975 95.7467 303.047 95.7611 303.115 95.789C303.183 95.8169 303.245 95.8577 303.297 95.9092L307.27 99.8454C307.338 99.9235 307.382 100.019 307.398 100.121C307.414 100.223 307.401 100.327 307.361 100.422C307.32 100.517 307.254 100.599 307.169 100.658C307.084 100.718 306.984 100.753 306.88 100.759Z" fill="#FFB11A"/>
<path d="M328.08 151.183C327.672 151.6 327.148 151.887 326.574 152.006C327.201 152.033 327.792 152.3 328.224 152.752C328.655 153.203 328.892 153.803 328.885 154.425C328.876 155.134 328.598 155.814 328.106 156.328C327.603 156.848 326.923 157.165 326.197 157.216L297.481 159.236C297.142 159.27 296.799 159.233 296.475 159.128C296.15 159.022 295.852 158.851 295.599 158.624C295.345 158.397 295.143 158.121 295.004 157.812C294.866 157.503 294.794 157.168 294.794 156.83C294.798 156.118 295.082 155.435 295.586 154.926C295.994 154.5 296.524 154.208 297.105 154.09C296.479 154.06 295.89 153.792 295.459 153.341C295.028 152.891 294.79 152.293 294.794 151.672C294.807 151.017 295.048 150.386 295.476 149.887C295.905 149.388 296.494 149.051 297.144 148.932C296.511 148.912 295.912 148.648 295.473 148.196C295.034 147.744 294.79 147.141 294.794 146.514C294.8 145.805 295.084 145.127 295.586 144.623C296.079 144.095 296.757 143.773 297.481 143.722L326.172 141.716C326.512 141.681 326.856 141.719 327.181 141.825C327.507 141.931 327.806 142.103 328.059 142.331C328.312 142.56 328.515 142.838 328.652 143.148C328.79 143.459 328.861 143.795 328.859 144.134C328.853 144.84 328.575 145.517 328.08 146.025C327.679 146.453 327.152 146.745 326.574 146.861C327.208 146.878 327.809 147.141 328.249 147.593C328.688 148.046 328.931 148.651 328.924 149.279C328.904 149.999 328.601 150.682 328.08 151.183Z" fill="#505050"/>
<path d="M298.156 149.434C297.984 149.434 297.819 149.366 297.697 149.246C297.576 149.125 297.507 148.961 297.507 148.791C297.507 148.62 297.576 148.457 297.697 148.336C297.819 148.215 297.984 148.148 298.156 148.148L325.276 146.218C325.447 146.207 325.616 146.263 325.747 146.373C325.878 146.484 325.96 146.64 325.977 146.81C325.984 146.894 325.974 146.979 325.948 147.06C325.922 147.141 325.88 147.216 325.824 147.28C325.768 147.345 325.701 147.398 325.624 147.436C325.548 147.475 325.465 147.498 325.38 147.504L298.208 149.434H298.156Z" fill="#000105"/>
<path d="M298.156 154.579C297.984 154.579 297.819 154.512 297.697 154.391C297.576 154.27 297.507 154.107 297.507 153.936C297.507 153.766 297.576 153.602 297.697 153.481C297.819 153.361 297.984 153.293 298.156 153.293L324.938 151.312C325.11 151.3 325.28 151.356 325.41 151.469C325.541 151.581 325.621 151.74 325.633 151.91C325.645 152.081 325.588 152.249 325.475 152.378C325.362 152.507 325.201 152.586 325.029 152.598L298.208 154.579H298.156Z" fill="#000105"/>
<path d="M334.571 77.5959C336.94 75.3217 335.761 70.31 331.939 66.4021C328.117 62.4942 323.099 61.1698 320.731 63.444C318.362 65.7182 319.54 70.7298 323.362 74.6377C327.184 78.5457 332.203 79.8701 334.571 77.5959Z" fill="#FFB11A"/>
<path d="M316.616 0L314.189 44.3915H309.308L306.88 0H316.616Z" fill="#FFB11A"/>
<path d="M252.81 22.2152L282.76 55.2998L279.32 58.7215L245.93 29.0457L252.81 22.2152Z" fill="#FFB11A"/>
<path d="M223.548 82.6342L268.336 85.0396V89.8762L223.548 92.2817V82.6342Z" fill="#FFB11A"/>
<path d="M245.956 145.858L279.358 116.169L282.798 119.591L252.849 152.675L245.956 145.858Z" fill="#FFB11A"/>
<path d="M370.739 152.637L340.776 119.552L344.229 116.131L377.619 145.819L370.739 152.637Z" fill="#FFB11A"/>
<path d="M400 92.2302L355.212 89.8247V84.9881L400 82.5826V92.2302Z" fill="#FFB11A"/>
<path d="M377.593 29.0068L344.19 58.6826L340.75 55.261L370.7 22.1764L377.593 29.0068Z" fill="#FFB11A"/>
<path d="M249.552 500.925L249.071 513.338L248.409 530.511H236.726L235.531 518.021L233.805 499.961L249.552 500.925Z" fill="#B89392"/>
<path d="M249.552 500.925L249.071 513.338L235.531 518.021L233.805 499.961L249.552 500.925Z" fill="#000105"/>
<path d="M226.613 578.003L283.902 578.17C283.902 578.17 286.291 555.608 267.623 552.713C267.061 552.623 266.509 552.481 265.974 552.289C255.874 548.597 251.175 526.343 251.175 526.343C251.175 526.343 239.166 523.449 232.026 527.475C232.026 527.475 227.184 550.758 226.405 570.722C226.288 573.385 226.535 575.52 226.613 578.003Z" fill="#000105"/>
<path d="M258.873 557.125C258.792 557.141 258.708 557.141 258.626 557.125C254.991 555.322 251.917 552.574 249.734 549.176C244.541 541.689 241.023 527.848 240.88 527.308C240.839 527.138 240.868 526.958 240.96 526.808C241.053 526.659 241.201 526.552 241.373 526.511C241.546 526.47 241.727 526.498 241.878 526.59C242.029 526.682 242.137 526.829 242.178 526.999C242.178 527.141 245.774 541.149 250.85 548.494C252.89 551.636 255.723 554.194 259.068 555.916C259.19 555.978 259.29 556.076 259.352 556.198C259.415 556.319 259.437 556.457 259.415 556.591C259.393 556.726 259.329 556.85 259.232 556.946C259.135 557.042 259.009 557.105 258.873 557.125Z" fill="#505050"/>
<path d="M226.029 578.582H284.279C284.279 578.582 286.551 555.273 267.883 552.379C267.321 552.289 266.769 552.147 266.234 551.954C260.807 553.923 253.628 558.798 250.954 570.812H226.081C225.977 573.488 225.951 576.099 226.029 578.582Z" fill="#505050"/>
<path d="M235.96 557.859C238.132 557.859 239.893 554.472 239.893 550.295C239.893 546.118 238.132 542.731 235.96 542.731C233.787 542.731 232.026 546.118 232.026 550.295C232.026 554.472 233.787 557.859 235.96 557.859Z" fill="#505050"/>
<path d="M230.936 495.677C230.936 495.677 215.799 383.122 211.034 353.099C211.034 353.099 204.543 258.772 229.209 257.049C253.875 255.325 263.832 282.351 265.559 300.784C267.285 319.217 256.471 472.291 251.707 496.307L230.936 495.677Z" fill="#FFB11A"/>
<path d="M262.482 298.559C262.397 298.579 262.308 298.579 262.223 298.559C252.045 293.414 249.384 280.087 249.241 279.521C249.23 279.385 249.27 279.25 249.353 279.141C249.436 279.033 249.557 278.958 249.693 278.933C249.828 278.907 249.968 278.932 250.086 279.003C250.204 279.073 250.291 279.185 250.331 279.315C250.331 279.444 253.006 292.616 262.703 297.581C262.787 297.646 262.851 297.732 262.887 297.831C262.923 297.93 262.929 298.037 262.906 298.14C262.883 298.242 262.831 298.336 262.756 298.41C262.681 298.485 262.586 298.536 262.482 298.559Z" fill="#B89392"/>
<path d="M258.007 401.222C258.028 391.987 253.14 384.489 247.089 384.475C241.037 384.461 236.115 391.937 236.094 401.173C236.072 410.408 240.961 417.906 247.012 417.92C253.063 417.933 257.986 410.457 258.007 401.222Z" fill="#FFB11A"/>
<path d="M236.998 494.725C236.859 494.726 236.724 494.675 236.621 494.582C236.517 494.489 236.453 494.361 236.44 494.224C230.987 428.427 220.316 336.621 220.212 335.695C220.196 335.62 220.195 335.542 220.211 335.466C220.226 335.391 220.258 335.319 220.303 335.256C220.348 335.193 220.406 335.14 220.473 335.101C220.54 335.062 220.615 335.037 220.692 335.028C220.77 335.019 220.848 335.026 220.923 335.049C220.997 335.072 221.066 335.11 221.125 335.16C221.183 335.211 221.231 335.274 221.264 335.343C221.297 335.413 221.314 335.49 221.316 335.567C221.42 336.48 232.091 428.312 237.543 494.121C237.554 494.265 237.507 494.408 237.412 494.519C237.318 494.63 237.183 494.699 237.037 494.712L236.998 494.725Z" fill="#B89392"/>
<path d="M224.445 494.391C224.445 494.391 243.489 488.384 257.977 495.034L255.809 511.975L225.522 512.194L224.445 494.391Z" fill="#FFB11A"/>
<path d="M221.914 319.938C221.782 319.942 221.654 319.899 221.551 319.819C221.448 319.738 221.377 319.623 221.35 319.496C221.324 319.368 221.344 319.236 221.407 319.121C221.469 319.007 221.571 318.918 221.693 318.87C225.717 317.211 230.209 314.908 230.456 314.072C230.806 312.863 231.598 291.381 232.053 277.231C232.051 277.158 232.064 277.084 232.093 277.016C232.121 276.948 232.163 276.887 232.217 276.836C232.271 276.785 232.335 276.746 232.405 276.721C232.475 276.696 232.55 276.686 232.624 276.691C232.697 276.693 232.769 276.709 232.837 276.738C232.904 276.767 232.964 276.81 233.015 276.862C233.065 276.915 233.105 276.977 233.132 277.044C233.158 277.112 233.171 277.184 233.169 277.257C233.052 280.885 232.014 312.747 231.52 314.381C231.027 316.014 224.186 319.024 222.109 319.873C222.048 319.907 221.982 319.929 221.914 319.938Z" fill="#B89392"/>
<path d="M183.448 275.019C183.448 275.019 176.957 281.939 176.801 283.38C176.646 284.821 148.241 455.595 144.346 502.752H163.391C163.391 502.752 223.536 332.956 224.835 325.662C226.133 318.369 227.431 275.919 227.002 263.918C226.574 251.916 196.105 253.524 183.448 275.019Z" fill="#FFB11A"/>
<path d="M224.886 326.215H224.782C224.71 326.202 224.64 326.176 224.578 326.137C224.516 326.098 224.462 326.047 224.42 325.987C224.378 325.927 224.348 325.86 224.332 325.788C224.316 325.717 224.315 325.644 224.328 325.572C225.315 320.053 226.366 292.989 226.548 274.71C226.542 274.636 226.552 274.561 226.578 274.492C226.604 274.422 226.645 274.359 226.698 274.306C226.751 274.253 226.815 274.213 226.886 274.187C226.956 274.161 227.031 274.151 227.106 274.157C227.252 274.16 227.391 274.22 227.492 274.323C227.594 274.427 227.651 274.565 227.651 274.71C227.496 291.098 226.483 319.732 225.418 325.752C225.397 325.878 225.333 325.993 225.236 326.078C225.139 326.162 225.015 326.211 224.886 326.215Z" fill="#B89392"/>
<path d="M177.606 301.775C177.458 301.775 177.316 301.717 177.211 301.613C177.107 301.509 177.048 301.369 177.048 301.222C177.048 301.075 177.107 300.934 177.211 300.831C177.316 300.727 177.458 300.669 177.606 300.669C178.112 300.669 190.173 299.678 192.665 284.088C192.675 284.015 192.699 283.945 192.736 283.882C192.774 283.819 192.824 283.765 192.883 283.721C192.943 283.678 193.01 283.647 193.082 283.631C193.154 283.614 193.229 283.612 193.301 283.625C193.448 283.647 193.579 283.726 193.667 283.844C193.754 283.962 193.791 284.11 193.769 284.255C191.172 300.746 177.814 301.749 177.671 301.762L177.606 301.775Z" fill="#B89392"/>
<path d="M163.002 491.509H162.82C162.681 491.462 162.566 491.363 162.501 491.233C162.435 491.103 162.424 490.953 162.469 490.815L216.669 332.595C216.688 332.521 216.722 332.452 216.77 332.391C216.817 332.331 216.877 332.281 216.945 332.245C217.013 332.209 217.088 332.187 217.165 332.181C217.242 332.174 217.319 332.184 217.392 332.209C217.465 332.234 217.532 332.274 217.589 332.326C217.646 332.378 217.691 332.441 217.722 332.511C217.752 332.581 217.768 332.657 217.768 332.733C217.768 332.81 217.752 332.886 217.72 332.955L163.521 491.175C163.477 491.275 163.405 491.361 163.312 491.42C163.22 491.48 163.112 491.511 163.002 491.509Z" fill="#B89392"/>
<path d="M182.806 402.999C184.331 393.888 180.729 385.707 174.759 384.725C168.789 383.744 162.713 390.334 161.188 399.445C159.662 408.556 163.265 416.738 169.235 417.719C175.204 418.7 181.28 412.11 182.806 402.999Z" fill="#FFB11A"/>
<path d="M161.379 499.961L157.328 517.725L154.407 530.511H142.724L144.645 510.92L145.632 500.925L161.379 499.961Z" fill="#B89392"/>
<path d="M145.632 500.925L161.379 499.961L157.329 517.725L144.645 510.92L145.632 500.925Z" fill="#000105"/>
<path d="M164.377 577.784L107.659 578.106C107.659 578.106 104.725 555.916 123.406 553.022C124.044 552.885 124.669 552.695 125.275 552.456C135.375 548.764 139.958 526.331 139.958 526.331C139.958 526.331 151.966 523.436 159.106 527.463C159.106 527.463 163.845 550.617 164.624 570.632C164.728 573.308 164.455 575.301 164.377 577.784Z" fill="#000105"/>
<path d="M132.247 557.125C132.075 557.158 131.897 557.121 131.752 557.023C131.607 556.926 131.507 556.775 131.475 556.604C131.442 556.434 131.479 556.257 131.578 556.114C131.676 555.97 131.828 555.871 132 555.839C135.387 554.112 138.253 551.529 140.309 548.353C145.372 541.059 148.942 526.999 148.981 526.858C149.022 526.687 149.13 526.54 149.281 526.448C149.432 526.357 149.614 526.328 149.786 526.369C149.958 526.41 150.107 526.517 150.199 526.667C150.292 526.816 150.32 526.996 150.279 527.167C150.136 527.758 146.618 541.599 141.425 549.034C139.242 552.433 136.169 555.181 132.533 556.984C132.451 557.054 132.353 557.103 132.247 557.125Z" fill="#505050"/>
<path d="M165.104 578.582H106.855C106.855 578.582 104.583 555.273 123.251 552.379C123.812 552.289 124.364 552.147 124.899 551.954C130.326 553.923 137.505 558.798 140.179 570.812H165.053C165.156 573.488 165.182 576.099 165.104 578.582Z" fill="#505050"/>
<path d="M155.173 557.859C157.345 557.859 159.106 554.472 159.106 550.295C159.106 546.118 157.345 542.731 155.173 542.731C153 542.731 151.239 546.118 151.239 550.295C151.239 554.472 153 557.859 155.173 557.859Z" fill="#505050"/>
<path d="M139.206 492.667L137.038 511.113L165.819 513.043L170.363 495.896C170.363 495.896 154.135 488.808 139.206 492.667Z" fill="#FFB11A"/>
<path d="M261.34 164.716C261.34 164.716 288.173 196.257 299.584 229.779C300.562 232.662 300.404 235.804 299.143 238.577C295.248 247.08 287.979 264.78 283.565 267.352C279.151 269.925 262.145 264.561 262.469 256.843C262.794 249.125 268.506 230.152 268.506 230.152C268.506 230.152 253.252 212.786 241.893 197.028C230.533 181.271 242.84 151.685 261.34 164.716Z" fill="#505050"/>
<path d="M288.277 231.759C288.164 231.762 288.052 231.735 287.953 231.682C277.502 225.842 270.544 230.524 270.466 230.576C270.396 230.629 270.316 230.668 270.231 230.69C270.146 230.712 270.057 230.717 269.97 230.703C269.883 230.69 269.8 230.659 269.725 230.613C269.65 230.567 269.586 230.506 269.535 230.435C269.485 230.363 269.45 230.282 269.432 230.196C269.415 230.111 269.415 230.023 269.433 229.937C269.45 229.852 269.486 229.771 269.536 229.699C269.587 229.628 269.651 229.567 269.726 229.521C270.038 229.302 277.437 224.376 288.589 230.563C288.71 230.634 288.804 230.742 288.858 230.871C288.912 231 288.922 231.142 288.887 231.277C288.851 231.412 288.773 231.532 288.663 231.619C288.553 231.706 288.418 231.755 288.277 231.759Z" fill="#000105"/>
<path d="M264.182 257.165L261.132 265.847C262.286 268.952 264.614 271.489 267.623 272.922C270.572 274.454 273.936 275.018 277.229 274.53L283.097 264.24C283.097 264.24 276.619 252.881 264.182 257.165Z" fill="#000105"/>
<path d="M274.451 272.382C271.076 278.955 262.767 292.86 260.171 296.591C256.886 294.088 254.276 290.817 252.577 287.072C256.991 279.084 262.469 266.362 262.469 266.362C271.31 264.021 274.451 272.382 274.451 272.382Z" fill="#B89392"/>
<path d="M216.552 145.42L204.79 145.086L207.127 121.546L207.218 120.568L216.383 121.932L216.448 130.203L216.552 145.42Z" fill="#B89392"/>
<path d="M216.448 130.139C210.502 128.325 208.088 124.53 207.127 121.482L207.218 120.504L216.383 121.868L216.448 130.139Z" fill="#000105"/>
<path d="M179.879 261.19C180.372 261.19 180.047 276.948 180.528 276.948C181.008 276.948 191.407 280.974 202.441 280.486C213.476 279.997 247.878 279.045 257.29 272.613L257.783 256.534C233.105 264.612 207.141 265.59 179.879 261.19Z" fill="#000105"/>
<path d="M219.122 263.776C219.122 263.776 219.446 279.714 219.434 280.357C219.421 281 238.361 279.791 239.101 279.495C239.841 279.2 239.374 262.451 239.374 262.451C239.374 262.451 232.13 263.352 219.122 263.776Z" fill="#FFB11A"/>
<path d="M189.783 261.667C189.783 261.667 189.536 280.164 189.783 280.563C190.03 280.962 194.495 281.373 194.495 281.373C194.495 281.373 194.418 261.834 194.171 261.757C193.924 261.68 190.185 261.101 189.783 261.667Z" fill="#FFB11A"/>
<path d="M203.09 262.554C203.09 262.554 202.843 281.052 203.09 281.451C203.337 281.849 207.478 281.451 207.478 281.451C207.478 281.451 207.724 262.721 207.478 262.644C207.231 262.567 203.492 261.988 203.09 262.554Z" fill="#FFB11A"/>
<path d="M251.473 257.795C251.473 257.795 251.655 276.254 251.473 276.691C251.292 277.128 248.163 277.257 248.163 277.257C248.163 277.257 247.981 258.554 248.163 258.438C248.345 258.322 251.162 257.293 251.473 257.795Z" fill="#FFB11A"/>
<path d="M195.378 136.892C200.8 134.699 206.66 133.776 212.502 134.196C218.343 134.615 224.007 136.366 229.053 139.31L228.08 149.768L197.494 151.775L195.378 136.892Z" fill="#000105"/>
<path d="M262.962 254.913L258.262 258.284C258.262 258.284 225.639 269.706 179.721 263.596L169.816 254.592C169.982 244.748 169.501 234.904 168.375 225.122C167.881 220.898 167.061 216.718 165.922 212.619C165.922 212.529 165.922 212.426 165.831 212.31C164.091 206.174 163.234 196.707 162.715 187.458C162.352 180.061 162.261 172.819 162.261 167.533C162.261 162.606 162.352 159.403 162.352 159.403C162.845 159.403 187.991 145.42 211.527 145.086C235.063 144.752 261.339 164.715 261.339 164.715C261.339 164.715 267.181 215.037 262.962 254.913Z" fill="#505050"/>
<path d="M264.494 222.266C264.322 222.266 264.157 222.198 264.035 222.078C263.914 221.957 263.845 221.793 263.845 221.623C263.845 198.314 261.924 176.794 261.106 168.639C261.097 168.554 261.105 168.469 261.13 168.387C261.154 168.306 261.195 168.23 261.249 168.164C261.303 168.098 261.37 168.044 261.446 168.004C261.522 167.964 261.605 167.939 261.69 167.931C261.862 167.917 262.032 167.969 262.166 168.077C262.299 168.185 262.385 168.34 262.404 168.51C263.222 176.691 265.13 198.25 265.156 221.623C265.156 221.793 265.088 221.957 264.966 222.078C264.844 222.198 264.679 222.266 264.507 222.266H264.494Z" fill="#000105"/>
<path d="M174.788 191.664C174.126 200.926 172.464 216.516 168.375 225.109C167.881 220.885 167.061 216.705 165.922 212.606C165.922 212.516 165.922 212.413 165.831 212.297C164.091 206.161 163.234 196.694 162.715 187.445C162.352 180.049 162.261 172.806 162.261 167.52C165.427 169.9 168.181 172.777 170.413 176.035C173.645 180.59 175.19 186.111 174.788 191.664Z" fill="#000105"/>
<path d="M234.077 261.024C233.992 261.02 233.908 261 233.83 260.965C233.753 260.93 233.683 260.879 233.625 260.817C233.568 260.755 233.523 260.682 233.493 260.603C233.464 260.524 233.45 260.439 233.454 260.355C236.336 197.877 213.617 148.752 213.397 148.263C213.361 148.187 213.341 148.103 213.337 148.019C213.334 147.934 213.347 147.85 213.377 147.77C213.406 147.691 213.451 147.618 213.509 147.556C213.567 147.494 213.637 147.443 213.715 147.408C213.792 147.372 213.876 147.353 213.962 147.349C214.047 147.346 214.132 147.359 214.212 147.388C214.292 147.418 214.366 147.462 214.429 147.52C214.491 147.577 214.542 147.646 214.578 147.723C214.812 148.212 237.66 197.633 234.765 260.419C234.76 260.504 234.738 260.586 234.701 260.662C234.664 260.739 234.612 260.807 234.548 260.863C234.484 260.919 234.409 260.962 234.328 260.99C234.248 261.017 234.162 261.029 234.077 261.024Z" fill="#000105"/>
<path d="M238.946 261.023C238.86 261.02 238.777 261 238.699 260.965C238.622 260.929 238.552 260.879 238.494 260.817C238.436 260.755 238.391 260.682 238.362 260.603C238.332 260.523 238.319 260.439 238.322 260.355C241.204 197.903 218.966 149.382 218.746 148.906C218.71 148.829 218.69 148.746 218.686 148.662C218.683 148.577 218.696 148.493 218.726 148.413C218.755 148.334 218.8 148.261 218.858 148.199C218.916 148.137 218.986 148.086 219.064 148.051C219.141 148.015 219.225 147.995 219.311 147.992C219.396 147.989 219.481 148.002 219.561 148.031C219.641 148.061 219.715 148.105 219.778 148.163C219.841 148.22 219.891 148.289 219.927 148.366C220.148 148.855 242.516 197.633 239.621 260.419C239.611 260.587 239.534 260.745 239.408 260.858C239.282 260.971 239.116 261.03 238.946 261.023Z" fill="#000105"/>
<path d="M179.878 253.087C179.793 253.085 179.708 253.067 179.63 253.033C179.552 252.999 179.482 252.95 179.423 252.89C179.364 252.829 179.317 252.757 179.286 252.678C179.255 252.599 179.24 252.515 179.242 252.431C179.566 238.075 174.322 204.425 174.27 204.09C174.244 203.92 174.287 203.746 174.391 203.607C174.494 203.469 174.649 203.376 174.821 203.351C174.993 203.325 175.169 203.368 175.309 203.471C175.449 203.573 175.542 203.727 175.568 203.897C175.568 204.232 180.877 237.998 180.553 252.457C180.551 252.542 180.532 252.627 180.497 252.705C180.462 252.783 180.412 252.854 180.349 252.912C180.286 252.971 180.212 253.017 180.131 253.047C180.05 253.077 179.964 253.09 179.878 253.087Z" fill="#000105"/>
<path d="M162.352 159.403L125.029 196.874L109.775 242.05C109.775 242.05 139.802 238.037 167.714 208.451C172.744 200.513 175.337 191.298 175.178 181.927C175.188 177.394 174.011 172.936 171.763 168.989C169.515 165.041 166.273 161.738 162.352 159.403Z" fill="#505050"/>
<path d="M167.701 209.094C167.582 209.094 167.464 209.062 167.362 209.001C167.26 208.94 167.176 208.852 167.121 208.747C167.066 208.642 167.042 208.524 167.05 208.406C167.058 208.288 167.1 208.174 167.169 208.078C172.097 200.239 174.648 191.161 174.517 181.926C174.517 178.109 173.659 174.339 172.007 170.89C170.354 167.442 167.948 164.401 164.962 161.988C164.848 161.875 164.781 161.725 164.773 161.566C164.765 161.406 164.817 161.25 164.919 161.127C165.021 161.003 165.165 160.922 165.324 160.898C165.483 160.874 165.646 160.91 165.78 160.998C168.914 163.53 171.441 166.722 173.177 170.342C174.913 173.962 175.814 177.919 175.815 181.926C175.933 191.431 173.288 200.769 168.194 208.824C168.138 208.903 168.064 208.968 167.979 209.015C167.893 209.061 167.799 209.088 167.701 209.094Z" fill="#000105"/>
<path d="M117.565 160.046C117.565 160.046 109.452 167.442 106.05 173.398C102.649 179.354 96.4825 216.49 98.2611 226.305C100.04 236.12 109.776 242.05 109.776 242.05C109.776 242.05 127.951 235.297 131.196 218.741C134.442 202.186 135.584 182.081 135.091 177.257C134.598 172.433 130.872 165.204 130.872 165.204L117.565 160.046Z" fill="#505050"/>
<path d="M119.785 236.905C119.651 236.904 119.52 236.862 119.411 236.785C119.302 236.707 119.22 236.599 119.176 236.473C119.132 236.348 119.128 236.212 119.165 236.084C119.202 235.956 119.278 235.843 119.383 235.76C125.523 230.949 129.275 225.199 130.56 218.677C132.184 209.999 133.328 201.238 133.987 192.436C133.992 192.351 134.014 192.267 134.053 192.191C134.091 192.115 134.144 192.047 134.21 191.991C134.275 191.936 134.352 191.894 134.434 191.869C134.516 191.844 134.603 191.835 134.688 191.844C134.774 191.851 134.857 191.874 134.933 191.912C135.009 191.951 135.077 192.004 135.133 192.068C135.188 192.133 135.23 192.208 135.257 192.289C135.283 192.369 135.293 192.454 135.285 192.539C134.624 201.38 133.475 210.179 131.845 218.896C130.547 225.726 126.652 231.759 120.161 236.75C120.056 236.84 119.924 236.895 119.785 236.905Z" fill="#000105"/>
<path d="M118.758 153.074L114.863 163.686C117.117 165.878 119.818 167.566 122.785 168.638C125.752 169.709 128.916 170.14 132.064 169.899L135.738 159.39C135.738 159.39 130.766 150.296 118.758 153.074Z" fill="#000105"/>
<path d="M143.931 130.383L137.362 145.652L132.818 159.48C124.458 159.879 120.965 154.502 120.965 154.502L126.807 145.086L126.652 129.817C126.652 129.817 129.897 120.89 130.624 120.646C132.784 120.468 134.955 120.468 137.115 120.646L139.361 102.277C139.393 102.01 139.478 101.753 139.611 101.519C139.744 101.285 139.923 101.08 140.136 100.915C140.35 100.749 140.595 100.628 140.856 100.557C141.117 100.486 141.39 100.467 141.659 100.501C142.15 100.56 142.603 100.793 142.935 101.157C143.267 101.521 143.454 101.992 143.463 102.482L143.931 130.383Z" fill="#B89392"/>
<path d="M137.193 134.435C136.998 134.45 136.803 134.45 136.609 134.435C134.129 134.036 133.895 130.164 133.87 129.727C133.87 129.556 133.938 129.393 134.06 129.272C134.181 129.152 134.346 129.084 134.519 129.084C134.691 129.084 134.856 129.152 134.978 129.272C135.099 129.393 135.168 129.556 135.168 129.727C135.168 130.576 135.583 133.02 136.816 133.226C137.719 133.258 138.607 132.999 139.349 132.489C140.091 131.979 140.646 131.245 140.932 130.396C141.133 127.658 140.897 124.905 140.231 122.241C140.01 121.675 138.205 121.302 137.037 121.276C136.952 121.272 136.868 121.253 136.791 121.217C136.713 121.182 136.643 121.131 136.586 121.069C136.528 121.007 136.483 120.934 136.453 120.855C136.424 120.776 136.41 120.691 136.414 120.607C136.435 120.442 136.514 120.289 136.638 120.176C136.761 120.063 136.921 119.997 137.089 119.989C137.712 119.989 140.854 120.182 141.464 121.79C142.208 124.692 142.463 127.695 142.217 130.679C141.869 131.74 141.2 132.669 140.302 133.341C139.403 134.013 138.318 134.395 137.193 134.435Z" fill="#000105"/>
<path d="M135.195 141.394H135.091C135.006 141.38 134.925 141.35 134.853 141.305C134.78 141.259 134.717 141.2 134.668 141.131C134.618 141.062 134.583 140.983 134.564 140.9C134.545 140.817 134.543 140.732 134.558 140.648C135.109 137.802 134.926 134.864 134.026 132.107C133.962 131.948 133.965 131.771 134.033 131.614C134.101 131.457 134.23 131.334 134.39 131.271C134.55 131.208 134.729 131.21 134.887 131.278C135.045 131.345 135.17 131.472 135.233 131.631C136.229 134.608 136.434 137.788 135.831 140.867C135.803 141.014 135.725 141.148 135.609 141.244C135.492 141.341 135.346 141.394 135.195 141.394Z" fill="#000105"/>
<path d="M134.442 132.518C133.62 132.523 132.821 132.256 132.17 131.76C132.039 131.649 131.958 131.491 131.945 131.321C131.931 131.151 131.987 130.982 132.098 130.853C132.21 130.723 132.37 130.643 132.541 130.629C132.713 130.616 132.883 130.671 133.014 130.782C133.271 130.968 133.563 131.102 133.873 131.175C134.183 131.248 134.504 131.258 134.818 131.206C134.99 131.181 135.166 131.224 135.306 131.327C135.446 131.429 135.539 131.582 135.565 131.753C135.59 131.924 135.547 132.097 135.443 132.236C135.34 132.375 135.185 132.467 135.013 132.493C134.823 132.515 134.632 132.524 134.442 132.518Z" fill="#000105"/>
<path d="M138.115 130.897C137.946 130.898 137.782 130.832 137.661 130.714C137.54 130.596 137.47 130.436 137.466 130.267C137.537 128.909 137.32 127.55 136.83 126.28C134.958 126.217 133.084 126.333 131.235 126.627C131.15 126.638 131.063 126.632 130.98 126.61C130.897 126.588 130.819 126.55 130.751 126.498C130.614 126.393 130.524 126.238 130.502 126.067C130.479 125.897 130.526 125.724 130.632 125.588C130.738 125.452 130.894 125.363 131.066 125.341C132.287 125.186 136.337 124.71 137.35 125.096C138.362 125.482 138.726 128.119 138.765 130.241C138.766 130.326 138.751 130.41 138.72 130.489C138.689 130.567 138.643 130.639 138.584 130.7C138.525 130.761 138.454 130.81 138.376 130.844C138.298 130.878 138.214 130.896 138.128 130.897H138.115Z" fill="#000105"/>
<path d="M139.959 127.862C139.791 127.862 139.63 127.798 139.509 127.683C139.388 127.567 139.316 127.41 139.309 127.244C139.245 125.662 138.829 123.72 138.349 123.475C136.553 123.155 134.718 123.112 132.909 123.347C132.824 123.354 132.738 123.345 132.657 123.32C132.575 123.295 132.499 123.254 132.433 123.199C132.301 123.09 132.217 122.932 132.202 122.761C132.186 122.591 132.24 122.421 132.351 122.29C132.461 122.158 132.62 122.076 132.793 122.06C133.597 121.996 137.713 121.675 138.959 122.331C140.205 122.987 140.556 126.19 140.595 127.18C140.598 127.265 140.585 127.349 140.555 127.428C140.526 127.508 140.481 127.58 140.423 127.643C140.365 127.705 140.296 127.755 140.218 127.79C140.141 127.826 140.057 127.846 139.972 127.849L139.959 127.862Z" fill="#000105"/>
<path d="M138.582 129.894C138.686 130.631 138.969 131.331 139.408 131.934C139.847 132.537 140.428 133.025 141.1 133.355C138.772 135.013 137.108 137.432 136.401 140.185C135.103 144.932 136.245 145.819 136.245 145.819L142.632 143.645C143.308 143.417 143.93 143.055 144.461 142.582C144.992 142.109 145.421 141.534 145.722 140.893C147.423 137.239 150.837 129.856 151.019 128.775C151.265 127.335 149.474 126.447 147.448 127.09C145.423 127.733 138.738 129.174 138.582 129.894Z" fill="#B89392"/>
<path d="M143.191 134.217C142.84 134.239 142.489 134.239 142.139 134.217C141.039 134.169 139.996 133.715 139.218 132.943C138.439 132.172 137.981 131.139 137.933 130.049C137.91 129.885 137.952 129.72 138.05 129.586C138.193 129.393 139.114 128.415 143.243 127.605C143.415 127.572 143.593 127.609 143.738 127.707C143.883 127.804 143.982 127.955 144.015 128.126C144.048 128.296 144.011 128.473 143.912 128.616C143.813 128.76 143.661 128.859 143.489 128.891C142.008 129.094 140.575 129.556 139.257 130.255C139.324 130.985 139.66 131.666 140.201 132.167C140.742 132.667 141.451 132.953 142.191 132.969C143.575 133.104 144.973 132.951 146.293 132.519C146.457 132.464 146.636 132.476 146.79 132.552C146.945 132.628 147.063 132.762 147.118 132.924C147.173 133.086 147.161 133.263 147.084 133.416C147.007 133.569 146.872 133.686 146.709 133.741C145.569 134.084 144.381 134.244 143.191 134.217Z" fill="#000105"/>
<path d="M198.481 112.876C198.481 112.876 204.427 120.697 207.568 122.948C210.71 125.199 220.992 127.566 224.016 125.637C227.041 123.707 225.211 100.128 225.211 100.128C225.211 100.128 217.201 88.6544 205.413 93.6968C193.626 98.7392 198.481 112.876 198.481 112.876Z" fill="#B89392"/>
<path d="M232.676 102.701C221.2 105.698 206.92 99.048 206.92 99.048C206.794 102.104 206.135 105.116 204.972 107.949L207.296 113.095L201.298 117.057C201.298 117.057 181.073 111.384 180.956 108.811C180.839 106.239 184.85 88.4357 186.914 87.6896C190.16 87.0329 193.448 86.603 196.755 86.4033C198.485 81.2927 200.702 76.3567 203.376 71.6619C208.088 73.7457 205.803 80.1388 205.66 80.5376L221.667 62.4517C234.325 64.587 231.832 76.164 231.832 76.164C235.135 73.6486 239.134 72.1903 243.295 71.9835C248.033 80.3961 244.139 99.6912 232.676 102.701Z" fill="#000105"/>
<path d="M204.245 116.104C203.63 114.497 202.502 113.132 201.033 112.218C199.564 111.303 197.834 110.888 196.105 111.036C194.972 111.146 193.896 111.582 193.01 112.291C192.124 112.999 191.467 113.949 191.12 115.024C188.199 122.317 201.934 125.739 205.621 119.526L204.245 116.104Z" fill="#B89392"/>
<path d="M203.569 119.282C203.465 119.283 203.363 119.258 203.27 119.211C203.177 119.164 203.098 119.096 203.037 119.012C199.61 114.163 194.093 116.555 193.859 116.658C193.704 116.716 193.533 116.713 193.381 116.651C193.228 116.588 193.105 116.47 193.038 116.321C192.97 116.171 192.962 116.002 193.016 115.847C193.069 115.692 193.181 115.564 193.327 115.487C193.392 115.487 200.077 112.555 204.102 118.279C204.167 118.375 204.206 118.487 204.212 118.603C204.219 118.72 204.193 118.835 204.139 118.938C204.084 119.041 204.002 119.128 203.902 119.188C203.802 119.249 203.687 119.281 203.569 119.282Z" fill="#000105"/>
<path d="M197.884 120.607C197.728 120.605 197.579 120.549 197.462 120.447C197.345 120.346 197.269 120.206 197.248 120.054C197.03 118.441 197.163 116.801 197.637 115.243C197.704 115.096 197.824 114.98 197.973 114.916C198.122 114.853 198.29 114.847 198.444 114.901C198.597 114.954 198.724 115.062 198.801 115.204C198.877 115.346 198.898 115.511 198.857 115.667C198.452 117.027 198.337 118.455 198.52 119.861C198.533 119.944 198.529 120.03 198.508 120.112C198.488 120.194 198.451 120.271 198.401 120.339C198.35 120.408 198.286 120.465 198.213 120.509C198.14 120.552 198.059 120.581 197.975 120.594H197.884V120.607Z" fill="#000105"/>
<path d="M209.101 107.859C209.101 107.859 209.789 104 212.749 104.528C212.749 104.528 212.567 102.804 213.229 102.598C213.891 102.392 214.618 105.389 214.618 105.389C212.631 105.839 210.755 106.679 209.101 107.859Z" fill="#000105"/>
<path d="M223.433 104.862C223.433 104.862 222.446 101.479 220.927 103.01C220.927 103.01 220.745 101.312 220.356 101.363C219.473 101.492 220.057 104.463 220.057 104.463C221.194 104.191 222.392 104.333 223.433 104.862Z" fill="#000105"/>
<path d="M222.017 118.806C221.354 119.699 220.578 120.503 219.706 121.199C218.265 122.305 216.461 122.884 215.319 120.466C214.906 119.559 214.63 118.596 214.501 117.61C214.501 117.61 216.747 119.141 222.017 118.806Z" fill="#000105"/>
<path d="M219.719 121.134C218.278 122.241 216.473 122.819 215.331 120.401C216.071 120.186 216.85 120.14 217.61 120.267C218.37 120.394 219.091 120.691 219.719 121.134Z" fill="#FFB11A"/>
<path d="M214.01 112.548C214.823 112.412 215.346 111.496 215.177 110.501C215.009 109.507 214.213 108.81 213.4 108.945C212.587 109.08 212.064 109.996 212.233 110.991C212.401 111.986 213.197 112.683 214.01 112.548Z" fill="#000105"/>
<path d="M213.991 110.442C214.204 110.407 214.347 110.208 214.312 109.998C214.276 109.789 214.075 109.647 213.863 109.683C213.65 109.718 213.507 109.917 213.542 110.126C213.578 110.336 213.779 110.478 213.991 110.442Z" fill="#FFB11A"/>
<path d="M222.649 111.124C223.462 110.989 223.985 110.073 223.816 109.078C223.648 108.083 222.852 107.386 222.039 107.522C221.226 107.657 220.703 108.573 220.872 109.568C221.04 110.563 221.836 111.26 222.649 111.124Z" fill="#000105"/>
<path d="M222.641 109.006C222.854 108.971 222.997 108.772 222.962 108.563C222.926 108.353 222.725 108.211 222.513 108.247C222.3 108.282 222.156 108.481 222.192 108.691C222.227 108.9 222.429 109.042 222.641 109.006Z" fill="#FFB11A"/>
<path d="M219.135 116.182H218.824C218.738 116.175 218.655 116.152 218.579 116.114C218.502 116.075 218.435 116.022 218.379 115.958C218.324 115.893 218.282 115.818 218.255 115.738C218.229 115.657 218.219 115.572 218.226 115.487C218.243 115.318 218.325 115.161 218.456 115.051C218.587 114.94 218.756 114.885 218.927 114.896C218.927 114.896 220.42 114.986 220.628 114.059C220.653 113.993 220.653 113.92 220.628 113.854C220.168 113.647 219.654 113.593 219.161 113.699C218.993 113.725 218.82 113.685 218.682 113.586C218.543 113.487 218.45 113.338 218.421 113.172L217.798 109.66C217.783 109.576 217.785 109.491 217.804 109.408C217.823 109.325 217.858 109.247 217.907 109.177C217.957 109.108 218.019 109.049 218.092 109.004C218.165 108.959 218.246 108.928 218.33 108.914C218.5 108.888 218.674 108.928 218.815 109.027C218.955 109.125 219.051 109.274 219.083 109.441L219.602 112.374C219.955 112.339 220.31 112.373 220.649 112.474C220.988 112.576 221.303 112.743 221.576 112.966C221.745 113.146 221.864 113.366 221.923 113.604C221.982 113.843 221.979 114.093 221.913 114.33C221.732 114.906 221.358 115.403 220.853 115.74C220.348 116.077 219.742 116.233 219.135 116.182Z" fill="#000105"/>
</svg>
