<svg width="385" height="565" viewBox="0 0 385 565" fill="none" xmlns="http://www.w3.org/2000/svg">
<path d="M59.7645 513.6C59.7645 513.6 58.4275 448.04 114.268 415.841C114.268 415.841 115.043 477.786 59.7645 513.6Z" fill="#0C0C0C"/>
<path d="M63.9497 507.395C63.8411 507.396 63.7343 507.368 63.6398 507.314C63.5454 507.26 63.4665 507.183 63.411 507.09C63.3555 506.996 63.3253 506.89 63.3233 506.781C63.3214 506.673 63.3478 506.565 63.3999 506.47L108.62 423.809C108.699 423.663 108.834 423.555 108.993 423.508C109.152 423.461 109.324 423.48 109.469 423.559C109.615 423.639 109.724 423.773 109.77 423.933C109.817 424.092 109.799 424.264 109.719 424.41L64.4995 507.07C64.4455 507.169 64.366 507.251 64.2692 507.308C64.1725 507.366 64.0621 507.396 63.9497 507.395Z" fill="#7A41E3"/>
<path d="M54.1667 502.767C54.1667 502.767 40.4221 438.658 89.1531 396.439C89.1531 396.439 101.648 457.109 54.1667 502.767Z" fill="#7A41E3"/>
<path d="M56.9275 495.887H56.7401C56.5828 495.836 56.4523 495.724 56.3773 495.576C56.3023 495.428 56.289 495.257 56.3403 495.099L85.0791 405.346C85.1037 405.264 85.1442 405.187 85.1983 405.121C85.2525 405.054 85.3192 404.999 85.3946 404.959C85.47 404.918 85.5527 404.893 85.6379 404.884C85.7231 404.875 85.8092 404.884 85.8912 404.908C85.9733 404.933 86.0497 404.973 86.1161 405.028C86.1824 405.082 86.2375 405.149 86.2781 405.224C86.3187 405.3 86.3441 405.382 86.3527 405.468C86.3614 405.553 86.3532 405.639 86.3286 405.721L57.5898 495.474C57.5425 495.608 57.4513 495.722 57.3309 495.797C57.2106 495.872 57.0683 495.904 56.9275 495.887Z" fill="#0C0C0C"/>
<path d="M55.191 517.028C55.191 517.028 49.4682 462.763 0 441.973C0 442.023 5.82273 493.248 55.191 517.028Z" fill="#0C0C0C"/>
<path d="M51.0298 512.449C50.9296 512.45 50.8308 512.426 50.7417 512.38C50.6525 512.335 50.5756 512.268 50.5175 512.186L4.56044 448.678C4.51204 448.611 4.4772 448.536 4.45791 448.456C4.43862 448.376 4.43526 448.293 4.44802 448.211C4.46078 448.13 4.48942 448.052 4.53229 447.982C4.57516 447.912 4.63143 447.85 4.69789 447.802C4.76435 447.753 4.83969 447.719 4.91961 447.699C4.99953 447.68 5.08247 447.677 5.16369 447.689C5.24491 447.702 5.32282 447.731 5.39297 447.774C5.46312 447.817 5.52415 447.873 5.57255 447.94L51.5296 511.461C51.5957 511.554 51.6352 511.663 51.6437 511.777C51.6523 511.891 51.6296 512.004 51.5781 512.106C51.5267 512.208 51.4484 512.294 51.3517 512.354C51.2551 512.415 51.1438 512.447 51.0298 512.449Z" fill="#7A41E3"/>
<path d="M52.317 505.719C52.317 505.719 96.6248 438.67 59.8141 368.682C59.8266 368.682 18.4802 432.353 52.317 505.719Z" fill="#0C0C0C"/>
<path d="M52.4547 496.525C52.3726 496.52 52.2922 496.499 52.2183 496.463C52.1443 496.427 52.0781 496.377 52.0235 496.316C51.969 496.254 51.9271 496.182 51.9003 496.104C51.8735 496.027 51.8623 495.944 51.8674 495.862L59.0896 380.49C59.0945 380.408 59.1155 380.328 59.1515 380.254C59.1874 380.18 59.2376 380.114 59.2991 380.059C59.3606 380.005 59.4322 379.963 59.5099 379.936C59.5876 379.909 59.6698 379.898 59.7518 379.902C59.8339 379.907 59.9141 379.928 59.9881 379.964C60.062 380 60.1281 380.051 60.1826 380.112C60.2372 380.174 60.279 380.245 60.3059 380.323C60.3327 380.401 60.344 380.483 60.3391 380.565L53.0794 495.887C53.0811 495.97 53.0662 496.053 53.0355 496.13C53.0048 496.208 52.9591 496.278 52.9009 496.338C52.8427 496.397 52.7733 496.444 52.6967 496.476C52.6201 496.509 52.5378 496.525 52.4547 496.525Z" fill="#7A41E3"/>
<path d="M50.4179 503.392C50.4179 503.392 64.1626 439.283 15.4316 397.065C15.4316 397.065 2.93641 457.734 50.4179 503.392Z" fill="#7A41E3"/>
<path d="M47.6063 496.512C47.4727 496.513 47.3424 496.471 47.2344 496.392C47.1265 496.314 47.0466 496.202 47.0065 496.075L18.2677 406.322C18.2431 406.24 18.2349 406.153 18.2436 406.068C18.2522 405.983 18.2776 405.9 18.3182 405.824C18.3588 405.749 18.4139 405.682 18.4803 405.628C18.5466 405.574 18.623 405.533 18.7051 405.509C18.7871 405.484 18.8732 405.476 18.9584 405.484C19.0436 405.493 19.1263 405.518 19.2017 405.559C19.2772 405.6 19.3438 405.655 19.398 405.721C19.4521 405.788 19.4926 405.864 19.5173 405.946L48.256 495.699C48.3073 495.857 48.294 496.028 48.219 496.176C48.144 496.324 48.0136 496.436 47.8562 496.487L47.6063 496.512Z" fill="#0C0C0C"/>
<path d="M95.0372 498.914L87.2277 565H17.8798L10.0703 498.914C38.1495 493.661 66.958 493.661 95.0372 498.914Z" fill="#4E86F7"/>
<path d="M74.0088 530.813C61.4137 532.164 58.7023 534.152 55.5785 548.113C53.9791 555.243 47.6191 561.035 41.7339 565H55.3411C60.4325 560.566 63.7077 554.405 64.5375 547.7C66.3118 534.778 75.3708 535.816 85.1545 536.967C86.9365 537.188 88.7352 537.243 90.5274 537.13L91.9143 525.396C88.3657 528.749 82.4555 529.899 74.0088 530.813Z" fill="#F5C044"/>
<path d="M45.1569 532.689C44.7446 518.616 46.0941 512.987 64.7368 512.574C76.8196 512.299 81.7552 503.367 83.7544 497.113C80.2474 496.638 76.7405 496.221 73.2335 495.862C71.859 500.941 67.2983 507.395 52.8789 506.882C29.3506 506.044 43.4076 527.835 31.7372 534.815C24.8149 538.956 18.2549 535.866 14.0815 532.676L15.3311 543.509C27.7762 551.803 45.5443 545.611 45.1569 532.689Z" fill="#F5C044"/>
<path d="M25.7893 516.002C20.9412 517.253 18.3922 527.36 26.0017 527.36C33.6113 527.36 33.9111 513.925 25.7893 516.002Z" fill="#F5C044"/>
<path d="M313.14 151.936L306.305 167.422H293.923L288 153.975L300.12 152.561L313.14 151.936Z" fill="#0C0C0C"/>
<path d="M332.183 84.3366C332.284 88.6815 331.502 93.0017 329.882 97.034C328.262 101.066 325.839 104.726 322.761 107.791C319.326 111.31 317.159 115.874 316.601 120.763L314.19 139.927H285.963L283.552 120.751C282.966 115.808 280.771 111.196 277.304 107.629C273.602 103.901 270.87 99.3215 269.346 94.2912C267.822 89.261 267.554 83.9334 268.564 78.7751C269.574 73.6169 271.833 68.7854 275.142 64.7038C278.45 60.6222 282.708 57.4151 287.542 55.3633C292.376 53.3116 297.639 52.4778 302.87 52.9351C308.101 53.3924 313.139 55.1267 317.545 57.9862C321.951 60.8457 325.589 64.743 328.141 69.3369C330.693 73.9308 332.081 79.0811 332.183 84.3366Z" fill="#4E86F7"/>
<path d="M300.083 106.353C299.255 106.353 298.446 106.107 297.757 105.646C297.069 105.186 296.532 104.531 296.216 103.766C295.899 103 295.816 102.157 295.977 101.344C296.139 100.532 296.538 99.7849 297.123 99.1989C297.708 98.6128 298.454 98.2137 299.266 98.052C300.078 97.8903 300.92 97.9733 301.685 98.2905C302.45 98.6076 303.103 99.1447 303.563 99.8339C304.023 100.523 304.269 101.333 304.269 102.162C304.269 102.712 304.16 103.257 303.95 103.766C303.74 104.274 303.431 104.736 303.043 105.125C302.654 105.514 302.193 105.823 301.685 106.034C301.177 106.244 300.633 106.353 300.083 106.353ZM300.083 99.0598C299.468 99.0598 298.866 99.2424 298.354 99.5847C297.843 99.927 297.444 100.413 297.208 100.983C296.973 101.552 296.911 102.178 297.031 102.782C297.151 103.386 297.448 103.941 297.883 104.377C298.318 104.813 298.872 105.109 299.476 105.229C300.079 105.35 300.705 105.288 301.273 105.052C301.842 104.816 302.328 104.417 302.67 103.905C303.012 103.393 303.194 102.791 303.194 102.175C303.197 101.763 303.119 101.356 302.964 100.975C302.81 100.594 302.581 100.248 302.292 99.9559C302.002 99.664 301.658 99.4323 301.279 99.2742C300.9 99.1161 300.494 99.0347 300.083 99.0347V99.0598Z" fill="#E2E2E2"/>
<path d="M300.083 139.327C299.941 139.327 299.804 139.27 299.703 139.169C299.602 139.068 299.546 138.932 299.546 138.789V105.815C299.546 105.672 299.602 105.535 299.703 105.435C299.804 105.334 299.941 105.277 300.083 105.277C300.226 105.277 300.362 105.334 300.463 105.435C300.564 105.535 300.62 105.672 300.62 105.815V138.801C300.617 138.942 300.559 139.076 300.459 139.174C300.358 139.272 300.224 139.327 300.083 139.327Z" fill="#E2E2E2"/>
<path d="M300.083 96.0326C299.941 96.0326 299.804 95.9759 299.703 95.8751C299.602 95.7742 299.546 95.6374 299.546 95.4947V90.0658C299.546 89.9231 299.602 89.7863 299.703 89.6854C299.804 89.5845 299.941 89.5279 300.083 89.5279C300.226 89.5279 300.362 89.5845 300.463 89.6854C300.564 89.7863 300.62 89.9231 300.62 90.0658V95.4822C300.622 95.5539 300.609 95.6252 300.583 95.6919C300.557 95.7586 300.518 95.8194 300.468 95.8707C300.418 95.922 300.358 95.9627 300.292 95.9905C300.226 96.0183 300.155 96.0326 300.083 96.0326Z" fill="#E2E2E2"/>
<path d="M304.794 97.984C304.689 97.9821 304.587 97.9495 304.501 97.8902C304.414 97.831 304.347 97.7477 304.307 97.6507C304.267 97.5536 304.256 97.447 304.276 97.344C304.296 97.241 304.346 97.146 304.419 97.0708L308.243 93.2431C308.293 93.193 308.352 93.1532 308.417 93.1261C308.483 93.099 308.553 93.085 308.624 93.085C308.694 93.085 308.765 93.099 308.83 93.1261C308.895 93.1532 308.955 93.193 309.005 93.2431C309.055 93.2932 309.095 93.3526 309.122 93.4181C309.149 93.4836 309.163 93.5537 309.163 93.6246C309.163 93.6954 309.149 93.7656 309.122 93.8311C309.095 93.8965 309.055 93.956 309.005 94.0061L305.169 97.7839C305.123 97.841 305.066 97.8882 305.002 97.9226C304.938 97.957 304.867 97.9779 304.794 97.984Z" fill="#E2E2E2"/>
<path d="M312.165 102.698H306.755C306.613 102.698 306.476 102.641 306.375 102.54C306.274 102.44 306.218 102.303 306.218 102.161C306.218 102.019 306.274 101.882 306.375 101.781C306.476 101.681 306.613 101.624 306.755 101.624H312.165C312.308 101.624 312.445 101.681 312.545 101.781C312.646 101.882 312.703 102.019 312.703 102.161C312.703 102.303 312.646 102.44 312.545 102.54C312.445 102.641 312.308 102.698 312.165 102.698Z" fill="#E2E2E2"/>
<path d="M308.63 111.244C308.488 111.241 308.353 111.183 308.255 111.081L304.431 107.253C304.33 107.152 304.273 107.015 304.273 106.872C304.273 106.729 304.33 106.591 304.431 106.49C304.532 106.389 304.669 106.332 304.812 106.332C304.955 106.332 305.092 106.389 305.193 106.49L309.017 110.318C309.095 110.393 309.149 110.49 309.171 110.597C309.193 110.703 309.182 110.814 309.14 110.914C309.099 111.014 309.027 111.099 308.936 111.158C308.845 111.217 308.738 111.247 308.63 111.244Z" fill="#E2E2E2"/>
<path d="M291.536 111.244C291.431 111.242 291.329 111.209 291.243 111.15C291.156 111.091 291.089 111.007 291.049 110.91C291.009 110.813 290.999 110.707 291.019 110.604C291.039 110.501 291.088 110.406 291.161 110.33L294.985 106.503C295.035 106.453 295.094 106.413 295.16 106.386C295.225 106.359 295.295 106.345 295.366 106.345C295.437 106.345 295.507 106.359 295.572 106.386C295.637 106.413 295.697 106.453 295.747 106.503C295.797 106.553 295.837 106.612 295.864 106.678C295.891 106.743 295.905 106.813 295.905 106.884C295.905 106.955 295.891 107.025 295.864 107.091C295.837 107.156 295.797 107.216 295.747 107.266L291.923 111.094C291.872 111.143 291.811 111.182 291.745 111.208C291.678 111.233 291.607 111.246 291.536 111.244Z" fill="#E2E2E2"/>
<path d="M293.423 102.698H288.013C287.87 102.698 287.734 102.641 287.633 102.54C287.532 102.44 287.476 102.303 287.476 102.161C287.476 102.019 287.532 101.882 287.633 101.781C287.734 101.681 287.87 101.624 288.013 101.624H293.423C293.566 101.624 293.702 101.681 293.803 101.781C293.904 101.882 293.961 102.019 293.961 102.161C293.961 102.303 293.904 102.44 293.803 102.54C293.702 102.641 293.566 102.698 293.423 102.698Z" fill="#E2E2E2"/>
<path d="M295.372 97.9842C295.231 97.9815 295.096 97.923 294.997 97.8215L291.161 94.0313C291.111 93.9812 291.071 93.9217 291.044 93.8562C291.017 93.7907 291.003 93.7206 291.003 93.6497C291.003 93.5789 291.017 93.5087 291.044 93.4433C291.071 93.3778 291.111 93.3183 291.161 93.2682C291.211 93.2181 291.271 93.1784 291.336 93.1512C291.402 93.1241 291.472 93.1102 291.542 93.1102C291.613 93.1102 291.683 93.1241 291.749 93.1512C291.814 93.1784 291.873 93.2181 291.923 93.2682L295.747 97.096C295.812 97.1719 295.855 97.2647 295.871 97.3637C295.886 97.4628 295.874 97.5642 295.835 97.6566C295.796 97.7489 295.732 97.8285 295.65 97.8864C295.568 97.9443 295.472 97.9782 295.372 97.9842Z" fill="#E2E2E2"/>
<path d="M315.777 147.02C315.385 147.426 314.88 147.704 314.328 147.82C314.931 147.846 315.501 148.106 315.916 148.545C316.331 148.984 316.559 149.568 316.552 150.172C316.544 150.862 316.276 151.523 315.802 152.023C315.318 152.529 314.663 152.837 313.966 152.887L286.326 154.85C286 154.884 285.669 154.848 285.357 154.746C285.045 154.643 284.758 154.476 284.514 154.256C284.27 154.035 284.076 153.766 283.942 153.466C283.809 153.165 283.74 152.84 283.74 152.511C283.744 151.818 284.017 151.154 284.502 150.66C284.895 150.245 285.405 149.962 285.964 149.847C285.362 149.818 284.794 149.557 284.38 149.119C283.965 148.68 283.736 148.099 283.74 147.495C283.752 146.858 283.984 146.245 284.396 145.76C284.809 145.274 285.375 144.946 286.001 144.831C285.393 144.811 284.816 144.554 284.393 144.115C283.971 143.676 283.736 143.089 283.74 142.479C283.746 141.79 284.019 141.131 284.502 140.64C284.977 140.127 285.629 139.814 286.326 139.764L313.941 137.813C314.268 137.78 314.6 137.816 314.913 137.919C315.226 138.022 315.513 138.19 315.757 138.412C316.001 138.634 316.196 138.904 316.328 139.206C316.461 139.508 316.529 139.835 316.527 140.165C316.522 140.851 316.254 141.51 315.777 142.004C315.391 142.42 314.884 142.704 314.328 142.817C314.938 142.833 315.517 143.089 315.94 143.529C316.363 143.969 316.596 144.558 316.589 145.168C316.571 145.868 316.279 146.533 315.777 147.02Z" fill="#7A41E3"/>
<path d="M286.976 145.319C286.81 145.319 286.651 145.253 286.534 145.135C286.417 145.018 286.351 144.859 286.351 144.693C286.351 144.527 286.417 144.368 286.534 144.251C286.651 144.134 286.81 144.068 286.976 144.068L313.078 142.191C313.243 142.181 313.406 142.235 313.532 142.342C313.658 142.45 313.737 142.602 313.753 142.767C313.76 142.849 313.75 142.932 313.725 143.01C313.7 143.089 313.659 143.161 313.606 143.224C313.552 143.287 313.487 143.339 313.414 143.376C313.34 143.413 313.26 143.436 313.178 143.442L287.026 145.319H286.976Z" fill="#0C0C0C"/>
<path d="M286.976 150.322C286.81 150.322 286.651 150.256 286.534 150.139C286.417 150.022 286.351 149.863 286.351 149.697C286.351 149.531 286.417 149.372 286.534 149.255C286.651 149.137 286.81 149.071 286.976 149.071L312.753 147.145C312.919 147.133 313.082 147.188 313.208 147.297C313.333 147.406 313.41 147.561 313.422 147.727C313.433 147.893 313.379 148.056 313.27 148.182C313.161 148.307 313.006 148.384 312.841 148.396L287.026 150.322H286.976Z" fill="#0C0C0C"/>
<path d="M322.025 75.4591C324.304 73.2475 323.17 68.3739 319.492 64.5736C315.813 60.7732 310.983 59.4853 308.703 61.6969C306.424 63.9085 307.558 68.7821 311.236 72.5824C314.915 76.3827 319.745 77.6706 322.025 75.4591Z" fill="#F5C044"/>
<path d="M304.744 0L302.407 43.169H297.709L295.373 0H304.744Z" fill="#F5C044"/>
<path d="M243.33 21.6033L272.157 53.7768L268.845 57.1042L236.708 28.2457L243.33 21.6033Z" fill="#F5C044"/>
<path d="M215.166 80.3587L258.274 82.6979V87.4013L215.166 89.7405V80.3587Z" fill="#F5C044"/>
<path d="M236.732 141.841L268.882 112.97L272.194 116.297L243.367 148.471L236.732 141.841Z" fill="#F5C044"/>
<path d="M356.836 148.433L327.997 116.26L331.321 112.933L363.458 141.804L356.836 148.433Z" fill="#F5C044"/>
<path d="M385 89.6904L341.892 87.3512V82.6478L385 80.3086V89.6904Z" fill="#F5C044"/>
<path d="M363.433 28.2079L331.283 57.0665L327.972 53.739L356.798 21.5656L363.433 28.2079Z" fill="#F5C044"/>
<path d="M240.194 487.131L239.731 499.202L239.094 515.902H227.849L226.699 503.755L225.037 486.192L240.194 487.131Z" fill="#9E5350"/>
<path d="M240.194 487.131L239.731 499.202L226.699 503.755L225.037 486.192L240.194 487.131Z" fill="#0C0C0C"/>
<path d="M218.114 562.085L273.255 562.248C273.255 562.248 275.555 540.307 257.587 537.492C257.046 537.405 256.515 537.267 256 537.08C246.278 533.49 241.755 511.849 241.755 511.849C241.755 511.849 230.197 509.034 223.325 512.95C223.325 512.95 218.664 535.591 217.915 555.005C217.802 557.595 218.039 559.671 218.114 562.085Z" fill="#0C0C0C"/>
<path d="M249.166 541.783C249.087 541.798 249.007 541.798 248.928 541.783C245.429 540.029 242.47 537.357 240.369 534.052C235.371 526.772 231.985 513.312 231.847 512.787C231.808 512.621 231.835 512.446 231.924 512.301C232.013 512.155 232.156 512.051 232.322 512.011C232.488 511.972 232.663 511.999 232.808 512.088C232.953 512.178 233.057 512.321 233.097 512.487C233.097 512.624 236.558 526.247 241.444 533.389C243.407 536.444 246.133 538.932 249.353 540.607C249.471 540.667 249.567 540.763 249.627 540.881C249.687 540.999 249.708 541.133 249.687 541.264C249.666 541.394 249.605 541.515 249.511 541.608C249.417 541.702 249.296 541.763 249.166 541.783Z" fill="#7A41E3"/>
<path d="M217.552 562.648H273.618C273.618 562.648 275.805 539.982 257.837 537.167C257.296 537.08 256.765 536.941 256.25 536.754C251.027 538.668 244.117 543.409 241.543 555.093H217.602C217.502 557.695 217.477 560.234 217.552 562.648Z" fill="#7A41E3"/>
<path d="M227.111 542.496C229.202 542.496 230.897 539.203 230.897 535.141C230.897 531.079 229.202 527.785 227.111 527.785C225.02 527.785 223.325 531.079 223.325 535.141C223.325 539.203 225.02 542.496 227.111 542.496Z" fill="#7A41E3"/>
<path d="M222.276 482.027C222.276 482.027 207.707 372.572 203.121 343.376C203.121 343.376 196.873 251.646 220.614 249.97C244.355 248.294 253.938 274.575 255.6 292.501C257.262 310.427 246.854 459.285 242.268 482.64L222.276 482.027Z" fill="#4E86F7"/>
<path d="M252.639 290.337C252.557 290.357 252.472 290.357 252.389 290.337C242.593 285.333 240.032 272.374 239.894 271.823C239.884 271.691 239.922 271.56 240.002 271.454C240.083 271.348 240.199 271.276 240.329 271.251C240.46 271.226 240.594 271.251 240.708 271.319C240.821 271.388 240.905 271.496 240.944 271.623C240.944 271.748 243.518 284.558 252.852 289.386C252.933 289.449 252.994 289.533 253.029 289.629C253.063 289.725 253.07 289.829 253.047 289.929C253.025 290.029 252.975 290.12 252.903 290.193C252.83 290.265 252.739 290.315 252.639 290.337Z" fill="#9E5350"/>
<path d="M248.332 390.173C248.352 381.192 243.647 373.9 237.823 373.887C231.998 373.874 227.26 381.144 227.24 390.125C227.22 399.106 231.925 406.397 237.749 406.411C243.573 406.424 248.311 399.154 248.332 390.173Z" fill="#F5C044"/>
<path d="M228.111 481.101C227.977 481.102 227.847 481.052 227.748 480.962C227.648 480.871 227.586 480.747 227.574 480.613C222.326 416.629 212.055 327.351 211.955 326.451C211.939 326.377 211.938 326.302 211.953 326.228C211.968 326.154 211.999 326.085 212.042 326.024C212.086 325.963 212.141 325.911 212.206 325.873C212.271 325.835 212.342 325.81 212.417 325.802C212.491 325.793 212.567 325.8 212.638 325.822C212.71 325.844 212.776 325.881 212.833 325.931C212.889 325.98 212.935 326.041 212.967 326.109C212.998 326.177 213.015 326.251 213.017 326.326C213.117 327.214 223.388 416.517 228.636 480.513C228.646 480.654 228.601 480.793 228.51 480.901C228.419 481.008 228.289 481.076 228.148 481.089L228.111 481.101Z" fill="#9E5350"/>
<path d="M216.028 480.776C216.028 480.776 234.359 474.934 248.303 481.402L246.217 497.876L217.065 498.089L216.028 480.776Z" fill="#F5C044"/>
<path d="M213.592 311.127C213.465 311.131 213.342 311.09 213.242 311.011C213.143 310.933 213.075 310.821 213.05 310.697C213.024 310.573 213.043 310.444 213.104 310.333C213.164 310.222 213.262 310.135 213.379 310.089C217.253 308.475 221.576 306.236 221.813 305.423C222.151 304.247 222.913 283.357 223.35 269.597C223.348 269.525 223.362 269.454 223.389 269.388C223.416 269.321 223.457 269.261 223.509 269.212C223.561 269.162 223.622 269.124 223.69 269.1C223.757 269.076 223.829 269.066 223.9 269.071C223.971 269.073 224.04 269.089 224.105 269.117C224.169 269.146 224.228 269.187 224.276 269.238C224.325 269.289 224.363 269.349 224.389 269.415C224.414 269.481 224.427 269.551 224.425 269.622C224.313 273.149 223.313 304.135 222.838 305.723C222.363 307.312 215.778 310.239 213.779 311.065C213.721 311.097 213.658 311.118 213.592 311.127Z" fill="#9E5350"/>
<path d="M176.569 267.445C176.569 267.445 170.321 274.175 170.171 275.576C170.021 276.977 142.682 443.048 138.934 488.907H157.264C157.264 488.907 215.154 323.786 216.403 316.694C217.653 309.601 218.902 268.321 218.49 256.65C218.078 244.979 188.752 246.543 176.569 267.445Z" fill="#4E86F7"/>
<path d="M216.453 317.231H216.353C216.283 317.219 216.216 317.194 216.157 317.156C216.097 317.118 216.045 317.068 216.004 317.01C215.964 316.952 215.935 316.886 215.92 316.817C215.905 316.748 215.903 316.676 215.916 316.606C216.865 311.24 217.878 284.92 218.052 267.145C218.047 267.073 218.057 267 218.082 266.933C218.107 266.865 218.146 266.803 218.197 266.752C218.248 266.701 218.31 266.661 218.378 266.636C218.445 266.611 218.518 266.601 218.59 266.607C218.73 266.61 218.864 266.668 218.962 266.769C219.06 266.869 219.115 267.004 219.114 267.145C218.965 283.082 217.99 310.927 216.965 316.781C216.945 316.904 216.883 317.016 216.79 317.098C216.696 317.18 216.577 317.227 216.453 317.231Z" fill="#9E5350"/>
<path d="M170.946 293.464C170.804 293.464 170.667 293.408 170.567 293.307C170.466 293.206 170.409 293.069 170.409 292.927C170.409 292.784 170.466 292.647 170.567 292.546C170.667 292.445 170.804 292.389 170.946 292.389C171.434 292.389 183.042 291.425 185.441 276.264C185.45 276.194 185.473 276.126 185.509 276.065C185.545 276.003 185.593 275.95 185.651 275.908C185.708 275.866 185.773 275.836 185.842 275.82C185.911 275.804 185.983 275.802 186.053 275.814C186.194 275.836 186.32 275.912 186.405 276.027C186.489 276.142 186.524 276.286 186.503 276.427C184.004 292.464 171.146 293.439 171.009 293.452L170.946 293.464Z" fill="#9E5350"/>
<path d="M156.889 477.974H156.714C156.58 477.928 156.47 477.832 156.407 477.706C156.344 477.579 156.333 477.433 156.376 477.299L208.544 323.436C208.562 323.364 208.595 323.297 208.641 323.238C208.687 323.179 208.744 323.131 208.809 323.096C208.875 323.06 208.947 323.039 209.021 323.033C209.095 323.027 209.17 323.036 209.24 323.061C209.31 323.085 209.374 323.124 209.429 323.174C209.484 323.225 209.527 323.286 209.557 323.354C209.586 323.422 209.602 323.496 209.602 323.57C209.601 323.645 209.586 323.718 209.556 323.786L157.389 477.649C157.347 477.746 157.277 477.829 157.188 477.887C157.099 477.945 156.995 477.975 156.889 477.974Z" fill="#9E5350"/>
<path d="M175.951 391.901C177.419 383.041 173.952 375.085 168.206 374.131C162.46 373.176 156.612 379.585 155.143 388.445C153.675 397.305 157.143 405.261 162.889 406.216C168.634 407.17 174.483 400.761 175.951 391.901Z" fill="#F5C044"/>
<path d="M155.328 486.192L151.429 503.468L148.618 515.902H137.372L139.221 496.85L140.171 487.131L155.328 486.192Z" fill="#9E5350"/>
<path d="M140.171 487.131L155.327 486.192L151.429 503.468L139.221 496.85L140.171 487.131Z" fill="#0C0C0C"/>
<path d="M158.213 561.873L103.622 562.185C103.622 562.185 100.798 540.607 118.779 537.793C119.393 537.659 119.995 537.475 120.578 537.242C130.299 533.652 134.71 511.836 134.71 511.836C134.71 511.836 146.268 509.022 153.14 512.937C153.14 512.937 157.701 535.453 158.451 554.918C158.551 557.519 158.288 559.458 158.213 561.873Z" fill="#0C0C0C"/>
<path d="M127.288 541.783C127.123 541.815 126.951 541.779 126.812 541.684C126.672 541.589 126.576 541.442 126.545 541.276C126.513 541.111 126.549 540.939 126.644 540.799C126.739 540.66 126.885 540.564 127.051 540.532C130.31 538.853 133.069 536.341 135.048 533.252C139.921 526.159 143.357 512.487 143.395 512.349C143.434 512.183 143.538 512.04 143.684 511.951C143.829 511.862 144.004 511.834 144.169 511.874C144.335 511.914 144.478 512.018 144.567 512.163C144.656 512.308 144.684 512.483 144.644 512.649C144.507 513.225 141.12 526.684 136.122 533.915C134.021 537.22 131.063 539.892 127.563 541.645C127.484 541.713 127.39 541.761 127.288 541.783Z" fill="#7A41E3"/>
<path d="M158.913 562.648H102.847C102.847 562.648 100.661 539.982 118.629 537.167C119.17 537.08 119.701 536.941 120.216 536.754C125.439 538.668 132.348 543.409 134.922 555.093H158.863C158.963 557.695 158.988 560.234 158.913 562.648Z" fill="#7A41E3"/>
<path d="M149.354 542.496C151.445 542.496 153.14 539.203 153.14 535.141C153.14 531.079 151.445 527.785 149.354 527.785C147.263 527.785 145.568 531.079 145.568 535.141C145.568 539.203 147.263 542.496 149.354 542.496Z" fill="#7A41E3"/>
<path d="M133.985 479.1L131.898 497.038L159.6 498.914L163.973 482.24C163.973 482.24 148.355 475.347 133.985 479.1Z" fill="#F5C044"/>
<path d="M251.54 160.18C251.54 160.18 277.367 190.852 288.35 223.451C289.291 226.254 289.139 229.31 287.925 232.007C284.177 240.276 277.18 257.488 272.931 259.99C268.683 262.492 252.314 257.275 252.627 249.77C252.939 242.264 258.437 223.813 258.437 223.813C258.437 223.813 243.755 206.926 232.822 191.602C221.889 176.279 233.734 147.508 251.54 160.18Z" fill="#7A41E3"/>
<path d="M277.467 225.377C277.358 225.38 277.25 225.354 277.154 225.302C267.096 219.623 260.398 224.176 260.323 224.226C260.256 224.278 260.18 224.316 260.098 224.337C260.015 224.359 259.93 224.363 259.846 224.35C259.762 224.337 259.682 224.307 259.61 224.263C259.538 224.218 259.476 224.159 259.428 224.089C259.379 224.019 259.346 223.94 259.329 223.857C259.312 223.774 259.312 223.688 259.329 223.605C259.346 223.522 259.38 223.443 259.428 223.374C259.477 223.304 259.539 223.245 259.611 223.2C259.911 222.988 267.033 218.197 277.767 224.214C277.883 224.283 277.974 224.388 278.026 224.513C278.077 224.638 278.087 224.777 278.053 224.908C278.019 225.039 277.944 225.156 277.838 225.241C277.732 225.325 277.602 225.373 277.467 225.377Z" fill="#0C0C0C"/>
<path d="M254.275 250.083L251.339 258.526C252.45 261.545 254.69 264.012 257.586 265.406C260.425 266.896 263.663 267.444 266.833 266.97L272.481 256.963C272.481 256.963 266.246 245.917 254.275 250.083Z" fill="#0C0C0C"/>
<path d="M264.159 264.881C260.911 271.273 252.914 284.796 250.415 288.423C247.252 285.989 244.741 282.809 243.105 279.166C247.353 271.398 252.626 259.027 252.626 259.027C261.135 256.75 264.159 264.881 264.159 264.881Z" fill="#9E5350"/>
<path d="M208.432 141.416L197.111 141.091L199.36 118.199L199.448 117.248L208.269 118.574L208.332 126.618L208.432 141.416Z" fill="#9E5350"/>
<path d="M208.331 126.555C202.609 124.791 200.285 121.101 199.36 118.136L199.447 117.186L208.269 118.512L208.331 126.555Z" fill="#0C0C0C"/>
<path d="M173.133 253.998C173.608 253.998 173.296 269.321 173.758 269.321C174.22 269.321 184.229 273.237 194.85 272.761C205.471 272.286 238.583 271.36 247.642 265.106L248.117 249.469C224.363 257.325 199.373 258.276 173.133 253.998Z" fill="#0C0C0C"/>
<path d="M210.905 256.512C210.905 256.512 211.218 272.011 211.205 272.637C211.193 273.262 229.423 272.086 230.135 271.799C230.847 271.511 230.398 255.224 230.398 255.224C230.398 255.224 223.425 256.1 210.905 256.512Z" fill="#F5C044"/>
<path d="M182.666 254.461C182.666 254.461 182.429 272.449 182.666 272.837C182.903 273.224 187.202 273.625 187.202 273.625C187.202 273.625 187.127 254.623 186.889 254.548C186.652 254.473 183.053 253.91 182.666 254.461Z" fill="#F5C044"/>
<path d="M195.474 255.324C195.474 255.324 195.236 273.312 195.474 273.7C195.711 274.088 199.697 273.7 199.697 273.7C199.697 273.7 199.934 255.486 199.697 255.411C199.46 255.336 195.861 254.773 195.474 255.324Z" fill="#F5C044"/>
<path d="M242.043 250.695C242.043 250.695 242.218 268.646 242.043 269.071C241.868 269.497 238.857 269.622 238.857 269.622C238.857 269.622 238.682 251.433 238.857 251.321C239.032 251.208 241.743 250.208 242.043 250.695Z" fill="#F5C044"/>
<path d="M188.052 133.122C193.271 130.99 198.911 130.092 204.533 130.5C210.155 130.908 215.607 132.61 220.464 135.474L219.527 145.644L190.088 147.595L188.052 133.122Z" fill="#0C0C0C"/>
<path d="M253.101 247.894L248.578 251.171C248.578 251.171 217.178 262.279 172.983 256.337L163.449 247.581C163.609 238.008 163.146 228.435 162.062 218.922C161.586 214.815 160.797 210.75 159.7 206.764C159.7 206.676 159.7 206.576 159.613 206.463C157.939 200.496 157.114 191.29 156.614 182.296C156.264 175.103 156.177 168.06 156.177 162.919C156.177 158.128 156.264 155.013 156.264 155.013C156.739 155.013 180.942 141.416 203.596 141.091C226.249 140.765 251.54 160.18 251.54 160.18C251.54 160.18 257.162 209.115 253.101 247.894Z" fill="#7A41E3"/>
<path d="M254.576 216.145C254.41 216.145 254.251 216.079 254.134 215.962C254.017 215.845 253.951 215.686 253.951 215.52C253.951 192.853 252.102 171.925 251.314 163.995C251.306 163.912 251.314 163.829 251.337 163.75C251.361 163.671 251.4 163.597 251.452 163.533C251.505 163.469 251.569 163.416 251.642 163.377C251.715 163.339 251.795 163.315 251.877 163.307C252.042 163.293 252.206 163.343 252.334 163.449C252.463 163.554 252.545 163.705 252.564 163.87C253.351 171.825 255.188 192.791 255.213 215.52C255.213 215.686 255.147 215.845 255.03 215.962C254.913 216.079 254.754 216.145 254.588 216.145H254.576Z" fill="#0C0C0C"/>
<path d="M168.235 186.386C167.597 195.393 165.998 210.554 162.062 218.91C161.586 214.802 160.797 210.737 159.7 206.751C159.7 206.663 159.7 206.563 159.613 206.451C157.939 200.484 157.114 191.277 156.614 182.283C156.264 175.09 156.177 168.048 156.177 162.906C159.224 165.222 161.875 168.019 164.024 171.187C167.134 175.617 168.621 180.985 168.235 186.386Z" fill="#0C0C0C"/>
<path d="M225.299 253.835C225.217 253.832 225.137 253.813 225.062 253.778C224.987 253.744 224.92 253.695 224.865 253.635C224.809 253.574 224.766 253.503 224.737 253.426C224.709 253.349 224.696 253.267 224.7 253.185C227.473 192.428 205.607 144.656 205.395 144.18C205.36 144.105 205.341 144.025 205.337 143.942C205.334 143.86 205.347 143.778 205.376 143.701C205.404 143.624 205.447 143.553 205.503 143.492C205.559 143.432 205.626 143.383 205.701 143.348C205.775 143.314 205.856 143.294 205.938 143.291C206.02 143.288 206.102 143.301 206.18 143.329C206.257 143.358 206.328 143.401 206.388 143.457C206.448 143.513 206.497 143.58 206.532 143.655C206.757 144.13 228.748 192.19 225.962 253.247C225.957 253.33 225.936 253.41 225.9 253.484C225.864 253.558 225.814 253.624 225.752 253.679C225.691 253.734 225.619 253.776 225.541 253.802C225.464 253.829 225.381 253.84 225.299 253.835Z" fill="#0C0C0C"/>
<path d="M229.985 253.835C229.903 253.832 229.823 253.812 229.748 253.778C229.674 253.744 229.607 253.695 229.551 253.634C229.495 253.574 229.452 253.503 229.424 253.426C229.395 253.349 229.382 253.267 229.386 253.185C232.16 192.453 210.755 145.268 210.543 144.806C210.509 144.731 210.489 144.65 210.486 144.568C210.483 144.485 210.496 144.403 210.524 144.326C210.552 144.249 210.596 144.178 210.652 144.117C210.707 144.057 210.774 144.008 210.849 143.974C210.924 143.939 211.004 143.92 211.087 143.916C211.169 143.913 211.251 143.926 211.328 143.955C211.405 143.983 211.476 144.026 211.536 144.082C211.597 144.138 211.646 144.205 211.68 144.28C211.892 144.755 233.422 192.19 230.635 253.247C230.625 253.411 230.552 253.564 230.43 253.674C230.309 253.784 230.149 253.842 229.985 253.835Z" fill="#0C0C0C"/>
<path d="M173.132 246.117C173.05 246.116 172.969 246.098 172.894 246.065C172.819 246.032 172.751 245.984 172.694 245.925C172.637 245.866 172.593 245.796 172.563 245.72C172.533 245.643 172.519 245.561 172.52 245.479C172.833 231.519 167.785 198.795 167.735 198.47C167.71 198.304 167.752 198.135 167.851 198C167.951 197.865 168.1 197.775 168.266 197.751C168.431 197.726 168.6 197.768 168.735 197.867C168.87 197.967 168.959 198.116 168.984 198.282C168.984 198.607 174.095 231.444 173.782 245.504C173.781 245.587 173.762 245.67 173.729 245.746C173.695 245.822 173.647 245.89 173.586 245.947C173.525 246.005 173.454 246.049 173.376 246.078C173.298 246.107 173.216 246.121 173.132 246.117Z" fill="#0C0C0C"/>
<path d="M156.264 155.013L120.34 191.452L105.659 235.384C105.659 235.384 134.56 231.482 161.424 202.711C166.266 194.991 168.762 186.03 168.609 176.917C168.618 172.509 167.486 168.174 165.322 164.335C163.159 160.496 160.038 157.284 156.264 155.013Z" fill="#7A41E3"/>
<path d="M161.413 203.336C161.298 203.336 161.185 203.305 161.086 203.246C160.988 203.186 160.908 203.101 160.855 202.998C160.802 202.896 160.778 202.781 160.786 202.667C160.794 202.552 160.834 202.441 160.9 202.347C165.644 194.724 168.099 185.897 167.972 176.916C167.973 173.204 167.147 169.538 165.557 166.184C163.966 162.831 161.65 159.874 158.776 157.527C158.667 157.418 158.602 157.271 158.595 157.116C158.587 156.962 158.637 156.81 158.735 156.69C158.833 156.57 158.972 156.49 159.125 156.467C159.278 156.444 159.434 156.479 159.563 156.564C162.58 159.027 165.012 162.131 166.683 165.651C168.354 169.171 169.221 173.019 169.222 176.916C169.336 186.159 166.79 195.24 161.887 203.073C161.833 203.15 161.762 203.213 161.68 203.259C161.598 203.304 161.506 203.33 161.413 203.336Z" fill="#0C0C0C"/>
<path d="M113.157 155.638C113.157 155.638 105.347 162.831 102.073 168.623C98.7996 174.415 92.8644 210.529 94.5763 220.073C96.2881 229.617 105.659 235.384 105.659 235.384C105.659 235.384 123.153 228.817 126.276 212.718C129.4 196.618 130.5 177.067 130.025 172.376C129.55 167.685 125.964 160.655 125.964 160.655L113.157 155.638Z" fill="#7A41E3"/>
<path d="M115.292 230.381C115.163 230.38 115.037 230.339 114.932 230.264C114.827 230.189 114.748 230.083 114.706 229.961C114.663 229.839 114.66 229.707 114.695 229.582C114.731 229.458 114.804 229.348 114.905 229.267C120.815 224.589 124.426 218.997 125.663 212.655C127.226 204.215 128.327 195.697 128.962 187.137C128.966 187.054 128.988 186.973 129.025 186.898C129.061 186.824 129.113 186.758 129.176 186.704C129.239 186.65 129.312 186.61 129.392 186.585C129.471 186.561 129.554 186.553 129.636 186.561C129.719 186.567 129.799 186.59 129.872 186.627C129.946 186.665 130.011 186.716 130.064 186.779C130.118 186.842 130.158 186.915 130.183 186.993C130.209 187.072 130.218 187.154 130.211 187.237C129.574 195.834 128.469 204.391 126.9 212.868C125.651 219.51 121.902 225.377 115.654 230.231C115.553 230.318 115.426 230.371 115.292 230.381Z" fill="#0C0C0C"/>
<path d="M114.305 148.859L110.557 159.179C112.726 161.31 115.326 162.951 118.181 163.994C121.037 165.036 124.082 165.454 127.113 165.221L130.649 155.001C130.649 155.001 125.863 146.157 114.305 148.859Z" fill="#0C0C0C"/>
<path d="M138.534 126.793L132.211 141.641L127.838 155.088C119.791 155.476 116.43 150.247 116.43 150.247L122.052 141.09L121.903 126.242C121.903 126.242 125.026 117.561 125.726 117.323C127.805 117.15 129.895 117.15 131.974 117.323L134.135 99.4601C134.166 99.2009 134.248 98.9504 134.376 98.723C134.504 98.4957 134.676 98.296 134.882 98.1355C135.087 97.975 135.323 97.8569 135.574 97.7879C135.826 97.719 136.088 97.7006 136.347 97.7338C136.82 97.7911 137.256 98.0176 137.575 98.3717C137.895 98.7257 138.075 99.1834 138.084 99.6602L138.534 126.793Z" fill="#9E5350"/>
<path d="M132.049 130.733C131.862 130.748 131.674 130.748 131.487 130.733C129.1 130.345 128.875 126.58 128.85 126.155C128.85 125.989 128.916 125.83 129.033 125.712C129.15 125.595 129.309 125.529 129.475 125.529C129.641 125.529 129.799 125.595 129.917 125.712C130.034 125.83 130.1 125.989 130.1 126.155C130.1 126.98 130.499 129.357 131.686 129.557C132.555 129.588 133.41 129.337 134.124 128.841C134.838 128.345 135.373 127.63 135.647 126.805C135.842 124.142 135.614 121.466 134.973 118.874C134.76 118.324 133.023 117.961 131.899 117.936C131.817 117.933 131.736 117.913 131.662 117.879C131.587 117.845 131.52 117.796 131.464 117.735C131.409 117.675 131.365 117.604 131.337 117.527C131.309 117.45 131.296 117.368 131.299 117.286C131.32 117.125 131.396 116.977 131.515 116.867C131.634 116.757 131.787 116.693 131.949 116.685C132.549 116.685 135.572 116.873 136.16 118.436C136.876 121.258 137.121 124.179 136.884 127.08C136.55 128.112 135.906 129.016 135.041 129.669C134.176 130.322 133.132 130.694 132.049 130.733Z" fill="#0C0C0C"/>
<path d="M130.125 137.5H130.025C129.944 137.487 129.866 137.457 129.796 137.413C129.726 137.369 129.665 137.312 129.618 137.245C129.57 137.177 129.536 137.101 129.518 137.02C129.5 136.94 129.498 136.856 129.513 136.775C130.043 134.007 129.866 131.15 129 128.469C128.939 128.315 128.941 128.142 129.007 127.99C129.073 127.837 129.196 127.717 129.35 127.656C129.504 127.594 129.676 127.597 129.829 127.662C129.981 127.728 130.101 127.852 130.162 128.006C131.12 130.901 131.318 133.994 130.737 136.988C130.711 137.131 130.635 137.261 130.524 137.355C130.412 137.448 130.271 137.5 130.125 137.5Z" fill="#0C0C0C"/>
<path d="M129.399 128.869C128.609 128.874 127.839 128.614 127.213 128.131C127.087 128.023 127.009 127.87 126.996 127.704C126.983 127.539 127.036 127.375 127.144 127.249C127.252 127.123 127.405 127.045 127.57 127.032C127.736 127.019 127.899 127.073 128.025 127.18C128.272 127.362 128.553 127.492 128.852 127.562C129.15 127.633 129.459 127.644 129.762 127.593C129.928 127.568 130.096 127.61 130.231 127.71C130.366 127.81 130.455 127.959 130.48 128.125C130.505 128.291 130.463 128.46 130.364 128.595C130.264 128.729 130.115 128.819 129.949 128.844C129.767 128.866 129.583 128.874 129.399 128.869Z" fill="#0C0C0C"/>
<path d="M132.936 127.293C132.773 127.293 132.616 127.229 132.499 127.114C132.382 126.999 132.315 126.844 132.311 126.68C132.379 125.359 132.171 124.038 131.699 122.802C129.897 122.741 128.094 122.854 126.314 123.14C126.232 123.15 126.148 123.145 126.069 123.123C125.989 123.102 125.914 123.065 125.848 123.014C125.716 122.912 125.629 122.761 125.608 122.596C125.586 122.43 125.631 122.262 125.733 122.13C125.835 121.997 125.986 121.91 126.151 121.889C127.326 121.739 131.224 121.276 132.199 121.651C133.174 122.026 133.523 124.591 133.561 126.655C133.563 126.737 133.548 126.819 133.518 126.895C133.488 126.972 133.444 127.042 133.387 127.101C133.33 127.16 133.262 127.207 133.187 127.24C133.112 127.273 133.031 127.291 132.949 127.293H132.936Z" fill="#0C0C0C"/>
<path d="M134.71 124.341C134.549 124.341 134.393 124.278 134.277 124.166C134.16 124.054 134.092 123.902 134.085 123.74C134.023 122.202 133.623 120.313 133.161 120.075C131.432 119.764 129.666 119.722 127.925 119.95C127.843 119.957 127.76 119.949 127.682 119.924C127.603 119.899 127.53 119.859 127.467 119.807C127.339 119.7 127.259 119.547 127.244 119.381C127.229 119.215 127.281 119.05 127.387 118.922C127.494 118.794 127.647 118.714 127.813 118.699C128.587 118.637 132.548 118.324 133.748 118.962C134.947 119.6 135.285 122.714 135.322 123.678C135.326 123.76 135.313 123.842 135.284 123.919C135.256 123.996 135.213 124.067 135.157 124.127C135.101 124.188 135.034 124.237 134.96 124.271C134.885 124.306 134.805 124.325 134.723 124.328L134.71 124.341Z" fill="#0C0C0C"/>
<path d="M133.386 126.317C133.486 127.033 133.759 127.714 134.181 128.301C134.604 128.887 135.163 129.361 135.81 129.682C133.569 131.295 131.967 133.647 131.287 136.325C130.037 140.941 131.137 141.804 131.137 141.804L137.284 139.69C137.935 139.467 138.533 139.115 139.044 138.655C139.555 138.195 139.968 137.637 140.258 137.013C141.895 133.46 145.181 126.28 145.356 125.229C145.593 123.828 143.869 122.965 141.92 123.59C139.971 124.216 133.536 125.617 133.386 126.317Z" fill="#9E5350"/>
<path d="M137.821 130.52C137.484 130.542 137.146 130.542 136.809 130.52C135.75 130.474 134.747 130.033 133.997 129.282C133.248 128.532 132.806 127.527 132.761 126.467C132.739 126.308 132.779 126.147 132.873 126.017C133.01 125.829 133.898 124.879 137.871 124.091C138.037 124.059 138.208 124.095 138.348 124.19C138.487 124.285 138.583 124.431 138.615 124.597C138.646 124.763 138.61 124.935 138.516 125.074C138.421 125.214 138.274 125.31 138.109 125.342C136.683 125.539 135.304 125.988 134.035 126.667C134.099 127.378 134.423 128.04 134.944 128.527C135.465 129.014 136.147 129.291 136.859 129.307C138.191 129.438 139.536 129.289 140.807 128.869C140.965 128.816 141.137 128.828 141.286 128.902C141.434 128.975 141.548 129.106 141.601 129.263C141.654 129.421 141.642 129.593 141.568 129.742C141.495 129.891 141.365 130.004 141.207 130.057C140.11 130.391 138.967 130.547 137.821 130.52Z" fill="#0C0C0C"/>
<path d="M191.038 109.767C191.038 109.767 196.761 117.373 199.785 119.562C202.809 121.751 212.705 124.053 215.616 122.177C218.528 120.3 216.766 97.3709 216.766 97.3709C216.766 97.3709 209.056 86.2128 197.711 91.1164C186.365 96.0199 191.038 109.767 191.038 109.767Z" fill="#9E5350"/>
<path d="M223.95 99.8729C212.904 102.787 199.16 96.3203 199.16 96.3203C199.039 99.2924 198.405 102.221 197.285 104.977L199.522 109.98L193.749 113.833C193.749 113.833 174.282 108.317 174.169 105.815C174.057 103.313 177.918 86.0002 179.905 85.2747C183.029 84.636 186.193 84.218 189.376 84.0238C191.042 79.0539 193.175 74.2538 195.748 69.6883C200.284 71.7148 198.085 77.9318 197.948 78.3196L213.354 60.7318C225.537 62.8083 223.138 74.0665 223.138 74.0665C226.317 71.6204 230.166 70.2022 234.171 70.0011C238.732 78.182 234.983 96.9457 223.95 99.8729Z" fill="#0C0C0C"/>
<path d="M196.586 112.907C195.994 111.344 194.908 110.017 193.494 109.128C192.08 108.238 190.415 107.835 188.751 107.979C187.661 108.085 186.625 108.509 185.772 109.198C184.92 109.888 184.287 110.812 183.953 111.856C181.142 118.949 194.362 122.277 197.91 116.235L196.586 112.907Z" fill="#9E5350"/>
<path d="M195.935 115.997C195.835 115.998 195.736 115.974 195.647 115.928C195.558 115.883 195.481 115.816 195.423 115.734C192.124 111.019 186.814 113.345 186.589 113.445C186.44 113.502 186.276 113.499 186.129 113.438C185.982 113.377 185.864 113.262 185.798 113.117C185.733 112.972 185.725 112.807 185.777 112.657C185.829 112.506 185.936 112.381 186.077 112.307C186.139 112.307 192.574 109.455 196.448 115.021C196.511 115.115 196.548 115.224 196.554 115.337C196.56 115.45 196.536 115.563 196.483 115.663C196.43 115.763 196.352 115.847 196.255 115.906C196.159 115.965 196.048 115.996 195.935 115.997Z" fill="#0C0C0C"/>
<path d="M190.463 117.286C190.313 117.284 190.17 117.229 190.057 117.13C189.945 117.032 189.872 116.896 189.851 116.748C189.641 115.179 189.769 113.584 190.226 112.069C190.29 111.927 190.405 111.813 190.549 111.752C190.693 111.69 190.854 111.685 191.002 111.737C191.149 111.788 191.272 111.894 191.346 112.032C191.419 112.17 191.439 112.33 191.4 112.482C191.01 113.804 190.9 115.193 191.075 116.56C191.088 116.641 191.084 116.724 191.064 116.804C191.045 116.884 191.009 116.959 190.961 117.026C190.912 117.092 190.85 117.148 190.78 117.19C190.71 117.233 190.632 117.261 190.55 117.273H190.463V117.286Z" fill="#0C0C0C"/>
<path d="M201.259 104.889C201.259 104.889 201.921 101.136 204.77 101.649C204.77 101.649 204.595 99.9729 205.232 99.7727C205.87 99.5726 206.569 102.487 206.569 102.487C204.656 102.924 202.851 103.741 201.259 104.889Z" fill="#0C0C0C"/>
<path d="M215.054 101.974C215.054 101.974 214.104 98.6846 212.642 100.173C212.642 100.173 212.467 98.522 212.092 98.572C211.243 98.6971 211.805 101.587 211.805 101.587C212.899 101.322 214.052 101.46 215.054 101.974Z" fill="#0C0C0C"/>
<path d="M213.692 115.534C213.054 116.403 212.306 117.185 211.468 117.861C210.081 118.937 208.344 119.5 207.244 117.148C206.847 116.266 206.582 115.33 206.457 114.371C206.457 114.371 208.619 115.86 213.692 115.534Z" fill="#0C0C0C"/>
<path d="M211.479 117.798C210.092 118.874 208.355 119.437 207.256 117.085C207.968 116.876 208.718 116.832 209.45 116.955C210.181 117.079 210.875 117.367 211.479 117.798Z" fill="#E2E2E2"/>
<path d="M205.985 109.448C206.767 109.317 207.27 108.426 207.108 107.458C206.946 106.491 206.18 105.813 205.398 105.944C204.615 106.076 204.112 106.967 204.274 107.934C204.436 108.902 205.202 109.579 205.985 109.448Z" fill="#0C0C0C"/>
<path d="M205.966 107.401C206.17 107.367 206.308 107.173 206.273 106.969C206.239 106.765 206.046 106.628 205.842 106.662C205.638 106.696 205.5 106.89 205.534 107.094C205.568 107.298 205.761 107.435 205.966 107.401Z" fill="#E2E2E2"/>
<path d="M214.299 108.064C215.082 107.933 215.585 107.042 215.423 106.074C215.261 105.107 214.495 104.429 213.713 104.561C212.93 104.692 212.427 105.583 212.589 106.55C212.751 107.518 213.517 108.196 214.299 108.064Z" fill="#0C0C0C"/>
<path d="M214.291 106.005C214.495 105.97 214.633 105.777 214.599 105.573C214.565 105.369 214.372 105.232 214.168 105.266C213.963 105.3 213.826 105.493 213.86 105.697C213.894 105.901 214.087 106.039 214.291 106.005Z" fill="#E2E2E2"/>
<path d="M210.918 112.982H210.618C210.536 112.976 210.455 112.954 210.382 112.916C210.309 112.879 210.243 112.827 210.19 112.764C210.137 112.702 210.096 112.629 210.071 112.55C210.046 112.472 210.036 112.389 210.043 112.307C210.059 112.142 210.138 111.99 210.264 111.882C210.39 111.775 210.553 111.721 210.718 111.731C210.718 111.731 212.155 111.819 212.355 110.918C212.378 110.854 212.378 110.783 212.355 110.718C211.912 110.518 211.417 110.465 210.943 110.568C210.78 110.593 210.615 110.554 210.481 110.458C210.348 110.362 210.258 110.217 210.23 110.055L209.631 106.64C209.616 106.559 209.618 106.476 209.636 106.395C209.654 106.314 209.688 106.238 209.736 106.171C209.783 106.103 209.844 106.046 209.914 106.002C209.984 105.958 210.061 105.928 210.143 105.915C210.307 105.889 210.474 105.928 210.609 106.024C210.744 106.12 210.837 106.265 210.868 106.428L211.367 109.28C211.706 109.245 212.049 109.278 212.375 109.377C212.701 109.476 213.004 109.638 213.267 109.855C213.429 110.03 213.544 110.244 213.601 110.476C213.658 110.708 213.655 110.951 213.592 111.181C213.417 111.741 213.057 112.225 212.571 112.553C212.085 112.88 211.502 113.032 210.918 112.982Z" fill="#0C0C0C"/>
</svg>
