<svg width="391" height="566" viewBox="0 0 391 566" fill="none" xmlns="http://www.w3.org/2000/svg">
<path d="M60.6956 514.198C60.6956 514.198 59.3378 448.561 116.049 416.325C116.049 416.325 116.836 478.343 60.6956 514.198Z" fill="#404B7C"/>
<path d="M64.9466 507.986C64.8364 507.987 64.7279 507.959 64.632 507.905C64.536 507.851 64.4559 507.774 64.3995 507.68C64.3432 507.587 64.3125 507.48 64.3105 507.371C64.3086 507.263 64.3353 507.155 64.3883 507.06L110.313 424.303C110.394 424.157 110.53 424.048 110.692 424.001C110.854 423.954 111.028 423.973 111.176 424.052C111.324 424.132 111.434 424.267 111.481 424.426C111.529 424.586 111.51 424.758 111.43 424.904L65.505 507.661C65.4502 507.76 65.3694 507.842 65.2712 507.899C65.1729 507.957 65.0608 507.987 64.9466 507.986Z" fill="#BDBBE3"/>
<path d="M55.0105 503.353C55.0105 503.353 41.0516 439.169 90.5421 396.901C90.5421 396.901 103.232 457.641 55.0105 503.353Z" fill="#BDBBE3"/>
<path d="M57.815 496.464H57.6247C57.4649 496.413 57.3324 496.301 57.2562 496.153C57.1801 496.005 57.1666 495.833 57.2186 495.675L86.4053 405.818C86.4303 405.736 86.4714 405.659 86.5264 405.593C86.5814 405.526 86.6491 405.471 86.7257 405.43C86.8023 405.389 86.8863 405.364 86.9728 405.355C87.0594 405.347 87.1468 405.355 87.2301 405.38C87.3134 405.404 87.391 405.445 87.4585 405.499C87.5259 405.553 87.5818 405.62 87.623 405.696C87.6643 405.771 87.69 405.854 87.6988 405.94C87.7076 406.025 87.6993 406.111 87.6743 406.194L58.4876 496.051C58.4396 496.185 58.3469 496.299 58.2247 496.374C58.1025 496.449 57.958 496.481 57.815 496.464Z" fill="#404B7C"/>
<path d="M56.0511 517.63C56.0511 517.63 50.2392 463.302 0 442.487C0 442.537 5.91347 493.822 56.0511 517.63Z" fill="#404B7C"/>
<path d="M51.8254 513.046C51.7236 513.046 51.6233 513.023 51.5327 512.977C51.4422 512.931 51.3641 512.865 51.3051 512.783L4.63177 449.2C4.58261 449.133 4.54723 449.058 4.52764 448.978C4.50805 448.898 4.50463 448.815 4.5176 448.733C4.53056 448.652 4.55964 448.574 4.60318 448.503C4.64672 448.433 4.70387 448.372 4.77136 448.323C4.83885 448.275 4.91537 448.24 4.99653 448.221C5.0777 448.201 5.16194 448.198 5.24442 448.211C5.32691 448.224 5.40603 448.252 5.47727 448.295C5.54852 448.338 5.6105 448.395 5.65966 448.461L52.333 512.057C52.4001 512.15 52.4402 512.259 52.4488 512.373C52.4575 512.487 52.4345 512.601 52.3822 512.703C52.3299 512.805 52.2504 512.89 52.1523 512.951C52.0541 513.011 51.9411 513.044 51.8254 513.046Z" fill="#BDBBE3"/>
<path d="M53.1325 506.308C53.1325 506.308 98.1307 439.181 60.7464 369.111C60.7591 369.111 18.7683 432.857 53.1325 506.308Z" fill="#404B7C"/>
<path d="M53.272 497.103C53.1886 497.098 53.107 497.077 53.0319 497.041C52.9568 497.005 52.8896 496.955 52.8342 496.894C52.7787 496.832 52.7362 496.76 52.709 496.682C52.6818 496.604 52.6704 496.522 52.6756 496.439L60.0103 380.933C60.0153 380.851 60.0367 380.771 60.0732 380.697C60.1097 380.623 60.1606 380.556 60.2231 380.502C60.2855 380.447 60.3583 380.405 60.4372 380.378C60.5161 380.351 60.5996 380.34 60.6829 380.345C60.7662 380.35 60.8477 380.371 60.9228 380.407C60.9979 380.443 61.065 380.493 61.1204 380.555C61.1758 380.616 61.2183 380.688 61.2456 380.766C61.2728 380.844 61.2843 380.926 61.2793 381.009L53.9065 496.464C53.9082 496.548 53.893 496.631 53.8619 496.708C53.8308 496.785 53.7843 496.856 53.7252 496.915C53.6661 496.975 53.5956 497.022 53.5178 497.054C53.44 497.087 53.3564 497.103 53.272 497.103Z" fill="#BDBBE3"/>
<path d="M51.2037 503.979C51.2037 503.979 65.1625 439.795 15.6721 397.527C15.6721 397.527 2.98218 458.267 51.2037 503.979Z" fill="#BDBBE3"/>
<path d="M48.3483 497.091C48.2126 497.091 48.0803 497.049 47.9707 496.97C47.861 496.892 47.7799 496.78 47.7392 496.652L18.5525 406.795C18.5275 406.713 18.5192 406.626 18.528 406.541C18.5368 406.455 18.5625 406.373 18.6038 406.297C18.645 406.221 18.7009 406.155 18.7684 406.1C18.8358 406.046 18.9134 406.005 18.9967 405.981C19.08 405.956 19.1674 405.948 19.254 405.957C19.3405 405.965 19.4245 405.991 19.5011 406.031C19.5777 406.072 19.6454 406.127 19.7004 406.194C19.7554 406.26 19.7965 406.337 19.8215 406.419L49.0082 496.277C49.0602 496.434 49.0467 496.606 48.9706 496.754C48.8944 496.902 48.7619 497.014 48.6021 497.066L48.3483 497.091Z" fill="#404B7C"/>
<path d="M96.5191 499.495L88.5879 565.658H18.1592L10.228 499.495C38.7448 494.235 68.0023 494.235 96.5191 499.495Z" fill="#F68D88"/>
<path d="M75.162 531.431C62.3706 532.783 59.6169 534.774 56.4445 548.751C54.8202 555.889 48.361 561.688 42.3841 565.658H56.2034C61.3741 561.219 64.7004 555.05 65.5431 548.338C67.345 535.401 76.5452 536.44 86.4814 537.592C88.2911 537.814 90.118 537.868 91.938 537.755L93.3466 526.008C89.7427 529.364 83.7403 530.516 75.162 531.431Z" fill="#FDB2B2"/>
<path d="M45.8612 533.309C45.4424 519.22 46.8129 513.584 65.7462 513.171C78.0173 512.896 83.0298 503.954 85.0602 497.692C81.4986 497.216 77.9369 496.798 74.3753 496.439C72.9794 501.524 68.3476 507.986 53.7035 507.473C29.8085 506.634 44.0846 528.45 32.2323 535.438C25.2021 539.584 18.5399 536.49 14.3015 533.297L15.5705 544.142C28.2096 552.445 46.2546 546.246 45.8612 533.309Z" fill="#FDB2B2"/>
<path d="M26.1918 516.603C21.2682 517.855 18.6794 527.974 26.4076 527.974C34.1357 527.974 34.4402 514.524 26.1918 516.603Z" fill="#FDB2B2"/>
<path d="M318.021 152.113L311.079 167.617H298.504L292.489 154.154L304.798 152.739L318.021 152.113Z" fill="#404B7C"/>
<path d="M337.36 84.4348C337.463 88.7848 336.668 93.11 335.023 97.147C333.378 101.184 330.918 104.848 327.792 107.917C324.303 111.44 322.102 116.009 321.536 120.904L319.087 140.09H290.42L287.971 120.891C287.377 115.943 285.147 111.326 281.626 107.754C277.866 104.022 275.091 99.4371 273.544 94.401C271.996 89.3649 271.724 84.0311 272.75 78.8668C273.776 73.7026 276.07 68.8654 279.43 64.7791C282.79 60.6927 287.114 57.4819 292.024 55.4278C296.933 53.3736 302.278 52.5389 307.59 52.9967C312.902 53.4545 318.02 55.1909 322.494 58.0537C326.969 60.9165 330.664 64.8184 333.255 69.4176C335.847 74.0169 337.256 79.1732 337.36 84.4348Z" fill="#F68D88"/>
<path d="M304.76 106.476C303.919 106.476 303.097 106.23 302.398 105.769C301.699 105.308 301.154 104.653 300.832 103.887C300.51 103.12 300.426 102.276 300.59 101.463C300.754 100.649 301.159 99.9011 301.754 99.3144C302.348 98.7276 303.106 98.3281 303.93 98.1662C304.755 98.0043 305.61 98.0874 306.386 98.4049C307.163 98.7225 307.827 99.2602 308.294 99.9501C308.761 100.64 309.011 101.451 309.011 102.281C309.011 102.832 308.901 103.378 308.687 103.887C308.474 104.396 308.16 104.858 307.766 105.248C307.371 105.637 306.902 105.946 306.386 106.157C305.871 106.368 305.318 106.476 304.76 106.476ZM304.76 99.1751C304.135 99.1751 303.524 99.358 303.004 99.7007C302.485 100.043 302.08 100.53 301.84 101.1C301.601 101.67 301.539 102.297 301.661 102.902C301.783 103.507 302.083 104.062 302.525 104.499C302.967 104.935 303.53 105.232 304.143 105.352C304.756 105.472 305.391 105.411 305.969 105.175C306.546 104.939 307.04 104.539 307.387 104.026C307.734 103.513 307.919 102.91 307.919 102.294C307.923 101.882 307.844 101.474 307.686 101.092C307.529 100.711 307.297 100.365 307.003 100.072C306.709 99.7801 306.36 99.5481 305.975 99.3898C305.59 99.2316 305.177 99.1501 304.76 99.1501V99.1751Z" fill="white"/>
<path d="M304.76 139.489C304.615 139.489 304.476 139.432 304.374 139.331C304.271 139.23 304.214 139.093 304.214 138.95V105.938C304.214 105.795 304.271 105.658 304.374 105.557C304.476 105.456 304.615 105.399 304.76 105.399C304.904 105.399 305.043 105.456 305.145 105.557C305.248 105.658 305.305 105.795 305.305 105.938V138.963C305.302 139.104 305.243 139.237 305.141 139.336C305.039 139.434 304.902 139.489 304.76 139.489Z" fill="white"/>
<path d="M304.76 96.1444C304.615 96.1444 304.476 96.0877 304.374 95.9867C304.271 95.8857 304.214 95.7487 304.214 95.6059V90.1706C304.214 90.0278 304.271 89.8908 304.374 89.7898C304.476 89.6888 304.615 89.6321 304.76 89.6321C304.904 89.6321 305.043 89.6888 305.145 89.7898C305.248 89.8908 305.305 90.0278 305.305 90.1706V95.5934C305.307 95.6651 305.294 95.7365 305.267 95.8033C305.241 95.8701 305.201 95.9309 305.15 95.9823C305.099 96.0336 305.038 96.0744 304.971 96.1022C304.904 96.1301 304.832 96.1444 304.76 96.1444Z" fill="white"/>
<path d="M309.544 98.0981C309.437 98.0961 309.334 98.0635 309.246 98.0042C309.158 97.9449 309.089 97.8615 309.049 97.7643C309.009 97.6672 308.998 97.5604 309.018 97.4573C309.038 97.3541 309.089 97.2591 309.163 97.1838L313.046 93.3516C313.097 93.3014 313.157 93.2616 313.224 93.2345C313.29 93.2073 313.361 93.1934 313.433 93.1934C313.505 93.1934 313.576 93.2073 313.643 93.2345C313.709 93.2616 313.769 93.3014 313.82 93.3516C313.871 93.4017 313.911 93.4613 313.939 93.5268C313.966 93.5924 313.98 93.6626 313.98 93.7336C313.98 93.8045 313.966 93.8747 313.939 93.9403C313.911 94.0058 313.871 94.0654 313.82 94.1155L309.924 97.8977C309.878 97.9549 309.82 98.0021 309.755 98.0366C309.689 98.071 309.618 98.092 309.544 98.0981Z" fill="white"/>
<path d="M317.031 102.82H311.536C311.391 102.82 311.253 102.763 311.15 102.662C311.048 102.561 310.99 102.424 310.99 102.281C310.99 102.138 311.048 102.001 311.15 101.9C311.253 101.799 311.391 101.743 311.536 101.743H317.031C317.175 101.743 317.314 101.799 317.417 101.9C317.519 102.001 317.576 102.138 317.576 102.281C317.576 102.424 317.519 102.561 317.417 102.662C317.314 102.763 317.175 102.82 317.031 102.82Z" fill="white"/>
<path d="M313.439 111.373C313.296 111.371 313.159 111.312 313.059 111.21L309.176 107.378C309.073 107.277 309.015 107.139 309.015 106.996C309.015 106.853 309.073 106.716 309.176 106.614C309.278 106.513 309.418 106.456 309.563 106.456C309.708 106.456 309.847 106.513 309.95 106.614L313.833 110.446C313.912 110.522 313.967 110.619 313.989 110.726C314.012 110.832 314.001 110.943 313.958 111.043C313.916 111.143 313.843 111.229 313.751 111.287C313.658 111.346 313.55 111.376 313.439 111.373Z" fill="white"/>
<path d="M296.08 111.373C295.973 111.371 295.87 111.339 295.782 111.279C295.694 111.22 295.626 111.137 295.585 111.039C295.545 110.942 295.534 110.836 295.554 110.732C295.574 110.629 295.625 110.534 295.699 110.459L299.582 106.627C299.633 106.577 299.693 106.537 299.76 106.51C299.826 106.482 299.897 106.469 299.969 106.469C300.041 106.469 300.112 106.482 300.179 106.51C300.245 106.537 300.305 106.577 300.356 106.627C300.407 106.677 300.447 106.736 300.475 106.802C300.502 106.868 300.517 106.938 300.517 107.009C300.517 107.08 300.502 107.15 300.475 107.215C300.447 107.281 300.407 107.341 300.356 107.391L296.473 111.223C296.421 111.272 296.359 111.311 296.292 111.337C296.224 111.363 296.152 111.375 296.08 111.373Z" fill="white"/>
<path d="M297.996 102.82H292.501C292.357 102.82 292.218 102.763 292.115 102.662C292.013 102.561 291.956 102.424 291.956 102.281C291.956 102.138 292.013 102.001 292.115 101.9C292.218 101.799 292.357 101.743 292.501 101.743H297.996C298.141 101.743 298.279 101.799 298.382 101.9C298.484 102.001 298.542 102.138 298.542 102.281C298.542 102.424 298.484 102.561 298.382 102.662C298.279 102.763 298.141 102.82 297.996 102.82Z" fill="white"/>
<path d="M299.975 98.0981C299.832 98.0955 299.695 98.0369 299.595 97.9353L295.699 94.1406C295.648 94.0905 295.608 94.0309 295.58 93.9654C295.553 93.8998 295.539 93.8296 295.539 93.7587C295.539 93.6877 295.553 93.6175 295.58 93.5519C295.608 93.4864 295.648 93.4269 295.699 93.3767C295.75 93.3265 295.81 93.2867 295.877 93.2596C295.943 93.2325 296.014 93.2185 296.086 93.2185C296.158 93.2185 296.229 93.2325 296.295 93.2596C296.362 93.2867 296.422 93.3265 296.473 93.3767L300.356 97.2089C300.423 97.285 300.466 97.3778 300.482 97.477C300.498 97.5762 300.485 97.6777 300.446 97.7702C300.406 97.8626 300.341 97.9424 300.258 98.0003C300.175 98.0583 300.077 98.0921 299.975 98.0981Z" fill="white"/>
<path d="M320.698 147.191C320.3 147.597 319.787 147.877 319.226 147.993C319.839 148.019 320.417 148.279 320.839 148.718C321.26 149.158 321.492 149.742 321.485 150.347C321.477 151.037 321.205 151.699 320.723 152.201C320.232 152.707 319.567 153.015 318.858 153.065L290.788 155.031C290.456 155.064 290.121 155.028 289.804 154.926C289.487 154.823 289.195 154.656 288.948 154.436C288.7 154.215 288.502 153.945 288.367 153.645C288.231 153.344 288.161 153.018 288.161 152.689C288.165 151.995 288.443 151.33 288.935 150.835C289.334 150.42 289.852 150.136 290.42 150.021C289.809 149.992 289.232 149.731 288.811 149.292C288.39 148.854 288.157 148.271 288.161 147.667C288.174 147.029 288.41 146.415 288.828 145.929C289.247 145.443 289.822 145.115 290.458 144.999C289.84 144.98 289.254 144.723 288.825 144.283C288.396 143.843 288.158 143.255 288.161 142.645C288.167 141.955 288.445 141.295 288.935 140.804C289.418 140.29 290.08 139.976 290.788 139.927L318.833 137.974C319.166 137.94 319.502 137.976 319.82 138.08C320.138 138.183 320.43 138.351 320.678 138.573C320.926 138.795 321.123 139.066 321.258 139.368C321.393 139.671 321.461 139.998 321.46 140.328C321.454 141.015 321.182 141.674 320.698 142.169C320.306 142.586 319.791 142.87 319.226 142.983C319.845 142.999 320.433 143.256 320.863 143.696C321.293 144.137 321.53 144.726 321.523 145.338C321.504 146.038 321.208 146.703 320.698 147.191Z" fill="#BDBBE3"/>
<path d="M291.448 145.488C291.28 145.488 291.118 145.422 290.999 145.304C290.88 145.187 290.813 145.028 290.813 144.862C290.813 144.696 290.88 144.536 290.999 144.419C291.118 144.301 291.28 144.235 291.448 144.235L317.957 142.357C318.125 142.346 318.29 142.401 318.418 142.508C318.546 142.616 318.626 142.768 318.642 142.933C318.649 143.015 318.64 143.098 318.614 143.177C318.588 143.255 318.547 143.328 318.493 143.391C318.439 143.454 318.372 143.505 318.298 143.543C318.223 143.58 318.142 143.603 318.059 143.609L291.499 145.488H291.448Z" fill="#404B7C"/>
<path d="M291.448 150.497C291.28 150.497 291.118 150.431 290.999 150.314C290.88 150.196 290.813 150.037 290.813 149.871C290.813 149.705 290.88 149.546 290.999 149.428C291.118 149.311 291.28 149.245 291.448 149.245L317.627 147.316C317.795 147.305 317.961 147.359 318.089 147.469C318.216 147.578 318.294 147.733 318.306 147.899C318.318 148.065 318.262 148.229 318.152 148.354C318.041 148.48 317.884 148.557 317.716 148.569L291.499 150.497H291.448Z" fill="#404B7C"/>
<path d="M327.043 75.5468C329.358 73.3327 328.206 68.4534 324.47 64.6487C320.735 60.8439 315.829 59.5545 313.514 61.7686C311.199 63.9828 312.351 68.8621 316.087 72.6668C319.823 76.4716 324.728 77.761 327.043 75.5468Z" fill="#FDB2B2"/>
<path d="M309.493 0L307.12 43.2193H302.349L299.976 0H309.493Z" fill="#FDB2B2"/>
<path d="M247.122 21.6284L276.398 53.8394L273.035 57.1707L240.397 28.2785L247.122 21.6284Z" fill="#FDB2B2"/>
<path d="M218.519 80.4523L262.299 82.7942V87.5031L218.519 89.845V80.4523Z" fill="#FDB2B2"/>
<path d="M240.422 142.006L273.073 113.102L276.436 116.433L247.16 148.644L240.422 142.006Z" fill="#FDB2B2"/>
<path d="M362.397 148.606L333.109 116.395L336.484 113.064L369.123 141.969L362.397 148.606Z" fill="#FDB2B2"/>
<path d="M391 89.7949L347.22 87.453V82.7441L391 80.4022V89.7949Z" fill="#FDB2B2"/>
<path d="M369.097 28.2409L336.446 57.1331L333.083 53.8018L362.359 21.5909L369.097 28.2409Z" fill="#FDB2B2"/>
<path d="M243.937 487.698L243.468 499.783L242.82 516.502H231.4L230.232 504.342L228.544 486.759L243.937 487.698Z" fill="#F9BB8D"/>
<path d="M243.937 487.698L243.468 499.783L230.232 504.342L228.544 486.759L243.937 487.698Z" fill="#404B7C"/>
<path d="M221.514 562.74L277.515 562.903C277.515 562.903 279.85 540.936 261.602 538.118C261.052 538.031 260.513 537.892 259.99 537.705C250.117 534.111 245.523 512.445 245.523 512.445C245.523 512.445 233.785 509.627 226.806 513.547C226.806 513.547 222.073 536.215 221.311 555.652C221.197 558.244 221.438 560.323 221.514 562.74Z" fill="#404B7C"/>
<path d="M253.048 542.414C252.969 542.429 252.887 542.429 252.807 542.414C249.253 540.658 246.249 537.983 244.115 534.674C239.039 527.386 235.6 513.91 235.46 513.384C235.42 513.218 235.448 513.043 235.538 512.897C235.629 512.752 235.774 512.647 235.942 512.608C236.111 512.568 236.288 512.595 236.436 512.685C236.583 512.774 236.689 512.917 236.729 513.083C236.729 513.221 240.244 526.86 245.206 534.011C247.2 537.069 249.969 539.56 253.239 541.237C253.359 541.297 253.456 541.393 253.517 541.511C253.578 541.629 253.599 541.763 253.578 541.894C253.557 542.025 253.494 542.146 253.399 542.239C253.304 542.332 253.181 542.394 253.048 542.414Z" fill="#BDBBE3"/>
<path d="M220.943 563.303H277.883C277.883 563.303 280.103 540.611 261.855 537.793C261.306 537.705 260.767 537.567 260.244 537.379C254.939 539.296 247.922 544.042 245.308 555.739H220.994C220.892 558.344 220.867 560.886 220.943 563.303Z" fill="#BDBBE3"/>
<path d="M230.651 543.128C232.774 543.128 234.496 539.831 234.496 535.764C234.496 531.697 232.774 528.4 230.651 528.4C228.527 528.4 226.806 531.697 226.806 535.764C226.806 539.831 228.527 543.128 230.651 543.128Z" fill="#BDBBE3"/>
<path d="M225.74 482.588C225.74 482.588 210.944 373.006 206.286 343.776C206.286 343.776 199.942 251.939 224.052 250.261C248.163 248.583 257.896 274.895 259.584 292.842C261.272 310.788 250.701 459.82 246.044 483.202L225.74 482.588Z" fill="#F68D88"/>
<path d="M256.576 290.675C256.493 290.695 256.406 290.695 256.322 290.675C246.374 285.666 243.772 272.691 243.633 272.14C243.622 272.008 243.661 271.876 243.742 271.77C243.824 271.664 243.942 271.592 244.074 271.567C244.207 271.542 244.344 271.567 244.459 271.635C244.574 271.704 244.659 271.812 244.698 271.94C244.698 272.065 247.313 284.889 256.792 289.723C256.874 289.786 256.936 289.87 256.971 289.966C257.007 290.063 257.013 290.167 256.991 290.267C256.968 290.367 256.917 290.458 256.844 290.53C256.77 290.603 256.677 290.653 256.576 290.675Z" fill="#F9BB8D"/>
<path d="M252.202 390.627C252.223 381.635 247.444 374.336 241.529 374.322C235.614 374.309 230.802 381.588 230.782 390.579C230.761 399.571 235.539 406.871 241.454 406.884C247.37 406.897 252.181 399.619 252.202 390.627Z" fill="#FDB2B2"/>
<path d="M231.666 481.662C231.53 481.662 231.398 481.612 231.297 481.522C231.196 481.432 231.133 481.307 231.12 481.173C225.791 417.114 215.36 327.733 215.258 326.831C215.242 326.758 215.241 326.682 215.257 326.608C215.272 326.534 215.303 326.465 215.347 326.403C215.391 326.342 215.448 326.291 215.513 326.253C215.579 326.214 215.652 326.19 215.727 326.181C215.803 326.172 215.88 326.179 215.952 326.202C216.025 326.224 216.092 326.261 216.15 326.31C216.207 326.36 216.254 326.42 216.286 326.488C216.318 326.557 216.335 326.631 216.337 326.706C216.438 327.595 226.869 417.002 232.199 481.073C232.21 481.214 232.164 481.353 232.071 481.461C231.978 481.569 231.847 481.636 231.704 481.649L231.666 481.662Z" fill="#F9BB8D"/>
<path d="M219.395 481.336C219.395 481.336 238.011 475.487 252.173 481.962L250.054 498.456L220.448 498.669L219.395 481.336Z" fill="#FDB2B2"/>
<path d="M216.921 311.489C216.792 311.493 216.666 311.452 216.566 311.373C216.465 311.295 216.396 311.183 216.37 311.059C216.344 310.935 216.364 310.806 216.425 310.694C216.486 310.583 216.585 310.496 216.705 310.45C220.639 308.834 225.029 306.593 225.27 305.779C225.613 304.601 226.387 283.687 226.831 269.911C226.829 269.839 226.843 269.768 226.87 269.701C226.898 269.635 226.94 269.575 226.992 269.525C227.045 269.476 227.107 269.438 227.176 269.413C227.244 269.389 227.317 269.379 227.39 269.385C227.461 269.386 227.532 269.402 227.598 269.431C227.663 269.459 227.722 269.5 227.772 269.551C227.821 269.602 227.86 269.663 227.886 269.729C227.912 269.795 227.924 269.865 227.923 269.936C227.808 273.467 226.793 304.489 226.311 306.079C225.829 307.67 219.141 310.6 217.111 311.427C217.052 311.459 216.987 311.481 216.921 311.489Z" fill="#F9BB8D"/>
<path d="M179.32 267.757C179.32 267.757 172.975 274.494 172.823 275.897C172.671 277.3 144.905 443.564 141.099 489.476H159.715C159.715 489.476 218.507 324.163 219.776 317.063C221.045 309.962 222.314 268.633 221.895 256.949C221.476 245.264 191.693 246.83 179.32 267.757Z" fill="#F68D88"/>
<path d="M219.827 317.601H219.725C219.654 317.589 219.586 317.563 219.525 317.525C219.465 317.487 219.412 317.437 219.371 317.379C219.33 317.321 219.3 317.255 219.285 317.186C219.269 317.116 219.268 317.045 219.281 316.975C220.245 311.602 221.273 285.252 221.451 267.456C221.445 267.384 221.455 267.311 221.481 267.244C221.506 267.176 221.546 267.114 221.598 267.063C221.65 267.012 221.712 266.972 221.781 266.947C221.85 266.922 221.923 266.912 221.997 266.918C222.139 266.921 222.275 266.979 222.374 267.08C222.474 267.18 222.53 267.315 222.529 267.456C222.377 283.411 221.387 311.289 220.347 317.15C220.326 317.273 220.263 317.385 220.168 317.467C220.074 317.55 219.953 317.597 219.827 317.601Z" fill="#F9BB8D"/>
<path d="M173.61 293.806C173.465 293.806 173.326 293.749 173.224 293.648C173.122 293.547 173.064 293.41 173.064 293.267C173.064 293.125 173.122 292.988 173.224 292.887C173.326 292.786 173.465 292.729 173.61 292.729C174.105 292.729 185.894 291.765 188.33 276.586C188.339 276.515 188.363 276.447 188.4 276.386C188.436 276.325 188.485 276.271 188.543 276.229C188.601 276.187 188.668 276.157 188.738 276.141C188.808 276.125 188.881 276.123 188.952 276.135C189.095 276.157 189.223 276.233 189.309 276.349C189.395 276.464 189.431 276.608 189.409 276.749C186.871 292.804 173.813 293.781 173.673 293.793L173.61 293.806Z" fill="#F9BB8D"/>
<path d="M159.334 478.531H159.156C159.02 478.485 158.908 478.388 158.844 478.262C158.78 478.135 158.769 477.989 158.814 477.854L211.794 323.813C211.812 323.741 211.846 323.673 211.892 323.614C211.939 323.556 211.997 323.507 212.064 323.472C212.13 323.436 212.203 323.415 212.278 323.409C212.354 323.403 212.429 323.413 212.501 323.437C212.572 323.461 212.637 323.5 212.693 323.551C212.748 323.601 212.792 323.662 212.823 323.731C212.853 323.799 212.868 323.873 212.868 323.947C212.868 324.022 212.852 324.095 212.822 324.164L159.841 478.205C159.799 478.303 159.728 478.386 159.638 478.444C159.547 478.502 159.442 478.532 159.334 478.531Z" fill="#F9BB8D"/>
<path d="M178.693 392.358C180.184 383.487 176.663 375.522 170.827 374.566C164.992 373.611 159.053 380.027 157.562 388.898C156.07 397.768 159.592 405.733 165.427 406.689C171.263 407.644 177.202 401.228 178.693 392.358Z" fill="#FDB2B2"/>
<path d="M157.748 486.759L153.788 504.054L150.933 516.502H139.512L141.39 497.429L142.355 487.698L157.748 486.759Z" fill="#F9BB8D"/>
<path d="M142.355 487.698L157.748 486.759L153.788 504.054L141.39 497.429L142.355 487.698Z" fill="#404B7C"/>
<path d="M160.679 562.527L105.237 562.84C105.237 562.84 102.369 541.237 120.63 538.419C121.253 538.285 121.864 538.101 122.457 537.868C132.33 534.274 136.809 512.432 136.809 512.432C136.809 512.432 148.547 509.614 155.527 513.534C155.527 513.534 160.159 536.077 160.92 555.564C161.022 558.169 160.755 560.11 160.679 562.527Z" fill="#404B7C"/>
<path d="M129.272 542.414C129.103 542.446 128.929 542.41 128.788 542.315C128.646 542.22 128.548 542.073 128.516 541.907C128.485 541.741 128.521 541.569 128.617 541.429C128.713 541.289 128.862 541.193 129.03 541.162C132.341 539.48 135.142 536.966 137.152 533.873C142.101 526.772 145.591 513.083 145.629 512.946C145.669 512.78 145.775 512.636 145.922 512.547C146.07 512.458 146.247 512.43 146.416 512.47C146.584 512.51 146.729 512.614 146.82 512.759C146.91 512.905 146.938 513.08 146.898 513.246C146.758 513.822 143.319 527.298 138.243 534.537C136.11 537.846 133.105 540.521 129.551 542.276C129.471 542.344 129.375 542.392 129.272 542.414Z" fill="#BDBBE3"/>
<path d="M161.39 563.303H104.45C104.45 563.303 102.229 540.611 120.478 537.793C121.027 537.705 121.566 537.567 122.089 537.379C127.393 539.296 134.411 544.042 137.025 555.739H161.339C161.44 558.344 161.466 560.886 161.39 563.303Z" fill="#BDBBE3"/>
<path d="M151.682 543.128C153.805 543.128 155.527 539.831 155.527 535.764C155.527 531.697 153.805 528.4 151.682 528.4C149.558 528.4 147.837 531.697 147.837 535.764C147.837 539.831 149.558 543.128 151.682 543.128Z" fill="#BDBBE3"/>
<path d="M136.073 479.658L133.954 497.617L162.088 499.495L166.529 482.801C166.529 482.801 150.667 475.901 136.073 479.658Z" fill="#FDB2B2"/>
<path d="M255.46 160.366C255.46 160.366 281.689 191.074 292.844 223.711C293.799 226.518 293.645 229.577 292.412 232.277C288.605 240.555 281.499 257.788 277.185 260.293C272.87 262.797 256.246 257.575 256.564 250.061C256.881 242.547 262.464 224.074 262.464 224.074C262.464 224.074 247.554 207.167 236.45 191.826C225.346 176.484 237.376 147.679 255.46 160.366Z" fill="#BDBBE3"/>
<path d="M281.791 225.639C281.68 225.642 281.571 225.616 281.474 225.564C271.258 219.879 264.457 224.437 264.381 224.487C264.312 224.539 264.234 224.577 264.151 224.599C264.068 224.62 263.981 224.624 263.896 224.611C263.811 224.598 263.729 224.569 263.656 224.524C263.583 224.479 263.52 224.42 263.471 224.35C263.422 224.28 263.387 224.201 263.37 224.118C263.353 224.035 263.353 223.949 263.37 223.866C263.388 223.782 263.422 223.704 263.472 223.634C263.521 223.564 263.584 223.505 263.657 223.46C263.962 223.247 271.195 218.451 282.096 224.475C282.214 224.544 282.306 224.649 282.359 224.774C282.411 224.9 282.421 225.039 282.387 225.17C282.352 225.301 282.276 225.418 282.168 225.503C282.061 225.588 281.928 225.635 281.791 225.639Z" fill="#404B7C"/>
<path d="M258.239 250.374L255.257 258.827C256.385 261.849 258.66 264.32 261.602 265.715C264.484 267.207 267.773 267.755 270.992 267.281L276.728 257.262C276.728 257.262 270.396 246.203 258.239 250.374Z" fill="#404B7C"/>
<path d="M268.276 265.189C264.977 271.589 256.855 285.127 254.317 288.759C251.106 286.322 248.555 283.138 246.894 279.491C251.208 271.714 256.563 259.328 256.563 259.328C265.205 257.049 268.276 265.189 268.276 265.189Z" fill="#F9BB8D"/>
<path d="M211.68 141.58L200.183 141.255L202.467 118.336L202.556 117.385L211.515 118.712L211.578 126.765L211.68 141.58Z" fill="#F9BB8D"/>
<path d="M211.578 126.702C205.766 124.936 203.406 121.242 202.467 118.274L202.556 117.322L211.515 118.65L211.578 126.702Z" fill="#404B7C"/>
<path d="M175.831 254.294C176.313 254.294 175.996 269.635 176.465 269.635C176.935 269.635 187.099 273.555 197.886 273.079C208.672 272.603 242.3 271.677 251.5 265.415L251.983 249.76C227.859 257.625 202.48 258.577 175.831 254.294Z" fill="#404B7C"/>
<path d="M214.192 256.811C214.192 256.811 214.509 272.328 214.497 272.954C214.484 273.58 232.998 272.403 233.722 272.115C234.445 271.827 233.988 255.521 233.988 255.521C233.988 255.521 226.907 256.398 214.192 256.811Z" fill="#FDB2B2"/>
<path d="M185.513 254.757C185.513 254.757 185.272 272.766 185.513 273.154C185.754 273.543 190.119 273.943 190.119 273.943C190.119 273.943 190.043 254.92 189.802 254.845C189.561 254.77 185.906 254.206 185.513 254.757Z" fill="#FDB2B2"/>
<path d="M198.52 255.621C198.52 255.621 198.279 273.63 198.52 274.019C198.761 274.407 202.809 274.019 202.809 274.019C202.809 274.019 203.051 255.784 202.809 255.709C202.568 255.634 198.914 255.07 198.52 255.621Z" fill="#FDB2B2"/>
<path d="M245.815 250.987C245.815 250.987 245.993 268.959 245.815 269.385C245.638 269.811 242.579 269.936 242.579 269.936C242.579 269.936 242.402 251.726 242.579 251.614C242.757 251.501 245.511 250.499 245.815 250.987Z" fill="#FDB2B2"/>
<path d="M190.982 133.277C196.283 131.142 202.011 130.244 207.72 130.652C213.43 131.061 218.967 132.765 223.9 135.632L222.948 145.813L193.051 147.767L190.982 133.277Z" fill="#404B7C"/>
<path d="M257.046 248.182L252.452 251.463C252.452 251.463 220.563 262.584 175.678 256.636L165.996 247.869C166.158 238.285 165.688 228.701 164.588 219.177C164.104 215.065 163.303 210.995 162.189 207.004C162.189 206.917 162.189 206.816 162.1 206.704C160.4 200.73 159.562 191.512 159.055 182.508C158.699 175.307 158.611 168.256 158.611 163.109C158.611 158.312 158.699 155.194 158.699 155.194C159.182 155.194 183.762 141.58 206.769 141.255C229.775 140.929 255.46 160.366 255.46 160.366C255.46 160.366 261.17 209.359 257.046 248.182Z" fill="#BDBBE3"/>
<path d="M258.543 216.397C258.375 216.397 258.214 216.331 258.095 216.214C257.976 216.096 257.909 215.937 257.909 215.771C257.909 193.078 256.031 172.126 255.231 164.186C255.222 164.103 255.23 164.02 255.254 163.941C255.278 163.862 255.318 163.788 255.371 163.724C255.424 163.66 255.49 163.607 255.564 163.568C255.638 163.529 255.719 163.505 255.802 163.497C255.97 163.483 256.137 163.534 256.267 163.639C256.397 163.744 256.481 163.895 256.5 164.06C257.3 172.026 259.165 193.015 259.19 215.771C259.19 215.937 259.124 216.096 259.005 216.214C258.886 216.331 258.724 216.397 258.556 216.397H258.543Z" fill="#404B7C"/>
<path d="M170.856 186.603C170.209 195.62 168.585 210.799 164.588 219.165C164.104 215.053 163.303 210.983 162.189 206.992C162.189 206.904 162.189 206.804 162.1 206.691C160.4 200.717 159.562 191.5 159.055 182.495C158.699 175.294 158.611 168.243 158.611 163.096C161.706 165.414 164.397 168.214 166.58 171.387C169.739 175.821 171.249 181.196 170.856 186.603Z" fill="#404B7C"/>
<path d="M228.811 254.131C228.727 254.128 228.646 254.108 228.57 254.074C228.494 254.039 228.426 253.99 228.369 253.93C228.313 253.869 228.269 253.799 228.24 253.721C228.211 253.644 228.198 253.562 228.202 253.48C231.019 192.652 208.812 144.824 208.596 144.348C208.561 144.273 208.541 144.192 208.538 144.11C208.535 144.028 208.548 143.946 208.577 143.868C208.605 143.791 208.649 143.72 208.706 143.659C208.763 143.599 208.831 143.55 208.907 143.515C208.983 143.481 209.065 143.461 209.148 143.458C209.231 143.455 209.315 143.468 209.393 143.496C209.471 143.525 209.543 143.568 209.605 143.624C209.666 143.68 209.716 143.747 209.751 143.822C209.979 144.298 232.313 192.414 229.483 253.542C229.479 253.625 229.457 253.705 229.421 253.779C229.384 253.853 229.333 253.92 229.271 253.974C229.208 254.029 229.136 254.071 229.057 254.098C228.978 254.125 228.894 254.136 228.811 254.131Z" fill="#404B7C"/>
<path d="M233.57 254.131C233.486 254.128 233.404 254.108 233.329 254.074C233.253 254.039 233.185 253.99 233.128 253.93C233.072 253.869 233.028 253.799 232.999 253.721C232.97 253.644 232.957 253.562 232.96 253.48C235.778 192.677 214.04 145.438 213.824 144.974C213.789 144.899 213.769 144.819 213.766 144.736C213.763 144.654 213.776 144.572 213.805 144.494C213.834 144.417 213.878 144.346 213.934 144.286C213.991 144.225 214.059 144.176 214.135 144.142C214.211 144.107 214.293 144.088 214.376 144.084C214.46 144.081 214.543 144.094 214.621 144.122C214.7 144.151 214.772 144.194 214.833 144.25C214.894 144.306 214.944 144.374 214.979 144.448C215.195 144.924 237.059 192.414 234.229 253.542C234.22 253.706 234.145 253.86 234.022 253.97C233.898 254.08 233.736 254.138 233.57 254.131Z" fill="#404B7C"/>
<path d="M175.831 246.404C175.747 246.402 175.665 246.384 175.589 246.351C175.512 246.318 175.443 246.271 175.386 246.212C175.328 246.152 175.283 246.082 175.252 246.006C175.222 245.929 175.207 245.847 175.209 245.765C175.526 231.789 170.399 199.027 170.349 198.701C170.323 198.535 170.366 198.366 170.467 198.231C170.568 198.096 170.72 198.006 170.888 197.981C171.056 197.956 171.228 197.998 171.365 198.098C171.501 198.198 171.592 198.347 171.618 198.513C171.618 198.839 176.808 231.713 176.491 245.79C176.489 245.873 176.47 245.956 176.436 246.032C176.402 246.108 176.353 246.177 176.291 246.234C176.23 246.291 176.157 246.335 176.078 246.365C175.999 246.394 175.915 246.407 175.831 246.404Z" fill="#404B7C"/>
<path d="M158.699 155.194L122.216 191.675L107.305 235.658C107.305 235.658 136.657 231.751 163.94 202.947C168.857 195.218 171.392 186.247 171.237 177.123C171.246 172.71 170.096 168.37 167.899 164.526C165.701 160.683 162.532 157.467 158.699 155.194Z" fill="#BDBBE3"/>
<path d="M163.928 203.573C163.811 203.573 163.696 203.542 163.596 203.483C163.496 203.423 163.415 203.337 163.361 203.235C163.307 203.133 163.283 203.018 163.291 202.903C163.299 202.788 163.34 202.677 163.407 202.583C168.225 194.951 170.718 186.114 170.59 177.123C170.59 173.406 169.752 169.736 168.136 166.378C166.521 163.021 164.169 160.06 161.25 157.711C161.139 157.601 161.073 157.454 161.066 157.3C161.058 157.145 161.109 156.992 161.208 156.872C161.308 156.752 161.449 156.673 161.604 156.65C161.76 156.626 161.918 156.661 162.05 156.747C165.114 159.212 167.584 162.32 169.28 165.844C170.977 169.368 171.858 173.221 171.859 177.123C171.974 186.376 169.389 195.467 164.41 203.31C164.355 203.387 164.283 203.45 164.199 203.496C164.116 203.541 164.023 203.567 163.928 203.573Z" fill="#404B7C"/>
<path d="M114.919 155.82C114.919 155.82 106.988 163.021 103.664 168.819C100.339 174.618 94.3111 210.774 96.0496 220.329C97.7881 229.885 107.306 235.658 107.306 235.658C107.306 235.658 125.071 229.084 128.244 212.966C131.416 196.848 132.533 177.273 132.051 172.577C131.569 167.88 127.927 160.842 127.927 160.842L114.919 155.82Z" fill="#BDBBE3"/>
<path d="M117.089 230.649C116.958 230.648 116.831 230.607 116.724 230.532C116.617 230.457 116.537 230.351 116.494 230.229C116.451 230.107 116.447 229.974 116.483 229.85C116.519 229.726 116.594 229.615 116.696 229.534C122.698 224.85 126.366 219.252 127.622 212.903C129.209 204.453 130.328 195.924 130.972 187.355C130.977 187.272 130.998 187.19 131.036 187.116C131.073 187.042 131.126 186.976 131.19 186.922C131.254 186.868 131.328 186.827 131.409 186.803C131.489 186.778 131.574 186.77 131.657 186.778C131.741 186.785 131.822 186.807 131.897 186.845C131.971 186.882 132.037 186.934 132.092 186.997C132.146 187.06 132.187 187.132 132.213 187.211C132.238 187.29 132.248 187.372 132.241 187.455C131.594 196.062 130.472 204.629 128.878 213.116C127.609 219.766 123.802 225.639 117.457 230.499C117.354 230.586 117.225 230.639 117.089 230.649Z" fill="#404B7C"/>
<path d="M116.087 149.032L112.28 159.364C114.483 161.498 117.123 163.141 120.024 164.185C122.924 165.228 126.016 165.647 129.094 165.413L132.685 155.181C132.685 155.181 127.825 146.327 116.087 149.032Z" fill="#404B7C"/>
<path d="M140.693 126.94L134.271 141.806L129.83 155.269C121.658 155.657 118.244 150.422 118.244 150.422L123.955 141.255L123.802 126.389C123.802 126.389 126.975 117.698 127.685 117.46C129.797 117.287 131.919 117.287 134.03 117.46L136.226 99.5759C136.257 99.3164 136.34 99.0656 136.47 98.838C136.6 98.6104 136.775 98.4105 136.984 98.2498C137.193 98.0891 137.432 97.9709 137.687 97.9018C137.942 97.8328 138.209 97.8144 138.472 97.8477C138.952 97.905 139.395 98.1318 139.719 98.4863C140.044 98.8407 140.227 99.2989 140.236 99.7763L140.693 126.94Z" fill="#F9BB8D"/>
<path d="M134.106 130.885C133.916 130.9 133.725 130.9 133.535 130.885C131.112 130.497 130.883 126.727 130.858 126.301C130.858 126.135 130.925 125.976 131.044 125.859C131.163 125.741 131.324 125.675 131.492 125.675C131.661 125.675 131.822 125.741 131.941 125.859C132.06 125.976 132.127 126.135 132.127 126.301C132.127 127.128 132.533 129.508 133.738 129.708C134.62 129.739 135.489 129.488 136.214 128.991C136.939 128.494 137.482 127.779 137.761 126.953C137.958 124.287 137.727 121.607 137.076 119.013C136.86 118.462 135.096 118.098 133.954 118.073C133.871 118.07 133.789 118.051 133.713 118.016C133.637 117.982 133.569 117.933 133.513 117.872C133.456 117.812 133.412 117.741 133.383 117.664C133.355 117.587 133.342 117.504 133.345 117.422C133.366 117.261 133.443 117.113 133.564 117.003C133.685 116.893 133.841 116.829 134.005 116.821C134.614 116.821 137.685 117.009 138.281 118.574C139.009 121.399 139.258 124.323 139.017 127.228C138.677 128.261 138.024 129.166 137.145 129.82C136.267 130.474 135.206 130.846 134.106 130.885Z" fill="#404B7C"/>
<path d="M132.152 137.661H132.051C131.968 137.647 131.889 137.617 131.818 137.573C131.747 137.529 131.685 137.472 131.637 137.404C131.589 137.337 131.554 137.26 131.536 137.18C131.518 137.099 131.516 137.016 131.53 136.934C132.069 134.163 131.89 131.303 131.01 128.618C130.948 128.464 130.95 128.291 131.017 128.139C131.084 127.986 131.209 127.866 131.365 127.804C131.522 127.743 131.697 127.745 131.851 127.811C132.006 127.877 132.128 128.001 132.19 128.155C133.163 131.053 133.364 134.15 132.774 137.147C132.747 137.291 132.671 137.421 132.557 137.515C132.443 137.608 132.3 137.66 132.152 137.661Z" fill="#404B7C"/>
<path d="M131.416 129.019C130.613 129.024 129.832 128.764 129.196 128.28C129.068 128.172 128.989 128.019 128.975 127.853C128.962 127.687 129.016 127.524 129.126 127.397C129.235 127.271 129.391 127.193 129.559 127.18C129.726 127.167 129.893 127.22 130.02 127.328C130.272 127.51 130.557 127.64 130.86 127.711C131.163 127.782 131.477 127.792 131.784 127.742C131.953 127.717 132.124 127.759 132.261 127.859C132.398 127.959 132.489 128.108 132.514 128.274C132.539 128.44 132.497 128.609 132.395 128.744C132.294 128.879 132.143 128.969 131.975 128.994C131.789 129.016 131.603 129.024 131.416 129.019Z" fill="#404B7C"/>
<path d="M135.008 127.441C134.841 127.441 134.682 127.377 134.563 127.262C134.445 127.147 134.376 126.991 134.373 126.827C134.442 125.505 134.23 124.182 133.751 122.945C131.921 122.884 130.09 122.997 128.282 123.283C128.199 123.294 128.114 123.288 128.033 123.267C127.952 123.245 127.876 123.208 127.809 123.157C127.675 123.055 127.587 122.905 127.565 122.739C127.543 122.572 127.589 122.405 127.692 122.272C127.796 122.139 127.949 122.053 128.117 122.031C129.31 121.881 133.269 121.417 134.259 121.793C135.249 122.169 135.604 124.736 135.642 126.802C135.644 126.885 135.629 126.966 135.599 127.043C135.568 127.12 135.523 127.19 135.465 127.249C135.407 127.308 135.338 127.356 135.262 127.389C135.186 127.422 135.104 127.44 135.02 127.441H135.008Z" fill="#404B7C"/>
<path d="M136.809 124.486C136.645 124.486 136.488 124.423 136.369 124.311C136.251 124.199 136.181 124.046 136.175 123.884C136.111 122.344 135.705 120.453 135.236 120.215C133.481 119.903 131.687 119.861 129.919 120.09C129.835 120.097 129.751 120.088 129.672 120.064C129.592 120.039 129.518 119.999 129.453 119.946C129.324 119.839 129.242 119.686 129.227 119.52C129.212 119.354 129.264 119.189 129.373 119.061C129.481 118.933 129.636 118.852 129.805 118.837C130.591 118.775 134.614 118.462 135.832 119.1C137.05 119.739 137.393 122.857 137.431 123.822C137.435 123.904 137.422 123.986 137.393 124.063C137.364 124.141 137.32 124.212 137.263 124.272C137.207 124.333 137.139 124.381 137.063 124.416C136.987 124.45 136.905 124.47 136.822 124.473L136.809 124.486Z" fill="#404B7C"/>
<path d="M135.464 126.464C135.566 127.181 135.843 127.863 136.272 128.45C136.701 129.037 137.269 129.512 137.926 129.833C135.65 131.448 134.023 133.802 133.332 136.483C132.063 141.105 133.18 141.969 133.18 141.969L139.423 139.852C140.084 139.629 140.692 139.277 141.211 138.817C141.73 138.356 142.149 137.797 142.444 137.172C144.106 133.615 147.443 126.427 147.621 125.375C147.862 123.972 146.111 123.108 144.131 123.734C142.152 124.36 135.617 125.763 135.464 126.464Z" fill="#F9BB8D"/>
<path d="M139.969 130.672C139.627 130.694 139.284 130.694 138.941 130.672C137.866 130.626 136.847 130.184 136.086 129.433C135.325 128.682 134.876 127.676 134.83 126.615C134.808 126.455 134.849 126.294 134.944 126.164C135.084 125.976 135.985 125.024 140.02 124.235C140.188 124.204 140.362 124.239 140.504 124.334C140.645 124.429 140.743 124.576 140.775 124.742C140.807 124.908 140.771 125.08 140.674 125.22C140.578 125.36 140.429 125.456 140.261 125.487C138.813 125.685 137.413 126.134 136.124 126.815C136.189 127.526 136.518 128.189 137.047 128.676C137.576 129.164 138.268 129.442 138.992 129.457C140.345 129.589 141.711 129.44 143.002 129.019C143.162 128.966 143.337 128.978 143.488 129.052C143.639 129.126 143.754 129.256 143.808 129.414C143.862 129.571 143.85 129.744 143.775 129.893C143.7 130.042 143.568 130.156 143.408 130.209C142.294 130.543 141.133 130.699 139.969 130.672Z" fill="#404B7C"/>
<path d="M194.015 109.895C194.015 109.895 199.827 117.51 202.898 119.702C205.969 121.893 216.02 124.198 218.976 122.319C221.933 120.44 220.144 97.4845 220.144 97.4845C220.144 97.4845 212.314 86.3133 200.792 91.2226C189.269 96.1319 194.015 109.895 194.015 109.895Z" fill="#F9BB8D"/>
<path d="M227.44 99.9892C216.222 102.907 202.264 96.4325 202.264 96.4325C202.141 99.4081 201.497 102.34 200.36 105.099L202.632 110.108L196.769 113.966C196.769 113.966 176.998 108.443 176.884 105.938C176.77 103.433 180.691 86.1004 182.709 85.3741C185.881 84.7346 189.095 84.3161 192.327 84.1217C194.019 79.146 196.186 74.3404 198.799 69.7695C203.406 71.7984 201.172 78.0226 201.033 78.4109L216.679 60.8026C229.052 62.8815 226.615 74.1528 226.615 74.1528C229.845 71.7038 233.753 70.284 237.821 70.0826C242.452 78.2731 238.645 97.0587 227.44 99.9892Z" fill="#404B7C"/>
<path d="M199.65 113.039C199.048 111.474 197.946 110.145 196.51 109.255C195.074 108.364 193.383 107.96 191.693 108.105C190.585 108.211 189.534 108.636 188.668 109.326C187.802 110.016 187.159 110.941 186.82 111.987C183.965 119.088 197.391 122.419 200.995 116.37L199.65 113.039Z" fill="#F9BB8D"/>
<path d="M198.99 116.132C198.888 116.133 198.788 116.109 198.697 116.063C198.607 116.018 198.528 115.951 198.469 115.869C195.119 111.148 189.726 113.477 189.498 113.577C189.347 113.634 189.18 113.631 189.03 113.57C188.881 113.509 188.761 113.394 188.695 113.249C188.628 113.104 188.621 112.939 188.673 112.788C188.726 112.637 188.835 112.512 188.977 112.438C189.041 112.438 195.576 109.582 199.51 115.155C199.574 115.249 199.612 115.358 199.618 115.472C199.624 115.585 199.599 115.697 199.546 115.797C199.493 115.898 199.413 115.982 199.315 116.041C199.217 116.1 199.105 116.131 198.99 116.132Z" fill="#404B7C"/>
<path d="M193.432 117.422C193.28 117.421 193.134 117.366 193.02 117.267C192.905 117.168 192.831 117.032 192.81 116.884C192.597 115.314 192.727 113.717 193.191 112.2C193.256 112.057 193.373 111.944 193.519 111.882C193.665 111.82 193.829 111.815 193.979 111.867C194.129 111.919 194.253 112.024 194.328 112.162C194.403 112.301 194.423 112.461 194.383 112.613C193.988 113.937 193.875 115.327 194.053 116.696C194.066 116.777 194.062 116.86 194.042 116.94C194.022 117.02 193.987 117.096 193.937 117.162C193.888 117.228 193.825 117.284 193.754 117.327C193.682 117.369 193.603 117.397 193.52 117.41H193.432V117.422Z" fill="#404B7C"/>
<path d="M204.396 105.011C204.396 105.011 205.068 101.254 207.961 101.768C207.961 101.768 207.784 100.089 208.431 99.889C209.078 99.6886 209.789 102.607 209.789 102.607C207.846 103.044 206.012 103.862 204.396 105.011Z" fill="#404B7C"/>
<path d="M218.405 102.093C218.405 102.093 217.441 98.7994 215.956 100.29C215.956 100.29 215.778 98.6366 215.398 98.6867C214.535 98.812 215.106 101.705 215.106 101.705C216.217 101.44 217.388 101.578 218.405 102.093Z" fill="#404B7C"/>
<path d="M217.022 115.669C216.374 116.538 215.615 117.321 214.763 117.998C213.355 119.075 211.591 119.639 210.474 117.284C210.071 116.401 209.801 115.465 209.675 114.504C209.675 114.504 211.87 115.995 217.022 115.669Z" fill="#404B7C"/>
<path d="M214.776 117.936C213.367 119.013 211.604 119.576 210.487 117.222C211.21 117.012 211.972 116.968 212.715 117.092C213.458 117.215 214.163 117.504 214.776 117.936Z" fill="white"/>
<path d="M209.195 109.576C209.99 109.444 210.501 108.552 210.336 107.584C210.172 106.615 209.394 105.936 208.599 106.068C207.804 106.199 207.293 107.091 207.458 108.06C207.622 109.029 208.4 109.707 209.195 109.576Z" fill="#404B7C"/>
<path d="M209.176 107.527C209.383 107.493 209.523 107.299 209.488 107.095C209.453 106.89 209.257 106.752 209.05 106.786C208.842 106.821 208.703 107.014 208.737 107.219C208.772 107.424 208.968 107.562 209.176 107.527Z" fill="white"/>
<path d="M217.64 108.19C218.435 108.059 218.945 107.167 218.781 106.198C218.616 105.229 217.838 104.551 217.044 104.682C216.249 104.814 215.738 105.706 215.902 106.675C216.067 107.643 216.845 108.322 217.64 108.19Z" fill="#404B7C"/>
<path d="M217.631 106.13C217.838 106.095 217.978 105.902 217.944 105.697C217.909 105.492 217.712 105.354 217.505 105.389C217.298 105.423 217.158 105.617 217.193 105.821C217.227 106.026 217.424 106.164 217.631 106.13Z" fill="white"/>
<path d="M214.205 113.114H213.9C213.817 113.108 213.735 113.085 213.661 113.048C213.586 113.01 213.52 112.959 213.466 112.896C213.412 112.833 213.37 112.76 213.345 112.682C213.319 112.603 213.31 112.52 213.316 112.438C213.333 112.273 213.413 112.12 213.541 112.013C213.669 111.905 213.834 111.851 214.002 111.862C214.002 111.862 215.461 111.949 215.664 111.048C215.688 110.983 215.688 110.912 215.664 110.847C215.215 110.647 214.712 110.594 214.23 110.697C214.065 110.722 213.897 110.683 213.762 110.587C213.626 110.491 213.535 110.346 213.507 110.184L212.898 106.765C212.883 106.683 212.885 106.6 212.903 106.519C212.922 106.438 212.956 106.362 213.004 106.294C213.053 106.227 213.114 106.169 213.185 106.125C213.256 106.081 213.335 106.052 213.418 106.038C213.584 106.013 213.754 106.052 213.891 106.148C214.029 106.244 214.123 106.388 214.154 106.552L214.662 109.407C215.006 109.372 215.353 109.405 215.685 109.504C216.016 109.603 216.324 109.766 216.59 109.983C216.756 110.158 216.873 110.372 216.93 110.605C216.988 110.837 216.985 111.08 216.92 111.311C216.743 111.871 216.378 112.356 215.884 112.684C215.39 113.012 214.798 113.163 214.205 113.114Z" fill="#404B7C"/>
</svg>
